<svg width="175" height="50" viewBox="0 0 175 50" fill="none" xmlns="http://www.w3.org/2000/svg">
<g clip-path="url(#clip0_1382_1690)">
<path opacity="0.9" fill-rule="evenodd" clip-rule="evenodd" d="M63.1111 0.514978L63.1115 0.51497C63.332 0.507425 63.5489 0.5 63.7729 0.5C72.3253 0.5 79.2806 7.52145 79.277 16.1621V33.2745C79.277 41.9074 72.3253 48.9288 63.7729 48.9288C59.8606 48.9312 56.0934 47.4337 53.2332 44.739L53.2381 44.7324C56.0979 47.4239 59.863 48.9195 63.7729 48.9171V46.6843H63.777C71.0976 46.6843 77.0536 40.6758 77.0536 33.2822V16.1659C77.0536 8.77611 71.1011 2.76375 63.7769 2.76375C63.5756 2.76375 63.3778 2.77142 63.1804 2.77909L63.18 2.7791C63.1537 2.78101 63.128 2.78197 63.1022 2.78293L63.0937 2.78325L63.0782 2.78387C63.0688 2.78424 63.0595 2.78466 63.0506 2.78515C63.0417 2.78561 63.0333 2.78614 63.0244 2.78677C62.9417 2.79418 62.8581 2.80069 62.7755 2.80718C62.6861 2.81412 62.5977 2.82104 62.5114 2.82898C62.5021 2.83031 62.4923 2.83117 62.4825 2.8319L62.4754 2.83242L62.4696 2.83281L62.4692 2.83282L62.4576 2.83362L62.4527 2.834L62.4461 2.83455C62.4399 2.83511 62.4336 2.83578 62.4274 2.83665C62.2509 2.85379 62.0807 2.87705 61.9051 2.90097L61.8424 2.90955C61.8104 2.91543 61.7806 2.91905 61.7495 2.92388C61.7402 2.92535 61.7304 2.92694 61.7206 2.92873C61.5895 2.94598 61.465 2.9697 61.3406 2.99342L61.3401 2.99347L61.3139 2.9985C61.2992 3.00122 61.285 3.00393 61.2708 3.00663C61.2521 3.01011 61.2339 3.01357 61.2152 3.01698C61.1846 3.02019 61.1541 3.02531 61.1241 3.03233C60.9223 3.07454 60.7285 3.11674 60.5347 3.16662L60.4893 3.17813C60.4471 3.18964 60.4049 3.20094 60.3631 3.21223L60.3609 3.2128C60.2213 3.25025 60.0822 3.28756 59.9457 3.3316C59.923 3.33928 59.8999 3.34311 59.8773 3.35079C59.4821 3.47357 59.094 3.61553 58.718 3.77284C58.7099 3.77364 58.7022 3.77626 58.6953 3.78051C57.1485 4.42916 55.7375 5.36784 54.5369 6.54688V6.54306C53.9065 7.15829 53.3387 7.83567 52.842 8.56508C53.2568 9.31621 53.6101 10.1003 53.8986 10.9094C55.7304 7.34878 59.4212 4.90472 63.6627 4.90472H63.8987C69.961 4.90472 74.8946 9.87731 74.8946 15.9971V33.4394C74.8946 39.5592 69.961 44.5395 63.8987 44.5395H63.6627C59.4181 44.5395 55.7318 42.1002 53.8995 38.533C53.9017 38.5272 53.9035 38.5214 53.9057 38.5156C55.7375 42.0839 59.4247 44.5241 63.6703 44.5241H63.7881L63.7729 42.2796H63.6551C58.8202 42.2796 54.8903 38.3084 54.8903 33.4318V19.5807H52.5717V33.2706C52.5726 35.0475 52.2196 36.8063 51.5338 38.4427V38.4424C52.2173 36.8069 52.569 35.0496 52.5682 33.2745V16.1582C52.5682 8.76843 46.6122 2.75608 39.2916 2.75608C31.9711 2.75608 26.0151 8.76462 26.0151 16.1582V33.2745C26.0151 40.6604 31.9711 46.6767 39.2916 46.6767H39.2951V48.9171C43.2068 48.9195 46.9734 47.4225 49.8335 44.7289L49.8353 44.7313C46.9751 47.426 43.2078 48.9236 39.2955 48.9212C33.5105 48.9212 28.4591 45.702 25.7947 40.9444V49.0787H23.5712V1.11006H25.7947V8.47686C28.4591 3.71912 33.5143 0.5 39.2992 0.5C44.2708 0.5 48.7027 2.87886 51.5342 6.55455C53.0774 4.5527 55.0761 2.95618 57.3609 1.90045L57.384 1.88894C57.8031 1.69292 58.2318 1.51875 58.6686 1.36713L58.7371 1.34411C59.1625 1.19447 59.5959 1.06402 60.0368 0.956588C60.0448 0.954969 60.0533 0.953178 60.0613 0.951289C60.0764 0.947834 60.0915 0.944049 60.1066 0.940376L60.1186 0.937396L60.1328 0.933948C60.1391 0.932455 60.1448 0.931037 60.1511 0.929727C60.5805 0.826134 61.0174 0.741723 61.4624 0.672659C61.4868 0.668822 61.5108 0.665944 61.5344 0.663065C61.5579 0.66019 61.582 0.657312 61.6064 0.653475C62.0474 0.592085 62.4883 0.546041 62.9368 0.523022C62.9626 0.521039 62.9902 0.520081 63.0186 0.519089L63.0195 0.519065C63.0328 0.518588 63.0471 0.518103 63.0608 0.517494C63.0742 0.516922 63.0871 0.516238 63.1004 0.51535L63.1111 0.514978ZM49.8335 44.7289L49.8349 44.7275C49.4699 44.244 48.9192 43.4767 48.5502 42.8666C46.0766 45.3076 42.7544 46.6738 39.2951 46.6726V46.6767C42.7531 46.6763 46.0736 45.3102 48.5467 42.8705C48.9147 43.4795 49.4686 44.2453 49.8335 44.7289ZM50.4928 19.5769H50.4963V33.2706C50.4963 35.0472 50.8491 36.8058 51.5338 38.4424C51.5329 38.4451 51.5316 38.4477 51.5307 38.4504C50.8452 36.8126 50.4923 35.0525 50.4928 33.2745V19.5769ZM48.1782 19.5769H50.4928V16.1582C50.4928 16.0776 50.4968 16.0009 50.5003 15.9242C50.5043 15.222 50.4056 13.035 49.1739 10.8979C49.1737 10.8999 49.1731 10.9019 49.1721 10.9037L49.1712 10.905C49.1707 10.9064 49.1704 10.9079 49.1703 10.9094C47.3381 7.34497 43.6513 4.90472 39.4056 4.90472H39.1738C33.1114 4.90472 28.1817 9.88498 28.1817 15.9971V33.4356C28.1817 39.5554 33.1152 44.5357 39.1738 44.5357H39.4056C43.6513 44.5357 47.3381 42.0916 49.1703 38.5271C49.4997 39.4564 49.9158 40.3518 50.4132 41.2015C50.7515 41.8077 51.1315 42.41 51.5307 42.8705L51.5342 42.8666L51.5382 42.8705C51.937 42.4139 52.321 41.8115 52.6557 41.2015C52.9543 40.6925 53.2235 40.1666 53.4621 39.6263C53.6203 39.2691 53.7661 38.9047 53.8995 38.533C53.899 38.5324 53.8987 38.5317 53.8986 38.531C53.7657 38.903 53.6202 39.2681 53.4621 39.6263C53.2248 40.1609 52.958 40.6816 52.6629 41.1861C52.3281 41.7923 51.9445 42.3947 51.5454 42.8551C51.5418 42.8551 51.5414 42.8513 51.5414 42.8513C51.5378 42.8513 51.5378 42.8551 51.5378 42.8551C51.1386 42.3947 50.7586 41.7961 50.4203 41.1861C49.9231 40.3364 49.507 39.4409 49.1774 38.5118C47.3452 42.0762 43.6585 44.5203 39.413 44.5203H39.2951V42.2796H39.4132C44.2442 42.2796 48.1782 38.3123 48.1782 33.4318V19.5769ZM48.1782 19.5769H48.1777V33.428C48.1777 38.3084 44.2439 42.2757 39.413 42.2757H39.2951V42.2796H39.1814C34.3467 42.2796 30.4166 38.3084 30.4166 33.4318V15.9894C30.4166 11.1089 34.3505 7.14161 39.1814 7.14161H39.4132C44.248 7.14161 48.1782 11.1128 48.1782 15.9894V19.5769ZM63.7729 46.6843V46.6726C60.3133 46.676 56.9903 45.3095 54.5178 42.8666C54.1564 43.4682 53.6123 44.21 53.2545 44.698L53.2332 44.7275L53.2381 44.7324C53.5994 44.2448 54.1546 43.4854 54.5218 42.8781C56.9932 45.3201 60.3146 46.6866 63.7729 46.6843ZM63.6551 7.13775C58.8242 7.13775 54.8903 11.1051 54.8903 15.9856V33.4241C54.8903 38.3008 58.8207 42.2719 63.6551 42.2719H63.8907C68.7217 42.2719 72.6556 38.3046 72.6556 33.4241V15.9856C72.6556 11.1089 68.7257 7.13775 63.8907 7.13775H63.6551ZM63.7729 40.1425H63.7765V40.1463C60.7965 40.1463 58.2619 38.1746 57.3871 35.456C58.265 38.1744 60.7938 40.1425 63.7729 40.1425ZM63.7685 37.8979C62.5799 37.8941 61.4412 37.4152 60.6015 36.566C59.7618 35.7168 59.2895 34.5665 59.2878 33.3666V16.0509C59.2878 14.8491 59.7608 13.6965 60.6026 12.8467C61.4444 11.9969 62.5862 11.5195 63.7767 11.5195C64.9672 11.5195 66.109 11.9969 66.9508 12.8467C67.7927 13.6965 68.2656 14.8491 68.2656 16.0509V33.3666C68.264 34.5679 67.7906 35.7195 66.9491 36.5689C66.1077 37.4183 64.9669 37.8963 63.7769 37.8979L63.7729 37.8979L63.7765 40.1425C67.4771 40.1405 70.4891 37.0986 70.4891 33.3628V16.047C70.4891 12.3099 67.4753 9.26727 63.7729 9.26727C60.0711 9.26727 57.0568 12.3099 57.0568 16.047V33.3628C57.0576 34.0737 57.1691 34.78 57.3871 35.456C57.1701 34.7812 57.0598 34.076 57.0604 33.3666V27.2929H59.2838V33.3666C59.2855 34.5671 59.7583 35.7181 60.5989 36.5674C61.4395 37.4167 62.5792 37.8951 63.7685 37.8979ZM32.5753 16.0584C32.5753 12.3213 35.5894 9.27872 39.2915 9.27872C42.9935 9.27872 46.0076 12.3137 46.0076 16.0546V33.3703C46.0076 37.1074 42.9935 40.1501 39.2915 40.1501C35.5894 40.1501 32.5753 37.1074 32.5753 33.3703V16.0584ZM43.7802 27.2929H46.0076V33.3666C46.0076 37.1037 42.9935 40.1463 39.2914 40.1463V37.9018C40.1821 37.9002 41.0522 37.6317 41.7915 37.1304C42.5309 36.6291 43.1062 35.9175 43.4445 35.0858C43.0496 36.0571 42.3329 36.8599 41.4169 37.3571C40.5009 37.8544 39.4423 38.0153 38.4218 37.8124C37.4014 37.6094 36.4823 37.0553 35.8216 36.2445C35.1608 35.4336 34.7993 34.4164 34.7988 33.3665V16.0546C34.8004 14.8533 35.2739 13.7017 36.1153 12.8522C36.9568 12.0028 38.0976 11.5249 39.2876 11.5232C41.762 11.5232 43.7803 13.5568 43.7803 16.0546L43.7802 27.2929ZM43.7802 27.2929V33.3666L43.7803 33.3665L43.7802 27.2929ZM14.7757 49.0787V25.8387C15.5152 25.3902 16.2158 24.8793 16.87 24.3116L16.9992 24.1965V49.0787H14.7757ZM16.9992 1.11009H14.7757C14.7757 9.31331 8.71328 16.1084 0.87207 17.1827V19.4464C9.94097 18.3568 16.9992 10.5526 16.9992 1.11009ZM0.87207 28.3633V26.1111C7.22715 25.5547 12.9133 22.5773 16.9992 18.0882V21.2575C12.5607 25.3781 6.88317 27.8797 0.87207 28.3633ZM19.1733 1.10625V1.11776C19.1733 11.7689 11.1421 20.5668 0.87207 21.6603V23.9164C8.94896 23.1414 15.8057 18.0767 19.1733 11.0053V49.0787H21.3968V1.10625H19.1733Z" fill="#EE2C3C"/>
<path d="M63.6089 44.3445C59.4586 44.3211 55.8576 41.9272 54.0635 38.433L53.8764 38.0685L53.7386 38.4547C53.4119 39.3716 53.0005 40.2555 52.51 41.0947L52.5086 41.0967L52.5073 41.0987C52.213 41.6323 51.8832 42.1573 51.5418 42.5812C51.2009 42.1581 50.8733 41.6358 50.5755 41.0984L50.5746 41.0967L50.5737 41.095C50.0822 40.2551 49.6708 39.3699 49.3451 38.4515L49.2077 38.0631L49.0197 38.4291C47.2256 41.9199 43.6239 44.3177 39.473 44.3406V42.455C44.3746 42.4223 48.3556 38.3874 48.3556 33.4279V19.7563H50.3185V33.2706C50.3184 35.0713 50.676 36.8537 51.3702 38.5124L51.5338 38.9046L51.6979 38.5124C52.3926 36.8539 52.7503 35.0714 52.7496 33.2706V19.7602H54.7125V33.4317C54.7125 38.3877 58.6904 42.4268 63.5961 42.4589L63.6089 44.3445ZM39.473 48.7367V46.8512C42.8407 46.8072 46.0686 45.4856 48.5152 43.149C48.8459 43.6741 49.273 44.273 49.5958 44.7058C46.8272 47.26 43.2234 48.695 39.473 48.7367ZM54.5529 43.1493C56.9984 45.4876 60.2271 46.8095 63.5952 46.8512V48.7367C59.8441 48.6951 56.2398 47.2596 53.471 44.7046C53.7875 44.2724 54.2204 43.6769 54.5529 43.1493ZM43.9581 33.3665V27.4723H45.8299V33.3665C45.8299 36.9445 42.9913 39.8689 39.4692 39.9644V38.0779C40.6751 38.0289 41.8155 37.5113 42.652 36.6333C43.4886 35.7553 43.9566 34.5848 43.9581 33.3665ZM59.1061 33.3665C59.1077 34.5845 59.5759 35.7546 60.4127 36.632C61.2495 37.5094 62.39 38.0261 63.5956 38.074L63.5987 39.9644C60.0769 39.8687 57.2382 36.9444 57.2382 33.3665V27.4723H59.1061V33.3665Z" stroke="#EE2C3C"/>
<path opacity="0.9" d="M89.61 15.0833H86.8589V13.0821H87.6519L88.3235 1.08325H93.3932V15.0833H91.3138V3.08435H90.2852L89.61 15.0833Z" fill="#EE2C3C"/>
<path opacity="0.9" d="M94.9048 1.08325H100.061V3.08435H96.9887V6.48469H99.962V8.48194H96.9887V13.0821H100.061V15.0833H94.9048V1.08325Z" fill="#EE2C3C"/>
<path opacity="0.9" d="M101.039 1.08325H107.084V3.08435H105.101V15.0833H103.018V3.08435H101.039V1.08325Z" fill="#EE2C3C"/>
<path opacity="0.9" d="M93.341 18.2693H95.8827V32.2693H93.7975V26.2682L94.1363 22.2688H94.0371L92.5876 29.47H90.6433L89.1515 22.2688H89.0524L89.4329 26.2682V32.2693H87.3481V18.2693H89.8859L91.5754 26.2682H91.6363L93.341 18.2693Z" fill="#EE2C3C"/>
<path opacity="0.9" d="M98.3031 32.3103C97.7501 32.3103 97.394 31.9296 97.394 31.3873V19.1923C97.394 18.65 97.7501 18.2693 98.3031 18.2693H102.708C103.261 18.2693 103.617 18.65 103.617 19.1923V31.3911C103.617 31.9334 103.261 32.3142 102.708 32.3142H98.3031V32.3103ZM101.541 20.2729H99.4659V30.3028H101.541V20.2729Z" fill="#EE2C3C"/>
<path opacity="0.9" d="M106.04 32.2693C105.485 32.2693 105.128 31.8897 105.128 31.349V19.1896C105.128 18.6489 105.485 18.2693 106.04 18.2693H111.174V22.2688H109.091V20.2671H107.207V30.2676H109.091V27.6678H111.174V32.2693H106.04Z" fill="#EE2C3C"/>
<path opacity="0.9" d="M119.219 32.2693H117.009L115.181 25.67H114.643V32.2693H112.552V18.2693H114.643V23.6684H115.238L117.009 18.2693H119.219L117.071 24.6692L119.219 32.2693Z" fill="#EE2C3C"/>
<path opacity="0.9" d="M121.106 32.3103C120.553 32.3103 120.197 31.9296 120.197 31.3873V19.1923C120.197 18.65 120.553 18.2693 121.106 18.2693H125.511C126.064 18.2693 126.42 18.65 126.42 19.1923V31.3911C126.42 31.9334 126.064 32.3142 125.511 32.3142H121.106V32.3103ZM124.345 20.2729H122.269V30.3028H124.345V20.2729Z" fill="#EE2C3C"/>
<path opacity="0.9" d="M133.977 23.1085C133.977 23.9099 133.559 24.4468 132.947 24.6692C133.563 24.8877 133.977 25.4092 133.977 26.2299V31.349C133.977 31.8897 133.62 32.2693 133.065 32.2693H127.932V18.2693H133.065C133.62 18.2693 133.977 18.6489 133.977 19.1896V23.1085ZM131.898 20.2671H130.018V23.6684H131.898V20.2671ZM130.014 30.2715H131.894V25.67H130.014V30.2715Z" fill="#EE2C3C"/>
<path opacity="0.9" d="M136.4 32.2693C135.845 32.2693 135.488 31.8897 135.488 31.349V19.1896C135.488 18.6489 135.845 18.2693 136.4 18.2693H141.534V22.2688H139.451V20.2671H137.566V30.2676H139.451V27.6678H141.534V32.2693H136.4Z" fill="#EE2C3C"/>
<path opacity="0.9" d="M149.579 32.2693H147.371L145.54 25.67H145.002V32.2693H142.912V18.2693H145.002V23.6684H145.597L147.371 18.2693H149.579L147.428 24.6692L149.579 32.2693Z" fill="#EE2C3C"/>
<path opacity="0.9" d="M151.472 32.3103C150.915 32.3103 150.557 31.9296 150.557 31.3873V19.1923C150.557 18.65 150.915 18.2693 151.472 18.2693H155.909C156.466 18.2693 156.825 18.65 156.825 19.1923V31.3911C156.825 31.9334 156.466 32.3142 155.909 32.3142H151.472V32.3103ZM154.738 20.2729H152.647V30.3028H154.738V20.2729Z" fill="#EE2C3C"/>
<path opacity="0.9" d="M164.286 18.2693H166.827V32.2693H164.742V26.2682L165.077 22.2688H164.978L163.533 29.47H161.585L160.098 22.2688H159.999L160.376 26.2682V32.2693H158.292V18.2693H160.832L162.521 26.2682H162.578L164.286 18.2693Z" fill="#EE2C3C"/>
<path opacity="0.9" d="M172.601 32.2693H169.773V30.2715H170.85L171.269 27.6716H169.773L167.804 18.2693H169.933L171.487 25.67H171.586L172.8 18.2693H174.872L172.601 32.2693Z" fill="#EE2C3C"/>
<path opacity="0.9" d="M88.2598 49.5C87.7051 49.5 87.3481 49.1194 87.3481 48.5769V36.3781C87.3481 35.8358 87.7051 35.4551 88.2598 35.4551H93.3935V39.4663H91.3109V37.4587H89.4262V47.4888H91.3109V44.8812H93.3935V49.4959H88.2598V49.5Z" fill="#EE2C3C"/>
<path opacity="0.9" d="M101.128 35.4551V49.5H99.0552V37.4626H96.8847V49.5H94.8159V35.4551H101.128Z" fill="#EE2C3C"/>
<path opacity="0.9" d="M103.548 49.5C102.995 49.5 102.639 49.1194 102.639 48.5769V36.3781C102.639 35.8358 102.995 35.4551 103.548 35.4551H107.953C108.506 35.4551 108.862 35.8358 108.862 36.3781V48.5769C108.862 49.1194 108.506 49.5 107.953 49.5H103.548ZM106.786 37.4626H104.711V47.4924H106.786V37.4626Z" fill="#EE2C3C"/>
<path opacity="0.9" d="M112.452 44.885V49.5H110.374V35.4551H115.597C116.151 35.4551 116.508 35.8358 116.508 36.3781V43.962C116.508 44.5042 116.151 44.885 115.597 44.885H112.452ZM112.452 42.8775H114.432V37.4626H112.452V42.8775Z" fill="#EE2C3C"/>
<path opacity="0.9" d="M117.53 35.4551H123.576V37.4626H121.592V49.5H119.51V37.4626H117.53V35.4551Z" fill="#EE2C3C"/>
<path opacity="0.9" d="M128.95 49.5H126.123V47.4924H127.199L127.618 44.885H126.123L124.153 35.4551H126.283L127.836 42.8775H127.935L129.149 35.4551H131.221L128.95 49.5Z" fill="#EE2C3C"/>
</g>
<defs>
<clipPath id="clip0_1382_1690">
<rect width="174" height="49" fill="white" transform="translate(0.87207 0.5)"/>
</clipPath>
</defs>
</svg>
