<svg id="Слой_1" data-name="Слой 1" xmlns="http://www.w3.org/2000/svg" xmlns:xlink="http://www.w3.org/1999/xlink" viewBox="0 0 803.31616 517.2509">
  <defs>
    <style>
      .cls-1, .cls-14, .cls-18, .cls-7 {
        fill: none;
      }

      .cls-13, .cls-2 {
        fill: #e9292d;
      }

      .cls-10, .cls-11, .cls-12, .cls-14, .cls-15, .cls-18, .cls-2, .cls-7 {
        stroke: #fff;
      }

      .cls-10, .cls-11, .cls-12, .cls-15, .cls-18, .cls-2, .cls-7 {
        stroke-miterlimit: 10;
      }

      .cls-3 {
        clip-path: url(#clip-path);
      }

      .cls-11, .cls-4 {
        fill: #fff;
      }

      .cls-5 {
        clip-path: url(#clip-path-2);
      }

      .cls-6 {
        clip-path: url(#clip-path-3);
      }

      .cls-7 {
        stroke-width: 9px;
      }

      .cls-8 {
        clip-path: url(#clip-path-4);
      }

      .cls-9 {
        clip-path: url(#clip-path-5);
      }

      .cls-10, .cls-12, .cls-15 {
        fill: #00adee;
      }

      .cls-10 {
        stroke-width: 1.00078px;
      }

      .cls-12 {
        stroke-width: 1.00063px;
      }

      .cls-14 {
        stroke-miterlimit: 10;
        stroke-width: 9px;
      }

      .cls-16 {
        clip-path: url(#clip-path-6);
      }

      .cls-17 {
        clip-path: url(#clip-path-7);
      }

      .cls-19 {
        clip-path: url(#clip-path-8);
      }
    </style>
    <clipPath id="clip-path">
      <rect class="cls-1" x="726.26044" y="435.90692" width="72.57703" height="72.57689"/>
    </clipPath>
    <clipPath id="clip-path-2">
      <rect class="cls-1" x="218.24133" y="435.96242" width="72.577" height="72.577"/>
    </clipPath>
    <clipPath id="clip-path-3">
      <rect class="cls-1" x="73.08733" y="218.23152" width="72.57701" height="72.57689"/>
    </clipPath>
    <clipPath id="clip-path-4">
      <rect class="cls-1" x="726.28046" y="218.23152" width="72.57703" height="72.57689"/>
    </clipPath>
    <clipPath id="clip-path-5">
      <rect class="cls-1" x="290.81836" y="363.38551" width="72.577" height="72.5769"/>
    </clipPath>
    <clipPath id="clip-path-6">
      <rect class="cls-1" x="726.25482" y="363.32993" width="72.57141" height="72.57701"/>
    </clipPath>
    <clipPath id="clip-path-7">
      <rect class="cls-1" x="0.50003" y="363.38542" width="72.577" height="72.577"/>
    </clipPath>
    <clipPath id="clip-path-8">
      <path class="cls-1" d="M84.73824,363.96243H206.59045a11.0739,11.0739,0,0,1,11.07392,11.07389V496.88863a11.07391,11.07391,0,0,1-11.07389,11.07391H84.73833a11.074,11.074,0,0,1-11.074-11.074V375.03633a11.0739,11.0739,0,0,1,11.0739-11.0739Z"/>
    </clipPath>
  </defs>
  <g>
    <polygon class="cls-2" points="798.816 435.907 798.816 508.174 726.26 508.174 726.26 508.484 798.837 508.484 798.837 435.907 798.816 435.907"/>
    <rect class="cls-2" x="726.2605" y="435.90689" width="72.55566" height="72.26703"/>
    <g class="cls-3">
      <g>
        <path class="cls-4" d="M759.66425,488.27168l-9.10737,2.34973a74.20215,74.20215,0,0,0-.316,8.97217,75.38205,75.38205,0,0,0,.723,8.58032h8.71722a66.70776,66.70776,0,0,1-.74688-8.3612A65.21178,65.21178,0,0,1,759.66425,488.27168Z"/>
        <path class="cls-4" d="M764.48285,470.97163a68.86954,68.86954,0,0,1,12.33722-16.81231l21.99609-21.99768v-9.823l-1.39142-1.3914L770.5163,447.85561A48.64277,48.64277,0,0,1,734.634,461.89473a53.31694,53.31694,0,0,1-22.98688-5.89917l-6.27594,6.27586a62.40588,62.40588,0,0,0,29.48139,8.31653,58.81448,58.81448,0,0,0,22.24884-3.71765c-2.58142,5.87109-4.76788,11.68787-5.5484,17.00171l-.00574.03516.03522-.00562c5.31378-.78052,11.13061-2.967,17.00171-5.54846a58.81226,58.81226,0,0,0-3.71771,22.2489,61.30966,61.30966,0,0,0,.671,7.57191h8.75305a52.35594,52.35594,0,0,1-.73065-7.35339,48.641,48.641,0,0,1,14.039-35.88232l11.21728-11.21784V441.1147l-17.521,17.51978A68.86436,68.86436,0,0,1,764.48285,470.97163Z"/>
        <path class="cls-4" d="M780.23993,508.48384h8.79535c-.02435-.103-.04151-.20685-.065-.30994h-8.78595C780.20435,508.27705,780.21924,508.38075,780.23993,508.48384Z"/>
        <polygon class="cls-4" points="798.837 462.926 798.816 462.904 798.816 473.874 798.837 473.852 798.837 462.926"/>
        <path class="cls-4" d="M797.99774,462.08614l-6.063,6.06286a43.69522,43.69522,0,0,0-12.61969,32.23181,47.14,47.14,0,0,0,.86927,7.79309h8.78595a38.44023,38.44023,0,0,1-.96149-7.57409A35.446,35.446,0,0,1,798.23767,474.452l.57849-.57843V462.90443Z"/>
        <path class="cls-4" d="M761.00244,437.21681a35.44558,35.44558,0,0,1-26.14776,10.22888,38.6887,38.6887,0,0,1-12.30658-2.35119l-6.52625,6.5263a47.79592,47.79592,0,0,0,19.05182,4.51856,43.69446,43.69446,0,0,0,32.23181-12.61975l6.063-6.06293-6.30292-6.30286Z"/>
        <path class="cls-4" d="M735.64166,476.52022a67.93774,67.93774,0,0,1-34.196-10.32324l-6.14722,6.14709a77.04008,77.04008,0,0,0,40.5625,12.86961,74.19491,74.19491,0,0,0,8.97223-.316l2.34979-9.10742A65.22377,65.22377,0,0,1,735.64166,476.52022Z"/>
      </g>
    </g>
  </g>
  <g>
    <rect class="cls-2" x="435.97241" y="508.48386" width="72.5769" height="0.05554"/>
    <rect class="cls-2" x="435.97241" y="508.17392" width="72.5769" height="0.30994"/>
    <rect class="cls-2" x="435.97241" y="435.96243" width="72.5769" height="72.21149"/>
    <g>
      <path class="cls-4" d="M487.58887,491.39742a1.0557,1.0557,0,0,1-1.05567-1.05567V471.10713h-.00061a1.593,1.593,0,0,0-.2135-.78637l-9.45825-16.38129a5.04174,5.04174,0,0,0-6.8869-1.84639l-.0008.00044-.16748.097-5.03662,2.90753-13.051,7.53479a5.58133,5.58133,0,1,0-4.96851,2.86927l-4.03613,2.32959a3.31262,3.31262,0,0,0,3.31274,5.73754l20.595-11.89039a1.27107,1.27107,0,0,1,.11267-.06519,1.6294,1.6294,0,0,1,2.1034.53125l.0011.001a1.79856,1.79856,0,0,1,.11682.20166l.001.00317,4.36792,7.5647a1.62895,1.62895,0,0,1-.34936,2.31213,1.59367,1.59367,0,0,1-.27173.15711l-36.73047,21.206v10.73877c0,.01343,0,.02686.001.04029a5.493,5.493,0,0,1,2.521-4.585c.157-.1023.32032-.19531.4878-.28223l32.36865-18.688a5.50135,5.50135,0,0,1,8.5188,4.59936v7.02735a5.58119,5.58119,0,0,0,5.58118,5.58128h17.15441a5.94425,5.94425,0,0,1,5.9441,5.94411V491.39742Z"/>
      <path class="cls-4" d="M465.98669,440.1319a5.58133,5.58133,0,1,0,5.58143,5.5813A5.58133,5.58133,0,0,0,465.98669,440.1319Z"/>
    </g>
  </g>
  <g>
    <rect class="cls-2" x="218.24146" y="435.96243" width="72.5769" height="72.21149"/>
    <g class="cls-5">
      <g>
        <path class="cls-4" d="M251.64517,488.32722l-9.1073,2.34974a74.19784,74.19784,0,0,0-.31616,8.97241,75.39327,75.39327,0,0,0,.715,8.52453h8.71771a66.7133,66.7133,0,0,1-.73926-8.30554A65.21422,65.21422,0,0,1,251.64517,488.32722Z"/>
        <path class="cls-4" d="M279.57983,464.99391l26.90784-26.90924-6.30212-6.30212-26.9094,26.90759a68.87046,68.87046,0,0,1-16.81237,12.337,68.87189,68.87189,0,0,1,12.33728-16.81238l26.90747-26.9093-6.30274-6.3028-26.90863,26.90854a48.64264,48.64264,0,0,1-35.88232,14.03906,53.31768,53.31768,0,0,1-22.98694-5.899l-6.27588,6.27588a62.4074,62.4074,0,0,0,29.48145,8.3164,58.81224,58.81224,0,0,0,22.24877-3.71751c-2.58154,5.87109-4.76782,11.68774-5.54833,17.00159l-.00574.03528.03515-.00574c5.31372-.78052,11.13062-2.96692,17.00171-5.54846a58.81287,58.81287,0,0,0-3.71765,22.249,61.30375,61.30375,0,0,0,.66193,7.51623h8.753a52.35128,52.35128,0,0,1-.72156-7.2976A48.6412,48.6412,0,0,1,279.57983,464.99391Z"/>
        <path class="cls-4" d="M290.21851,474.50752l6.06323-6.063-6.303-6.30286-6.063,6.06287a43.69534,43.69534,0,0,0-12.61987,32.23193,47.13194,47.13194,0,0,0,.858,7.73744h8.78351a38.445,38.445,0,0,1-.94769-7.51843A35.44666,35.44666,0,0,1,290.21851,474.50752Z"/>
        <path class="cls-4" d="M252.9834,437.27229a35.44544,35.44544,0,0,1-26.14771,10.229,38.69292,38.69292,0,0,1-12.30664-2.3512l-6.52636,6.52631a47.79643,47.79643,0,0,0,19.05188,4.51861,43.69541,43.69541,0,0,0,32.23181-12.61981l6.063-6.06293-6.303-6.303Z"/>
        <path class="cls-4" d="M227.62268,476.5759a67.94067,67.94067,0,0,1-34.19617-10.32324l-6.14721,6.147a77.03826,77.03826,0,0,0,40.5625,12.86963,74.20432,74.20432,0,0,0,8.97229-.31592l2.34973-9.10754A65.22361,65.22361,0,0,1,227.62268,476.5759Z"/>
      </g>
    </g>
  </g>
  <g>
    <rect class="cls-2" x="73.0874" y="218.23154" width="72.5769" height="72.57684"/>
    <g class="cls-6">
      <g>
        <path class="cls-7" d="M103.75774,136.943v74.7725c0,24.8017,17.0276,44.9074,38.0323,44.9074,21.00461,0,38.03229-20.1057,38.03229-44.9074V136.943"/>
        <path class="cls-7" d="M163.991,211.7156c0,15.3347-9.95948,27.81011-22.20093,27.81011s-22.20088-12.47541-22.20088-27.81011V136.943H87.92656v74.77259c0,34.18908,24.16309,62.00439,53.86352,62.00439s53.86339-27.81531,53.86339-62.00439V136.943H163.991Z"/>
      </g>
    </g>
  </g>
  <g>
    <rect class="cls-2" x="798.83746" y="218.23154" width="0.02002" height="72.57684"/>
    <rect class="cls-2" x="798.81616" y="218.23154" width="0.0213" height="72.57684"/>
    <rect class="cls-2" x="726.28046" y="218.23154" width="72.53571" height="72.57684"/>
    <g class="cls-8">
      <g>
        <path class="cls-7" d="M756.95074,136.943v74.7725c0,24.8017,16.8711,44.9074,37.6828,44.9074"/>
        <path class="cls-7" d="M794.98315,239.52571c-12.24157,0-22.201-12.47541-22.201-27.81011V136.943H741.11969v74.77259c0,34.18908,24.163,62.00439,53.86346,62.00439,1.29017,0,2.56531-.07129,3.833-.17486V239.10163A17.86722,17.86722,0,0,1,794.98315,239.52571Z"/>
      </g>
    </g>
  </g>
  <g>
    <rect class="cls-2" x="290.81836" y="363.38553" width="72.57703" height="72.5769"/>
    <g class="cls-9">
      <g>
        <path class="cls-7" d="M332.725,517.2509V442.4785c0-24.8018-17.02771-44.9075-38.03241-44.9075a32.63325,32.63325,0,0,0-4.20874.27185"/>
        <path class="cls-7" d="M290.22406,415.23418a17.91505,17.91505,0,0,1,4.46854-.566c12.2417,0,22.201,12.47542,22.201,27.81024V508.1739h31.6625V442.47841c0-34.18921-24.163-62.00452-53.86352-62.00452q-1.97256,0-3.91086.16171"/>
      </g>
    </g>
  </g>
  <g>
    <rect class="cls-2" x="290.81836" y="363.38553" width="0.00439" height="72.57697"/>
    <rect class="cls-2" x="218.24561" y="363.38553" width="72.57275" height="72.57697"/>
    <g>
      <circle class="cls-4" cx="254.88574" cy="385.63083" r="5.54517"/>
      <path class="cls-4" d="M264.9563,367.34767a5.54518,5.54518,0,1,0,5.54516,5.54518v-.00008a5.54514,5.54514,0,0,0-5.54516-5.5451Z"/>
      <path class="cls-4" d="M218.66162,429.45107a4.17842,4.17842,0,0,1,2.08887-3.67756l4.91821-2.8396a5.63156,5.63156,0,0,0,2.81592-4.87744V410.0029a1.79866,1.79866,0,0,1,2.698-1.55762l7.118,4.10944a2.57779,2.57779,0,0,1,.94372.94391l9.771,16.924a3.59927,3.59927,0,0,0,6.23413-3.59924l-10.13721-17.558a6.91435,6.91435,0,0,0-2.53149-2.53149l-4.76147-2.74909a1.97116,1.97116,0,0,1,0-3.41424l5.062-2.92261a1.78942,1.78942,0,0,1,2.44409.65491l1.43323,2.4826a5.12046,5.12046,0,0,0,4.43469,2.5603h8.356a5.12069,5.12069,0,0,0,4.43481-2.5603l4.17066-7.22418a1.66711,1.66711,0,0,1,2.88745,0l2.76977,4.79761a1.98942,1.98942,0,0,1-.728,2.71763l-.00015.00008-7.8103,4.5094a5.80311,5.80311,0,0,0-2.90173,5.02576l.00012,17.85864a3.55982,3.55982,0,0,0,7.11963.00049V412.40437a2.17638,2.17638,0,0,1,1.08874-1.88519l5.30518-3.0628a1.98994,1.98994,0,0,1,2.985,1.7232v8.59052a4.681,4.681,0,0,0,2.34046,4.05371l6.0791,3.50988a6.88734,6.88734,0,0,1,3.44385,5.96479v.92419l.08447.00745v-12.978l-.08447-.04877-3.94556-2.278a1.86978,1.86978,0,0,1-.93506-1.61938v-18.2254a4.24834,4.24834,0,0,0-.56933-2.12464l-8.32117-14.41278a5.31744,5.31744,0,0,0-9.21008,0l-8.51343,14.74561a1.73831,1.73831,0,0,1-1.50513.86895h-4.48584a1.73788,1.73788,0,0,1-1.505-.86895l-4.20362-7.281a5.32955,5.32955,0,0,0-7.28027-1.95068l-15.34607,8.86a6.54915,6.54915,0,0,0-3.27441,5.67163v15.65582a1.593,1.593,0,0,1-.79627,1.37909l-2.60132,1.50183v12.08147l.44471-.03143Z"/>
    </g>
  </g>
  <rect class="cls-10" x="798.83746" y="0.50039" width="0.02002" height="217.73102"/>
  <rect class="cls-10" x="798.81616" y="0.50039" width="0.0213" height="217.73102"/>
  <rect class="cls-10" x="0.50366" y="0.50039" width="0.3125" height="217.73102"/>
  <rect class="cls-10" x="0.81616" y="0.50039" width="798" height="217.73102"/>
  <g>
    <g>
      <polygon class="cls-4" points="615.456 27.872 612.124 27.872 612.124 49.661 615.456 49.661 618.62 49.661 622.011 49.661 622.011 40.916 618.62 40.916 618.62 46.548 615.456 46.548 615.456 30.985 618.62 30.985 618.62 36.617 622.011 36.617 622.011 27.872 618.62 27.872 615.456 27.872"/>
      <path class="cls-4" d="M590.51013,42.46938c-.87164-4.65986-2.00775-9.86127-2.53235-14.55848h-4.47772V49.69948h2.907v-8.62l-.34228-7.78839c.417,2.50562,2.05438,11.74,4.13482,16.16419V49.469h.6211v-.01373c2.0805-4.4242,3.71777-13.65857,4.13476-16.16419l-.34228,7.78839v8.62h2.9071V27.9109h-4.4779C592.51788,32.60811,591.38159,37.80952,590.51013,42.46938Z"/>
      <rect class="cls-4" x="698.09027" y="22.74709" width="7.32819" height="2.55261"/>
      <path class="cls-4" d="M603.21,27.87178h-3.33118V49.6606h9.887V27.87178Zm3.16412,18.67609h-3.10363V30.98451h3.10363Z"/>
      <path class="cls-4" d="M630.64337,33.0349c0,1.45752-.58282,3.42132-2.38922,3.41662l-.5531-.00128V27.9109H624.37V49.69948h3.33105V39.921l.57989-.00469c1.6933-.0138,2.36243,1.6958,2.36243,3.10662v6.67658h3.33118V43.16371a5.66594,5.66594,0,0,0-2.49866-5.13483,5.81366,5.81366,0,0,0,2.49866-5.1347V27.9109h-3.33118Z"/>
      <polygon class="cls-4" points="699.671 40.642 699.671 27.911 696.703 27.911 696.703 49.699 699.719 49.727 703.808 34.54 703.808 49.699 706.806 49.699 706.806 27.911 703.093 27.911 699.671 40.642"/>
      <path class="cls-4" d="M678.70715,33.0349c0,1.45752-.58288,3.42132-2.38916,3.41662l-.55322-.00128V27.9109h-3.33112V49.69948h3.33112V39.921l.58-.00469c1.6933-.0138,2.36236,1.6958,2.36236,3.10662v6.67658h3.331V43.16371a5.66561,5.66561,0,0,0-2.4986-5.13483,5.81312,5.81312,0,0,0,2.4986-5.1347V27.9109h-3.331Z"/>
      <polygon class="cls-4" points="687.209 40.642 687.209 27.911 684.241 27.911 684.241 49.699 687.258 49.727 691.346 34.54 691.346 49.699 694.344 49.699 694.344 27.911 690.631 27.911 687.209 40.642"/>
      <polygon class="cls-4" points="663.519 27.872 660.188 27.872 660.188 49.661 663.519 49.661 666.684 49.661 670.075 49.661 670.075 40.916 666.684 40.916 666.684 46.548 663.519 46.548 663.519 30.985 666.684 30.985 666.684 36.617 670.075 36.617 670.075 27.872 666.684 27.872 663.519 27.872"/>
      <path class="cls-4" d="M639.66425,27.87178h-3.33118V49.6606H646.22V27.87178Zm3.16424,18.67609h-3.10382V30.98451h3.10382Z"/>
      <path class="cls-4" d="M651.90979,27.87178h-3.33124V49.6606h3.33124v-.00769c2.02521.00049,4.0506.00769,6.075.00769V42.53a5.28245,5.28245,0,0,0-1.857-4.3341,4.45274,4.45274,0,0,0,1.857-3.81446V27.87178c-2.02435,0-4.04974.00732-6.075.00781Zm2.74231,18.67609h-2.74231V39.94728c1.2417-.06866,2.744.1424,2.744,2.36493-.00006,1.41351-.00171,2.82288-.00171,4.23569Zm0-15.56336V32.6172h.00165v1.98212c0,2.22235-1.50226,2.29626-2.744,2.228V30.98454Z"/>
      <polygon class="cls-4" points="725.716 49.714 729.046 49.714 729.046 31.037 732.211 31.037 732.211 49.714 735.602 49.714 735.602 27.925 725.716 27.925 725.716 49.714"/>
      <path class="cls-4" d="M750.09406,49.71352h3.331V43.85609H754.534c3.2323,0,4.96624-2.34289,4.96624-5.69549V27.9247c-3.13488,0-6.27185.01739-9.40618,0Zm3.331-18.676h2.74243v5.35913h.00159v1.982c0,2.22247-1.50208,2.43335-2.744,2.365Z"/>
      <polygon class="cls-4" points="716.813 27.925 713.482 27.925 713.482 49.714 716.813 49.714 719.978 49.714 723.369 49.714 723.369 40.969 719.978 40.969 719.978 46.601 716.813 46.601 716.813 31.037 719.978 31.037 719.978 36.67 723.369 36.67 723.369 27.925 719.978 27.925 716.813 27.925"/>
      <path class="cls-4" d="M741.27374,27.9247h-3.33105V49.71352h9.8869V27.9247ZM744.438,46.60078h-3.1037V31.03749h3.1037Z"/>
      <polygon class="cls-4" points="760.416 31.037 763.899 31.037 763.899 49.714 767.23 49.714 767.23 31.037 770.713 31.037 770.713 27.925 760.416 27.925 760.416 31.037"/>
    </g>
    <g>
      <path class="cls-4" d="M556.31757,40.34846l-1.30451,2.21192a20.24729,20.24729,0,0,0,1.671,1.79311,21.03365,21.03365,0,0,0,10.31507,5.346V47.32607a18.54775,18.54775,0,0,1-8.59449-4.60859A17.8024,17.8024,0,0,1,556.31757,40.34846Z"/>
      <path class="cls-4" d="M557.20587,30.45119V20.06178H554.7724L554.772,30.45119a18.80745,18.80745,0,0,1-.86389,5.62732,18.7997,18.7997,0,0,1-.864-5.62732l-.00031-10.38941h-2.43359V30.45119a13.28009,13.28009,0,0,1-4.2168,9.63733,14.55687,14.55687,0,0,1-5.57648,3.29889v2.42321a17.0395,17.0395,0,0,0,7.297-4.086,16.0558,16.0558,0,0,0,3.57739-5.01281,18.95837,18.95837,0,0,0,2.21106,4.35339l.00574.00781.00568-.00781a18.95858,18.95858,0,0,0,2.21112-4.35339,16.0543,16.0543,0,0,0,3.57739,5.01281,17.03917,17.03917,0,0,0,7.29688,4.086V43.38741a14.55612,14.55612,0,0,1-5.57648-3.29889A13.27952,13.27952,0,0,1,557.20587,30.45119Z"/>
      <path class="cls-4" d="M561.09625,30.234V27.8932h-2.43347V30.234a11.92939,11.92939,0,0,0,3.78607,8.65857,13.0491,13.0491,0,0,0,4.5503,2.80573V39.17848a10.56772,10.56772,0,0,1-2.82966-1.92181A9.677,9.677,0,0,1,561.09625,30.234Z"/>
      <path class="cls-4" d="M546.71979,30.234a9.677,9.677,0,0,1-3.07324,7.02265,10.564,10.564,0,0,1-2.82966,1.92181v2.51984a13.04748,13.04748,0,0,0,4.5503-2.80573,11.92917,11.92917,0,0,0,3.78619-8.65857V27.8932h-2.43359Z"/>
      <path class="cls-4" d="M549.4115,42.71748a18.54749,18.54749,0,0,1-8.59461,4.60859v2.37341a21.03341,21.03341,0,0,0,10.31519-5.346,20.24023,20.24023,0,0,0,1.671-1.79311l-1.30444-2.21192A17.81167,17.81167,0,0,1,549.4115,42.71748Z"/>
    </g>
  </g>
  <rect class="cls-11" x="73.0874" y="508.48386" width="145.15405" height="0.05554"/>
  <rect class="cls-11" x="73.0874" y="508.17392" width="145.15405" height="0.30994"/>
  <rect class="cls-11" x="73.0874" y="363.38541" width="145.15405" height="144.78851"/>
  <rect class="cls-2" x="363.39539" y="363.38541" width="72.57703" height="72.57703"/>
  <rect class="cls-11" x="581.12646" y="508.48386" width="145.12842" height="0.03003"/>
  <rect class="cls-11" x="581.12646" y="508.17392" width="145.12842" height="0.30994"/>
  <rect class="cls-11" x="581.12646" y="363.38541" width="145.12842" height="144.78851"/>
  <rect class="cls-2" x="73.0874" y="290.80838" width="72.5769" height="72.57703"/>
  <rect class="cls-2" x="145.66431" y="290.80838" width="72.57715" height="72.57703"/>
  <rect class="cls-2" x="363.39539" y="290.80838" width="72.57703" height="72.57703"/>
  <rect class="cls-12" x="581.12646" y="290.80838" width="72.57703" height="72.57703"/>
  <rect class="cls-2" x="653.70349" y="290.80838" width="72.57697" height="72.57703"/>
  <rect class="cls-11" x="798.83746" y="290.80838" width="0.02002" height="72.57703"/>
  <rect class="cls-11" x="798.81616" y="290.80838" width="0.0213" height="72.57703"/>
  <rect class="cls-11" x="726.28046" y="290.80838" width="72.53571" height="72.57703"/>
  <rect class="cls-2" x="0.51038" y="218.23141" width="0.30579" height="72.57697"/>
  <rect class="cls-2" x="0.81616" y="218.23141" width="72.27124" height="72.57697"/>
  <rect class="cls-2" x="0.51038" y="508.48386" width="72.57703" height="0.05554"/>
  <polygon class="cls-2" points="0.816 435.962 0.51 435.962 0.51 508.484 73.087 508.484 73.087 508.174 0.816 508.174 0.816 435.962"/>
  <rect class="cls-2" x="0.81616" y="435.96243" width="72.27124" height="72.21149"/>
  <rect class="cls-2" x="145.66431" y="218.23141" width="72.57715" height="72.57697"/>
  <polygon class="cls-11" points="218.241 218.231 218.241 290.808 218.241 363.385 290.818 363.385 363.396 363.385 363.396 290.808 363.396 218.231 290.818 218.231 218.241 218.231"/>
  <rect class="cls-12" x="363.39539" y="218.23141" width="72.57703" height="72.57697"/>
  <rect class="cls-11" x="435.97241" y="218.23141" width="72.5769" height="72.57697"/>
  <rect class="cls-12" x="290.81836" y="508.48386" width="72.57703" height="0.05554"/>
  <rect class="cls-12" x="290.81836" y="508.17392" width="72.57703" height="0.30994"/>
  <rect class="cls-12" x="290.81836" y="435.96243" width="72.57703" height="72.21149"/>
  <rect class="cls-11" x="363.39539" y="508.48386" width="72.57703" height="0.05554"/>
  <rect class="cls-11" x="363.39539" y="508.17392" width="72.57703" height="0.30994"/>
  <rect class="cls-11" x="363.39539" y="435.96243" width="72.57703" height="72.21149"/>
  <rect class="cls-2" x="508.54932" y="218.23141" width="72.57715" height="72.57697"/>
  <rect class="cls-2" x="508.54932" y="508.48386" width="72.57715" height="0.05554"/>
  <rect class="cls-2" x="508.54932" y="508.17392" width="72.57715" height="0.30994"/>
  <rect class="cls-2" x="508.54932" y="435.96243" width="72.57715" height="72.21149"/>
  <rect class="cls-2" x="581.12646" y="218.23141" width="145.15399" height="72.57697"/>
  <g>
    <path class="cls-4" d="M664.82819,218.23141c.00036.01721.00189.03417.00189.05138,0,9.769-10.46582,17.71679-23.33008,17.71679H581.12646v8.99952H641.5c17.82715,0,32.33008-11.98493,32.33008-26.71631,0-.01722-.00153-.03418-.00153-.05139Z"/>
    <path class="cls-4" d="M681.938,218.23141c0,.01721.00146.03417.00146.05138,0,18.5044-18.14056,33.55908-40.43945,33.55908H581.12646v9H641.5c27.26074,0,49.43945-19.0918,49.43945-42.55908,0-.01721-.00146-.03417-.00146-.05138Z"/>
    <path class="cls-4" d="M699.04736,218.23141c0,.01721.00153.03417.00153.05138,0,27.24073-25.81641,49.4018-57.54889,49.4018H581.12646v9H641.5c36.69525,0,66.54889-26.19923,66.54889-58.4018,0-.01721-.00153-.03417-.00153-.05138Z"/>
  </g>
  <g>
    <path class="cls-4" d="M614.0625,218.23141c-.005.11541-.02734.22588-.02734.34259a8.2666,8.2666,0,0,0,16.5332,0c0-.1167-.02246-.22718-.02741-.34259Z"/>
    <path class="cls-4" d="M588.84088,218.23141c-.00439.1145-.01709.22686-.01709.34259a8.26607,8.26607,0,0,0,8.26563,8.26647h.00042a8.26627,8.26627,0,0,0,8.26661-8.2659V218.574c0-.1167-.02247-.22718-.02741-.34259Z"/>
    <path class="cls-4" d="M639.2735,218.23141c-.00446.11541-.02692.22588-.02692.34259a8.26661,8.26661,0,0,0,16.53321,0c0-.11573-.0127-.22809-.01709-.34259Z"/>
  </g>
  <g>
    <path class="cls-13" d="M299.59863,310.73318l-4.75378,8.0598a73.80447,73.80447,0,0,0,6.08948,6.53412,76.64385,76.64385,0,0,0,37.58813,19.48126v-8.64874a67.58791,67.58791,0,0,1-31.31836-16.794A64.899,64.899,0,0,1,299.59863,310.73318Z"/>
    <path class="cls-13" d="M302.83557,274.66731l-.00085-37.85895h-8.867l-.0011,37.859a68.51518,68.51518,0,0,1-3.14831,20.50587,68.515,68.515,0,0,1-3.14819-20.50586l-.00122-37.859H278.801v37.859a48.39186,48.39186,0,0,1-15.36622,35.11848,53.04379,53.04379,0,0,1-20.32055,12.02088v8.8299a62.08887,62.08887,0,0,0,26.59009-14.889,58.51171,58.51171,0,0,0,13.03613-18.26691c2.31421,5.94623,4.86816,11.5763,8.05713,15.86353l.02075.02869.02075-.02869c3.189-4.28723,5.74292-9.9173,8.05713-15.86353a58.50755,58.50755,0,0,0,13.03638,18.26691,62.08585,62.08585,0,0,0,26.58984,14.889v-8.8299A53.04468,53.04468,0,0,1,318.2019,309.7859,48.39165,48.39165,0,0,1,302.83557,274.66731Z"/>
    <path class="cls-13" d="M317.01245,273.8758v-8.53033h-8.86792v8.53033a43.47134,43.47134,0,0,0,13.79663,31.55211,47.55136,47.55136,0,0,0,16.5813,10.22381v-9.18223a38.49121,38.49121,0,0,1-10.31152-7.00341A35.26388,35.26388,0,0,1,317.01245,273.8758Z"/>
    <path class="cls-13" d="M264.62427,273.8758a35.264,35.264,0,0,1-11.19861,25.59028,38.489,38.489,0,0,1-10.3114,7.00341v9.1822a47.55143,47.55143,0,0,0,16.5813-10.22378,43.47091,43.47091,0,0,0,13.7966-31.55211v-8.53033h-8.86792Z"/>
    <path class="cls-13" d="M274.43262,319.36562a67.58729,67.58729,0,0,1-31.31836,16.794v8.64875a76.6473,76.6473,0,0,0,37.58838-19.48126,73.83781,73.83781,0,0,0,6.08923-6.53412l-4.75378-8.0598A64.899,64.899,0,0,1,274.43262,319.36562Z"/>
  </g>
  <circle class="cls-14" cx="181.9529" cy="254.51991" r="18.79816" transform="translate(-102.38314 385.05825) rotate(-79.09933)"/>
  <g>
    <circle class="cls-4" cx="92.73093" cy="311.38289" r="10.60239"/>
    <circle class="cls-4" cx="126.02087" cy="311.3829" r="10.60229"/>
    <circle class="cls-4" cx="126.02087" cy="342.81088" r="10.60232"/>
  </g>
  <g>
    <circle class="cls-4" cx="600.7699" cy="311.3829" r="10.60234"/>
    <circle class="cls-4" cx="634.05985" cy="311.38292" r="10.60229"/>
    <circle class="cls-4" cx="634.05987" cy="342.81095" r="10.60229" transform="translate(-85.53011 384.54249) rotate(-31.71739)"/>
  </g>
  <g>
    <rect class="cls-11" x="435.97241" y="290.80838" width="145.15393" height="145.15405"/>
    <g>
      <path class="cls-15" d="M508.89917,302.37172a10.6902,10.6902,0,1,0,10.33472,11.03422q.01145-.34984,0-.69986A10.69045,10.69045,0,0,0,508.89917,302.37172Z"/>
      <path class="cls-15" d="M566.411,323.17982v-8.72705a4.12417,4.12417,0,0,0-4.12408-4.1242h-7.0608a4.12429,4.12429,0,0,0-4.1242,4.1242v8.72693a3.21692,3.21692,0,0,1-3.21692,3.21692H534.15967a2.506,2.506,0,0,1-2.16278-1.25952,6.37549,6.37549,0,0,0-9.88-1.44l-2.4527,2.30688a1.44583,1.44583,0,0,1-.99072.39264H498.42529a1.446,1.446,0,0,1-.9906-.39264l-2.45276-2.30689a6.37534,6.37534,0,0,0-9.87988,1.44,2.50615,2.50615,0,0,1-2.163,1.25952H469.21387a3.217,3.217,0,0,1-3.217-3.21679v-8.72705a4.12421,4.12421,0,0,0-4.12415-4.1242h-7.06067a4.12422,4.12422,0,0,0-4.12426,4.1242v8.72693a3.21681,3.21681,0,0,1-3.21674,3.21692H435.97241v4.48718H447.471a3.21689,3.21689,0,0,1,3.21679,3.21692v8.92486a4.12422,4.12422,0,0,0,4.12415,4.12433h7.06067a4.12432,4.12432,0,0,0,4.12427-4.12433v-8.9248a3.2171,3.2171,0,0,1,3.217-3.217h11.39941a3.90612,3.90612,0,0,1,3.38281,5.85907l-6.1123,10.58679a6.447,6.447,0,0,0,2.25146,8.74243,6.54818,6.54818,0,0,0,8.95368-2.36417l.02435-.04214,1.00342-1.73748a3.91822,3.91822,0,0,1,7.31152,1.9591v6.54486a3.26729,3.26729,0,0,1-.43774,1.63324l-34.09644,59.057a6.87691,6.87691,0,1,0,11.91028,6.87842l.00085-.00146,28.401-49.1919a6.17,6.17,0,0,1,10.68664,0l28.333,49.0744a6.98557,6.98557,0,0,0,9.5329,2.59241l.04461-.02576a6.87733,6.87733,0,0,0,2.40162-9.32611l-34.09662-59.057a3.26652,3.26652,0,0,1-.43763-1.63324v-6.54483a3.91828,3.91828,0,0,1,7.31165-1.95911l1.00317,1.73749a6.54809,6.54809,0,0,0,8.93567,2.43078l.04242-.02447a6.44666,6.44666,0,0,0,2.25141-8.74243l-6.11219-10.58677a3.906,3.906,0,0,1,3.38269-5.85907H547.885a3.21689,3.21689,0,0,1,3.21692,3.21689v8.92489a4.12436,4.12436,0,0,0,4.12427,4.12429h7.06066a4.12415,4.12415,0,0,0,4.12409-4.1242h0v-8.92492a3.2171,3.2171,0,0,1,3.217-3.217h11.49835v-4.48716H569.628A3.21691,3.21691,0,0,1,566.411,323.17982Z"/>
    </g>
  </g>
  <rect class="cls-15" x="798.81616" y="363.32993" width="0.01569" height="72.57697"/>
  <rect class="cls-15" x="726.2605" y="363.32993" width="72.55566" height="72.57697"/>
  <g class="cls-16">
    <g>
      <path class="cls-4" d="M762.94287,380.03a5.54518,5.54518,0,1,0,5.54468,5.54567v-.00044a5.54492,5.54492,0,0,0-5.54462-5.54523Z"/>
      <path class="cls-4" d="M773.01257,367.292a5.54514,5.54514,0,1,0,5.5448,5.54548v-.00032A5.545,5.545,0,0,0,773.01257,367.292Z"/>
      <path class="cls-4" d="M798.78815,419.1476l-3.94538-2.278a1.87,1.87,0,0,1-.93481-1.61939V397.0249a4.24714,4.24714,0,0,0-.56928-2.12469l-8.32049-14.41271a5.31688,5.31688,0,0,0-9.20941,0L767.296,395.23311a1.73783,1.73783,0,0,1-1.50488.8689h-4.48554a1.73791,1.73791,0,0,1-1.50488-.8689l-4.20319-7.28089a5.329,5.329,0,0,0-7.27942-1.951l-.00048.00027-15.34479,8.85992a6.54929,6.54929,0,0,0-3.27423,5.6717v15.6557a1.59249,1.59249,0,0,1-.79621,1.37909l-6.49908,3.75262-.16876,8.194.17364,1.91229,4.33771-.30688-.02429-1.72449a4.17782,4.17782,0,0,1,2.08868-3.67749l4.91785-2.8396a5.632,5.632,0,0,0,2.81579-4.8775v-8.05353a1.79852,1.79852,0,0,1,2.69782-1.55768l7.11737,4.1095a2.57893,2.57893,0,0,1,.94379.94379l9.7702,16.924a3.599,3.599,0,0,0,6.24237-3.58386l-.00885-.01532-10.13629-17.558a6.91642,6.91642,0,0,0-2.53131-2.53149l-4.76111-2.74909a1.97108,1.97108,0,0,1,0-3.41412l5.06158-2.92255a1.78878,1.78878,0,0,1,2.44361.6545l.00018.00029,1.43323,2.48266a5.12,5.12,0,0,0,4.4342,2.56025h8.35547a5.12014,5.12014,0,0,0,4.43433-2.56025l4.17053-7.22418a1.66673,1.66673,0,0,1,2.887,0l2.76972,4.79749a1.98975,1.98975,0,0,1-.72821,2.71783L773.33,405.53035a5.80327,5.80327,0,0,0-2.90143,5.02582l.00012,17.85858a3.55948,3.55948,0,0,0,7.119.00049V412.34871a2.17647,2.17647,0,0,1,1.08874-1.88519l5.30469-3.06281a1.98972,1.98972,0,0,1,2.98468,1.72327v8.59051a4.68093,4.68093,0,0,0,2.34021,4.05371l6.0788,3.50977a6.88757,6.88757,0,0,1,3.44348,5.96484v.92426l.028.00246V419.16377Z"/>
    </g>
  </g>
  <g>
    <rect class="cls-11" x="0.5" y="363.38541" width="0.00366" height="72.57703"/>
    <rect class="cls-11" x="0.50366" y="363.38541" width="0.3125" height="72.57703"/>
    <rect class="cls-11" x="0.81616" y="363.38541" width="72.26099" height="72.57703"/>
    <g class="cls-17">
      <g>
        <path class="cls-13" d="M23.88537,373.25741a5.64258,5.64258,0,1,0,5.455,5.82412q.006-.18464,0-.36936A5.64272,5.64272,0,0,0,23.88537,373.25741Z"/>
        <path class="cls-13" d="M.50366,425.44374v6.56537a4.0491,4.0491,0,0,1,.3125-.6294v-5.37335A3.44337,3.44337,0,0,1,.50366,425.44374Z"/>
        <path class="cls-13" d="M4.30627,429.38551a5.05722,5.05722,0,0,0,4.35621-2.52874l4.764-8.25129a1.10932,1.10932,0,0,1,1.0669-.54577,3.49935,3.49935,0,0,0,3.35583-1.735l2.23621-3.87293,8.54687-4.93451a4.60212,4.60212,0,0,0,2.301-3.98547v-5.9422a2.42694,2.42694,0,0,1,3.64038-2.10181l8.65625,4.99781a2.34246,2.34246,0,0,1,0,4.05737l-8.67163,5.00659a3.84163,3.84163,0,0,0-1.406,1.40613L22.25916,429.823a3.47658,3.47658,0,0,0,6.02161,3.47657h0L38.773,415.12672a2.97038,2.97038,0,0,1,1.08753-1.08764l10.39514-6.00159a1.71241,1.71241,0,0,1,2.5686,1.48309v7.331a5.4674,5.4674,0,0,0,2.73365,4.73474l14.4956,8.369a7.07559,7.07559,0,0,1,3.53772,6.1275v.14423l2.601.14191-1.22192-11.65131-14.07959-8.1289a2.18226,2.18226,0,0,1-1.09143-1.89019V399.71669a4.53561,4.53561,0,0,0-2.2677-3.92792L35.681,383.17342a5.86769,5.86769,0,0,0-8.01538,2.14776l-15.879,27.50324a3.49866,3.49866,0,0,0-.00476,3.49279,1.12564,1.12564,0,0,1-.01392,1.11957l-5.16333,8.94293a2.34585,2.34585,0,0,1-2.03149,1.1731h-.8816a3.45248,3.45248,0,0,1-2.87533-1.54645v5.37335A4.0843,4.0843,0,0,1,4.30627,429.38551Z"/>
      </g>
    </g>
    <rect class="cls-18" x="0.5" y="363.38541" width="0.00366" height="72.57703"/>
    <rect class="cls-18" x="0.50366" y="363.38541" width="0.3125" height="72.57703"/>
    <rect class="cls-18" x="0.81616" y="363.38541" width="72.26099" height="72.57703"/>
  </g>
  <g>
    <path class="cls-4" d="M217.66431,375.03627a11.07393,11.07393,0,0,0-11.074-11.07386H84.73828a11.07393,11.07393,0,0,0-11.074,11.07386v8.13763h144Z"/>
    <path class="cls-4" d="M84.73828,507.96248H206.59033a11.074,11.074,0,0,0,11.074-11.07385V383.1739h-144V496.88863A11.074,11.074,0,0,0,84.73828,507.96248Z"/>
    <g class="cls-19">
      <g>
        <path class="cls-15" d="M117.323,390.38869a11.074,11.074,0,1,0,10.70581,11.43043q.01185-.36226,0-.72474A11.07425,11.07425,0,0,0,117.323,390.38869Z"/>
        <path class="cls-15" d="M189.38892,452.62917a5.457,5.457,0,0,1-6.16736.4721,6.09353,6.09353,0,0,1-2.23035-8.32385l13.16211-22.7973a10.52779,10.52779,0,0,0-9.11743-15.79151h-47.218a10.62557,10.62557,0,0,0-10.62575,10.6254l.00024.0719.13306,19.72174-3.41309,6.138a46.79179,46.79179,0,0,0-51.09619,29.72611v35.50116H73.665V490.47871q-.02747-.76977-.02808-1.54614a42.9676,42.9676,0,0,1,48.29212-42.62048l-6.00647,10.80151a6.5075,6.5075,0,0,0,2.43347,8.79822h.00008a6.50737,6.50737,0,0,0,8.88925-2.38179l0,0,12.67932-21.9613a3.40967,3.40967,0,0,0,.45679-1.705v-7.27216a4.93891,4.93891,0,0,1,4.939-4.93878h14.29884a4.20964,4.20964,0,0,1,2.10486,7.85529l-7.253,4.18762a11.47827,11.47827,0,0,0-4.25623,16.74689,46.599,46.599,0,0,1,13.1349,32.49q0,1.75761-.12915,3.48316a6.546,6.546,0,0,0,6.55469,6.05542,6.47531,6.47531,0,0,0,6.4939-6.35718v-8.78a42.95831,42.95831,0,0,1,42.54681-37.352v-3.8094A46.55306,46.55306,0,0,0,189.38892,452.62917Z"/>
      </g>
    </g>
  </g>
  <g>
    <path class="cls-13" d="M662.471,455.87447l-4.75379,8.05981a73.81178,73.81178,0,0,0,6.08942,6.53394,76.64491,76.64491,0,0,0,37.58807,19.48144v-8.64892a67.58768,67.58768,0,0,1-31.3183-16.79395A64.89678,64.89678,0,0,1,662.471,455.87447Z"/>
    <path class="cls-13" d="M665.70789,419.80849,665.707,381.9496h-8.86688l-.0011,37.85889a68.51642,68.51642,0,0,1-3.14832,20.50592,68.5148,68.5148,0,0,1-3.14819-20.50592l-.00134-37.85889h-8.86786v37.85889a48.39226,48.39226,0,0,1-15.36609,35.11859A53.04189,53.04189,0,0,1,605.98657,466.948v8.83a62.08907,62.08907,0,0,0,26.59-14.889,58.51111,58.51111,0,0,0,13.03625-18.26684c2.31409,5.94616,4.868,11.57629,8.057,15.86352l.02081.02857.02069-.02857c3.189-4.28725,5.743-9.91736,8.05713-15.86352a58.50986,58.50986,0,0,0,13.03638,18.26678,62.087,62.087,0,0,0,26.58978,14.889v-8.83a53.042,53.042,0,0,1-20.32049-12.02083A48.39148,48.39148,0,0,1,665.70789,419.80849Z"/>
    <path class="cls-13" d="M679.88464,419.017v-8.53027h-8.86779V419.017a43.47108,43.47108,0,0,0,13.79663,31.55213,47.5521,47.5521,0,0,0,16.58117,10.2238v-9.18225a38.49361,38.49361,0,0,1-10.3114-7.00336A35.264,35.264,0,0,1,679.88464,419.017Z"/>
    <path class="cls-13" d="M627.49658,419.017A35.26379,35.26379,0,0,1,616.298,444.60732a38.492,38.492,0,0,1-10.3114,7.00335v9.18224a47.55126,47.55126,0,0,0,16.5813-10.22382A43.4713,43.4713,0,0,0,636.36444,419.017v-8.53028h-8.86786Z"/>
    <path class="cls-13" d="M637.30487,464.50679a67.586,67.586,0,0,1-31.3183,16.79395v8.64892a76.64681,76.64681,0,0,0,37.58832-19.48144,73.8407,73.8407,0,0,0,6.08929-6.53394l-4.75384-8.05981A64.88248,64.88248,0,0,1,637.30487,464.50679Z"/>
  </g>
  <g>
    <rect class="cls-12" x="0.51038" y="290.7695" width="0.30579" height="72.57703"/>
    <rect class="cls-12" x="0.81616" y="290.7695" width="72.27124" height="72.57703"/>
    <g>
      <path class="cls-4" d="M3.02588,358.671c.15674-.10186.31958-.19458.48669-.281l32.287-18.61107a5.48892,5.48892,0,0,1,8.49707,4.58051v6.99829a5.56276,5.56276,0,0,0,5.56725,5.55829H66.975a5.92456,5.92456,0,0,1,5.92907,5.91961V350.31808H51.99646a1.05225,1.05225,0,0,1-1.0531-1.0514V330.1114h-.00049a1.58433,1.58433,0,0,0-.21289-.7832l-9.43433-16.31378a5.03359,5.03359,0,0,0-6.87049-1.83832l-.167.09668-5.02393,2.8955-13.01806,7.50379a5.56891,5.56891,0,1,0-4.95593,2.8573l-4.02588,2.32025a3.30018,3.30018,0,0,0,3.29512,5.719l.0092-.00532L31.08176,320.722a1.23942,1.23942,0,0,1,.1123-.06482,1.62672,1.62672,0,0,1,2.09815.52911l.001.001a1.75022,1.75022,0,0,1,.11646.20074l.001.003,4.35693,7.53363a1.62026,1.62026,0,0,1-.30553,2.27094l-.043.03168a1.5714,1.5714,0,0,1-.27112.15638L.81616,352.326v9.17579A5.48659,5.48659,0,0,1,3.02588,358.671Z"/>
      <ellipse class="cls-4" cx="30.44873" cy="304.82211" rx="5.56726" ry="5.55829"/>
    </g>
  </g>
</svg>
