<svg id="Слой_1" data-name="Слой 1" xmlns="http://www.w3.org/2000/svg" xmlns:xlink="http://www.w3.org/1999/xlink" viewBox="0 0 803.31616 517.25093">
  <defs>
    <style>
      .cls-1, .cls-17, .cls-7 {
        fill: none;
      }

      .cls-13, .cls-2 {
        fill: #e9292d;
      }

      .cls-10, .cls-11, .cls-12, .cls-14, .cls-17, .cls-2, .cls-7 {
        stroke: #fff;
        stroke-miterlimit: 10;
      }

      .cls-3 {
        clip-path: url(#clip-path);
      }

      .cls-11, .cls-4 {
        fill: #fff;
      }

      .cls-5 {
        clip-path: url(#clip-path-2);
      }

      .cls-6 {
        clip-path: url(#clip-path-3);
      }

      .cls-7 {
        stroke-width: 9px;
      }

      .cls-8 {
        clip-path: url(#clip-path-4);
      }

      .cls-9 {
        clip-path: url(#clip-path-5);
      }

      .cls-10, .cls-12, .cls-14 {
        fill: #00adee;
      }

      .cls-10 {
        stroke-width: 1.00078px;
      }

      .cls-12 {
        stroke-width: 1.00063px;
      }

      .cls-15 {
        clip-path: url(#clip-path-6);
      }

      .cls-16 {
        clip-path: url(#clip-path-7);
      }

      .cls-18 {
        clip-path: url(#clip-path-8);
      }
    </style>
    <clipPath id="clip-path" transform="translate(-99.68384 245.67391)">
      <rect class="cls-1" x="825.94427" y="190.23302" width="72.577" height="72.5769"/>
    </clipPath>
    <clipPath id="clip-path-2" transform="translate(-99.68384 245.67391)">
      <rect class="cls-1" x="317.92517" y="190.28852" width="72.577" height="72.577"/>
    </clipPath>
    <clipPath id="clip-path-3" transform="translate(-99.68384 245.67391)">
      <rect class="cls-1" x="172.77117" y="-27.44238" width="72.577" height="72.5769"/>
    </clipPath>
    <clipPath id="clip-path-4" transform="translate(-99.68384 245.67391)">
      <rect class="cls-1" x="825.96427" y="-27.44238" width="72.577" height="72.5769"/>
    </clipPath>
    <clipPath id="clip-path-5" transform="translate(-99.68384 245.67391)">
      <rect class="cls-1" x="390.50217" y="117.71162" width="72.577" height="72.5769" transform="translate(853.58135 308.00013) rotate(180)"/>
    </clipPath>
    <clipPath id="clip-path-6" transform="translate(-99.68384 245.67391)">
      <rect class="cls-1" x="825.93867" y="117.65602" width="72.5714" height="72.577"/>
    </clipPath>
    <clipPath id="clip-path-7" transform="translate(-99.68384 245.67391)">
      <rect class="cls-1" x="100.18387" y="117.71152" width="72.577" height="72.577"/>
    </clipPath>
    <clipPath id="clip-path-8" transform="translate(-99.68384 245.67391)">
      <path class="cls-1" d="M184.42207,118.28852h121.8522a11.0739,11.0739,0,0,1,11.0739,11.0739v121.8523a11.0739,11.0739,0,0,1-11.0739,11.0739H184.42217a11.074,11.074,0,0,1-11.074-11.074V129.36242A11.0739,11.0739,0,0,1,184.42207,118.28852Z"/>
    </clipPath>
  </defs>
  <g>
    <polygon class="cls-2" points="798.816 435.907 798.816 508.174 726.26 508.174 726.26 508.484 798.837 508.484 798.837 435.907 798.816 435.907"/>
    <rect class="cls-2" x="726.2605" y="435.90688" width="72.55566" height="72.26703"/>
    <g class="cls-3">
      <g>
        <path class="cls-4" d="M859.34808,242.59778l-9.10736,2.34973a74.19712,74.19712,0,0,0-.316,8.97217,75.3831,75.3831,0,0,0,.723,8.58032H859.365a66.71646,66.71646,0,0,1-.74689-8.36121A65.21131,65.21131,0,0,1,859.34808,242.59778Z" transform="translate(-99.68384 245.67391)"/>
        <path class="cls-4" d="M864.16669,225.29773a68.86929,68.86929,0,0,1,12.33722-16.81232L898.5,186.48773v-9.823l-1.39142-1.39141L870.20013,202.1817a48.64271,48.64271,0,0,1-35.88232,14.03913,53.317,53.317,0,0,1-22.98688-5.89917l-6.27594,6.27587a62.406,62.406,0,0,0,29.48139,8.31653,58.8144,58.8144,0,0,0,22.24884-3.71765c-2.58142,5.87109-4.76789,11.68787-5.5484,17.00171l-.00574.03516.03522-.00562c5.31378-.78052,11.13061-2.967,17.00171-5.54846a58.8132,58.8132,0,0,0-3.71772,22.2489,61.314,61.314,0,0,0,.671,7.5719h8.75306a52.35805,52.35805,0,0,1-.73066-7.35339,48.64124,48.64124,0,0,1,14.039-35.88233L898.5,208.04645V195.4408l-17.521,17.51977A68.86438,68.86438,0,0,1,864.16669,225.29773Z" transform="translate(-99.68384 245.67391)"/>
        <path class="cls-4" d="M879.92377,262.80994h8.79535c-.02436-.103-.04151-.20685-.065-.30994h-8.78595C879.88818,262.60315,879.90308,262.70685,879.92377,262.80994Z" transform="translate(-99.68384 245.67391)"/>
        <polygon class="cls-4" points="798.837 462.926 798.816 462.904 798.816 473.874 798.837 473.852 798.837 462.926"/>
        <path class="cls-4" d="M897.68158,216.41223l-6.063,6.06287a43.69514,43.69514,0,0,0-12.61969,32.23181,47.13924,47.13924,0,0,0,.86926,7.79309h8.78595a38.43939,38.43939,0,0,1-.96148-7.5741,35.446,35.446,0,0,1,10.22888-26.14782l.57849-.57843V217.23053Z" transform="translate(-99.68384 245.67391)"/>
        <path class="cls-4" d="M860.68628,191.54291a35.44561,35.44561,0,0,1-26.14777,10.22888,38.6885,38.6885,0,0,1-12.30658-2.3512l-6.52624,6.52631a47.79585,47.79585,0,0,0,19.05182,4.51855,43.69439,43.69439,0,0,0,32.23181-12.61975l6.063-6.06292-6.30292-6.30286Z" transform="translate(-99.68384 245.67391)"/>
        <path class="cls-4" d="M835.3255,230.84631a67.93766,67.93766,0,0,1-34.196-10.32324l-6.14722,6.1471a77.04013,77.04013,0,0,0,40.5625,12.86962,74.1954,74.1954,0,0,0,8.97223-.316l2.34979-9.10742A65.22276,65.22276,0,0,1,835.3255,230.84631Z" transform="translate(-99.68384 245.67391)"/>
      </g>
    </g>
  </g>
  <g>
    <rect class="cls-2" x="435.97241" y="508.48385" width="72.5769" height="0.05554"/>
    <rect class="cls-2" x="435.97241" y="508.17391" width="72.5769" height="0.30994"/>
    <rect class="cls-2" x="435.97241" y="435.96243" width="72.5769" height="72.21149"/>
    <g>
      <path class="cls-4" d="M587.27271,245.72351a1.05569,1.05569,0,0,1-1.05567-1.05566V225.43323h-.00061a1.59277,1.59277,0,0,0-.2135-.78638l-9.45825-16.38129a5.04177,5.04177,0,0,0-6.8877-1.84594l-.16748.097-5.03662,2.90753-13.051,7.53479a5.58133,5.58133,0,1,0-4.96851,2.86927l-4.03613,2.32959a3.31262,3.31262,0,0,0,3.31274,5.73755l20.595-11.89039a1.26576,1.26576,0,0,1,.11267-.06518,1.62938,1.62938,0,0,1,2.1034.53125l.00109.001a1.79791,1.79791,0,0,1,.11683.20166l.001.00317,4.36792,7.5647a1.63231,1.63231,0,0,1,.33277.98706,1.62305,1.62305,0,0,1-.68213,1.32507,1.59283,1.59283,0,0,1-.27173.15711l-36.73047,21.206v10.73877c0,.01343,0,.02686.001.04028a5.493,5.493,0,0,1,2.521-4.585c.157-.10229.32032-.19531.4878-.28222l32.36865-18.688a5.50135,5.50135,0,0,1,8.5188,4.59936v7.02735a5.58122,5.58122,0,0,0,5.5813,5.58129h17.15429a5.94424,5.94424,0,0,1,5.94409,5.9441V245.72351H587.27271Z" transform="translate(-99.68384 245.67391)"/>
      <path class="cls-4" d="M565.67053,194.458a5.58133,5.58133,0,1,0,5.58142,5.5813A5.58174,5.58174,0,0,0,565.67053,194.458Z" transform="translate(-99.68384 245.67391)"/>
    </g>
  </g>
  <g>
    <rect class="cls-2" x="218.24146" y="435.96243" width="72.5769" height="72.21149"/>
    <g class="cls-5">
      <g>
        <path class="cls-4" d="M351.329,242.65332l-9.1073,2.34973a74.19915,74.19915,0,0,0-.31616,8.97241,75.3946,75.3946,0,0,0,.715,8.52454h8.71772a66.71557,66.71557,0,0,1-.73926-8.30554A65.21249,65.21249,0,0,1,351.329,242.65332Z" transform="translate(-99.68384 245.67391)"/>
        <path class="cls-4" d="M379.26367,219.32l26.90784-26.90924-6.30213-6.30213L372.96,213.01624a68.87071,68.87071,0,0,1-16.81238,12.337,68.872,68.872,0,0,1,12.33728-16.81238l26.90747-26.9093-6.30273-6.30279L362.181,202.2373a48.64261,48.64261,0,0,1-35.88232,14.03907,53.31753,53.31753,0,0,1-22.98694-5.899l-6.27588,6.27588a62.40737,62.40737,0,0,0,29.48144,8.3164,58.81243,58.81243,0,0,0,22.24878-3.71752c-2.58154,5.87109-4.76782,11.68774-5.54834,17.00158l-.00573.03528.03515-.00574c5.31372-.78051,11.13062-2.96692,17.00171-5.54846a58.813,58.813,0,0,0-3.71765,22.249,61.30844,61.30844,0,0,0,.66193,7.51624h8.753a52.35121,52.35121,0,0,1-.72156-7.29761A48.64114,48.64114,0,0,1,379.26367,219.32Z" transform="translate(-99.68384 245.67391)"/>
        <path class="cls-4" d="M389.90234,228.83362l6.06324-6.063-6.303-6.30286-6.063,6.06287a43.69533,43.69533,0,0,0-12.61987,32.23193,47.13444,47.13444,0,0,0,.858,7.73743h8.78351a38.4446,38.4446,0,0,1-.9477-7.51843A35.4467,35.4467,0,0,1,389.90234,228.83362Z" transform="translate(-99.68384 245.67391)"/>
        <path class="cls-4" d="M352.66724,191.59839a35.4454,35.4454,0,0,1-26.14771,10.229,38.69274,38.69274,0,0,1-12.30664-2.35119l-6.52637,6.5263a47.79627,47.79627,0,0,0,19.05188,4.51862,43.69543,43.69543,0,0,0,32.23181-12.61981l6.063-6.06293-6.303-6.303Z" transform="translate(-99.68384 245.67391)"/>
        <path class="cls-4" d="M327.30652,230.902a67.94058,67.94058,0,0,1-34.19617-10.32324l-6.14722,6.147a77.03816,77.03816,0,0,0,40.5625,12.86963,74.20167,74.20167,0,0,0,8.97229-.31592l2.34974-9.10754A65.22342,65.22342,0,0,1,327.30652,230.902Z" transform="translate(-99.68384 245.67391)"/>
      </g>
    </g>
  </g>
  <g>
    <rect class="cls-2" x="73.0874" y="218.23153" width="72.5769" height="72.57684"/>
    <g class="cls-6">
      <g>
        <path class="cls-7" d="M203.44157-108.73088v74.7725c0,24.8017,17.0276,44.9074,38.0323,44.9074,21.0046,0,38.0323-20.1057,38.0323-44.9074v-74.7725" transform="translate(-99.68384 245.67391)"/>
        <path class="cls-7" d="M263.6748-33.95831c0,15.33471-9.95947,27.81012-22.20092,27.81012S219.273-18.6236,219.273-33.95831V-108.7309h-31.6626v74.77259c0,34.18908,24.16309,62.00439,53.86353,62.00439s53.8634-27.81531,53.8634-62.00439V-108.7309H263.6748Z" transform="translate(-99.68384 245.67391)"/>
      </g>
    </g>
  </g>
  <g>
    <rect class="cls-2" x="798.83746" y="218.23153" width="0.02002" height="72.57684"/>
    <rect class="cls-2" x="798.81616" y="218.23153" width="0.0213" height="72.57684"/>
    <rect class="cls-2" x="726.28046" y="218.23153" width="72.53571" height="72.57684"/>
    <g class="cls-8">
      <g>
        <path class="cls-7" d="M856.63457-108.73088v74.7725c0,24.8017,16.87109,44.9074,37.68282,44.9074" transform="translate(-99.68384 245.67391)"/>
        <path class="cls-7" d="M894.667-6.14819c-12.24157,0-22.201-12.47541-22.201-27.81012V-108.7309H840.80353v74.77259c0,34.18908,24.163,62.00439,53.86346,62.00439,1.29016,0,2.56531-.07129,3.833-.17486V-6.57227A17.86785,17.86785,0,0,1,894.667-6.14819Z" transform="translate(-99.68384 245.67391)"/>
      </g>
    </g>
  </g>
  <g>
    <rect class="cls-2" x="290.81836" y="363.38552" width="72.57703" height="72.5769"/>
    <g class="cls-9">
      <g>
        <path class="cls-7" d="M432.40887,271.577v-74.7724c0-24.8018-17.0277-44.9075-38.0324-44.9075a32.63258,32.63258,0,0,0-4.20874.27185" transform="translate(-99.68384 245.67391)"/>
        <path class="cls-7" d="M389.90791,169.56027a17.91489,17.91489,0,0,1,4.46855-.566c12.2417,0,22.20105,12.47541,22.20105,27.81024V262.5H448.24V196.8045c0-34.1892-24.163-62.00451-53.86353-62.00451q-1.97252,0-3.91087.16172" transform="translate(-99.68384 245.67391)"/>
      </g>
    </g>
  </g>
  <g>
    <rect class="cls-2" x="290.81836" y="363.38552" width="0.00439" height="72.57697"/>
    <rect class="cls-2" x="218.24561" y="363.38552" width="72.57275" height="72.57697"/>
    <g>
      <circle class="cls-4" cx="254.88574" cy="385.63084" r="5.54516"/>
      <path class="cls-4" d="M364.64014,121.67377a5.54517,5.54517,0,1,0,5.54516,5.5451A5.54513,5.54513,0,0,0,364.64014,121.67377Z" transform="translate(-99.68384 245.67391)"/>
      <path class="cls-4" d="M318.34546,183.77716a4.17839,4.17839,0,0,1,2.08887-3.67755l4.91821-2.8396a5.63159,5.63159,0,0,0,2.81592-4.87744V164.329a1.79865,1.79865,0,0,1,2.698-1.55762l7.118,4.10944a2.578,2.578,0,0,1,.94372.94391l9.771,16.924a3.59927,3.59927,0,0,0,6.23413-3.59924l-10.13721-17.558a6.91435,6.91435,0,0,0-2.53149-2.53149l-4.76148-2.74909a1.97116,1.97116,0,0,1,0-3.41424l5.062-2.92261a1.78943,1.78943,0,0,1,2.44409.65491l1.43322,2.4826a5.12053,5.12053,0,0,0,4.4347,2.56031h8.356a5.12072,5.12072,0,0,0,4.43482-2.56031l4.17065-7.22418a1.66711,1.66711,0,0,1,2.88745,0l2.76978,4.79761a1.98941,1.98941,0,0,1-.72815,2.71771l-7.8103,4.5094a5.80316,5.80316,0,0,0-2.90174,5.02576l.00013,17.85864a3.55982,3.55982,0,0,0,7.11963.00049V166.73047a2.17638,2.17638,0,0,1,1.08874-1.88519l5.30518-3.06281a1.98993,1.98993,0,0,1,2.985,1.72321v8.59051a4.6809,4.6809,0,0,0,2.34046,4.05371l6.0791,3.50989a6.88727,6.88727,0,0,1,3.44384,5.96478v.9242l.08448.00744v-12.978l-.08448-.04877-3.94555-2.278a1.86975,1.86975,0,0,1-.93506-1.61938v-18.2254a4.24822,4.24822,0,0,0-.56934-2.12464l-8.32116-14.41278a5.31744,5.31744,0,0,0-9.21009,0l-8.51342,14.74561a1.73828,1.73828,0,0,1-1.50513.86895h-4.48584a1.73794,1.73794,0,0,1-1.505-.86895l-4.20361-7.281a5.32956,5.32956,0,0,0-7.28027-1.95068l-15.34607,8.86a6.5491,6.5491,0,0,0-3.27442,5.67163v15.65583a1.593,1.593,0,0,1-.79626,1.37909l-2.60132,1.50183V185.533l.4447-.03143Z" transform="translate(-99.68384 245.67391)"/>
    </g>
  </g>
  <rect class="cls-10" x="798.83746" y="0.50039" width="0.02002" height="217.73102"/>
  <rect class="cls-10" x="798.81616" y="0.50039" width="0.0213" height="217.73102"/>
  <rect class="cls-10" x="0.50366" y="0.50039" width="0.3125" height="217.73102"/>
  <rect class="cls-10" x="0.81616" y="0.50039" width="798" height="217.73102"/>
  <g>
    <g>
      <polygon class="cls-4" points="615.456 27.872 612.124 27.872 612.124 49.661 615.456 49.661 618.62 49.661 622.011 49.661 622.011 40.916 618.62 40.916 618.62 46.548 615.456 46.548 615.456 30.985 618.62 30.985 618.62 36.617 622.011 36.617 622.011 27.872 618.62 27.872 615.456 27.872"/>
      <path class="cls-4" d="M690.194-203.20453c-.87164-4.65985-2.00775-9.86127-2.53235-14.55847H683.1839v21.78857h2.907v-8.62l-.34228-7.78839c.417,2.50561,2.05438,11.74,4.13482,16.16418v.01373h.6211v-.01373c2.0805-4.42419,3.71777-13.65857,4.13476-16.16418l-.34228,7.78839v8.62h2.9071V-217.763h-4.4779C692.20172-213.0658,691.06543-207.86438,690.194-203.20453Z" transform="translate(-99.68384 245.67391)"/>
      <rect class="cls-4" x="698.09027" y="22.74709" width="7.32819" height="2.55261"/>
      <path class="cls-4" d="M702.8938-217.80212h-3.33118v21.78881h9.887v-21.78881H702.8938Zm3.16412,18.67608h-3.10364v-15.56335h3.10364Z" transform="translate(-99.68384 245.67391)"/>
      <path class="cls-4" d="M730.32721-212.639c0,1.45752-.58283,3.42133-2.38922,3.41663l-.5531-.00128V-217.763h-3.33106v21.78857h3.33106v-9.7785l.57989-.0047c1.6933-.01379,2.36243,1.6958,2.36243,3.10663v6.67657h3.33118v-6.53576a5.66595,5.66595,0,0,0-2.49866-5.13483,5.81375,5.81375,0,0,0,2.49866-5.1347V-217.763h-3.33118Z" transform="translate(-99.68384 245.67391)"/>
      <polygon class="cls-4" points="699.671 40.642 699.671 27.911 696.703 27.911 696.703 49.699 699.719 49.727 703.808 34.54 703.808 49.699 706.806 49.699 706.806 27.911 703.093 27.911 699.671 40.642"/>
      <path class="cls-4" d="M778.391-212.639c0,1.45752-.58288,3.42133-2.38916,3.41663l-.55322-.00128V-217.763h-3.33112v21.78857h3.33112v-9.7785l.58-.0047c1.69329-.01379,2.36236,1.6958,2.36236,3.10663v6.67657h3.331v-6.53576a5.66564,5.66564,0,0,0-2.49859-5.13483,5.81313,5.81313,0,0,0,2.49859-5.1347V-217.763h-3.331Z" transform="translate(-99.68384 245.67391)"/>
      <polygon class="cls-4" points="687.209 40.642 687.209 27.911 684.241 27.911 684.241 49.699 687.258 49.727 691.346 34.54 691.346 49.699 694.344 49.699 694.344 27.911 690.631 27.911 687.209 40.642"/>
      <polygon class="cls-4" points="663.519 27.872 660.188 27.872 660.188 49.661 663.519 49.661 666.684 49.661 670.075 49.661 670.075 40.916 666.684 40.916 666.684 46.548 663.519 46.548 663.519 30.985 666.684 30.985 666.684 36.617 670.075 36.617 670.075 27.872 666.684 27.872 663.519 27.872"/>
      <path class="cls-4" d="M739.34808-217.80212h-3.33117v21.78881h9.8869v-21.78881h-6.55573Zm3.16425,18.67608h-3.10382v-15.56335h3.10382Z" transform="translate(-99.68384 245.67391)"/>
      <path class="cls-4" d="M751.59363-217.80212h-3.33124v21.78881h3.33124v-.00769c2.02521.00049,4.0506.00769,6.075.00769v-7.13061a5.28252,5.28252,0,0,0-1.857-4.33411,4.45284,4.45284,0,0,0,1.857-3.81445v-6.50964c-2.02435,0-4.04974.00732-6.075.00781Zm2.74231,18.67608h-2.74231v-6.60058c1.2417-.06867,2.744.14239,2.744,2.36493C754.33759-201.94818,754.33594-200.53882,754.33594-199.126Zm0-15.56335v1.63269h.00165v1.98212c0,2.22235-1.50226,2.29626-2.744,2.228v-5.84277Z" transform="translate(-99.68384 245.67391)"/>
      <polygon class="cls-4" points="725.716 49.714 729.046 49.714 729.046 31.037 732.211 31.037 732.211 49.714 735.602 49.714 735.602 27.925 725.716 27.925 725.716 49.714"/>
      <path class="cls-4" d="M849.77789-195.96039h3.331v-5.85742h1.10894c3.2323,0,4.96625-2.3429,4.96625-5.6955v-10.2359c-3.13489,0-6.27185.0174-9.40619,0Zm3.331-18.676h2.74243v5.35913h.00159v1.982c0,2.22248-1.50208,2.43335-2.744,2.365Z" transform="translate(-99.68384 245.67391)"/>
      <polygon class="cls-4" points="716.813 27.925 713.482 27.925 713.482 49.714 716.813 49.714 719.978 49.714 723.369 49.714 723.369 40.969 719.978 40.969 719.978 46.601 716.813 46.601 716.813 31.037 719.978 31.037 719.978 36.67 723.369 36.67 723.369 27.925 719.978 27.925 716.813 27.925"/>
      <path class="cls-4" d="M840.95758-217.74921h-3.33105v21.78882h9.8869v-21.78882h-6.55585Zm3.16425,18.67609h-3.1037v-15.56329h3.1037Z" transform="translate(-99.68384 245.67391)"/>
      <polygon class="cls-4" points="760.416 31.037 763.899 31.037 763.899 49.714 767.23 49.714 767.23 31.037 770.713 31.037 770.713 27.925 760.416 27.925 760.416 31.037"/>
    </g>
    <g>
      <path class="cls-4" d="M656.0014-205.32544l-1.3045,2.21191a20.24824,20.24824,0,0,0,1.671,1.7931,21.03357,21.03357,0,0,0,10.31506,5.346v-2.37341a18.54734,18.54734,0,0,1-8.59448-4.60858A17.80225,17.80225,0,0,1,656.0014-205.32544Z" transform="translate(-99.68384 245.67391)"/>
      <path class="cls-4" d="M656.88971-215.22272v-10.3894h-2.43347l-.00043,10.3894a18.8063,18.8063,0,0,1-.86389,5.62732,18.79874,18.79874,0,0,1-.864-5.62732l-.00031-10.3894H650.294v10.3894a13.27982,13.27982,0,0,1-4.2168,9.63733,14.55689,14.55689,0,0,1-5.57648,3.29889v2.42322a17.03982,17.03982,0,0,0,7.297-4.086,16.05625,16.05625,0,0,0,3.57739-5.01282,18.95879,18.95879,0,0,0,2.21106,4.3534l.00574.00781.00568-.00781a18.95925,18.95925,0,0,0,2.21112-4.3534,16.05431,16.05431,0,0,0,3.57739,5.01282,17.039,17.039,0,0,0,7.29687,4.086v-2.42322a14.55589,14.55589,0,0,1-5.57647-3.29889A13.27935,13.27935,0,0,1,656.88971-215.22272Z" transform="translate(-99.68384 245.67391)"/>
      <path class="cls-4" d="M660.78009-215.43988v-2.34082h-2.43347v2.34082a11.92923,11.92923,0,0,0,3.78607,8.65857,13.04933,13.04933,0,0,0,4.55029,2.80572v-2.51983a10.568,10.568,0,0,1-2.82965-1.92182A9.67716,9.67716,0,0,1,660.78009-215.43988Z" transform="translate(-99.68384 245.67391)"/>
      <path class="cls-4" d="M646.40363-215.43988a9.67717,9.67717,0,0,1-3.07325,7.02264,10.564,10.564,0,0,1-2.82965,1.92182v2.51983a13.04709,13.04709,0,0,0,4.5503-2.80572,11.92938,11.92938,0,0,0,3.78619-8.65857v-2.34082h-2.43359Z" transform="translate(-99.68384 245.67391)"/>
      <path class="cls-4" d="M649.09534-202.95642a18.54744,18.54744,0,0,1-8.59461,4.60858v2.37341a21.03343,21.03343,0,0,0,10.31519-5.346,20.23859,20.23859,0,0,0,1.671-1.7931l-1.30445-2.21191A17.81071,17.81071,0,0,1,649.09534-202.95642Z" transform="translate(-99.68384 245.67391)"/>
    </g>
  </g>
  <g>
    <path class="cls-4" d="M126.44727-162.80371h6.02148v-54.39307c0-5.40869,2.24414-7.85791,8.36719-7.85791h25.71679v62.251h6.02149v19.38965H161.34863v-10.20508H137.67285v10.20508H126.44727Zm17.24609,0h11.63476v-53.06641H143.69336Z" transform="translate(-99.68384 245.67391)"/>
    <path class="cls-4" d="M177.67383-153.61914v-71.43555h26.7373v9.18457H188.89941V-195.46h14.79786v9.18457H188.89941v23.47168h15.51172v9.18457Z" transform="translate(-99.68384 245.67391)"/>
    <path class="cls-4" d="M232.87988-153.61914v-32.65625H221.24609v32.65625H210.02051v-71.43555h11.22558V-195.46h11.63379v-29.59473h11.22559v71.43555Z" transform="translate(-99.68384 245.67391)"/>
    <path class="cls-4" d="M284.31152-162.19141c0,5.6128-1.63281,8.57227-8.46972,8.57227H250.22656v-71.43555h11.22559v27.65576H275.8418c5.8164,0,8.46972,1.83692,8.46972,7.34766ZM273.08594-188.1123H261.45215v25.30859h11.63379Z" transform="translate(-99.68384 245.67391)"/>
    <path class="cls-4" d="M144.81641-48.90527v-7.14356h-9.79688c-5.61328,0-7.55176-1.939-7.55176-7.34765v-43.88184c0-5.51074,2.24512-7.96,8.36817-7.96h8.98047v-7.14356H156.042v7.14356h9.49121c6.12305,0,8.26563,2.041,8.26563,7.34766v44.39208c0,5.71485-2.14258,7.44971-8.47071,7.44971H156.042v7.14356Zm-6.123-16.32813h6.123v-40.82031h-6.123Zm23.87988-40.82031H156.042V-65.2334h6.53125Z" transform="translate(-99.68384 245.67391)"/>
    <path class="cls-4" d="M202.77832-49.92578V-91.7666L191.14453-49.92578H179.919v-71.43555h11.22558v41.84082l11.63379-41.84082h11.22559v71.43555Z" transform="translate(-99.68384 245.67391)"/>
    <path class="cls-4" d="M245.74023-49.92578H228.90137c-6.73535,0-8.77637-2.041-8.77637-7.34766V-73.19336h11.22559v14.083h11.63379V-78.9082l-8.0625-8.26612,7.55273-7.85791v-17.14453h-11.124v13.981H220.125v-15.81787c0-5.30664,2.24512-7.34766,8.77637-7.34766h16.32812c5.71485,0,8.36817,2.041,8.36817,7.75586v17.55274c0,3.77587-.918,5.10253-5.40821,8.67431,4.5918,2.95947,6.02051,4.79639,6.02051,8.36817v21.63476C254.21-51.9668,251.96484-49.92578,245.74023-49.92578Z" transform="translate(-99.68384 245.67391)"/>
    <path class="cls-4" d="M286.04785-49.92578l-6.83691-12.6543c-4.69532-8.67431-7.6543-15.71582-7.6543-15.71582v28.37012H260.33105v-71.43555h11.22559v26.53321s2.55078-6.2251,7.34766-15.20557l6.123-11.32764h11.83789l-19.084,34.28906,21.43164,37.14649Z" transform="translate(-99.68384 245.67391)"/>
    <path class="cls-4" d="M323.499-57.37549c-1.63281,6.73535-4.49023,7.44971-10.91894,7.44971h-8.57227v-9.18457h9.49024l1.123-4.49024-15.41015-57.76074h11.63379l4.28613,18.77735c2.041,8.77636,4.18359,19.08349,4.18359,19.08349s2.041-10.61328,4.082-19.79785l3.98047-18.063h11.42969Z" transform="translate(-99.68384 245.67391)"/>
    <path class="cls-4" d="M338.80469-59.11035h6.22461v-54.291c0-5.51074,2.24609-7.96,8.36914-7.96h25.71679v71.43555H367.88867v-62.251H356.25586v54.80127c-.4082,5.71485-1.93945,7.44971-8.36914,7.44971h-9.082Z" transform="translate(-99.68384 245.67391)"/>
    <path class="cls-4" d="M419.32031-58.498c0,5.6128-1.63281,8.57227-8.4707,8.57227H385.23535v-71.43555h11.22559v27.65576h14.38867c5.81738,0,8.4707,1.83692,8.4707,7.34766Zm-11.22558-25.9209H396.46094v25.3086h11.63379Z" transform="translate(-99.68384 245.67391)"/>
    <path class="cls-4" d="M441.46484-112.17676v62.251H430.24023v-62.251H419.32031v-9.18457h33.166v9.18457Z" transform="translate(-99.68384 245.67391)"/>
    <path class="cls-4" d="M479.834-57.37549c-1.63281,6.73535-4.49023,7.44971-10.91992,7.44971H460.3418v-9.18457H469.833l1.12207-4.49024L455.5459-121.36133h11.63379l4.28613,18.77735c2.041,8.77636,4.18457,19.08349,4.18457,19.08349s2.041-10.61328,4.082-19.79785l3.97949-18.063H495.1416Z" transform="translate(-99.68384 245.67391)"/>
    <path class="cls-4" d="M524.83594-77.58154H510.44629v27.65576H499.2207v-71.43555h25.61524c6.83691,0,8.46972,2.95947,8.46972,8.57227V-84.9292C533.30566-79.41846,530.65234-77.58154,524.83594-77.58154Zm-2.75586-34.59522H510.44629v25.3086h11.63379Z" transform="translate(-99.68384 245.67391)"/>
    <path class="cls-4" d="M562.28613-49.92578V-82.582H550.65234v32.65625H539.42676v-71.43555h11.22558V-91.7666h11.63379v-29.59473h11.22559v71.43555Z" transform="translate(-99.68384 245.67391)"/>
    <path class="cls-4" d="M602.49219-49.92578V-91.7666L590.8584-49.92578H579.63281v-71.43555H590.8584v41.84082l11.63379-41.84082h11.22558v71.43555Z" transform="translate(-99.68384 245.67391)"/>
    <path class="cls-4" d="M645.55566-49.92578l-6.83691-12.6543c-4.69531-8.67431-7.6543-15.71582-7.6543-15.71582v28.37012H619.83887v-71.43555h11.22558v26.53321s2.55078-6.2251,7.34766-15.20557l6.12305-11.32764h11.83789l-19.084,34.28906L658.7207-49.92578Z" transform="translate(-99.68384 245.67391)"/>
    <path class="cls-4" d="M685.65918-49.92578V-77.47949H673.92383v27.55371h-11.124v-64.292c0-5.51075,2.55176-7.14356,8.46973-7.14356H688.1084c6.63379,0,8.77637,1.73487,8.77637,7.34766v64.08789Zm0-61.74072H673.92383v24.79834h11.73535Z" transform="translate(-99.68384 245.67391)"/>
    <path class="cls-4" d="M720.35352-49.82373v-7.96l20.61425-41.22852v-13.16455h-8.06152v13.981h-11.124v-15.81787c0-5.30664,2.14355-7.34766,8.87793-7.34766h13.0625c5.71484,0,8.36914,2.041,8.36914,7.34766v15.00146a14.35491,14.35491,0,0,1-1.63282,7.34766s-12.85937,25.51269-16.43066,32.5542h19.083v9.28662Z" transform="translate(-99.68384 245.67391)"/>
    <path class="cls-4" d="M782.60156-49.92578H767.70312c-6.42968,0-8.4707-2.041-8.4707-7.34766v-56.63818c0-5.40869,2.041-7.44971,8.0625-7.44971h15.10352c6.22461,0,8.67383,2.041,8.67383,7.34766v56.94433C791.07227-51.9668,788.62305-49.92578,782.60156-49.92578Zm-2.65234-62.251H770.458v53.06641h9.49121Z" transform="translate(-99.68384 245.67391)"/>
    <path class="cls-4" d="M797.19336-49.82373v-7.96l20.61426-41.22852v-13.16455h-8.06153v13.981h-11.124v-15.81787c0-5.30664,2.14355-7.34766,8.87793-7.34766h13.0625c5.71484,0,8.36914,2.041,8.36914,7.34766v15.00146a14.355,14.355,0,0,1-1.63281,7.34766s-12.85938,25.51269-16.43067,32.5542h19.083v9.28662Z" transform="translate(-99.68384 245.67391)"/>
    <path class="cls-4" d="M836.07227-49.82373v-7.96l20.61425-41.22852v-13.16455H848.625v13.981H837.501v-15.81787c0-5.30664,2.14355-7.34766,8.87793-7.34766h13.0625c5.71484,0,8.36914,2.041,8.36914,7.34766v15.00146a14.35491,14.35491,0,0,1-1.63282,7.34766s-12.85937,25.51269-16.43066,32.5542h19.083v9.28662Z" transform="translate(-99.68384 245.67391)"/>
  </g>
  <rect class="cls-11" x="73.0874" y="508.48385" width="145.15405" height="0.05554"/>
  <rect class="cls-11" x="73.0874" y="508.17391" width="145.15405" height="0.30994"/>
  <rect class="cls-11" x="73.0874" y="363.3854" width="145.15405" height="144.78851"/>
  <rect class="cls-2" x="363.39539" y="363.3854" width="72.57703" height="72.57703"/>
  <rect class="cls-11" x="581.12646" y="508.48385" width="145.12842" height="0.03003"/>
  <rect class="cls-11" x="581.12646" y="508.17391" width="145.12842" height="0.30994"/>
  <rect class="cls-11" x="581.12646" y="363.3854" width="145.12842" height="144.78851"/>
  <rect class="cls-2" x="73.0874" y="290.80837" width="72.5769" height="72.57703"/>
  <rect class="cls-2" x="145.66431" y="290.80837" width="72.57715" height="72.57703"/>
  <rect class="cls-2" x="363.39539" y="290.80837" width="72.57703" height="72.57703"/>
  <rect class="cls-12" x="581.12646" y="290.80837" width="72.57703" height="72.57703"/>
  <rect class="cls-2" x="653.70349" y="290.80837" width="72.57697" height="72.57703"/>
  <rect class="cls-11" x="798.83746" y="290.80837" width="0.02002" height="72.57703"/>
  <rect class="cls-11" x="798.81616" y="290.80837" width="0.0213" height="72.57703"/>
  <rect class="cls-11" x="726.28046" y="290.80837" width="72.53571" height="72.57703"/>
  <rect class="cls-2" x="0.51038" y="218.23141" width="0.30579" height="72.57697"/>
  <rect class="cls-2" x="0.81616" y="218.23141" width="72.27124" height="72.57697"/>
  <rect class="cls-2" x="0.51038" y="508.48385" width="72.57703" height="0.05554"/>
  <polygon class="cls-2" points="0.816 435.962 0.51 435.962 0.51 508.484 73.087 508.484 73.087 508.174 0.816 508.174 0.816 435.962"/>
  <rect class="cls-2" x="0.81616" y="435.96243" width="72.27124" height="72.21149"/>
  <rect class="cls-2" x="145.66431" y="218.23141" width="72.57715" height="72.57697"/>
  <polygon class="cls-11" points="218.241 218.231 218.241 290.808 218.241 363.385 290.818 363.385 363.396 363.385 363.396 290.808 363.396 218.231 290.818 218.231 218.241 218.231"/>
  <rect class="cls-12" x="363.39539" y="218.23141" width="72.57703" height="72.57697"/>
  <rect class="cls-11" x="435.97241" y="218.23141" width="72.5769" height="72.57697"/>
  <rect class="cls-12" x="290.81836" y="508.48385" width="72.57703" height="0.05554"/>
  <rect class="cls-12" x="290.81836" y="508.17391" width="72.57703" height="0.30994"/>
  <rect class="cls-12" x="290.81836" y="435.96243" width="72.57703" height="72.21149"/>
  <rect class="cls-11" x="363.39539" y="508.48385" width="72.57703" height="0.05554"/>
  <rect class="cls-11" x="363.39539" y="508.17391" width="72.57703" height="0.30994"/>
  <rect class="cls-11" x="363.39539" y="435.96243" width="72.57703" height="72.21149"/>
  <rect class="cls-2" x="508.54932" y="218.23141" width="72.57715" height="72.57697"/>
  <rect class="cls-2" x="508.54932" y="508.48385" width="72.57715" height="0.05554"/>
  <rect class="cls-2" x="508.54932" y="508.17391" width="72.57715" height="0.30994"/>
  <rect class="cls-2" x="508.54932" y="435.96243" width="72.57715" height="72.21149"/>
  <rect class="cls-2" x="581.12646" y="218.23141" width="145.15399" height="72.57697"/>
  <g>
    <path class="cls-4" d="M764.512-27.4425c.00037.01721.0019.03417.0019.05139,0,9.769-10.46582,17.71679-23.33008,17.71679H680.8103V-.6748h60.37354c17.82715,0,32.33008-11.98493,32.33008-26.71631,0-.01722-.00153-.03418-.00153-.05139Z" transform="translate(-99.68384 245.67391)"/>
    <path class="cls-4" d="M781.62183-27.4425c0,.01721.00146.03417.00146.05139,0,18.50439-18.14056,33.55908-40.43945,33.55908H680.8103v9h60.37354c27.26074,0,49.43945-19.0918,49.43945-42.55908,0-.01722-.00146-.03418-.00146-.05139Z" transform="translate(-99.68384 245.67391)"/>
    <path class="cls-4" d="M798.7312-27.4425c0,.01721.00153.03417.00153.05139,0,27.24072-25.81641,49.40179-57.54889,49.40179H680.8103v9h60.37354c36.69525,0,66.54889-26.19922,66.54889-58.40179,0-.01722-.00153-.03418-.00153-.05139Z" transform="translate(-99.68384 245.67391)"/>
  </g>
  <g>
    <path class="cls-4" d="M713.74634-27.4425c-.005.11541-.02735.22589-.02735.34259a8.26661,8.26661,0,0,0,8.26661,8.26647,8.26656,8.26656,0,0,0,8.2666-8.26647c0-.1167-.02246-.22718-.02741-.34259Z" transform="translate(-99.68384 245.67391)"/>
    <path class="cls-4" d="M688.52472-27.4425c-.0044.1145-.01709.22686-.01709.34259a8.26605,8.26605,0,0,0,8.26605,8.26647,8.26625,8.26625,0,0,0,8.2666-8.26647c0-.1167-.02246-.22718-.0274-.34259Z" transform="translate(-99.68384 245.67391)"/>
    <path class="cls-4" d="M738.95734-27.4425c-.00446.11541-.02692.22589-.02692.34259a8.26656,8.26656,0,0,0,8.2666,8.26647,8.2666,8.2666,0,0,0,8.2666-8.26647c0-.11573-.01269-.22809-.01709-.34259Z" transform="translate(-99.68384 245.67391)"/>
  </g>
  <g>
    <path class="cls-13" d="M399.28247,65.05927l-4.75378,8.05981a73.807,73.807,0,0,0,6.08947,6.53412A76.6439,76.6439,0,0,0,438.2063,99.13446V90.48572a67.58781,67.58781,0,0,1-31.31836-16.794A64.897,64.897,0,0,1,399.28247,65.05927Z" transform="translate(-99.68384 245.67391)"/>
    <path class="cls-13" d="M402.51941,28.99341l-.00086-37.85895h-8.86694l-.0011,37.859a68.51578,68.51578,0,0,1-3.14831,20.50586,68.51572,68.51572,0,0,1-3.1482-20.50586l-.00122-37.85895h-8.86792v37.859A48.39193,48.39193,0,0,1,363.11865,64.112,53.04391,53.04391,0,0,1,342.7981,76.13287v8.8299a62.08891,62.08891,0,0,0,26.59008-14.889,58.51151,58.51151,0,0,0,13.03614-18.26691c2.31421,5.94623,4.86816,11.5763,8.05713,15.86353l.02075.02869.02075-.02869c3.189-4.28723,5.74292-9.9173,8.05713-15.86353a58.508,58.508,0,0,0,13.03638,18.26691,62.08589,62.08589,0,0,0,26.58984,14.889v-8.8299A53.04485,53.04485,0,0,1,417.88574,64.112,48.39158,48.39158,0,0,1,402.51941,28.99341Z" transform="translate(-99.68384 245.67391)"/>
    <path class="cls-13" d="M416.69629,28.2019V19.67157h-8.86792V28.2019A43.47136,43.47136,0,0,0,421.625,59.754a47.55109,47.55109,0,0,0,16.5813,10.22381V60.79559a38.49163,38.49163,0,0,1-10.31152-7.00341A35.26382,35.26382,0,0,1,416.69629,28.2019Z" transform="translate(-99.68384 245.67391)"/>
    <path class="cls-13" d="M364.30811,28.2019A35.264,35.264,0,0,1,353.1095,53.79218a38.48912,38.48912,0,0,1-10.3114,7.00341v9.18219A47.55114,47.55114,0,0,0,359.37939,59.754,43.47087,43.47087,0,0,0,373.176,28.2019V19.67157h-8.86792Z" transform="translate(-99.68384 245.67391)"/>
    <path class="cls-13" d="M374.11646,73.69171a67.58728,67.58728,0,0,1-31.31836,16.794v8.64874A76.64727,76.64727,0,0,0,380.38647,79.6532a73.84022,73.84022,0,0,0,6.08924-6.53412l-4.75379-8.05981A64.89688,64.89688,0,0,1,374.11646,73.69171Z" transform="translate(-99.68384 245.67391)"/>
  </g>
  <circle class="cls-7" cx="281.63675" cy="8.84599" r="18.79817" transform="translate(120.00705 529.4021) rotate(-79.09933)"/>
  <g>
    <circle class="cls-4" cx="192.41476" cy="65.70898" r="10.60239" transform="translate(-107.72467 277.34372) rotate(-9.21745)"/>
    <circle class="cls-4" cx="126.02087" cy="311.3829" r="10.60229"/>
    <circle class="cls-4" cx="126.02087" cy="342.81089" r="10.60232"/>
  </g>
  <g>
    <circle class="cls-4" cx="600.7699" cy="311.3829" r="10.60233"/>
    <circle class="cls-4" cx="733.74374" cy="65.70898" r="10.60229" transform="translate(292.56068 964.12774) rotate(-67.49996)"/>
    <circle class="cls-4" cx="733.74374" cy="97.13698" r="10.60232" transform="translate(-41.16817 645.93218) rotate(-31.71739)"/>
  </g>
  <g>
    <rect class="cls-11" x="435.97241" y="290.80837" width="145.15393" height="145.15405"/>
    <g>
      <path class="cls-14" d="M608.583,56.69781a10.6902,10.6902,0,1,0,10.33471,10.33436A10.69045,10.69045,0,0,0,608.583,56.69781Z" transform="translate(-99.68384 245.67391)"/>
      <path class="cls-14" d="M666.09479,77.50592V68.77887a4.12418,4.12418,0,0,0-4.12409-4.12421h-7.06079a4.12428,4.12428,0,0,0-4.1242,4.12421V77.5058a3.21694,3.21694,0,0,1-3.21692,3.21692H633.84351a2.506,2.506,0,0,1-2.16278-1.25952,6.37547,6.37547,0,0,0-9.88-1.44L619.348,80.33008a1.44583,1.44583,0,0,1-.99072.39264H598.10913a1.446,1.446,0,0,1-.9906-.39264l-2.45276-2.30689a6.37539,6.37539,0,0,0-9.87988,1.44,2.50619,2.50619,0,0,1-2.163,1.25952H568.89771a3.217,3.217,0,0,1-3.217-3.2168V68.77887a4.12422,4.12422,0,0,0-4.12414-4.12421h-7.06067a4.12426,4.12426,0,0,0-4.12427,4.12421V77.5058a3.21683,3.21683,0,0,1-3.21679,3.21692H535.65625V85.2099h11.49854a3.21687,3.21687,0,0,1,3.21679,3.21692v8.92486a4.12424,4.12424,0,0,0,4.12427,4.12433h7.06055a4.12431,4.12431,0,0,0,4.12426-4.12433v-8.9248a3.2171,3.2171,0,0,1,3.217-3.217h11.39941a3.9061,3.9061,0,0,1,3.38281,5.85907l-6.1123,10.58679a6.447,6.447,0,0,0,2.25146,8.74243,6.54821,6.54821,0,0,0,8.978-2.40631l1.00342-1.73749a3.91823,3.91823,0,0,1,7.31152,1.95911v6.54486a3.2671,3.2671,0,0,1-.43774,1.63324l-34.09644,59.057a6.87691,6.87691,0,1,0,11.91113,6.87695l28.401-49.19189a6.17,6.17,0,0,1,10.68665,0l28.333,49.0744a6.98558,6.98558,0,0,0,9.57751,2.56665,6.87731,6.87731,0,0,0,2.40161-9.32611l-34.09662-59.057a3.267,3.267,0,0,1-.43762-1.63324V108.2135a3.91828,3.91828,0,0,1,7.31165-1.95911l1.00317,1.73749a6.5481,6.5481,0,0,0,8.97809,2.40631,6.44667,6.44667,0,0,0,2.2514-8.74243L632.78662,91.069a3.906,3.906,0,0,1,3.38269-5.85907h11.39948a3.2169,3.2169,0,0,1,3.21692,3.21692v8.92486A4.12437,4.12437,0,0,0,654.91,101.476h7.06067a4.12414,4.12414,0,0,0,4.12409-4.1242V88.42688a3.21709,3.21709,0,0,1,3.217-3.217h11.49835V80.72272H669.31183A3.21694,3.21694,0,0,1,666.09479,77.50592Z" transform="translate(-99.68384 245.67391)"/>
    </g>
  </g>
  <rect class="cls-14" x="798.81616" y="363.32992" width="0.01569" height="72.57697"/>
  <rect class="cls-14" x="726.2605" y="363.32992" width="72.55566" height="72.57697"/>
  <g class="cls-15">
    <g>
      <path class="cls-4" d="M862.62671,134.35608a5.54517,5.54517,0,1,0,5.54468,5.54523A5.54493,5.54493,0,0,0,862.62671,134.35608Z" transform="translate(-99.68384 245.67391)"/>
      <path class="cls-4" d="M872.69641,121.6181a5.54514,5.54514,0,1,0,5.5448,5.54517A5.545,5.545,0,0,0,872.69641,121.6181Z" transform="translate(-99.68384 245.67391)"/>
      <path class="cls-4" d="M898.472,173.47369l-3.94537-2.278a1.86994,1.86994,0,0,1-.93481-1.61939V151.351a4.24753,4.24753,0,0,0-.56928-2.12469L884.702,134.8136a5.31686,5.31686,0,0,0-9.20942,0l-8.51281,14.7456a1.73783,1.73783,0,0,1-1.50489.8689h-4.48553a1.73787,1.73787,0,0,1-1.50488-.8689l-4.20319-7.28088a5.329,5.329,0,0,0-7.27991-1.95074l-15.34478,8.85992a6.54926,6.54926,0,0,0-3.27423,5.67169v15.6557a1.59242,1.59242,0,0,1-.79621,1.37909l-6.49908,3.75263-.16877,8.194.17365,1.91229,4.33771-.30689-.02429-1.72448a4.17789,4.17789,0,0,1,2.08868-3.67749l4.91785-2.8396a5.632,5.632,0,0,0,2.81579-4.87751v-8.05352a1.79852,1.79852,0,0,1,2.69782-1.55768l7.11737,4.1095a2.5791,2.5791,0,0,1,.94378.94378l9.77021,16.924a3.599,3.599,0,1,0,6.23352-3.59918l-10.13629-17.558a6.91632,6.91632,0,0,0-2.53132-2.5315l-4.7611-2.74908a1.97107,1.97107,0,0,1,0-3.41413l5.06158-2.92254a1.7888,1.7888,0,0,1,2.44379.65478l1.43323,2.48267a5.12,5.12,0,0,0,4.4342,2.56024H867.29a5.12012,5.12012,0,0,0,4.43432-2.56024l4.17054-7.22418a1.66673,1.66673,0,0,1,2.887,0l2.76971,4.79748a1.98971,1.98971,0,0,1-.72821,2.71784l-7.80957,4.50927a5.80339,5.80339,0,0,0-2.90143,5.02582l.00013,17.85858a3.55948,3.55948,0,0,0,7.11895.00049V166.6748a2.17652,2.17652,0,0,1,1.08875-1.88519l5.30469-3.0628a1.98974,1.98974,0,0,1,2.98468,1.72326v8.59052a4.68094,4.68094,0,0,0,2.34021,4.05371l6.07879,3.50976a6.88757,6.88757,0,0,1,3.44348,5.96485v.92425l.028.00245V173.48987Z" transform="translate(-99.68384 245.67391)"/>
    </g>
  </g>
  <g>
    <rect class="cls-11" x="0.5" y="363.3854" width="0.00366" height="72.57703"/>
    <rect class="cls-11" x="0.50366" y="363.3854" width="0.3125" height="72.57703"/>
    <rect class="cls-11" x="0.81616" y="363.3854" width="72.26099" height="72.57703"/>
    <g class="cls-16">
      <g>
        <path class="cls-13" d="M123.56921,127.5835a5.64258,5.64258,0,1,0,5.455,5.45477A5.64273,5.64273,0,0,0,123.56921,127.5835Z" transform="translate(-99.68384 245.67391)"/>
        <path class="cls-13" d="M100.1875,179.76984v6.56537a4.0471,4.0471,0,0,1,.3125-.6294v-5.37335A3.44254,3.44254,0,0,1,100.1875,179.76984Z" transform="translate(-99.68384 245.67391)"/>
        <path class="cls-13" d="M103.99011,183.71161a5.05721,5.05721,0,0,0,4.3562-2.52875l4.764-8.25128a1.10934,1.10934,0,0,1,1.0669-.54578,3.49933,3.49933,0,0,0,3.35583-1.735l2.23621-3.87293,8.54687-4.93451a4.60211,4.60211,0,0,0,2.301-3.98547v-5.9422a2.42694,2.42694,0,0,1,3.64038-2.10181l8.65625,4.99781a2.34246,2.34246,0,0,1,0,4.05737l-8.67163,5.00659a3.84171,3.84171,0,0,0-1.406,1.40613L121.943,184.14911a3.47657,3.47657,0,1,0,6.02161,3.47656l10.49219-18.17285a2.97038,2.97038,0,0,1,1.08752-1.08765l10.39514-6.00158a1.71242,1.71242,0,0,1,2.56861,1.48309v7.331a5.4674,5.4674,0,0,0,2.73364,4.73474l14.4956,8.369a7.07561,7.07561,0,0,1,3.53772,6.1275v.14423l2.601.14191-1.22193-11.65131-14.07959-8.12891a2.18223,2.18223,0,0,1-1.09143-1.89019V154.04279a4.53556,4.53556,0,0,0-2.2677-3.92792l-21.85058-12.61536a5.86769,5.86769,0,0,0-8.01538,2.14777l-15.879,27.50323a3.49868,3.49868,0,0,0-.00476,3.4928,1.12564,1.12564,0,0,1-.01392,1.11957l-5.16333,8.94293a2.34585,2.34585,0,0,1-2.03149,1.1731h-.8816A3.45247,3.45247,0,0,1,100.5,180.33246v5.37335A4.08427,4.08427,0,0,1,103.99011,183.71161Z" transform="translate(-99.68384 245.67391)"/>
      </g>
    </g>
    <rect class="cls-17" x="0.5" y="363.3854" width="0.00366" height="72.57703"/>
    <rect class="cls-17" x="0.50366" y="363.3854" width="0.3125" height="72.57703"/>
    <rect class="cls-17" x="0.81616" y="363.3854" width="72.26099" height="72.57703"/>
  </g>
  <g>
    <path class="cls-4" d="M317.34814,129.36237a11.07393,11.07393,0,0,0-11.074-11.07386H184.42212a11.07394,11.07394,0,0,0-11.074,11.07386V137.5h144Z" transform="translate(-99.68384 245.67391)"/>
    <path class="cls-4" d="M184.42212,262.28857H306.27417a11.074,11.074,0,0,0,11.074-11.07385V137.5h-144V251.21472A11.074,11.074,0,0,0,184.42212,262.28857Z" transform="translate(-99.68384 245.67391)"/>
    <g class="cls-18">
      <g>
        <path class="cls-14" d="M217.00684,144.71478a11.07405,11.07405,0,1,0,10.70581,10.70569A11.07426,11.07426,0,0,0,217.00684,144.71478Z" transform="translate(-99.68384 245.67391)"/>
        <path class="cls-14" d="M289.07275,206.95526a5.457,5.457,0,0,1-6.16735.47211,6.09355,6.09355,0,0,1-2.23035-8.32385l13.16211-22.79731a10.52778,10.52778,0,0,0-9.11743-15.7915h-47.218A10.62557,10.62557,0,0,0,226.87622,171.212l.13306,19.72174-3.41309,6.138A46.79178,46.79178,0,0,0,172.5,226.79785V262.299h.84888V244.80481q-.02747-.76977-.02808-1.54614a42.96767,42.96767,0,0,1,48.29212-42.62049l-6.00647,10.80152a6.5075,6.5075,0,0,0,2.43347,8.79822H218.04a6.50737,6.50737,0,0,0,8.88928-2.38184l12.67932-21.9613a3.4095,3.4095,0,0,0,.45679-1.705v-7.27216a4.93891,4.93891,0,0,1,4.939-4.93878h14.29883a4.20964,4.20964,0,0,1,2.10486,7.85529l-7.253,4.18762a11.47832,11.47832,0,0,0-4.25623,16.74689,46.59907,46.59907,0,0,1,13.13489,32.49q0,1.75763-.12915,3.48315a6.546,6.546,0,0,0,6.55469,6.05542,6.47529,6.47529,0,0,0,6.49389-6.35718v-8.78A42.9583,42.9583,0,0,1,318.5,200.308V196.4986A46.55308,46.55308,0,0,0,289.07275,206.95526Z" transform="translate(-99.68384 245.67391)"/>
      </g>
    </g>
  </g>
  <g>
    <path class="cls-13" d="M762.15479,210.20056l-4.75379,8.05982a73.8125,73.8125,0,0,0,6.08942,6.53393,76.64487,76.64487,0,0,0,37.58807,19.48145v-8.64893a67.58734,67.58734,0,0,1-31.3183-16.79394A64.89366,64.89366,0,0,1,762.15479,210.20056Z" transform="translate(-99.68384 245.67391)"/>
    <path class="cls-13" d="M765.39172,174.13458l-.00091-37.85888h-8.86688l-.0011,37.85888a68.51618,68.51618,0,0,1-3.14832,20.50592,68.5142,68.5142,0,0,1-3.14819-20.50592L750.225,136.2757h-8.86786v37.85888A48.39232,48.39232,0,0,1,725.991,209.25317a53.042,53.042,0,0,1-20.32062,12.02088v8.83a62.08915,62.08915,0,0,0,26.59-14.889,58.51154,58.51154,0,0,0,13.03625-18.26685c2.31409,5.94617,4.868,11.57629,8.057,15.86353l.02081.02856.02069-.02856c3.189-4.28724,5.743-9.91736,8.05713-15.86353A58.51,58.51,0,0,0,774.48871,215.215a62.08679,62.08679,0,0,0,26.58978,14.889v-8.83A53.04183,53.04183,0,0,1,780.758,209.25317,48.39171,48.39171,0,0,1,765.39172,174.13458Z" transform="translate(-99.68384 245.67391)"/>
    <path class="cls-13" d="M779.56848,173.34308v-8.53027h-8.8678v8.53027a43.47124,43.47124,0,0,0,13.79663,31.55212A47.552,47.552,0,0,0,801.07849,215.119v-9.18225a38.49413,38.49413,0,0,1-10.3114-7.00336A35.26379,35.26379,0,0,1,779.56848,173.34308Z" transform="translate(-99.68384 245.67391)"/>
    <path class="cls-13" d="M727.18042,173.34308a35.26379,35.26379,0,0,1-11.19861,25.59033,38.49224,38.49224,0,0,1-10.3114,7.00336V215.119a47.55145,47.55145,0,0,0,16.5813-10.22382,43.47142,43.47142,0,0,0,13.79657-31.55212v-8.53027h-8.86786Z" transform="translate(-99.68384 245.67391)"/>
    <path class="cls-13" d="M736.98871,218.83289a67.58612,67.58612,0,0,1-31.3183,16.79394v8.64893a76.64675,76.64675,0,0,0,37.58832-19.48145,73.83942,73.83942,0,0,0,6.08929-6.53393l-4.75384-8.05982A64.88209,64.88209,0,0,1,736.98871,218.83289Z" transform="translate(-99.68384 245.67391)"/>
  </g>
  <g>
    <rect class="cls-12" x="0.51038" y="290.76949" width="0.30579" height="72.57703"/>
    <rect class="cls-12" x="0.81616" y="290.76949" width="72.27124" height="72.57703"/>
    <g>
      <path class="cls-4" d="M102.70972,112.99707c.15674-.10187.31958-.19458.48669-.281L135.4834,94.105a5.48893,5.48893,0,0,1,8.49707,4.58051v6.99829a5.56277,5.56277,0,0,0,5.56738,5.55829h17.111a5.92456,5.92456,0,0,1,5.92908,5.91961V104.64417H151.6803a1.05225,1.05225,0,0,1-1.0531-1.05146V84.4375h-.00049a1.58442,1.58442,0,0,0-.21289-.7832l-9.43433-16.31378A5.03361,5.03361,0,0,0,134.109,65.5022l-.167.09668-5.02393,2.8955L115.9,75.99817a5.56891,5.56891,0,1,0-4.95593,2.8573l-4.02588,2.32025a3.30018,3.30018,0,1,0,3.30432,5.71368l20.54309-11.8413a1.2395,1.2395,0,0,1,.11231-.06482,1.62671,1.62671,0,0,1,2.09814.52911l.001.001a1.75055,1.75055,0,0,1,.11646.20074l.001.00305,4.35694,7.53363a1.62026,1.62026,0,0,1-.34851,2.30262,1.57124,1.57124,0,0,1-.27112.15637L100.5,106.6521v9.17578A5.48659,5.48659,0,0,1,102.70972,112.99707Z" transform="translate(-99.68384 245.67391)"/>
      <ellipse class="cls-4" cx="30.44873" cy="304.82211" rx="5.56726" ry="5.55829"/>
    </g>
  </g>
</svg>
