<svg id="Слой_1" data-name="Слой 1" xmlns="http://www.w3.org/2000/svg" xmlns:xlink="http://www.w3.org/1999/xlink" viewBox="0 0 509.50039 513.6739">
  <defs>
    <style>
      .cls-1, .cls-12, .cls-6 {
        fill: none;
      }

      .cls-11, .cls-2 {
        fill: #e9292d;
      }

      .cls-10, .cls-12, .cls-13, .cls-2, .cls-6, .cls-8, .cls-9 {
        stroke: #fff;
      }

      .cls-10, .cls-13, .cls-2, .cls-6, .cls-8, .cls-9 {
        stroke-miterlimit: 10;
      }

      .cls-3, .cls-9 {
        fill: #fff;
      }

      .cls-4 {
        clip-path: url(#clip-path);
      }

      .cls-5 {
        clip-path: url(#clip-path-2);
      }

      .cls-6 {
        stroke-width: 9px;
      }

      .cls-7 {
        clip-path: url(#clip-path-3);
      }

      .cls-10, .cls-13, .cls-8 {
        fill: #00adee;
      }

      .cls-8 {
        stroke-width: 1.00078px;
      }

      .cls-10 {
        stroke-width: 1.00063px;
      }

      .cls-12 {
        stroke-miterlimit: 10;
        stroke-width: 9px;
      }

      .cls-14 {
        clip-path: url(#clip-path-4);
      }

      .cls-15 {
        clip-path: url(#clip-path-5);
      }
    </style>
    <clipPath id="clip-path">
      <rect class="cls-1" x="145.92517" y="436.96242" width="72.577" height="72.577"/>
    </clipPath>
    <clipPath id="clip-path-2">
      <rect class="cls-1" x="0.77116" y="219.23152" width="72.57701" height="72.57689"/>
    </clipPath>
    <clipPath id="clip-path-3">
      <rect class="cls-1" x="218.5022" y="364.38551" width="72.577" height="72.5769"/>
    </clipPath>
    <clipPath id="clip-path-4">
      <rect class="cls-1" x="435.93866" y="436.32993" width="72.57141" height="72.57701"/>
    </clipPath>
    <clipPath id="clip-path-5">
      <path class="cls-1" d="M12.42207,364.96243H134.27429a11.0739,11.0739,0,0,1,11.07392,11.07389V497.88863a11.07391,11.07391,0,0,1-11.07389,11.07391H12.42216a11.074,11.074,0,0,1-11.074-11.074V376.03633a11.0739,11.0739,0,0,1,11.0739-11.0739Z"/>
    </clipPath>
  </defs>
  <g>
    <rect class="cls-2" x="363.65625" y="509.48386" width="72.5769" height="0.05554"/>
    <rect class="cls-2" x="363.65625" y="509.17392" width="72.5769" height="0.30994"/>
    <rect class="cls-2" x="363.65625" y="436.96243" width="72.5769" height="72.21149"/>
    <g>
      <path class="cls-3" d="M415.27271,492.39742a1.0557,1.0557,0,0,1-1.05567-1.05567V472.10713h-.00061a1.593,1.593,0,0,0-.2135-.78637l-9.45825-16.38129a5.04174,5.04174,0,0,0-6.8869-1.84639l-.0008.00044-.16748.097-5.03662,2.90753-13.051,7.53479a5.58133,5.58133,0,1,0-4.96851,2.86927l-4.03613,2.32959a3.31262,3.31262,0,0,0,3.31274,5.73754l20.595-11.89039a1.27107,1.27107,0,0,1,.11267-.06519,1.6294,1.6294,0,0,1,2.1034.53125l.00109.001a1.79709,1.79709,0,0,1,.11683.20166l.001.00317,4.36792,7.5647a1.62895,1.62895,0,0,1-.34936,2.31213,1.59367,1.59367,0,0,1-.27173.15711l-36.73047,21.206v10.73877c0,.01343,0,.02686.001.04029a5.493,5.493,0,0,1,2.521-4.585c.157-.1023.32032-.19531.4878-.28223l32.36865-18.688a5.50135,5.50135,0,0,1,8.5188,4.59936v7.02735a5.58119,5.58119,0,0,0,5.58117,5.58128h17.15442a5.94424,5.94424,0,0,1,5.94409,5.94411V492.39742Z"/>
      <path class="cls-3" d="M393.67053,441.1319a5.58133,5.58133,0,1,0,5.58142,5.5813A5.58133,5.58133,0,0,0,393.67053,441.1319Z"/>
    </g>
  </g>
  <g>
    <rect class="cls-2" x="145.92529" y="436.9624" width="72.5769" height="72.21149"/>
    <g class="cls-4">
      <g>
        <path class="cls-3" d="M179.329,489.32722l-9.1073,2.34974a74.19784,74.19784,0,0,0-.31616,8.97241,75.39557,75.39557,0,0,0,.715,8.52453h8.71772a66.71139,66.71139,0,0,1-.73926-8.30554A65.21327,65.21327,0,0,1,179.329,489.32722Z"/>
        <polygon class="cls-3" points="227.869 432.783 223.689 436.962 232.049 436.962 227.869 432.783"/>
        <path class="cls-3" d="M200.96,459.69012a68.87153,68.87153,0,0,1-16.81238,12.337,68.87021,68.87021,0,0,1,12.33728-16.81238l26.90748-26.9093-6.30274-6.30279L190.181,448.91119a48.64254,48.64254,0,0,1-35.88232,14.03907,53.3171,53.3171,0,0,1-22.98694-5.899l-6.27588,6.27588a62.40741,62.40741,0,0,0,29.48144,8.3164,58.81172,58.81172,0,0,0,22.24878-3.71752c-2.58154,5.87109-4.76782,11.68774-5.54834,17.00158l-.00573.03528.03515-.00574c5.31372-.78051,11.13062-2.96692,17.00171-5.54846a58.81171,58.81171,0,0,0-3.71765,22.249,61.30426,61.30426,0,0,0,.66193,7.51624h8.753a52.34747,52.34747,0,0,1-.72156-7.29761,48.64126,48.64126,0,0,1,14.03906-35.88244l11.23853-11.23914V442.14911Z"/>
        <polygon class="cls-3" points="232.049 436.962 223.689 436.962 218.502 442.149 218.502 454.755 234.172 439.085 232.049 436.962"/>
        <path class="cls-3" d="M217.6626,463.14166l-6.063,6.06287a43.695,43.695,0,0,0-12.61987,32.23193,47.1354,47.1354,0,0,0,.858,7.73743h8.78351a38.45037,38.45037,0,0,1-.9477-7.51843,35.44678,35.44678,0,0,1,10.22882-26.14795l.59986-.59986V463.98126Z"/>
        <polygon class="cls-3" points="218.502 463.981 218.502 474.908 223.966 469.445 218.502 463.981"/>
        <path class="cls-3" d="M180.66724,438.27229a35.44544,35.44544,0,0,1-26.14771,10.229,38.69286,38.69286,0,0,1-12.30664-2.3512l-6.52637,6.52631A47.79651,47.79651,0,0,0,154.7384,457.195a43.69539,43.69539,0,0,0,32.23181-12.61981l6.063-6.06293-6.303-6.303Z"/>
        <path class="cls-3" d="M155.30652,477.5759a67.94067,67.94067,0,0,1-34.19617-10.32324l-6.14722,6.147a77.03831,77.03831,0,0,0,40.5625,12.86963,74.20418,74.20418,0,0,0,8.97229-.31592l2.34974-9.10754A65.22361,65.22361,0,0,1,155.30652,477.5759Z"/>
      </g>
    </g>
  </g>
  <g>
    <rect class="cls-2" x="0.77124" y="219.23154" width="72.5769" height="72.57684"/>
    <g class="cls-5">
      <g>
        <path class="cls-6" d="M31.44157,137.943v74.7725c0,24.8017,17.02761,44.9074,38.03231,44.9074,21.00461,0,38.03228-20.1057,38.03228-44.9074V137.943"/>
        <path class="cls-6" d="M91.6748,212.7156c0,15.3347-9.95947,27.81011-22.20092,27.81011S47.273,228.0503,47.273,212.7156V137.943H15.6104v74.77259c0,34.18908,24.16308,62.00439,53.86352,62.00439s53.86339-27.81531,53.86339-62.00439V137.943H91.6748Z"/>
      </g>
    </g>
  </g>
  <g>
    <rect class="cls-2" x="218.5022" y="364.3855" width="72.57703" height="72.5769"/>
    <g class="cls-7">
      <g>
        <path class="cls-6" d="M260.40887,509V440.00728c0-22.88469-17.02771-41.43628-38.03241-41.43628a35.327,35.327,0,0,0-4.20874.25084"/>
        <path class="cls-6" d="M217.9079,416.23418a17.915,17.915,0,0,1,4.46853-.566c12.2417,0,22.20105,12.47542,22.20105,27.81024V509.1739H276.24V443.47841c0-34.18921-24.163-62.00452-53.86353-62.00452q-1.97255,0-3.91085.16171"/>
      </g>
    </g>
  </g>
  <g>
    <rect class="cls-2" x="218.5022" y="364.3855" width="0.00439" height="72.5769"/>
    <rect class="cls-2" x="218.5022" y="436.9624" width="0.00439" height="0.00006"/>
    <polygon class="cls-2" points="218.502 364.385 145.929 364.385 145.929 436.962 218.502 436.962 218.502 436.962 218.502 364.385"/>
    <g>
      <circle class="cls-3" cx="182.56958" cy="386.63083" r="5.54517"/>
      <path class="cls-3" d="M192.64014,368.34767a5.54518,5.54518,0,1,0,5.54516,5.54518v-.00008a5.54514,5.54514,0,0,0-5.54516-5.5451Z"/>
      <path class="cls-3" d="M146.34546,430.45107a4.17842,4.17842,0,0,1,2.08887-3.67756l4.91821-2.8396a5.63158,5.63158,0,0,0,2.81592-4.87744V411.0029a1.79866,1.79866,0,0,1,2.698-1.55762l7.118,4.10944a2.57794,2.57794,0,0,1,.94372.94391l9.771,16.924a3.59927,3.59927,0,0,0,6.23413-3.59924l-10.13721-17.558a6.91435,6.91435,0,0,0-2.53149-2.53149l-4.76148-2.74909a1.97116,1.97116,0,0,1,0-3.41424l5.062-2.92261a1.78942,1.78942,0,0,1,2.44409.65491l1.43322,2.4826a5.12049,5.12049,0,0,0,4.4347,2.5603h8.356a5.1207,5.1207,0,0,0,4.43482-2.5603l4.17065-7.22418a1.6671,1.6671,0,0,1,2.88745,0l2.76978,4.79761a1.98942,1.98942,0,0,1-.728,2.71763l-.00015.00008-7.8103,4.5094a5.8031,5.8031,0,0,0-2.90174,5.02576l.00013,17.85864a3.55982,3.55982,0,0,0,7.11963.00049V413.40437a2.17634,2.17634,0,0,1,1.08874-1.88519l5.30518-3.0628a1.98994,1.98994,0,0,1,2.985,1.7232v8.59052a4.68093,4.68093,0,0,0,2.34046,4.05371l6.0791,3.50988a6.88731,6.88731,0,0,1,3.44384,5.96479v.92419l.08448.00745v-12.978l-.08448-.04877-3.94555-2.278a1.86976,1.86976,0,0,1-.93506-1.61938v-18.2254a4.24824,4.24824,0,0,0-.56934-2.12464l-8.32116-14.41278a5.31745,5.31745,0,0,0-9.21009,0l-8.51342,14.74561a1.73831,1.73831,0,0,1-1.50513.86895h-4.48584a1.73791,1.73791,0,0,1-1.505-.86895l-4.20361-7.281a5.32955,5.32955,0,0,0-7.28027-1.95068l-15.34607,8.86a6.54914,6.54914,0,0,0-3.27442,5.67163v15.65582a1.593,1.593,0,0,1-.79626,1.37909l-2.60132,1.50183v12.08147l.4447-.03143Z"/>
    </g>
  </g>
  <rect class="cls-8" x="508.98544" y="1.50039" width="0.01456" height="217.73102"/>
  <rect class="cls-8" x="508.96994" y="1.50039" width="0.0155" height="217.73102"/>
  <rect class="cls-8" x="1.1875" y="0.50039" width="0.3125" height="217.73102"/>
  <rect class="cls-8" x="1" y="1.50039" width="506.96994" height="217.17353"/>
  <g>
    <g>
      <polygon class="cls-3" points="329.139 79.872 325.808 79.872 325.808 101.661 329.139 101.661 332.304 101.661 335.695 101.661 335.695 92.916 332.304 92.916 332.304 98.548 329.139 98.548 329.139 82.985 332.304 82.985 332.304 88.617 335.695 88.617 335.695 79.872 332.304 79.872 329.139 79.872"/>
      <path class="cls-3" d="M304.194,94.46938c-.87164-4.65986-2.00775-9.86127-2.53235-14.55848H297.1839v21.78858h2.907v-8.62l-.34228-7.78839c.417,2.50562,2.05438,11.74,4.13482,16.16419v.01373h.6211v-.01373c2.0805-4.4242,3.71777-13.65857,4.13476-16.16419l-.34228,7.78839v8.62h2.9071V79.9109h-4.4779C306.20172,84.60811,305.06543,89.80952,304.194,94.46938Z"/>
      <rect class="cls-3" x="411.77411" y="74.74709" width="7.32819" height="2.55261"/>
      <path class="cls-3" d="M316.8938,79.87178h-3.33118V101.6606h9.887V79.87178Zm3.16412,18.67609h-3.10364V82.98451h3.10364Z"/>
      <path class="cls-3" d="M344.32721,85.0349c0,1.45752-.58283,3.42132-2.38922,3.41662l-.5531-.00128V79.9109h-3.33106v21.78858h3.33106V91.921l.57989-.00469c1.6933-.0138,2.36243,1.6958,2.36243,3.10662v6.67658h3.33118V95.16371a5.66594,5.66594,0,0,0-2.49866-5.13483,5.81366,5.81366,0,0,0,2.49866-5.1347V79.9109h-3.33118Z"/>
      <polygon class="cls-3" points="413.355 92.642 413.355 79.911 410.387 79.911 410.387 101.699 413.403 101.727 417.492 86.54 417.492 101.699 420.49 101.699 420.49 79.911 416.776 79.911 413.355 92.642"/>
      <path class="cls-3" d="M392.391,85.0349c0,1.45752-.58288,3.42132-2.38916,3.41662l-.55322-.00128V79.9109h-3.33112v21.78858h3.33112V91.921l.58-.00469c1.69329-.0138,2.36236,1.6958,2.36236,3.10662v6.67658h3.331V95.16371a5.66558,5.66558,0,0,0-2.49859-5.13483,5.81309,5.81309,0,0,0,2.49859-5.1347V79.9109h-3.331Z"/>
      <polygon class="cls-3" points="400.893 92.642 400.893 79.911 397.925 79.911 397.925 101.699 400.942 101.727 405.03 86.54 405.03 101.699 408.028 101.699 408.028 79.911 404.315 79.911 400.893 92.642"/>
      <polygon class="cls-3" points="377.203 79.872 373.872 79.872 373.872 101.661 377.203 101.661 380.367 101.661 383.759 101.661 383.759 92.916 380.367 92.916 380.367 98.548 377.203 98.548 377.203 82.985 380.367 82.985 380.367 88.617 383.759 88.617 383.759 79.872 380.367 79.872 377.203 79.872"/>
      <path class="cls-3" d="M353.34808,79.87178h-3.33117V101.6606h9.8869V79.87178Zm3.16425,18.67609h-3.10382V82.98451h3.10382Z"/>
      <path class="cls-3" d="M365.59363,79.87178h-3.33124V101.6606h3.33124v-.00769c2.02521.00049,4.0506.00769,6.075.00769V94.53a5.28248,5.28248,0,0,0-1.857-4.3341,4.45274,4.45274,0,0,0,1.857-3.81446V79.87178c-2.02435,0-4.04974.00732-6.075.00781Zm2.74231,18.67609h-2.74231V91.94728c1.2417-.06866,2.744.1424,2.744,2.36493-.00006,1.41351-.00171,2.82288-.00171,4.23569Zm0-15.56336V84.6172h.00165v1.98212c0,2.22235-1.50226,2.29626-2.744,2.228V82.98454Z"/>
      <polygon class="cls-3" points="439.399 101.714 442.73 101.714 442.73 83.037 445.895 83.037 445.895 101.714 449.286 101.714 449.286 79.925 439.399 79.925 439.399 101.714"/>
      <path class="cls-3" d="M463.77789,101.71352h3.331V95.85609h1.10894c3.2323,0,4.96625-2.34289,4.96625-5.69549V79.9247c-3.13489,0-6.27185.01739-9.40619,0Zm3.331-18.676h2.74243v5.35913h.00159v1.982c0,2.22247-1.50208,2.43335-2.744,2.365Z"/>
      <polygon class="cls-3" points="430.497 79.925 427.166 79.925 427.166 101.714 430.497 101.714 433.661 101.714 437.053 101.714 437.053 92.969 433.661 92.969 433.661 98.601 430.497 98.601 430.497 83.037 433.661 83.037 433.661 88.67 437.053 88.67 437.053 79.925 433.661 79.925 430.497 79.925"/>
      <path class="cls-3" d="M454.95758,79.9247h-3.33105v21.78882h9.8869V79.9247Zm3.16425,18.67608h-3.1037V83.03749h3.1037Z"/>
      <polygon class="cls-3" points="474.1 83.037 477.583 83.037 477.583 101.714 480.914 101.714 480.914 83.037 484.396 83.037 484.396 79.925 474.1 79.925 474.1 83.037"/>
    </g>
    <g>
      <path class="cls-3" d="M270.0014,92.34846l-1.3045,2.21192a20.24994,20.24994,0,0,0,1.671,1.79311,21.03374,21.03374,0,0,0,10.31506,5.346V99.32607a18.54742,18.54742,0,0,1-8.59448-4.60859A17.803,17.803,0,0,1,270.0014,92.34846Z"/>
      <path class="cls-3" d="M270.88971,82.45119V72.06178h-2.43347l-.00043,10.38941a18.8065,18.8065,0,0,1-.86389,5.62732,18.79874,18.79874,0,0,1-.864-5.62732l-.00031-10.38941H264.294V82.45119a13.27986,13.27986,0,0,1-4.2168,9.63733,14.55709,14.55709,0,0,1-5.57648,3.29889v2.42321a17.03991,17.03991,0,0,0,7.297-4.086,16.05644,16.05644,0,0,0,3.57739-5.01281,18.95957,18.95957,0,0,0,2.21106,4.35339l.00574.00781.00568-.00781a18.95978,18.95978,0,0,0,2.21112-4.35339,16.05366,16.05366,0,0,0,3.57739,5.01281,17.039,17.039,0,0,0,7.29687,4.086V95.38741a14.55586,14.55586,0,0,1-5.57647-3.29889A13.27925,13.27925,0,0,1,270.88971,82.45119Z"/>
      <path class="cls-3" d="M274.78009,82.234V79.8932h-2.43347V82.234a11.9292,11.9292,0,0,0,3.78607,8.65857,13.04942,13.04942,0,0,0,4.55029,2.80573V91.17848a10.56814,10.56814,0,0,1-2.82965-1.92181A9.67718,9.67718,0,0,1,274.78009,82.234Z"/>
      <path class="cls-3" d="M260.40363,82.234a9.67719,9.67719,0,0,1-3.07325,7.02265,10.56393,10.56393,0,0,1-2.82965,1.92181v2.51984a13.04721,13.04721,0,0,0,4.5503-2.80573,11.92944,11.92944,0,0,0,3.78619-8.65857V79.8932h-2.43359Z"/>
      <path class="cls-3" d="M263.09534,94.71748a18.54764,18.54764,0,0,1-8.59461,4.60859v2.37341a21.03345,21.03345,0,0,0,10.31519-5.346,20.24417,20.24417,0,0,0,1.671-1.79311l-1.30445-2.21192A17.81066,17.81066,0,0,1,263.09534,94.71748Z"/>
    </g>
  </g>
  <rect class="cls-9" x="0.77124" y="509.48386" width="145.15405" height="0.05554"/>
  <rect class="cls-9" x="0.77124" y="509.17392" width="145.15405" height="0.30994"/>
  <rect class="cls-9" x="0.77124" y="364.38541" width="145.15405" height="144.78851"/>
  <rect class="cls-2" x="291.07922" y="364.38538" width="72.57703" height="72.57703"/>
  <rect class="cls-2" x="0.77124" y="291.80838" width="72.5769" height="72.57703"/>
  <rect class="cls-2" x="73.34814" y="291.80838" width="72.57716" height="72.57703"/>
  <rect class="cls-2" x="291.07922" y="291.80838" width="72.57703" height="72.57703"/>
  <rect class="cls-2" x="73.34814" y="219.23141" width="72.57716" height="72.57697"/>
  <polygon class="cls-9" points="145.925 219.231 145.925 291.808 145.925 364.385 218.502 364.385 291.079 364.385 291.079 291.808 291.079 219.231 218.502 219.231 145.925 219.231"/>
  <rect class="cls-10" x="291.07922" y="219.23141" width="72.57703" height="72.57697"/>
  <rect class="cls-9" x="363.65625" y="219.23141" width="72.5769" height="72.57697"/>
  <rect class="cls-10" x="218.5022" y="509.48383" width="72.57703" height="0.05554"/>
  <rect class="cls-10" x="218.5022" y="509.17389" width="72.57703" height="0.30994"/>
  <rect class="cls-9" x="291.07922" y="509.48383" width="72.57703" height="0.05554"/>
  <rect class="cls-9" x="291.07922" y="509.17389" width="72.57703" height="0.30994"/>
  <rect class="cls-9" x="291.07922" y="436.9624" width="72.57703" height="72.21149"/>
  <rect class="cls-2" x="436.23315" y="219.23141" width="72.57715" height="72.57697"/>
  <rect class="cls-2" x="436.23315" y="509.48386" width="72.57715" height="0.05554"/>
  <rect class="cls-2" x="436.23315" y="509.17392" width="72.57715" height="0.30994"/>
  <g>
    <path class="cls-11" d="M227.28247,311.73318l-4.75378,8.0598a73.80436,73.80436,0,0,0,6.08947,6.53412,76.64388,76.64388,0,0,0,37.58814,19.48126v-8.64874a67.58791,67.58791,0,0,1-31.31836-16.794A64.89831,64.89831,0,0,1,227.28247,311.73318Z"/>
    <path class="cls-11" d="M230.51941,275.66731l-.00086-37.85895h-8.86694l-.0011,37.859a68.51518,68.51518,0,0,1-3.14831,20.50587,68.51537,68.51537,0,0,1-3.1482-20.50586l-.00122-37.859h-8.86792v37.859a48.39185,48.39185,0,0,1-15.36621,35.11848,53.04379,53.04379,0,0,1-20.32055,12.02088v8.8299a62.08884,62.08884,0,0,0,26.59008-14.889,58.51158,58.51158,0,0,0,13.03614-18.26691c2.31421,5.94623,4.86816,11.5763,8.05713,15.86353l.02075.02869.02075-.02869c3.189-4.28723,5.74292-9.9173,8.05713-15.86353a58.50755,58.50755,0,0,0,13.03638,18.26691,62.08573,62.08573,0,0,0,26.58984,14.889v-8.8299a53.04468,53.04468,0,0,1-20.32056-12.02088A48.39165,48.39165,0,0,1,230.51941,275.66731Z"/>
    <path class="cls-11" d="M244.69629,274.8758v-8.53033h-8.86792v8.53033A43.4713,43.4713,0,0,0,249.625,306.42791a47.55136,47.55136,0,0,0,16.5813,10.22381v-9.18223a38.49121,38.49121,0,0,1-10.31152-7.00341A35.26384,35.26384,0,0,1,244.69629,274.8758Z"/>
    <path class="cls-11" d="M192.30811,274.8758a35.264,35.264,0,0,1-11.19861,25.59028,38.48912,38.48912,0,0,1-10.3114,7.00341v9.1822a47.55139,47.55139,0,0,0,16.58129-10.22378A43.47084,43.47084,0,0,0,201.176,274.8758v-8.53033h-8.86792Z"/>
    <path class="cls-11" d="M202.11646,320.36562a67.58729,67.58729,0,0,1-31.31836,16.794v8.64875a76.64722,76.64722,0,0,0,37.58837-19.48126,73.83793,73.83793,0,0,0,6.08924-6.53412l-4.75379-8.0598A64.89824,64.89824,0,0,1,202.11646,320.36562Z"/>
  </g>
  <circle class="cls-12" cx="109.63674" cy="255.51991" r="18.79816" transform="translate(-162.00576 314.85782) rotate(-79.09933)"/>
  <g>
    <circle class="cls-3" cx="20.41477" cy="312.38289" r="10.60239"/>
    <circle class="cls-3" cx="53.70471" cy="312.3829" r="10.60229"/>
    <circle class="cls-3" cx="53.70471" cy="343.81088" r="10.60232"/>
  </g>
  <g>
    <rect class="cls-9" x="363.65625" y="291.80838" width="145.15393" height="145.15405"/>
    <g>
      <path class="cls-13" d="M436.583,303.37172a10.6902,10.6902,0,1,0,10.33471,11.03422q.01145-.34984,0-.69986A10.69044,10.69044,0,0,0,436.583,303.37172Z"/>
      <path class="cls-13" d="M494.09479,324.17982v-8.72705a4.12418,4.12418,0,0,0-4.12409-4.1242h-7.06079a4.12429,4.12429,0,0,0-4.1242,4.1242v8.72693a3.21692,3.21692,0,0,1-3.21692,3.21692H461.84351a2.506,2.506,0,0,1-2.16278-1.25952,6.37547,6.37547,0,0,0-9.88-1.44L447.348,327.004a1.44587,1.44587,0,0,1-.99072.39264H426.10913a1.446,1.446,0,0,1-.9906-.39264l-2.45276-2.30689a6.37534,6.37534,0,0,0-9.87988,1.44,2.50615,2.50615,0,0,1-2.163,1.25952H396.89771a3.217,3.217,0,0,1-3.217-3.21679v-8.72705a4.12421,4.12421,0,0,0-4.12415-4.1242h-7.06067a4.12422,4.12422,0,0,0-4.12427,4.1242v8.72693a3.2168,3.2168,0,0,1-3.21673,3.21692H363.65625v4.48718h11.49854a3.21689,3.21689,0,0,1,3.21679,3.21692v8.92486a4.12422,4.12422,0,0,0,4.12415,4.12433h7.06067a4.12431,4.12431,0,0,0,4.12426-4.12433v-8.9248a3.21711,3.21711,0,0,1,3.217-3.217h11.39942a3.90613,3.90613,0,0,1,3.38281,5.85907l-6.1123,10.58679a6.447,6.447,0,0,0,2.25146,8.74243,6.54818,6.54818,0,0,0,8.95368-2.36417l.02435-.04214,1.00342-1.73748a3.91823,3.91823,0,0,1,7.31152,1.9591v6.54486a3.26729,3.26729,0,0,1-.43774,1.63324l-34.09644,59.057a6.87691,6.87691,0,1,0,11.91028,6.87842l.00085-.00146,28.401-49.1919a6.17,6.17,0,0,1,10.68665,0l28.333,49.0744a6.98557,6.98557,0,0,0,9.53289,2.59241l.04462-.02576a6.87732,6.87732,0,0,0,2.40161-9.32611l-34.09662-59.057a3.26661,3.26661,0,0,1-.43762-1.63324v-6.54483a3.91828,3.91828,0,0,1,7.31165-1.95911l1.00317,1.73749a6.54809,6.54809,0,0,0,8.93567,2.43078l.04242-.02447a6.44666,6.44666,0,0,0,2.2514-8.74243l-6.11218-10.58677a3.906,3.906,0,0,1,3.38269-5.85907h11.39948a3.21689,3.21689,0,0,1,3.21692,3.21689v8.92489A4.12436,4.12436,0,0,0,482.91,348.1499h7.06067a4.12415,4.12415,0,0,0,4.12409-4.1242h0v-8.92492a3.21709,3.21709,0,0,1,3.217-3.217h11.49835v-4.48716H497.31183A3.21691,3.21691,0,0,1,494.09479,324.17982Z"/>
    </g>
  </g>
  <rect class="cls-13" x="436.41614" y="436.30142" width="72.55566" height="72.57697"/>
  <g class="cls-14">
    <g>
      <path class="cls-3" d="M472.62671,453.03a5.54518,5.54518,0,1,0,5.54468,5.54567v-.00044a5.54492,5.54492,0,0,0-5.54462-5.54523Z"/>
      <path class="cls-3" d="M482.69641,440.292a5.54514,5.54514,0,1,0,5.5448,5.54548v-.00032A5.545,5.545,0,0,0,482.69641,440.292Z"/>
      <path class="cls-3" d="M508.472,492.1476l-3.94537-2.278a1.87,1.87,0,0,1-.93481-1.61939V470.0249a4.24714,4.24714,0,0,0-.56928-2.12469L494.702,453.4875a5.3169,5.3169,0,0,0-9.20942,0l-8.51281,14.74561a1.73785,1.73785,0,0,1-1.50489.8689h-4.48553a1.73791,1.73791,0,0,1-1.50488-.8689l-4.20319-7.28089a5.329,5.329,0,0,0-7.27942-1.951l-.00049.00027-15.34478,8.85992a6.54925,6.54925,0,0,0-3.27423,5.6717v15.6557a1.59249,1.59249,0,0,1-.79621,1.37909l-6.49908,3.75262-.16877,8.194.17365,1.91229,4.33771-.30688-.02429-1.72449a4.1778,4.1778,0,0,1,2.08868-3.67749l4.91785-2.8396a5.632,5.632,0,0,0,2.81579-4.8775v-8.05353a1.79852,1.79852,0,0,1,2.69782-1.55768l7.11737,4.1095a2.57883,2.57883,0,0,1,.94378.94379l9.77021,16.924a3.599,3.599,0,0,0,6.24237-3.58386l-.00885-.01532-10.13629-17.558a6.91647,6.91647,0,0,0-2.53132-2.5315l-4.7611-2.74908a1.97108,1.97108,0,0,1,0-3.41412l5.06158-2.92255a1.78876,1.78876,0,0,1,2.4436.65449l.00019.00029,1.43323,2.48267a5.12,5.12,0,0,0,4.4342,2.56024H477.29A5.12011,5.12011,0,0,0,481.7243,473.73l4.17054-7.22418a1.66673,1.66673,0,0,1,2.887,0l2.76971,4.79748a1.98974,1.98974,0,0,1-.72821,2.71784l-7.80957,4.50927a5.80327,5.80327,0,0,0-2.90142,5.02582l.00012,17.85858a3.55948,3.55948,0,0,0,7.119.00049V485.34871a2.17645,2.17645,0,0,1,1.08874-1.88519l5.30469-3.06281a1.98972,1.98972,0,0,1,2.98468,1.72327v8.59051a4.68093,4.68093,0,0,0,2.34021,4.05371l6.07879,3.50977a6.88758,6.88758,0,0,1,3.44349,5.96484v.92426l.028.00244V492.16377Z"/>
    </g>
  </g>
  <g>
    <path class="cls-3" d="M145.34814,376.03627a11.07392,11.07392,0,0,0-11.074-11.07386H12.42212a11.07394,11.07394,0,0,0-11.074,11.07386v8.13763h144Z"/>
    <path class="cls-3" d="M12.42212,508.96248H134.27417a11.074,11.074,0,0,0,11.074-11.07385V384.1739h-144V497.88863A11.074,11.074,0,0,0,12.42212,508.96248Z"/>
    <g class="cls-15">
      <g>
        <path class="cls-13" d="M45.00684,391.38869a11.074,11.074,0,1,0,10.70581,11.43043q.01185-.36226,0-.72474A11.07425,11.07425,0,0,0,45.00684,391.38869Z"/>
        <path class="cls-13" d="M117.07275,453.62917a5.457,5.457,0,0,1-6.16735.4721,6.09353,6.09353,0,0,1-2.23035-8.32385l13.16211-22.7973a10.52779,10.52779,0,0,0-9.11743-15.79151h-47.218A10.62556,10.62556,0,0,0,54.876,417.814l.00024.0719.13306,19.72174-3.41309,6.138A46.79179,46.79179,0,0,0,.5,473.47176v35.50116h.84888V491.47871q-.02747-.76977-.02808-1.54614a42.9676,42.9676,0,0,1,48.29212-42.62048L43.60645,458.1136a6.50749,6.50749,0,0,0,2.43347,8.79822H46.04A6.50737,6.50737,0,0,0,54.92924,464.53l0,0,12.67932-21.9613a3.40956,3.40956,0,0,0,.45678-1.705v-7.27216a4.93893,4.93893,0,0,1,4.939-4.93878H87.30322a4.20964,4.20964,0,0,1,2.10486,7.85529l-7.253,4.18762a11.47827,11.47827,0,0,0-4.25623,16.74689,46.599,46.599,0,0,1,13.1349,32.49q0,1.75761-.12915,3.48316a6.546,6.546,0,0,0,6.55469,6.05542,6.47531,6.47531,0,0,0,6.4939-6.35718v-8.78A42.9583,42.9583,0,0,1,146.5,446.9819v-3.8094A46.55308,46.55308,0,0,0,117.07275,453.62917Z"/>
      </g>
    </g>
  </g>
</svg>
