<svg width="2106" height="90" viewBox="0 0 2106 90" fill="none" xmlns="http://www.w3.org/2000/svg">
<g clip-path="url(#clip0_1_1155)">
<path d="M1875.51 0H-30.2709V90.4047H1875.51V0Z" fill="white"/>
<path d="M146.527 45.1852V45.1853C146.527 68.7198 127.491 87.7983 104.008 87.7983L-88.6174 87.7983C-112.1 87.7983 -131.137 68.7198 -131.137 45.1853V45.1852C-131.137 21.6507 -112.1 2.57227 -88.6174 2.57227L104.008 2.57227C127.491 2.57227 146.527 21.6507 146.527 45.1852Z" stroke="#E93734" stroke-width="0.17587" stroke-miterlimit="10"/>
<path d="M146.527 45.1852V45.1853C146.527 68.7198 127.491 87.7983 104.008 87.7983L-88.6174 87.7983C-112.1 87.7983 -131.137 68.7198 -131.137 45.1853V45.1852C-131.137 21.6507 -112.1 2.57227 -88.6174 2.57227L104.008 2.57227C127.491 2.57227 146.527 21.6507 146.527 45.1852Z" stroke="#E93734" stroke-width="5.27615" stroke-miterlimit="10"/>
<path d="M-120.474 45.185C-120.465 36.7203 -117.105 28.605 -111.133 22.6196C-105.161 16.6341 -97.0634 13.2674 -88.6173 13.2578H104.008C112.454 13.2674 120.552 16.6341 126.524 22.6195C132.496 28.6049 135.855 36.7201 135.865 45.1847C135.855 53.6494 132.496 61.7647 126.524 67.7502C120.552 73.7356 112.454 77.1025 104.008 77.1121H-88.6173C-97.0633 77.1025 -105.161 73.7358 -111.133 67.7504C-117.105 61.7649 -120.465 53.6497 -120.474 45.185V45.185Z" stroke="#E93734" stroke-width="5.27615" stroke-miterlimit="10"/>
<path d="M-109.812 45.1857C-109.805 39.5541 -107.57 34.155 -103.597 30.1729C-99.6237 26.1907 -94.2364 23.9507 -88.6172 23.9443H104.008C109.627 23.9507 115.015 26.1907 118.988 30.1728C122.961 34.1548 125.196 39.5539 125.203 45.1854C125.196 50.817 122.961 56.2161 118.988 60.1983C115.015 64.1805 109.627 66.4204 104.008 66.4268H-88.6172C-94.2364 66.4205 -99.6236 64.1806 -103.597 60.1985C-107.57 56.2164 -109.805 50.8173 -109.812 45.1857V45.1857Z" stroke="#E93734" stroke-width="5.27615" stroke-miterlimit="10"/>
<path d="M-99.1495 45.1853C-99.1463 42.3868 -98.0357 39.7039 -96.0612 37.725C-94.0867 35.7462 -91.4096 34.6331 -88.6173 34.6299H104.008C106.8 34.633 109.478 35.7461 111.452 37.7249C113.426 39.7037 114.537 42.3866 114.54 45.185C114.537 47.9835 113.426 50.6665 111.452 52.6454C109.478 54.6242 106.801 55.7373 104.008 55.7405H-88.6173C-91.4096 55.7374 -94.0866 54.6244 -96.0611 52.6456C-98.0356 50.6668 -99.1463 47.9838 -99.1495 45.1853V45.1853Z" stroke="#E93734" stroke-width="5.27615" stroke-miterlimit="10"/>
<path d="M-99.1495 45.1853C-99.1463 42.3868 -98.0357 39.7039 -96.0612 37.725C-94.0867 35.7462 -91.4096 34.6331 -88.6173 34.6299H104.008C106.8 34.633 109.478 35.7461 111.452 37.7249C113.426 39.7037 114.537 42.3866 114.54 45.185C114.537 47.9835 113.426 50.6665 111.452 52.6454C109.478 54.6242 106.801 55.7373 104.008 55.7405H-88.6173C-91.4096 55.7374 -94.0866 54.6244 -96.0611 52.6456C-98.0356 50.6668 -99.1463 47.9838 -99.1495 45.1853V45.1853Z" stroke="#E93734" stroke-width="5.27615" stroke-miterlimit="10"/>
<path d="M249.905 45.1854V45.1852C249.905 21.6507 230.868 2.57227 207.386 2.57227L74.1529 2.57227C50.6702 2.57227 31.6338 21.6507 31.6338 45.1852V45.1854C31.6338 68.7199 50.6702 87.7983 74.1529 87.7983L207.386 87.7983C230.868 87.7983 249.905 68.7199 249.905 45.1854Z" stroke="#00AEEF" stroke-width="5.27674" stroke-miterlimit="10"/>
<path d="M249.905 45.1854V45.1852C249.905 21.6507 230.868 2.57227 207.386 2.57227L74.1529 2.57227C50.6702 2.57227 31.6338 21.6507 31.6338 45.1852V45.1854C31.6338 68.7199 50.6702 87.7983 74.1529 87.7983L207.386 87.7983C230.868 87.7983 249.905 68.7199 249.905 45.1854Z" stroke="#00AEEF" stroke-width="5.27674" stroke-miterlimit="10"/>
<path d="M42.2961 45.185C42.3057 36.7203 45.6651 28.6051 51.6374 22.6196C57.6096 16.6342 65.707 13.2674 74.1531 13.2578H207.386C215.832 13.2674 223.929 16.6341 229.901 22.6195C235.874 28.6049 239.233 36.7201 239.243 45.1847C239.233 53.6494 235.874 61.7647 229.901 67.7502C223.929 73.7356 215.832 77.1025 207.386 77.1121H74.1531C65.707 77.1025 57.6097 73.7357 51.6374 67.7503C45.6652 61.7649 42.3057 53.6497 42.2961 45.185V45.185Z" stroke="#00AEEF" stroke-width="5.27674" stroke-miterlimit="10"/>
<path d="M52.9586 45.1857C52.9649 39.5541 55.1999 34.155 59.1733 30.1729C63.1466 26.1907 68.5339 23.9507 74.1531 23.9443H207.386C213.005 23.9507 218.392 26.1907 222.365 30.1728C226.339 34.1548 228.574 39.5539 228.58 45.1854C228.574 50.817 226.339 56.2162 222.366 60.1984C218.392 64.1805 213.005 66.4204 207.386 66.4268H74.1531C68.5339 66.4205 63.1467 64.1806 59.1734 60.1985C55.2 56.2164 52.9649 50.8173 52.9586 45.1857V45.1857Z" stroke="#00AEEF" stroke-width="5.27674" stroke-miterlimit="10"/>
<path d="M63.6208 45.1853C63.624 42.3868 64.7346 39.7039 66.7091 37.725C68.6836 35.7462 71.3607 34.6331 74.153 34.6299H207.386C210.178 34.633 212.855 35.7461 214.83 37.7249C216.804 39.7037 217.915 42.3866 217.918 45.185C217.915 47.9835 216.804 50.6665 214.83 52.6454C212.855 54.6242 210.178 55.7373 207.386 55.7405H74.153C71.3607 55.7374 68.6836 54.6244 66.7091 52.6456C64.7346 50.6668 63.624 47.9838 63.6208 45.1853V45.1853Z" stroke="#00AEEF" stroke-width="5.27674" stroke-miterlimit="10"/>
<path d="M63.6208 45.1853C63.624 42.3868 64.7346 39.7039 66.7091 37.725C68.6836 35.7462 71.3607 34.6331 74.153 34.6299H207.386C210.178 34.633 212.855 35.7461 214.83 37.7249C216.804 39.7037 217.915 42.3866 217.918 45.185C217.915 47.9835 216.804 50.6665 214.83 52.6454C212.855 54.6242 210.178 55.7373 207.386 55.7405H74.153C71.3607 55.7374 68.6836 54.6244 66.7091 52.6456C64.7346 50.6668 63.624 47.9838 63.6208 45.1853V45.1853Z" stroke="#00AEEF" stroke-width="5.27674" stroke-miterlimit="10"/>
<path d="M146.527 45.1852V45.1853C146.527 68.7198 127.491 87.7983 104.008 87.7983L-88.6174 87.7983C-112.1 87.7983 -131.137 68.7198 -131.137 45.1853V45.1852C-131.137 21.6507 -112.1 2.57227 -88.6174 2.57227L104.008 2.57227C127.491 2.57227 146.527 21.6507 146.527 45.1852Z" stroke="#E93734" stroke-width="0.17587" stroke-miterlimit="10"/>
<path d="M146.527 45.1852V45.1853C146.527 68.7198 127.491 87.7983 104.008 87.7983L-88.6174 87.7983C-112.1 87.7983 -131.137 68.7198 -131.137 45.1853V45.1852C-131.137 21.6507 -112.1 2.57227 -88.6174 2.57227L104.008 2.57227C127.491 2.57227 146.527 21.6507 146.527 45.1852Z" stroke="#E93734" stroke-width="5.27615" stroke-miterlimit="10"/>
<path d="M-120.474 45.185C-120.465 36.7203 -117.105 28.605 -111.133 22.6196C-105.161 16.6341 -97.0634 13.2674 -88.6173 13.2578H104.008C112.454 13.2674 120.552 16.6341 126.524 22.6195C132.496 28.6049 135.855 36.7201 135.865 45.1847C135.855 53.6494 132.496 61.7647 126.524 67.7502C120.552 73.7356 112.454 77.1025 104.008 77.1121H-88.6173C-97.0633 77.1025 -105.161 73.7358 -111.133 67.7504C-117.105 61.7649 -120.465 53.6497 -120.474 45.185V45.185Z" stroke="#E93734" stroke-width="5.27615" stroke-miterlimit="10"/>
<path d="M-109.812 45.1857C-109.805 39.5541 -107.57 34.155 -103.597 30.1729C-99.6237 26.1907 -94.2364 23.9507 -88.6172 23.9443H104.008C109.627 23.9507 115.015 26.1907 118.988 30.1728C122.961 34.1548 125.196 39.5539 125.203 45.1854C125.196 50.817 122.961 56.2161 118.988 60.1983C115.015 64.1805 109.627 66.4204 104.008 66.4268H-88.6172C-94.2364 66.4205 -99.6236 64.1806 -103.597 60.1985C-107.57 56.2164 -109.805 50.8173 -109.812 45.1857V45.1857Z" stroke="#E93734" stroke-width="5.27615" stroke-miterlimit="10"/>
<path d="M-99.1495 45.1853C-99.1463 42.3868 -98.0357 39.7039 -96.0612 37.725C-94.0867 35.7462 -91.4096 34.6331 -88.6173 34.6299H104.008C106.8 34.633 109.478 35.7461 111.452 37.7249C113.426 39.7037 114.537 42.3866 114.54 45.185C114.537 47.9835 113.426 50.6665 111.452 52.6454C109.478 54.6242 106.801 55.7373 104.008 55.7405H-88.6173C-91.4096 55.7374 -94.0866 54.6244 -96.0611 52.6456C-98.0356 50.6668 -99.1463 47.9838 -99.1495 45.1853V45.1853Z" stroke="#E93734" stroke-width="5.27615" stroke-miterlimit="10"/>
<path d="M-99.1495 45.1853C-99.1463 42.3868 -98.0357 39.7039 -96.0612 37.725C-94.0867 35.7462 -91.4096 34.6331 -88.6173 34.6299H104.008C106.8 34.633 109.478 35.7461 111.452 37.7249C113.426 39.7037 114.537 42.3866 114.54 45.185C114.537 47.9835 113.426 50.6665 111.452 52.6454C109.478 54.6242 106.801 55.7373 104.008 55.7405H-88.6173C-91.4096 55.7374 -94.0866 54.6244 -96.0611 52.6456C-98.0356 50.6668 -99.1463 47.9838 -99.1495 45.1853V45.1853Z" stroke="#E93734" stroke-width="5.27615" stroke-miterlimit="10"/>
<path d="M547.04 45.1852V45.1855C547.04 56.4871 542.56 67.3258 534.586 75.3173C526.612 83.3088 515.797 87.7983 504.521 87.7983L311.895 87.7983C300.618 87.7983 289.803 83.3088 281.829 75.3173C273.856 67.3258 269.376 56.4871 269.376 45.1855V45.1852C269.376 39.5892 270.476 34.048 272.613 28.878C274.749 23.7079 277.881 19.0103 281.829 15.0533C285.778 11.0963 290.465 7.95748 295.624 5.81598C300.782 3.67447 306.311 2.57227 311.895 2.57227L504.521 2.57227C515.797 2.57227 526.612 7.06183 534.586 15.0533C542.56 23.0448 547.04 33.8836 547.04 45.1852V45.1852Z" stroke="#E93734" stroke-width="0.17587" stroke-miterlimit="10"/>
<path d="M547.04 45.1852V45.1855C547.04 56.4871 542.56 67.3258 534.586 75.3173C526.612 83.3088 515.797 87.7983 504.521 87.7983L311.895 87.7983C300.618 87.7983 289.803 83.3088 281.829 75.3173C273.856 67.3258 269.376 56.4871 269.376 45.1855V45.1852C269.376 39.5892 270.476 34.048 272.613 28.878C274.749 23.7079 277.881 19.0103 281.829 15.0533C285.778 11.0963 290.465 7.95748 295.624 5.81598C300.782 3.67447 306.311 2.57227 311.895 2.57227L504.521 2.57227C515.797 2.57227 526.612 7.06183 534.586 15.0533C542.56 23.0448 547.04 33.8836 547.04 45.1852V45.1852Z" stroke="#E93734" stroke-width="5.27615" stroke-miterlimit="10"/>
<path d="M536.377 45.185C536.368 36.7203 533.009 28.605 527.036 22.6196C521.064 16.6341 512.967 13.2674 504.521 13.2578H311.895C303.449 13.2674 295.352 16.6341 289.379 22.6195C283.407 28.6049 280.048 36.7201 280.038 45.1847C280.048 53.6494 283.407 61.7647 289.379 67.7502C295.352 73.7356 303.449 77.1025 311.895 77.1121H504.521C512.967 77.1025 521.064 73.7358 527.036 67.7504C533.008 61.7649 536.368 53.6497 536.377 45.185Z" stroke="#E93734" stroke-width="5.27615" stroke-miterlimit="10"/>
<path d="M525.715 45.1857C525.709 39.5541 523.474 34.155 519.5 30.1728C515.527 26.1907 510.14 23.9507 504.521 23.9443H311.895C306.276 23.9507 300.889 26.1907 296.915 30.1728C292.942 34.1548 290.707 39.5539 290.701 45.1854C290.707 50.817 292.942 56.2161 296.915 60.1983C300.889 64.1805 306.276 66.4204 311.895 66.4268H504.521C510.14 66.4205 515.527 64.1806 519.5 60.1985C523.474 56.2164 525.709 50.8173 525.715 45.1857V45.1857Z" stroke="#E93734" stroke-width="5.27615" stroke-miterlimit="10"/>
<path d="M515.053 45.1853C515.05 42.3868 513.939 39.7039 511.964 37.725C509.99 35.7462 507.313 34.6331 504.521 34.6299H311.895C309.103 34.633 306.426 35.7461 304.451 37.7249C302.477 39.7037 301.366 42.3866 301.363 45.185C301.366 47.9835 302.477 50.6665 304.451 52.6454C306.426 54.6242 309.103 55.7373 311.895 55.7405H504.521C507.313 55.7374 509.99 54.6244 511.964 52.6456C513.939 50.6668 515.05 47.9838 515.053 45.1853V45.1853Z" stroke="#E93734" stroke-width="5.27615" stroke-miterlimit="10"/>
<path d="M515.053 45.1853C515.05 42.3868 513.939 39.7039 511.964 37.725C509.99 35.7462 507.313 34.6331 504.521 34.6299H311.895C309.103 34.633 306.426 35.7461 304.451 37.7249C302.477 39.7037 301.366 42.3866 301.363 45.185C301.366 47.9835 302.477 50.6665 304.451 52.6454C306.426 54.6242 309.103 55.7373 311.895 55.7405H504.521C507.313 55.7374 509.99 54.6244 511.964 52.6456C513.939 50.6668 515.05 47.9838 515.053 45.1853V45.1853Z" stroke="#E93734" stroke-width="5.27615" stroke-miterlimit="10"/>
<path d="M384.27 45.1854V45.1852C384.269 39.5892 383.17 34.048 381.033 28.8779C378.896 23.7079 375.764 19.0103 371.816 15.0533C367.868 11.0963 363.18 7.95748 358.022 5.81598C352.863 3.67448 347.334 2.57226 341.75 2.57227H208.517C202.934 2.57227 197.405 3.67447 192.246 5.81598C187.087 7.95748 182.4 11.0963 178.452 15.0533C174.504 19.0103 171.372 23.7079 169.235 28.878C167.098 34.048 165.998 39.5892 165.998 45.1852V45.1852C165.998 50.7813 167.098 56.3225 169.235 61.4925C171.372 66.6626 174.504 71.3602 178.452 75.3172C182.4 79.2742 187.087 82.413 192.246 84.5546C197.405 86.6961 202.934 87.7983 208.518 87.7983H341.75C347.334 87.7983 352.863 86.6961 358.022 84.5546C363.18 82.4131 367.868 79.2743 371.816 75.3173C375.764 71.3603 378.896 66.6627 381.033 61.4926C383.17 56.3226 384.269 50.7814 384.27 45.1854V45.1854Z" stroke="#00AEEF" stroke-width="5.27674" stroke-miterlimit="10"/>
<path d="M384.27 45.1854V45.1852C384.269 39.5892 383.17 34.048 381.033 28.8779C378.896 23.7079 375.764 19.0103 371.816 15.0533C367.868 11.0963 363.18 7.95748 358.022 5.81598C352.863 3.67448 347.334 2.57226 341.75 2.57227H208.517C202.934 2.57227 197.405 3.67447 192.246 5.81598C187.087 7.95748 182.4 11.0963 178.452 15.0533C174.504 19.0103 171.372 23.7079 169.235 28.878C167.098 34.048 165.998 39.5892 165.998 45.1852V45.1852C165.998 50.7813 167.098 56.3225 169.235 61.4925C171.372 66.6626 174.504 71.3602 178.452 75.3172C182.4 79.2742 187.087 82.413 192.246 84.5546C197.405 86.6961 202.934 87.7983 208.518 87.7983H341.75C347.334 87.7983 352.863 86.6961 358.022 84.5546C363.18 82.4131 367.868 79.2743 371.816 75.3173C375.764 71.3603 378.896 66.6627 381.033 61.4926C383.17 56.3226 384.269 50.7814 384.27 45.1854V45.1854Z" stroke="#00AEEF" stroke-width="5.27674" stroke-miterlimit="10"/>
<path d="M373.607 45.185C373.598 36.7203 370.238 28.6051 364.266 22.6196C358.294 16.6342 350.196 13.2674 341.75 13.2578H208.518C200.072 13.2674 191.974 16.6341 186.002 22.6195C180.03 28.6049 176.67 36.7201 176.661 45.1847C176.67 53.6494 180.03 61.7647 186.002 67.7502C191.974 73.7356 200.071 77.1025 208.518 77.1121H341.75C350.196 77.1025 358.294 73.7358 364.266 67.7504C370.238 61.7649 373.598 53.6497 373.607 45.185Z" stroke="#00AEEF" stroke-width="5.27674" stroke-miterlimit="10"/>
<path d="M362.945 45.1857C362.938 39.5541 360.703 34.155 356.73 30.1729C352.757 26.1907 347.369 23.9507 341.75 23.9443H208.517C202.898 23.9507 197.511 26.1907 193.538 30.1728C189.564 34.1548 187.329 39.5539 187.323 45.1854C187.329 50.817 189.564 56.2162 193.538 60.1984C197.511 64.1805 202.898 66.4204 208.517 66.4268H341.75C347.369 66.4205 352.757 64.1806 356.73 60.1985C360.703 56.2164 362.938 50.8173 362.945 45.1857Z" stroke="#00AEEF" stroke-width="5.27674" stroke-miterlimit="10"/>
<path d="M352.282 45.1853C352.279 42.3868 351.169 39.7039 349.194 37.725C347.22 35.7462 344.543 34.6331 341.75 34.6299H208.518C205.725 34.633 203.048 35.7461 201.074 37.7249C199.099 39.7037 197.989 42.3866 197.985 45.185C197.989 47.9835 199.099 50.6665 201.074 52.6454C203.048 54.6242 205.725 55.7373 208.518 55.7405H341.75C344.543 55.7374 347.22 54.6244 349.194 52.6456C351.169 50.6668 352.279 47.9838 352.282 45.1853Z" stroke="#00AEEF" stroke-width="5.27674" stroke-miterlimit="10"/>
<path d="M352.282 45.1853C352.279 42.3868 351.169 39.7039 349.194 37.725C347.22 35.7462 344.543 34.6331 341.75 34.6299H208.518C205.725 34.633 203.048 35.7461 201.074 37.7249C199.099 39.7037 197.989 42.3866 197.985 45.185C197.989 47.9835 199.099 50.6665 201.074 52.6454C203.048 54.6242 205.725 55.7373 208.518 55.7405H341.75C344.543 55.7374 347.22 54.6244 349.194 52.6456C351.169 50.6668 352.279 47.9838 352.282 45.1853Z" stroke="#00AEEF" stroke-width="5.27674" stroke-miterlimit="10"/>
<path d="M547.04 45.1852V45.1855C547.04 56.4871 542.56 67.3258 534.586 75.3173C526.612 83.3088 515.797 87.7983 504.521 87.7983L311.895 87.7983C300.618 87.7983 289.803 83.3088 281.829 75.3173C273.856 67.3258 269.376 56.4871 269.376 45.1855V45.1852C269.376 39.5892 270.476 34.048 272.613 28.878C274.749 23.7079 277.881 19.0103 281.829 15.0533C285.778 11.0963 290.465 7.95748 295.624 5.81598C300.782 3.67447 306.311 2.57227 311.895 2.57227L504.521 2.57227C515.797 2.57227 526.612 7.06183 534.586 15.0533C542.56 23.0448 547.04 33.8836 547.04 45.1852V45.1852Z" stroke="#E93734" stroke-width="0.17587" stroke-miterlimit="10"/>
<path d="M547.04 45.1852V45.1855C547.04 56.4871 542.56 67.3258 534.586 75.3173C526.612 83.3088 515.797 87.7983 504.521 87.7983L311.895 87.7983C300.618 87.7983 289.803 83.3088 281.829 75.3173C273.856 67.3258 269.376 56.4871 269.376 45.1855V45.1852C269.376 39.5892 270.476 34.048 272.613 28.878C274.749 23.7079 277.881 19.0103 281.829 15.0533C285.778 11.0963 290.465 7.95748 295.624 5.81598C300.782 3.67447 306.311 2.57227 311.895 2.57227L504.521 2.57227C515.797 2.57227 526.612 7.06183 534.586 15.0533C542.56 23.0448 547.04 33.8836 547.04 45.1852V45.1852Z" stroke="#E93734" stroke-width="5.27615" stroke-miterlimit="10"/>
<path d="M536.377 45.185C536.368 36.7203 533.009 28.605 527.036 22.6196C521.064 16.6341 512.967 13.2674 504.521 13.2578H311.895C303.449 13.2674 295.352 16.6341 289.379 22.6195C283.407 28.6049 280.048 36.7201 280.038 45.1847C280.048 53.6494 283.407 61.7647 289.379 67.7502C295.352 73.7356 303.449 77.1025 311.895 77.1121H504.521C512.967 77.1025 521.064 73.7358 527.036 67.7504C533.008 61.7649 536.368 53.6497 536.377 45.185Z" stroke="#E93734" stroke-width="5.27615" stroke-miterlimit="10"/>
<path d="M525.715 45.1857C525.709 39.5541 523.474 34.155 519.5 30.1728C515.527 26.1907 510.14 23.9507 504.521 23.9443H311.895C306.276 23.9507 300.889 26.1907 296.915 30.1728C292.942 34.1548 290.707 39.5539 290.701 45.1854C290.707 50.817 292.942 56.2161 296.915 60.1983C300.889 64.1805 306.276 66.4204 311.895 66.4268H504.521C510.14 66.4205 515.527 64.1806 519.5 60.1985C523.474 56.2164 525.709 50.8173 525.715 45.1857V45.1857Z" stroke="#E93734" stroke-width="5.27615" stroke-miterlimit="10"/>
<path d="M515.053 45.1853C515.05 42.3868 513.939 39.7039 511.964 37.725C509.99 35.7462 507.313 34.6331 504.521 34.6299H311.895C309.103 34.633 306.426 35.7461 304.451 37.7249C302.477 39.7037 301.366 42.3866 301.363 45.185C301.366 47.9835 302.477 50.6665 304.451 52.6454C306.426 54.6242 309.103 55.7373 311.895 55.7405H504.521C507.313 55.7374 509.99 54.6244 511.964 52.6456C513.939 50.6668 515.05 47.9838 515.053 45.1853V45.1853Z" stroke="#E93734" stroke-width="5.27615" stroke-miterlimit="10"/>
<path d="M515.053 45.1853C515.05 42.3868 513.939 39.7039 511.964 37.725C509.99 35.7462 507.313 34.6331 504.521 34.6299H311.895C309.103 34.633 306.426 35.7461 304.451 37.7249C302.477 39.7037 301.366 42.3866 301.363 45.185C301.366 47.9835 302.477 50.6665 304.451 52.6454C306.426 54.6242 309.103 55.7373 311.895 55.7405H504.521C507.313 55.7374 509.99 54.6244 511.964 52.6456C513.939 50.6668 515.05 47.9838 515.053 45.1853V45.1853Z" stroke="#E93734" stroke-width="5.27615" stroke-miterlimit="10"/>
<path d="M622.973 45.1852V45.1853C622.973 68.7198 603.936 87.7983 580.453 87.7983L387.828 87.7983C364.345 87.7983 345.309 68.7198 345.309 45.1853V45.1852C345.309 21.6507 364.345 2.57227 387.828 2.57227L580.453 2.57227C603.936 2.57227 622.973 21.6507 622.973 45.1852Z" stroke="#E93734" stroke-width="0.17587" stroke-miterlimit="10"/>
<path d="M622.973 45.1852V45.1853C622.973 68.7198 603.936 87.7983 580.453 87.7983L387.828 87.7983C364.345 87.7983 345.309 68.7198 345.309 45.1853V45.1852C345.309 21.6507 364.345 2.57227 387.828 2.57227L580.453 2.57227C603.936 2.57227 622.973 21.6507 622.973 45.1852Z" stroke="#E93734" stroke-width="5.27615" stroke-miterlimit="10"/>
<path d="M355.971 45.185C355.98 36.7203 359.34 28.605 365.312 22.6196C371.284 16.6341 379.382 13.2674 387.828 13.2578H580.453C588.899 13.2674 596.997 16.6341 602.969 22.6195C608.941 28.6049 612.301 36.7201 612.31 45.1847C612.301 53.6494 608.941 61.7647 602.969 67.7502C596.997 73.7356 588.899 77.1025 580.453 77.1121H387.828C379.382 77.1025 371.284 73.7358 365.312 67.7504C359.34 61.7649 355.981 53.6497 355.971 45.185V45.185Z" stroke="#E93734" stroke-width="5.27615" stroke-miterlimit="10"/>
<path d="M366.633 45.1857C366.64 39.5541 368.875 34.155 372.848 30.1729C376.821 26.1907 382.209 23.9507 387.828 23.9443H580.453C586.073 23.9507 591.46 26.1907 595.433 30.1728C599.406 34.1548 601.641 39.5539 601.648 45.1854C601.642 50.817 599.406 56.2161 595.433 60.1983C591.46 64.1805 586.073 66.4204 580.453 66.4268H387.828C382.209 66.4205 376.822 64.1806 372.848 60.1985C368.875 56.2164 366.64 50.8173 366.633 45.1857V45.1857Z" stroke="#E93734" stroke-width="5.27615" stroke-miterlimit="10"/>
<path d="M377.296 45.1853C377.299 42.3868 378.409 39.7039 380.384 37.725C382.358 35.7462 385.036 34.6331 387.828 34.6299H580.453C583.246 34.633 585.923 35.7461 587.897 37.7249C589.872 39.7037 590.982 42.3866 590.985 45.185C590.982 47.9835 589.872 50.6665 587.897 52.6454C585.923 54.6242 583.246 55.7373 580.453 55.7405H387.828C385.036 55.7374 382.358 54.6244 380.384 52.6456C378.409 50.6668 377.299 47.9838 377.296 45.1853V45.1853Z" stroke="#E93734" stroke-width="5.27615" stroke-miterlimit="10"/>
<path d="M377.296 45.1853C377.299 42.3868 378.409 39.7039 380.384 37.725C382.358 35.7462 385.036 34.6331 387.828 34.6299H580.453C583.246 34.633 585.923 35.7461 587.897 37.7249C589.872 39.7037 590.982 42.3866 590.985 45.185C590.982 47.9835 589.872 50.6665 587.897 52.6454C585.923 54.6242 583.246 55.7373 580.453 55.7405H387.828C385.036 55.7374 382.358 54.6244 380.384 52.6456C378.409 50.6668 377.299 47.9838 377.296 45.1853V45.1853Z" stroke="#E93734" stroke-width="5.27615" stroke-miterlimit="10"/>
<path d="M726.35 45.1854V45.1852C726.35 21.6507 707.314 2.57227 683.831 2.57227L550.598 2.57227C527.115 2.57227 508.079 21.6507 508.079 45.1852V45.1854C508.079 68.7199 527.115 87.7983 550.598 87.7983L683.831 87.7983C707.314 87.7983 726.35 68.7199 726.35 45.1854Z" stroke="#00AEEF" stroke-width="5.27674" stroke-miterlimit="10"/>
<path d="M726.35 45.1854V45.1852C726.35 21.6507 707.314 2.57227 683.831 2.57227L550.598 2.57227C527.115 2.57227 508.079 21.6507 508.079 45.1852V45.1854C508.079 68.7199 527.115 87.7983 550.598 87.7983L683.831 87.7983C707.314 87.7983 726.35 68.7199 726.35 45.1854Z" stroke="#00AEEF" stroke-width="5.27674" stroke-miterlimit="10"/>
<path d="M518.741 45.185C518.751 36.7203 522.11 28.6051 528.082 22.6196C534.055 16.6342 542.152 13.2674 550.598 13.2578H683.831C692.277 13.2674 700.374 16.6341 706.346 22.6195C712.319 28.6049 715.678 36.7201 715.688 45.1847C715.678 53.6494 712.319 61.7647 706.347 67.7502C700.374 73.7356 692.277 77.1025 683.831 77.1121H550.598C542.152 77.1025 534.055 73.7357 528.083 67.7503C522.11 61.7649 518.751 53.6497 518.741 45.185V45.185Z" stroke="#00AEEF" stroke-width="5.27674" stroke-miterlimit="10"/>
<path d="M529.404 45.1857C529.41 39.5541 531.645 34.155 535.618 30.1729C539.592 26.1907 544.979 23.9507 550.598 23.9443H683.831C689.45 23.9507 694.837 26.1907 698.811 30.1728C702.784 34.1548 705.019 39.5539 705.025 45.1854C705.019 50.817 702.784 56.2162 698.811 60.1984C694.837 64.1805 689.45 66.4204 683.831 66.4268H550.598C544.979 66.4205 539.592 64.1806 535.619 60.1985C531.645 56.2164 529.41 50.8173 529.404 45.1857V45.1857Z" stroke="#00AEEF" stroke-width="5.27674" stroke-miterlimit="10"/>
<path d="M540.066 45.1853C540.069 42.3868 541.18 39.7039 543.154 37.725C545.129 35.7462 547.806 34.6331 550.598 34.6299H683.831C686.623 34.633 689.3 35.7461 691.275 37.7249C693.249 39.7037 694.36 42.3866 694.363 45.185C694.36 47.9835 693.249 50.6665 691.275 52.6454C689.3 54.6242 686.623 55.7373 683.831 55.7405H550.598C547.806 55.7374 545.129 54.6244 543.154 52.6456C541.18 50.6668 540.069 47.9838 540.066 45.1853Z" stroke="#00AEEF" stroke-width="5.27674" stroke-miterlimit="10"/>
<path d="M540.066 45.1853C540.069 42.3868 541.18 39.7039 543.154 37.725C545.129 35.7462 547.806 34.6331 550.598 34.6299H683.831C686.623 34.633 689.3 35.7461 691.275 37.7249C693.249 39.7037 694.36 42.3866 694.363 45.185C694.36 47.9835 693.249 50.6665 691.275 52.6454C689.3 54.6242 686.623 55.7373 683.831 55.7405H550.598C547.806 55.7374 545.129 54.6244 543.154 52.6456C541.18 50.6668 540.069 47.9838 540.066 45.1853Z" stroke="#00AEEF" stroke-width="5.27674" stroke-miterlimit="10"/>
<path d="M622.973 45.1852V45.1853C622.973 68.7198 603.936 87.7983 580.453 87.7983L387.828 87.7983C364.345 87.7983 345.309 68.7198 345.309 45.1853V45.1852C345.309 21.6507 364.345 2.57227 387.828 2.57227L580.453 2.57227C603.936 2.57227 622.973 21.6507 622.973 45.1852Z" stroke="#E93734" stroke-width="0.17587" stroke-miterlimit="10"/>
<path d="M622.973 45.1852V45.1853C622.973 68.7198 603.936 87.7983 580.453 87.7983L387.828 87.7983C364.345 87.7983 345.309 68.7198 345.309 45.1853V45.1852C345.309 21.6507 364.345 2.57227 387.828 2.57227L580.453 2.57227C603.936 2.57227 622.973 21.6507 622.973 45.1852Z" stroke="#E93734" stroke-width="5.27615" stroke-miterlimit="10"/>
<path d="M355.971 45.185C355.98 36.7203 359.34 28.605 365.312 22.6196C371.284 16.6341 379.382 13.2674 387.828 13.2578H580.453C588.899 13.2674 596.997 16.6341 602.969 22.6195C608.941 28.6049 612.301 36.7201 612.31 45.1847C612.301 53.6494 608.941 61.7647 602.969 67.7502C596.997 73.7356 588.899 77.1025 580.453 77.1121H387.828C379.382 77.1025 371.284 73.7358 365.312 67.7504C359.34 61.7649 355.981 53.6497 355.971 45.185V45.185Z" stroke="#E93734" stroke-width="5.27615" stroke-miterlimit="10"/>
<path d="M366.633 45.1857C366.64 39.5541 368.875 34.155 372.848 30.1729C376.821 26.1907 382.209 23.9507 387.828 23.9443H580.453C586.073 23.9507 591.46 26.1907 595.433 30.1728C599.406 34.1548 601.641 39.5539 601.648 45.1854C601.642 50.817 599.406 56.2161 595.433 60.1983C591.46 64.1805 586.073 66.4204 580.453 66.4268H387.828C382.209 66.4205 376.822 64.1806 372.848 60.1985C368.875 56.2164 366.64 50.8173 366.633 45.1857V45.1857Z" stroke="#E93734" stroke-width="5.27615" stroke-miterlimit="10"/>
<path d="M377.296 45.1853C377.299 42.3868 378.409 39.7039 380.384 37.725C382.358 35.7462 385.036 34.6331 387.828 34.6299H580.453C583.246 34.633 585.923 35.7461 587.897 37.7249C589.872 39.7037 590.982 42.3866 590.985 45.185C590.982 47.9835 589.872 50.6665 587.897 52.6454C585.923 54.6242 583.246 55.7373 580.453 55.7405H387.828C385.036 55.7374 382.358 54.6244 380.384 52.6456C378.409 50.6668 377.299 47.9838 377.296 45.1853V45.1853Z" stroke="#E93734" stroke-width="5.27615" stroke-miterlimit="10"/>
<path d="M377.296 45.1853C377.299 42.3868 378.409 39.7039 380.384 37.725C382.358 35.7462 385.036 34.6331 387.828 34.6299H580.453C583.246 34.633 585.923 35.7461 587.897 37.7249C589.872 39.7037 590.982 42.3866 590.985 45.185C590.982 47.9835 589.872 50.6665 587.897 52.6454C585.923 54.6242 583.246 55.7373 580.453 55.7405H387.828C385.036 55.7374 382.358 54.6244 380.384 52.6456C378.409 50.6668 377.299 47.9838 377.296 45.1853V45.1853Z" stroke="#E93734" stroke-width="5.27615" stroke-miterlimit="10"/>
<path d="M1023.48 45.1853V45.1854C1023.48 56.4871 1019.01 67.3259 1011.03 75.3174C1003.06 83.3088 992.243 87.7983 980.966 87.7983L788.34 87.7983C777.063 87.7983 766.248 83.3088 758.275 75.3174C750.301 67.3259 745.821 56.4871 745.821 45.1854V45.1853C745.821 33.8836 750.301 23.0449 758.275 15.0534C766.249 7.06189 777.063 2.57227 788.34 2.57227L980.966 2.57227C992.243 2.57227 1003.06 7.06189 1011.03 15.0534C1019.01 23.0449 1023.48 33.8836 1023.48 45.1853V45.1853Z" stroke="#E93734" stroke-width="0.17587" stroke-miterlimit="10"/>
<path d="M1023.48 45.1853V45.1854C1023.48 56.4871 1019.01 67.3259 1011.03 75.3174C1003.06 83.3088 992.243 87.7983 980.966 87.7983L788.34 87.7983C777.063 87.7983 766.248 83.3088 758.275 75.3174C750.301 67.3259 745.821 56.4871 745.821 45.1854V45.1853C745.821 33.8836 750.301 23.0449 758.275 15.0534C766.249 7.06189 777.063 2.57227 788.34 2.57227L980.966 2.57227C992.243 2.57227 1003.06 7.06189 1011.03 15.0534C1019.01 23.0449 1023.48 33.8836 1023.48 45.1853V45.1853Z" stroke="#E93734" stroke-width="5.27615" stroke-miterlimit="10"/>
<path d="M1012.82 45.185C1012.81 36.7203 1009.45 28.605 1003.48 22.6196C997.509 16.6341 989.412 13.2674 980.966 13.2578H788.34C779.894 13.2673 771.797 16.6341 765.825 22.6195C759.852 28.6049 756.493 36.7201 756.483 45.1847C756.493 53.6494 759.852 61.7647 765.825 67.7502C771.797 73.7356 779.894 77.1025 788.34 77.1121H980.966C989.412 77.1025 997.509 73.7358 1003.48 67.7504C1009.45 61.7649 1012.81 53.6497 1012.82 45.185V45.185Z" stroke="#E93734" stroke-width="5.27615" stroke-miterlimit="10"/>
<path d="M1002.16 45.1857C1002.15 39.5541 999.919 34.155 995.946 30.1729C991.972 26.1907 986.585 23.9507 980.966 23.9443H788.34C782.721 23.9507 777.334 26.1907 773.361 30.1728C769.387 34.1548 767.152 39.5539 767.146 45.1854C767.152 50.817 769.387 56.2162 773.36 60.1984C777.334 64.1805 782.721 66.4204 788.34 66.4268H980.966C986.585 66.4205 991.972 64.1806 995.945 60.1985C999.919 56.2164 1002.15 50.8173 1002.16 45.1857V45.1857Z" stroke="#E93734" stroke-width="5.27615" stroke-miterlimit="10"/>
<path d="M991.498 45.1853C991.495 42.3868 990.384 39.7039 988.41 37.725C986.435 35.7462 983.758 34.6331 980.966 34.6299H788.34C785.548 34.633 782.871 35.7461 780.896 37.7249C778.922 39.7037 777.811 42.3866 777.808 45.185C777.811 47.9835 778.922 50.6665 780.896 52.6454C782.871 54.6242 785.548 55.7373 788.34 55.7405H980.966C983.758 55.7374 986.435 54.6244 988.41 52.6456C990.384 50.6668 991.495 47.9838 991.498 45.1853V45.1853Z" stroke="#E93734" stroke-width="5.27615" stroke-miterlimit="10"/>
<path d="M991.498 45.1853C991.495 42.3868 990.384 39.7039 988.41 37.725C986.435 35.7462 983.758 34.6331 980.966 34.6299H788.34C785.548 34.633 782.871 35.7461 780.896 37.7249C778.922 39.7037 777.811 42.3866 777.808 45.185C777.811 47.9835 778.922 50.6665 780.896 52.6454C782.871 54.6242 785.548 55.7373 788.34 55.7405H980.966C983.758 55.7374 986.435 54.6244 988.41 52.6456C990.384 50.6668 991.495 47.9838 991.498 45.1853V45.1853Z" stroke="#E93734" stroke-width="5.27615" stroke-miterlimit="10"/>
<path d="M860.715 45.1854V45.1852C860.715 39.5892 859.615 34.048 857.478 28.8779C855.341 23.7079 852.209 19.0103 848.261 15.0533C844.313 11.0963 839.626 7.95748 834.467 5.81598C829.308 3.67448 823.779 2.57226 818.195 2.57227H684.963C679.379 2.57227 673.85 3.67447 668.691 5.81598C663.533 7.95748 658.845 11.0963 654.897 15.0533C650.949 19.0103 647.817 23.7079 645.68 28.878C643.543 34.048 642.444 39.5892 642.444 45.1852V45.1852C642.444 50.7813 643.543 56.3225 645.68 61.4925C647.817 66.6626 650.949 71.3602 654.897 75.3172C658.845 79.2742 663.533 82.413 668.691 84.5546C673.85 86.6961 679.379 87.7983 684.963 87.7983H818.195C823.779 87.7983 829.308 86.6961 834.467 84.5546C839.626 82.4131 844.313 79.2743 848.261 75.3173C852.209 71.3603 855.341 66.6627 857.478 61.4926C859.615 56.3226 860.715 50.7814 860.715 45.1854V45.1854Z" stroke="#00AEEF" stroke-width="5.27674" stroke-miterlimit="10"/>
<path d="M860.715 45.1854V45.1852C860.715 39.5892 859.615 34.048 857.478 28.8779C855.341 23.7079 852.209 19.0103 848.261 15.0533C844.313 11.0963 839.626 7.95748 834.467 5.81598C829.308 3.67448 823.779 2.57226 818.195 2.57227H684.963C679.379 2.57227 673.85 3.67447 668.691 5.81598C663.533 7.95748 658.845 11.0963 654.897 15.0533C650.949 19.0103 647.817 23.7079 645.68 28.878C643.543 34.048 642.444 39.5892 642.444 45.1852V45.1852C642.444 50.7813 643.543 56.3225 645.68 61.4925C647.817 66.6626 650.949 71.3602 654.897 75.3172C658.845 79.2742 663.533 82.413 668.691 84.5546C673.85 86.6961 679.379 87.7983 684.963 87.7983H818.195C823.779 87.7983 829.308 86.6961 834.467 84.5546C839.626 82.4131 844.313 79.2743 848.261 75.3173C852.209 71.3603 855.341 66.6627 857.478 61.4926C859.615 56.3226 860.715 50.7814 860.715 45.1854V45.1854Z" stroke="#00AEEF" stroke-width="5.27674" stroke-miterlimit="10"/>
<path d="M850.052 45.185C850.043 36.7203 846.683 28.6051 840.711 22.6196C834.739 16.6342 826.641 13.2674 818.195 13.2578H684.963C676.517 13.2674 668.419 16.6341 662.447 22.6195C656.475 28.6049 653.115 36.7201 653.106 45.1847C653.115 53.6494 656.475 61.7647 662.447 67.7502C668.419 73.7356 676.517 77.1025 684.963 77.1121H818.195C826.641 77.1025 834.739 73.7358 840.711 67.7504C846.683 61.7649 850.043 53.6497 850.052 45.185V45.185Z" stroke="#00AEEF" stroke-width="5.27674" stroke-miterlimit="10"/>
<path d="M839.39 45.1857C839.384 39.5541 837.149 34.155 833.175 30.1729C829.202 26.1907 823.815 23.9507 818.195 23.9443H684.963C679.344 23.9507 673.956 26.1907 669.983 30.1728C666.01 34.1548 663.775 39.5539 663.768 45.1854C663.775 50.817 666.01 56.2162 669.983 60.1984C673.956 64.1805 679.344 66.4204 684.963 66.4268H818.195C823.815 66.4205 829.202 64.1806 833.175 60.1985C837.149 56.2164 839.384 50.8173 839.39 45.1857V45.1857Z" stroke="#00AEEF" stroke-width="5.27674" stroke-miterlimit="10"/>
<path d="M828.728 45.1853C828.725 42.3868 827.614 39.7039 825.639 37.725C823.665 35.7462 820.988 34.6331 818.195 34.6299H684.963C682.17 34.633 679.493 35.7461 677.519 37.7249C675.544 39.7037 674.434 42.3866 674.431 45.185C674.434 47.9835 675.544 50.6665 677.519 52.6454C679.493 54.6242 682.17 55.7373 684.963 55.7405H818.195C820.988 55.7374 823.665 54.6244 825.639 52.6456C827.614 50.6668 828.725 47.9838 828.728 45.1853Z" stroke="#00AEEF" stroke-width="5.27674" stroke-miterlimit="10"/>
<path d="M828.728 45.1853C828.725 42.3868 827.614 39.7039 825.639 37.725C823.665 35.7462 820.988 34.6331 818.195 34.6299H684.963C682.17 34.633 679.493 35.7461 677.519 37.7249C675.544 39.7037 674.434 42.3866 674.431 45.185C674.434 47.9835 675.544 50.6665 677.519 52.6454C679.493 54.6242 682.17 55.7373 684.963 55.7405H818.195C820.988 55.7374 823.665 54.6244 825.639 52.6456C827.614 50.6668 828.725 47.9838 828.728 45.1853Z" stroke="#00AEEF" stroke-width="5.27674" stroke-miterlimit="10"/>
<path d="M1023.48 45.1853V45.1854C1023.48 56.4871 1019.01 67.3259 1011.03 75.3174C1003.06 83.3088 992.243 87.7983 980.966 87.7983L788.34 87.7983C777.063 87.7983 766.248 83.3088 758.275 75.3174C750.301 67.3259 745.821 56.4871 745.821 45.1854V45.1853C745.821 33.8836 750.301 23.0449 758.275 15.0534C766.249 7.06189 777.063 2.57227 788.34 2.57227L980.966 2.57227C992.243 2.57227 1003.06 7.06189 1011.03 15.0534C1019.01 23.0449 1023.48 33.8836 1023.48 45.1853V45.1853Z" stroke="#E93734" stroke-width="0.17587" stroke-miterlimit="10"/>
<path d="M1023.48 45.1853V45.1854C1023.48 56.4871 1019.01 67.3259 1011.03 75.3174C1003.06 83.3088 992.243 87.7983 980.966 87.7983L788.34 87.7983C777.063 87.7983 766.248 83.3088 758.275 75.3174C750.301 67.3259 745.821 56.4871 745.821 45.1854V45.1853C745.821 33.8836 750.301 23.0449 758.275 15.0534C766.249 7.06189 777.063 2.57227 788.34 2.57227L980.966 2.57227C992.243 2.57227 1003.06 7.06189 1011.03 15.0534C1019.01 23.0449 1023.48 33.8836 1023.48 45.1853V45.1853Z" stroke="#E93734" stroke-width="5.27615" stroke-miterlimit="10"/>
<path d="M1012.82 45.185C1012.81 36.7203 1009.45 28.605 1003.48 22.6196C997.509 16.6341 989.412 13.2674 980.966 13.2578H788.34C779.894 13.2673 771.797 16.6341 765.825 22.6195C759.852 28.6049 756.493 36.7201 756.483 45.1847C756.493 53.6494 759.852 61.7647 765.825 67.7502C771.797 73.7356 779.894 77.1025 788.34 77.1121H980.966C989.412 77.1025 997.509 73.7358 1003.48 67.7504C1009.45 61.7649 1012.81 53.6497 1012.82 45.185V45.185Z" stroke="#E93734" stroke-width="5.27615" stroke-miterlimit="10"/>
<path d="M1002.16 45.1857C1002.15 39.5541 999.919 34.155 995.946 30.1729C991.972 26.1907 986.585 23.9507 980.966 23.9443H788.34C782.721 23.9507 777.334 26.1907 773.361 30.1728C769.387 34.1548 767.152 39.5539 767.146 45.1854C767.152 50.817 769.387 56.2162 773.36 60.1984C777.334 64.1805 782.721 66.4204 788.34 66.4268H980.966C986.585 66.4205 991.972 64.1806 995.945 60.1985C999.919 56.2164 1002.15 50.8173 1002.16 45.1857V45.1857Z" stroke="#E93734" stroke-width="5.27615" stroke-miterlimit="10"/>
<path d="M991.498 45.1853C991.495 42.3868 990.384 39.7039 988.41 37.725C986.435 35.7462 983.758 34.6331 980.966 34.6299H788.34C785.548 34.633 782.871 35.7461 780.896 37.7249C778.922 39.7037 777.811 42.3866 777.808 45.185C777.811 47.9835 778.922 50.6665 780.896 52.6454C782.871 54.6242 785.548 55.7373 788.34 55.7405H980.966C983.758 55.7374 986.435 54.6244 988.41 52.6456C990.384 50.6668 991.495 47.9838 991.498 45.1853V45.1853Z" stroke="#E93734" stroke-width="5.27615" stroke-miterlimit="10"/>
<path d="M991.498 45.1853C991.495 42.3868 990.384 39.7039 988.41 37.725C986.435 35.7462 983.758 34.6331 980.966 34.6299H788.34C785.548 34.633 782.871 35.7461 780.896 37.7249C778.922 39.7037 777.811 42.3866 777.808 45.185C777.811 47.9835 778.922 50.6665 780.896 52.6454C782.871 54.6242 785.548 55.7373 788.34 55.7405H980.966C983.758 55.7374 986.435 54.6244 988.41 52.6456C990.384 50.6668 991.495 47.9838 991.498 45.1853V45.1853Z" stroke="#E93734" stroke-width="5.27615" stroke-miterlimit="10"/>
<path d="M1099.42 45.1852V45.1853C1099.42 68.7198 1080.38 87.7983 1056.9 87.7983L864.273 87.7983C840.79 87.7983 821.754 68.7198 821.754 45.1853V45.1852C821.754 21.6507 840.79 2.57227 864.273 2.57227L1056.9 2.57227C1080.38 2.57227 1099.42 21.6507 1099.42 45.1852Z" stroke="#E93734" stroke-width="0.17587" stroke-miterlimit="10"/>
<path d="M1099.42 45.1852V45.1853C1099.42 68.7198 1080.38 87.7983 1056.9 87.7983L864.273 87.7983C840.79 87.7983 821.754 68.7198 821.754 45.1853V45.1852C821.754 21.6507 840.79 2.57227 864.273 2.57227L1056.9 2.57227C1080.38 2.57227 1099.42 21.6507 1099.42 45.1852Z" stroke="#E93734" stroke-width="5.27615" stroke-miterlimit="10"/>
<path d="M832.416 45.185C832.426 36.7203 835.785 28.605 841.757 22.6196C847.73 16.6341 855.827 13.2674 864.273 13.2578H1056.9C1065.34 13.2674 1073.44 16.6341 1079.41 22.6195C1085.39 28.6049 1088.75 36.7201 1088.76 45.1847C1088.75 53.6494 1085.39 61.7647 1079.41 67.7502C1073.44 73.7356 1065.34 77.1025 1056.9 77.1121H864.273C855.827 77.1025 847.73 73.7358 841.757 67.7504C835.785 61.7649 832.426 53.6497 832.416 45.185V45.185Z" stroke="#E93734" stroke-width="5.27615" stroke-miterlimit="10"/>
<path d="M843.079 45.1857C843.085 39.5541 845.32 34.155 849.293 30.1729C853.267 26.1907 858.654 23.9507 864.273 23.9443H1056.9C1062.52 23.9507 1067.9 26.1907 1071.88 30.1728C1075.85 34.1548 1078.09 39.5539 1078.09 45.1854C1078.09 50.817 1075.85 56.2161 1071.88 60.1983C1067.9 64.1805 1062.52 66.4204 1056.9 66.4268H864.273C858.654 66.4205 853.267 64.1806 849.293 60.1985C845.32 56.2164 843.085 50.8173 843.079 45.1857V45.1857Z" stroke="#E93734" stroke-width="5.27615" stroke-miterlimit="10"/>
<path d="M853.741 45.1853C853.744 42.3868 854.855 39.7039 856.829 37.725C858.804 35.7462 861.481 34.6331 864.273 34.6299H1056.9C1059.69 34.633 1062.37 35.7461 1064.34 37.7249C1066.32 39.7037 1067.43 42.3866 1067.43 45.185C1067.43 47.9835 1066.32 50.6665 1064.34 52.6454C1062.37 54.6242 1059.69 55.7373 1056.9 55.7405H864.273C861.481 55.7374 858.804 54.6244 856.829 52.6456C854.855 50.6668 853.744 47.9838 853.741 45.1853V45.1853Z" stroke="#E93734" stroke-width="5.27615" stroke-miterlimit="10"/>
<path d="M853.741 45.1853C853.744 42.3868 854.855 39.7039 856.829 37.725C858.804 35.7462 861.481 34.6331 864.273 34.6299H1056.9C1059.69 34.633 1062.37 35.7461 1064.34 37.7249C1066.32 39.7037 1067.43 42.3866 1067.43 45.185C1067.43 47.9835 1066.32 50.6665 1064.34 52.6454C1062.37 54.6242 1059.69 55.7373 1056.9 55.7405H864.273C861.481 55.7374 858.804 54.6244 856.829 52.6456C854.855 50.6668 853.744 47.9838 853.741 45.1853V45.1853Z" stroke="#E93734" stroke-width="5.27615" stroke-miterlimit="10"/>
<path d="M1160.28 87.7983C1183.76 87.7983 1202.8 68.7198 1202.8 45.1853C1202.8 21.6508 1183.76 2.57227 1160.28 2.57227L1027.04 2.57227C1003.56 2.57227 984.524 21.6508 984.524 45.1853C984.524 68.7198 1003.56 87.7983 1027.04 87.7983L1160.28 87.7983Z" stroke="#00AEEF" stroke-width="5.27674" stroke-miterlimit="10"/>
<path d="M1160.28 87.7983C1183.76 87.7983 1202.8 68.7198 1202.8 45.1853C1202.8 21.6508 1183.76 2.57227 1160.28 2.57227L1027.04 2.57227C1003.56 2.57227 984.524 21.6508 984.524 45.1853C984.524 68.7198 1003.56 87.7983 1027.04 87.7983L1160.28 87.7983Z" stroke="#00AEEF" stroke-width="5.27674" stroke-miterlimit="10"/>
<path d="M995.186 45.185C995.196 36.7203 998.555 28.6051 1004.53 22.6196C1010.5 16.6342 1018.6 13.2674 1027.04 13.2578H1160.28C1168.72 13.2674 1176.82 16.6341 1182.79 22.6195C1188.76 28.6049 1192.12 36.7201 1192.13 45.1847C1192.12 53.6494 1188.76 61.7647 1182.79 67.7502C1176.82 73.7356 1168.72 77.1025 1160.28 77.1121H1027.04C1018.6 77.1025 1010.5 73.7358 1004.53 67.7504C998.555 61.7649 995.196 53.6497 995.186 45.185Z" stroke="#00AEEF" stroke-width="5.27674" stroke-miterlimit="10"/>
<path d="M1005.85 45.1857C1005.86 39.5541 1008.09 34.155 1012.06 30.1729C1016.04 26.1907 1021.42 23.9507 1027.04 23.9443H1160.28C1165.9 23.9507 1171.28 26.1907 1175.26 30.1728C1179.23 34.1548 1181.46 39.5539 1181.47 45.1854C1181.46 50.817 1179.23 56.2162 1175.26 60.1984C1171.28 64.1805 1165.9 66.4204 1160.28 66.4268H1027.04C1021.42 66.4205 1016.04 64.1806 1012.06 60.1985C1008.09 56.2164 1005.86 50.8173 1005.85 45.1857V45.1857Z" stroke="#00AEEF" stroke-width="5.27674" stroke-miterlimit="10"/>
<path d="M1016.51 45.1853C1016.51 42.3868 1017.62 39.7039 1019.6 37.725C1021.57 35.7462 1024.25 34.6331 1027.04 34.6299H1160.28C1163.07 34.633 1165.75 35.7461 1167.72 37.7249C1169.69 39.7037 1170.8 42.3866 1170.81 45.185C1170.8 47.9835 1169.69 50.6665 1167.72 52.6454C1165.75 54.6242 1163.07 55.7373 1160.28 55.7405H1027.04C1024.25 55.7374 1021.57 54.6244 1019.6 52.6456C1017.62 50.6668 1016.51 47.9838 1016.51 45.1853V45.1853Z" stroke="#00AEEF" stroke-width="5.27674" stroke-miterlimit="10"/>
<path d="M1016.51 45.1853C1016.51 42.3868 1017.62 39.7039 1019.6 37.725C1021.57 35.7462 1024.25 34.6331 1027.04 34.6299H1160.28C1163.07 34.633 1165.75 35.7461 1167.72 37.7249C1169.69 39.7037 1170.8 42.3866 1170.81 45.185C1170.8 47.9835 1169.69 50.6665 1167.72 52.6454C1165.75 54.6242 1163.07 55.7373 1160.28 55.7405H1027.04C1024.25 55.7374 1021.57 54.6244 1019.6 52.6456C1017.62 50.6668 1016.51 47.9838 1016.51 45.1853V45.1853Z" stroke="#00AEEF" stroke-width="5.27674" stroke-miterlimit="10"/>
<path d="M1099.42 45.1852V45.1853C1099.42 68.7198 1080.38 87.7983 1056.9 87.7983L864.273 87.7983C840.79 87.7983 821.754 68.7198 821.754 45.1853V45.1852C821.754 21.6507 840.79 2.57227 864.273 2.57227L1056.9 2.57227C1080.38 2.57227 1099.42 21.6507 1099.42 45.1852Z" stroke="#E93734" stroke-width="0.17587" stroke-miterlimit="10"/>
<path d="M1099.42 45.1852V45.1853C1099.42 68.7198 1080.38 87.7983 1056.9 87.7983L864.273 87.7983C840.79 87.7983 821.754 68.7198 821.754 45.1853V45.1852C821.754 21.6507 840.79 2.57227 864.273 2.57227L1056.9 2.57227C1080.38 2.57227 1099.42 21.6507 1099.42 45.1852Z" stroke="#E93734" stroke-width="5.27615" stroke-miterlimit="10"/>
<path d="M832.416 45.185C832.426 36.7203 835.785 28.605 841.757 22.6196C847.73 16.6341 855.827 13.2674 864.273 13.2578H1056.9C1065.34 13.2674 1073.44 16.6341 1079.41 22.6195C1085.39 28.6049 1088.75 36.7201 1088.76 45.1847C1088.75 53.6494 1085.39 61.7647 1079.41 67.7502C1073.44 73.7356 1065.34 77.1025 1056.9 77.1121H864.273C855.827 77.1025 847.73 73.7358 841.757 67.7504C835.785 61.7649 832.426 53.6497 832.416 45.185V45.185Z" stroke="#E93734" stroke-width="5.27615" stroke-miterlimit="10"/>
<path d="M843.079 45.1857C843.085 39.5541 845.32 34.155 849.293 30.1729C853.267 26.1907 858.654 23.9507 864.273 23.9443H1056.9C1062.52 23.9507 1067.9 26.1907 1071.88 30.1728C1075.85 34.1548 1078.09 39.5539 1078.09 45.1854C1078.09 50.817 1075.85 56.2161 1071.88 60.1983C1067.9 64.1805 1062.52 66.4204 1056.9 66.4268H864.273C858.654 66.4205 853.267 64.1806 849.293 60.1985C845.32 56.2164 843.085 50.8173 843.079 45.1857V45.1857Z" stroke="#E93734" stroke-width="5.27615" stroke-miterlimit="10"/>
<path d="M853.741 45.1853C853.744 42.3868 854.855 39.7039 856.829 37.725C858.804 35.7462 861.481 34.6331 864.273 34.6299H1056.9C1059.69 34.633 1062.37 35.7461 1064.34 37.7249C1066.32 39.7037 1067.43 42.3866 1067.43 45.185C1067.43 47.9835 1066.32 50.6665 1064.34 52.6454C1062.37 54.6242 1059.69 55.7373 1056.9 55.7405H864.273C861.481 55.7374 858.804 54.6244 856.829 52.6456C854.855 50.6668 853.744 47.9838 853.741 45.1853V45.1853Z" stroke="#E93734" stroke-width="5.27615" stroke-miterlimit="10"/>
<path d="M853.741 45.1853C853.744 42.3868 854.855 39.7039 856.829 37.725C858.804 35.7462 861.481 34.6331 864.273 34.6299H1056.9C1059.69 34.633 1062.37 35.7461 1064.34 37.7249C1066.32 39.7037 1067.43 42.3866 1067.43 45.185C1067.43 47.9835 1066.32 50.6665 1064.34 52.6454C1062.37 54.6242 1059.69 55.7373 1056.9 55.7405H864.273C861.481 55.7374 858.804 54.6244 856.829 52.6456C854.855 50.6668 853.744 47.9838 853.741 45.1853V45.1853Z" stroke="#E93734" stroke-width="5.27615" stroke-miterlimit="10"/>
<path d="M1499.93 45.1853V45.1854C1499.93 68.7199 1480.89 87.7983 1457.41 87.7983L1264.79 87.7983C1241.3 87.7983 1222.27 68.7199 1222.27 45.1854V45.1853C1222.27 21.6508 1241.3 2.57227 1264.79 2.57227L1457.41 2.57227C1480.89 2.57227 1499.93 21.6508 1499.93 45.1853Z" stroke="#E93734" stroke-width="0.17587" stroke-miterlimit="10"/>
<path d="M1499.93 45.1853V45.1854C1499.93 68.7199 1480.89 87.7983 1457.41 87.7983L1264.79 87.7983C1241.3 87.7983 1222.27 68.7199 1222.27 45.1854V45.1853C1222.27 21.6508 1241.3 2.57227 1264.79 2.57227L1457.41 2.57227C1480.89 2.57227 1499.93 21.6508 1499.93 45.1853Z" stroke="#E93734" stroke-width="5.27615" stroke-miterlimit="10"/>
<path d="M1489.27 45.185C1489.26 36.7203 1485.9 28.605 1479.93 22.6196C1473.95 16.6341 1465.86 13.2674 1457.41 13.2578H1264.79C1256.34 13.2674 1248.24 16.6341 1242.27 22.6195C1236.3 28.6049 1232.94 36.7201 1232.93 45.1847C1232.94 53.6494 1236.3 61.7647 1242.27 67.7502C1248.24 73.7356 1256.34 77.1025 1264.79 77.1121H1457.41C1465.86 77.1025 1473.95 73.7358 1479.93 67.7504C1485.9 61.7649 1489.26 53.6497 1489.27 45.185Z" stroke="#E93734" stroke-width="5.27615" stroke-miterlimit="10"/>
<path d="M1478.61 45.1857C1478.6 39.5541 1476.36 34.155 1472.39 30.1729C1468.42 26.1907 1463.03 23.9507 1457.41 23.9443H1264.79C1259.17 23.9507 1253.78 26.1907 1249.81 30.1728C1245.83 34.1548 1243.6 39.5539 1243.59 45.1854C1243.6 50.817 1245.83 56.2161 1249.81 60.1983C1253.78 64.1805 1259.17 66.4204 1264.79 66.4268H1457.41C1463.03 66.4205 1468.42 64.1806 1472.39 60.1985C1476.36 56.2164 1478.6 50.8173 1478.61 45.1857V45.1857Z" stroke="#E93734" stroke-width="5.27615" stroke-miterlimit="10"/>
<path d="M1467.94 45.1853C1467.94 42.3868 1466.83 39.7039 1464.85 37.725C1462.88 35.7462 1460.2 34.6331 1457.41 34.6299H1264.79C1261.99 34.633 1259.32 35.7461 1257.34 37.7249C1255.37 39.7037 1254.26 42.3866 1254.25 45.185C1254.26 47.9835 1255.37 50.6665 1257.34 52.6454C1259.32 54.6242 1261.99 55.7373 1264.79 55.7405H1457.41C1460.2 55.7374 1462.88 54.6244 1464.85 52.6456C1466.83 50.6668 1467.94 47.9838 1467.94 45.1853Z" stroke="#E93734" stroke-width="5.27615" stroke-miterlimit="10"/>
<path d="M1467.94 45.1853C1467.94 42.3868 1466.83 39.7039 1464.85 37.725C1462.88 35.7462 1460.2 34.6331 1457.41 34.6299H1264.79C1261.99 34.633 1259.32 35.7461 1257.34 37.7249C1255.37 39.7037 1254.26 42.3866 1254.25 45.185C1254.26 47.9835 1255.37 50.6665 1257.34 52.6454C1259.32 54.6242 1261.99 55.7373 1264.79 55.7405H1457.41C1460.2 55.7374 1462.88 54.6244 1464.85 52.6456C1466.83 50.6668 1467.94 47.9838 1467.94 45.1853Z" stroke="#E93734" stroke-width="5.27615" stroke-miterlimit="10"/>
<path d="M1337.16 45.1854V45.1852C1337.16 39.5892 1336.06 34.048 1333.92 28.8779C1331.79 23.7079 1328.65 19.0103 1324.71 15.0533C1320.76 11.0963 1316.07 7.95748 1310.91 5.81598C1305.75 3.67448 1300.22 2.57226 1294.64 2.57227H1161.41C1155.82 2.57227 1150.3 3.67447 1145.14 5.81598C1139.98 7.95748 1135.29 11.0963 1131.34 15.0533C1127.39 19.0103 1124.26 23.7079 1122.13 28.878C1119.99 34.048 1118.89 39.5892 1118.89 45.1852V45.1852C1118.89 50.7813 1119.99 56.3225 1122.13 61.4925C1124.26 66.6626 1127.39 71.3602 1131.34 75.3172C1135.29 79.2742 1139.98 82.4131 1145.14 84.5546C1150.3 86.6961 1155.82 87.7983 1161.41 87.7983H1294.64C1300.22 87.7983 1305.75 86.6961 1310.91 84.5546C1316.07 82.4131 1320.76 79.2743 1324.71 75.3173C1328.65 71.3603 1331.79 66.6627 1333.92 61.4926C1336.06 56.3226 1337.16 50.7814 1337.16 45.1854V45.1854Z" stroke="#00AEEF" stroke-width="5.27674" stroke-miterlimit="10"/>
<path d="M1337.16 45.1854V45.1852C1337.16 39.5892 1336.06 34.048 1333.92 28.8779C1331.79 23.7079 1328.65 19.0103 1324.71 15.0533C1320.76 11.0963 1316.07 7.95748 1310.91 5.81598C1305.75 3.67448 1300.22 2.57226 1294.64 2.57227H1161.41C1155.82 2.57227 1150.3 3.67447 1145.14 5.81598C1139.98 7.95748 1135.29 11.0963 1131.34 15.0533C1127.39 19.0103 1124.26 23.7079 1122.13 28.878C1119.99 34.048 1118.89 39.5892 1118.89 45.1852V45.1852C1118.89 50.7813 1119.99 56.3225 1122.13 61.4925C1124.26 66.6626 1127.39 71.3602 1131.34 75.3172C1135.29 79.2742 1139.98 82.4131 1145.14 84.5546C1150.3 86.6961 1155.82 87.7983 1161.41 87.7983H1294.64C1300.22 87.7983 1305.75 86.6961 1310.91 84.5546C1316.07 82.4131 1320.76 79.2743 1324.71 75.3173C1328.65 71.3603 1331.79 66.6627 1333.92 61.4926C1336.06 56.3226 1337.16 50.7814 1337.16 45.1854V45.1854Z" stroke="#00AEEF" stroke-width="5.27674" stroke-miterlimit="10"/>
<path d="M1326.5 45.185C1326.49 36.7203 1323.13 28.6051 1317.16 22.6196C1311.18 16.6342 1303.09 13.2674 1294.64 13.2578H1161.41C1152.96 13.2674 1144.86 16.6341 1138.89 22.6195C1132.92 28.6049 1129.56 36.7201 1129.55 45.1847C1129.56 53.6494 1132.92 61.7647 1138.89 67.7502C1144.86 73.7356 1152.96 77.1025 1161.41 77.1121H1294.64C1303.09 77.1025 1311.18 73.7358 1317.16 67.7504C1323.13 61.7649 1326.49 53.6497 1326.5 45.185V45.185Z" stroke="#00AEEF" stroke-width="5.27674" stroke-miterlimit="10"/>
<path d="M1315.84 45.1857C1315.83 39.5541 1313.59 34.155 1309.62 30.1729C1305.65 26.1907 1300.26 23.9507 1294.64 23.9443H1161.41C1155.79 23.9507 1150.4 26.1907 1146.43 30.1728C1142.45 34.1548 1140.22 39.5539 1140.21 45.1854C1140.22 50.817 1142.45 56.2162 1146.43 60.1984C1150.4 64.1805 1155.79 66.4204 1161.41 66.4268H1294.64C1300.26 66.4205 1305.65 64.1806 1309.62 60.1985C1313.59 56.2164 1315.83 50.8173 1315.84 45.1857V45.1857Z" stroke="#00AEEF" stroke-width="5.27674" stroke-miterlimit="10"/>
<path d="M1305.17 45.1853C1305.17 42.3868 1304.06 39.7039 1302.08 37.725C1300.11 35.7462 1297.43 34.6331 1294.64 34.6299H1161.41C1158.62 34.633 1155.94 35.7461 1153.96 37.7249C1151.99 39.7037 1150.88 42.3866 1150.88 45.185C1150.88 47.9835 1151.99 50.6665 1153.96 52.6454C1155.94 54.6242 1158.62 55.7373 1161.41 55.7405H1294.64C1297.43 55.7374 1300.11 54.6244 1302.08 52.6456C1304.06 50.6668 1305.17 47.9838 1305.17 45.1853V45.1853Z" stroke="#00AEEF" stroke-width="5.27674" stroke-miterlimit="10"/>
<path d="M1305.17 45.1853C1305.17 42.3868 1304.06 39.7039 1302.08 37.725C1300.11 35.7462 1297.43 34.6331 1294.64 34.6299H1161.41C1158.62 34.633 1155.94 35.7461 1153.96 37.7249C1151.99 39.7037 1150.88 42.3866 1150.88 45.185C1150.88 47.9835 1151.99 50.6665 1153.96 52.6454C1155.94 54.6242 1158.62 55.7373 1161.41 55.7405H1294.64C1297.43 55.7374 1300.11 54.6244 1302.08 52.6456C1304.06 50.6668 1305.17 47.9838 1305.17 45.1853V45.1853Z" stroke="#00AEEF" stroke-width="5.27674" stroke-miterlimit="10"/>
<path d="M1499.93 45.1853V45.1854C1499.93 68.7199 1480.89 87.7983 1457.41 87.7983L1264.79 87.7983C1241.3 87.7983 1222.27 68.7199 1222.27 45.1854V45.1853C1222.27 21.6508 1241.3 2.57227 1264.79 2.57227L1457.41 2.57227C1480.89 2.57227 1499.93 21.6508 1499.93 45.1853Z" stroke="#E93734" stroke-width="0.17587" stroke-miterlimit="10"/>
<path d="M1499.93 45.1853V45.1854C1499.93 68.7199 1480.89 87.7983 1457.41 87.7983L1264.79 87.7983C1241.3 87.7983 1222.27 68.7199 1222.27 45.1854V45.1853C1222.27 21.6508 1241.3 2.57227 1264.79 2.57227L1457.41 2.57227C1480.89 2.57227 1499.93 21.6508 1499.93 45.1853Z" stroke="#E93734" stroke-width="5.27615" stroke-miterlimit="10"/>
<path d="M1489.27 45.185C1489.26 36.7203 1485.9 28.605 1479.93 22.6196C1473.95 16.6341 1465.86 13.2674 1457.41 13.2578H1264.79C1256.34 13.2674 1248.24 16.6341 1242.27 22.6195C1236.3 28.6049 1232.94 36.7201 1232.93 45.1847C1232.94 53.6494 1236.3 61.7647 1242.27 67.7502C1248.24 73.7356 1256.34 77.1025 1264.79 77.1121H1457.41C1465.86 77.1025 1473.95 73.7358 1479.93 67.7504C1485.9 61.7649 1489.26 53.6497 1489.27 45.185Z" stroke="#E93734" stroke-width="5.27615" stroke-miterlimit="10"/>
<path d="M1478.61 45.1857C1478.6 39.5541 1476.36 34.155 1472.39 30.1729C1468.42 26.1907 1463.03 23.9507 1457.41 23.9443H1264.79C1259.17 23.9507 1253.78 26.1907 1249.81 30.1728C1245.83 34.1548 1243.6 39.5539 1243.59 45.1854C1243.6 50.817 1245.83 56.2161 1249.81 60.1983C1253.78 64.1805 1259.17 66.4204 1264.79 66.4268H1457.41C1463.03 66.4205 1468.42 64.1806 1472.39 60.1985C1476.36 56.2164 1478.6 50.8173 1478.61 45.1857V45.1857Z" stroke="#E93734" stroke-width="5.27615" stroke-miterlimit="10"/>
<path d="M1467.94 45.1853C1467.94 42.3868 1466.83 39.7039 1464.85 37.725C1462.88 35.7462 1460.2 34.6331 1457.41 34.6299H1264.79C1261.99 34.633 1259.32 35.7461 1257.34 37.7249C1255.37 39.7037 1254.26 42.3866 1254.25 45.185C1254.26 47.9835 1255.37 50.6665 1257.34 52.6454C1259.32 54.6242 1261.99 55.7373 1264.79 55.7405H1457.41C1460.2 55.7374 1462.88 54.6244 1464.85 52.6456C1466.83 50.6668 1467.94 47.9838 1467.94 45.1853Z" stroke="#E93734" stroke-width="5.27615" stroke-miterlimit="10"/>
<path d="M1467.94 45.1853C1467.94 42.3868 1466.83 39.7039 1464.85 37.725C1462.88 35.7462 1460.2 34.6331 1457.41 34.6299H1264.79C1261.99 34.633 1259.32 35.7461 1257.34 37.7249C1255.37 39.7037 1254.26 42.3866 1254.25 45.185C1254.26 47.9835 1255.37 50.6665 1257.34 52.6454C1259.32 54.6242 1261.99 55.7373 1264.79 55.7405H1457.41C1460.2 55.7374 1462.88 54.6244 1464.85 52.6456C1466.83 50.6668 1467.94 47.9838 1467.94 45.1853Z" stroke="#E93734" stroke-width="5.27615" stroke-miterlimit="10"/>
<path d="M1575.86 45.1852V45.1853C1575.86 68.7198 1556.83 87.7983 1533.34 87.7983L1340.72 87.7983C1317.24 87.7983 1298.2 68.7198 1298.2 45.1853V45.1852C1298.2 21.6507 1317.24 2.57227 1340.72 2.57227L1533.34 2.57227C1556.83 2.57227 1575.86 21.6507 1575.86 45.1852Z" stroke="#E93734" stroke-width="0.17587" stroke-miterlimit="10"/>
<path d="M1575.86 45.1852V45.1853C1575.86 68.7198 1556.83 87.7983 1533.34 87.7983L1340.72 87.7983C1317.24 87.7983 1298.2 68.7198 1298.2 45.1853V45.1852C1298.2 21.6507 1317.24 2.57227 1340.72 2.57227L1533.34 2.57227C1556.83 2.57227 1575.86 21.6507 1575.86 45.1852Z" stroke="#E93734" stroke-width="5.27615" stroke-miterlimit="10"/>
<path d="M1308.86 45.185C1308.87 36.7203 1312.23 28.605 1318.2 22.6196C1324.17 16.6341 1332.27 13.2674 1340.72 13.2578H1533.34C1541.79 13.2674 1549.89 16.6341 1555.86 22.6195C1561.83 28.6049 1565.19 36.7201 1565.2 45.1847C1565.19 53.6494 1561.83 61.7647 1555.86 67.7502C1549.89 73.7356 1541.79 77.1025 1533.34 77.1121H1340.72C1332.27 77.1025 1324.17 73.7358 1318.2 67.7504C1312.23 61.7649 1308.87 53.6497 1308.86 45.185V45.185Z" stroke="#E93734" stroke-width="5.27615" stroke-miterlimit="10"/>
<path d="M1319.52 45.1857C1319.53 39.5541 1321.77 34.155 1325.74 30.1729C1329.71 26.1907 1335.1 23.9507 1340.72 23.9443H1533.34C1538.96 23.9507 1544.35 26.1907 1548.32 30.1728C1552.3 34.1548 1554.53 39.5539 1554.54 45.1854C1554.53 50.817 1552.3 56.2161 1548.32 60.1983C1544.35 64.1805 1538.96 66.4204 1533.34 66.4268H1340.72C1335.1 66.4205 1329.71 64.1806 1325.74 60.1985C1321.77 56.2164 1319.53 50.8173 1319.52 45.1857V45.1857Z" stroke="#E93734" stroke-width="5.27615" stroke-miterlimit="10"/>
<path d="M1330.19 45.1853C1330.19 42.3868 1331.3 39.7039 1333.27 37.725C1335.25 35.7462 1337.93 34.6331 1340.72 34.6299H1533.34C1536.14 34.633 1538.81 35.7461 1540.79 37.7249C1542.76 39.7037 1543.87 42.3866 1543.88 45.185C1543.87 47.9835 1542.76 50.6665 1540.79 52.6454C1538.81 54.6242 1536.14 55.7373 1533.34 55.7405H1340.72C1337.93 55.7374 1335.25 54.6244 1333.27 52.6456C1331.3 50.6668 1330.19 47.9838 1330.19 45.1853V45.1853Z" stroke="#E93734" stroke-width="5.27615" stroke-miterlimit="10"/>
<path d="M1330.19 45.1853C1330.19 42.3868 1331.3 39.7039 1333.27 37.725C1335.25 35.7462 1337.93 34.6331 1340.72 34.6299H1533.34C1536.14 34.633 1538.81 35.7461 1540.79 37.7249C1542.76 39.7037 1543.87 42.3866 1543.88 45.185C1543.87 47.9835 1542.76 50.6665 1540.79 52.6454C1538.81 54.6242 1536.14 55.7373 1533.34 55.7405H1340.72C1337.93 55.7374 1335.25 54.6244 1333.27 52.6456C1331.3 50.6668 1330.19 47.9838 1330.19 45.1853V45.1853Z" stroke="#E93734" stroke-width="5.27615" stroke-miterlimit="10"/>
<path d="M1636.72 87.7983C1660.2 87.7983 1679.24 68.7198 1679.24 45.1853C1679.24 21.6508 1660.2 2.57227 1636.72 2.57227L1503.49 2.57227C1480.01 2.57227 1460.97 21.6508 1460.97 45.1853C1460.97 68.7198 1480.01 87.7983 1503.49 87.7983L1636.72 87.7983Z" stroke="#00AEEF" stroke-width="5.27674" stroke-miterlimit="10"/>
<path d="M1636.72 87.7983C1660.2 87.7983 1679.24 68.7198 1679.24 45.1853C1679.24 21.6508 1660.2 2.57227 1636.72 2.57227L1503.49 2.57227C1480.01 2.57227 1460.97 21.6508 1460.97 45.1853C1460.97 68.7198 1480.01 87.7983 1503.49 87.7983L1636.72 87.7983Z" stroke="#00AEEF" stroke-width="5.27674" stroke-miterlimit="10"/>
<path d="M1471.63 45.185C1471.64 36.7203 1475 28.6051 1480.97 22.6196C1486.95 16.6342 1495.04 13.2674 1503.49 13.2578H1636.72C1645.17 13.2674 1653.26 16.6341 1659.24 22.6195C1665.21 28.6049 1668.57 36.7201 1668.58 45.1847C1668.57 53.6494 1665.21 61.7647 1659.24 67.7502C1653.26 73.7356 1645.17 77.1025 1636.72 77.1121H1503.49C1495.04 77.1025 1486.95 73.7358 1480.97 67.7504C1475 61.7649 1471.64 53.6497 1471.63 45.185Z" stroke="#00AEEF" stroke-width="5.27674" stroke-miterlimit="10"/>
<path d="M1482.29 45.1857C1482.3 39.5541 1484.54 34.155 1488.51 30.1729C1492.48 26.1907 1497.87 23.9507 1503.49 23.9443H1636.72C1642.34 23.9507 1647.73 26.1907 1651.7 30.1728C1655.67 34.1548 1657.91 39.5539 1657.92 45.1854C1657.91 50.817 1655.67 56.2162 1651.7 60.1984C1647.73 64.1805 1642.34 66.4204 1636.72 66.4268H1503.49C1497.87 66.4205 1492.48 64.1806 1488.51 60.1985C1484.54 56.2164 1482.3 50.8173 1482.29 45.1857V45.1857Z" stroke="#00AEEF" stroke-width="5.27674" stroke-miterlimit="10"/>
<path d="M1492.96 45.1853C1492.96 42.3868 1494.07 39.7039 1496.04 37.725C1498.02 35.7462 1500.7 34.6331 1503.49 34.6299H1636.72C1639.51 34.633 1642.19 35.7461 1644.17 37.7249C1646.14 39.7037 1647.25 42.3866 1647.25 45.185C1647.25 47.9835 1646.14 50.6665 1644.17 52.6454C1642.19 54.6242 1639.51 55.7373 1636.72 55.7405H1503.49C1500.7 55.7374 1498.02 54.6244 1496.04 52.6456C1494.07 50.6668 1492.96 47.9838 1492.96 45.1853V45.1853Z" stroke="#00AEEF" stroke-width="5.27674" stroke-miterlimit="10"/>
<path d="M1492.96 45.1853C1492.96 42.3868 1494.07 39.7039 1496.04 37.725C1498.02 35.7462 1500.7 34.6331 1503.49 34.6299H1636.72C1639.51 34.633 1642.19 35.7461 1644.17 37.7249C1646.14 39.7037 1647.25 42.3866 1647.25 45.185C1647.25 47.9835 1646.14 50.6665 1644.17 52.6454C1642.19 54.6242 1639.51 55.7373 1636.72 55.7405H1503.49C1500.7 55.7374 1498.02 54.6244 1496.04 52.6456C1494.07 50.6668 1492.96 47.9838 1492.96 45.1853V45.1853Z" stroke="#00AEEF" stroke-width="5.27674" stroke-miterlimit="10"/>
<path d="M1575.86 45.1852V45.1853C1575.86 68.7198 1556.83 87.7983 1533.34 87.7983L1340.72 87.7983C1317.24 87.7983 1298.2 68.7198 1298.2 45.1853V45.1852C1298.2 21.6507 1317.24 2.57227 1340.72 2.57227L1533.34 2.57227C1556.83 2.57227 1575.86 21.6507 1575.86 45.1852Z" stroke="#E93734" stroke-width="0.17587" stroke-miterlimit="10"/>
<path d="M1575.86 45.1852V45.1853C1575.86 68.7198 1556.83 87.7983 1533.34 87.7983L1340.72 87.7983C1317.24 87.7983 1298.2 68.7198 1298.2 45.1853V45.1852C1298.2 21.6507 1317.24 2.57227 1340.72 2.57227L1533.34 2.57227C1556.83 2.57227 1575.86 21.6507 1575.86 45.1852Z" stroke="#E93734" stroke-width="5.27615" stroke-miterlimit="10"/>
<path d="M1308.86 45.185C1308.87 36.7203 1312.23 28.605 1318.2 22.6196C1324.17 16.6341 1332.27 13.2674 1340.72 13.2578H1533.34C1541.79 13.2674 1549.89 16.6341 1555.86 22.6195C1561.83 28.6049 1565.19 36.7201 1565.2 45.1847C1565.19 53.6494 1561.83 61.7647 1555.86 67.7502C1549.89 73.7356 1541.79 77.1025 1533.34 77.1121H1340.72C1332.27 77.1025 1324.17 73.7358 1318.2 67.7504C1312.23 61.7649 1308.87 53.6497 1308.86 45.185V45.185Z" stroke="#E93734" stroke-width="5.27615" stroke-miterlimit="10"/>
<path d="M1319.52 45.1857C1319.53 39.5541 1321.77 34.155 1325.74 30.1729C1329.71 26.1907 1335.1 23.9507 1340.72 23.9443H1533.34C1538.96 23.9507 1544.35 26.1907 1548.32 30.1728C1552.3 34.1548 1554.53 39.5539 1554.54 45.1854C1554.53 50.817 1552.3 56.2161 1548.32 60.1983C1544.35 64.1805 1538.96 66.4204 1533.34 66.4268H1340.72C1335.1 66.4205 1329.71 64.1806 1325.74 60.1985C1321.77 56.2164 1319.53 50.8173 1319.52 45.1857V45.1857Z" stroke="#E93734" stroke-width="5.27615" stroke-miterlimit="10"/>
<path d="M1330.19 45.1853C1330.19 42.3868 1331.3 39.7039 1333.27 37.725C1335.25 35.7462 1337.93 34.6331 1340.72 34.6299H1533.34C1536.14 34.633 1538.81 35.7461 1540.79 37.7249C1542.76 39.7037 1543.87 42.3866 1543.88 45.185C1543.87 47.9835 1542.76 50.6665 1540.79 52.6454C1538.81 54.6242 1536.14 55.7373 1533.34 55.7405H1340.72C1337.93 55.7374 1335.25 54.6244 1333.27 52.6456C1331.3 50.6668 1330.19 47.9838 1330.19 45.1853V45.1853Z" stroke="#E93734" stroke-width="5.27615" stroke-miterlimit="10"/>
<path d="M1330.19 45.1853C1330.19 42.3868 1331.3 39.7039 1333.27 37.725C1335.25 35.7462 1337.93 34.6331 1340.72 34.6299H1533.34C1536.14 34.633 1538.81 35.7461 1540.79 37.7249C1542.76 39.7037 1543.87 42.3866 1543.88 45.185C1543.87 47.9835 1542.76 50.6665 1540.79 52.6454C1538.81 54.6242 1536.14 55.7373 1533.34 55.7405H1340.72C1337.93 55.7374 1335.25 54.6244 1333.27 52.6456C1331.3 50.6668 1330.19 47.9838 1330.19 45.1853V45.1853Z" stroke="#E93734" stroke-width="5.27615" stroke-miterlimit="10"/>
<path d="M1976.38 45.1853V45.1854C1976.38 68.7199 1957.34 87.7983 1933.86 87.7983L1741.23 87.7983C1717.75 87.7983 1698.71 68.7199 1698.71 45.1854V45.1853C1698.71 21.6508 1717.75 2.57227 1741.23 2.57227L1933.86 2.57227C1957.34 2.57227 1976.38 21.6508 1976.38 45.1853Z" stroke="#E93734" stroke-width="0.17587" stroke-miterlimit="10"/>
<path d="M1976.38 45.1853V45.1854C1976.38 68.7199 1957.34 87.7983 1933.86 87.7983L1741.23 87.7983C1717.75 87.7983 1698.71 68.7199 1698.71 45.1854V45.1853C1698.71 21.6508 1717.75 2.57227 1741.23 2.57227L1933.86 2.57227C1957.34 2.57227 1976.38 21.6508 1976.38 45.1853Z" stroke="#E93734" stroke-width="5.27615" stroke-miterlimit="10"/>
<path d="M1965.71 45.185C1965.7 36.7203 1962.34 28.605 1956.37 22.6196C1950.4 16.6341 1942.3 13.2674 1933.86 13.2578H1741.23C1732.78 13.2674 1724.69 16.6341 1718.71 22.6195C1712.74 28.6049 1709.38 36.7201 1709.37 45.1847C1709.38 53.6494 1712.74 61.7647 1718.71 67.7502C1724.69 73.7356 1732.78 77.1025 1741.23 77.1121H1933.86C1942.3 77.1025 1950.4 73.7358 1956.37 67.7504C1962.34 61.7649 1965.7 53.6497 1965.71 45.185V45.185Z" stroke="#E93734" stroke-width="5.27615" stroke-miterlimit="10"/>
<path d="M1955.05 45.1857C1955.04 39.5541 1952.81 34.155 1948.84 30.1729C1944.86 26.1907 1939.48 23.9507 1933.86 23.9443H1741.23C1735.61 23.9507 1730.22 26.1907 1726.25 30.1728C1722.28 34.1548 1720.04 39.5539 1720.04 45.1854C1720.04 50.817 1722.28 56.2161 1726.25 60.1983C1730.22 64.1805 1735.61 66.4204 1741.23 66.4268H1933.86C1939.48 66.4205 1944.86 64.1806 1948.84 60.1985C1952.81 56.2164 1955.04 50.8173 1955.05 45.1857Z" stroke="#E93734" stroke-width="5.27615" stroke-miterlimit="10"/>
<path d="M1944.39 45.1853C1944.39 42.3868 1943.27 39.7039 1941.3 37.725C1939.33 35.7462 1936.65 34.6331 1933.86 34.6299H1741.23C1738.44 34.633 1735.76 35.7461 1733.79 37.7249C1731.81 39.7037 1730.7 42.3866 1730.7 45.185C1730.7 47.9835 1731.81 50.6665 1733.79 52.6454C1735.76 54.6242 1738.44 55.7373 1741.23 55.7405H1933.86C1936.65 55.7374 1939.33 54.6244 1941.3 52.6456C1943.27 50.6668 1944.39 47.9838 1944.39 45.1853Z" stroke="#E93734" stroke-width="5.27615" stroke-miterlimit="10"/>
<path d="M1944.39 45.1853C1944.39 42.3868 1943.27 39.7039 1941.3 37.725C1939.33 35.7462 1936.65 34.6331 1933.86 34.6299H1741.23C1738.44 34.633 1735.76 35.7461 1733.79 37.7249C1731.81 39.7037 1730.7 42.3866 1730.7 45.185C1730.7 47.9835 1731.81 50.6665 1733.79 52.6454C1735.76 54.6242 1738.44 55.7373 1741.23 55.7405H1933.86C1936.65 55.7374 1939.33 54.6244 1941.3 52.6456C1943.27 50.6668 1944.39 47.9838 1944.39 45.1853Z" stroke="#E93734" stroke-width="5.27615" stroke-miterlimit="10"/>
<path d="M1813.6 45.1854V45.1852C1813.6 39.5892 1812.51 34.048 1810.37 28.8779C1808.23 23.7079 1805.1 19.0103 1801.15 15.0533C1797.2 11.0963 1792.52 7.95748 1787.36 5.81598C1782.2 3.67448 1776.67 2.57226 1771.09 2.57227H1637.85C1632.27 2.57227 1626.74 3.67447 1621.58 5.81598C1616.42 7.95748 1611.74 11.0963 1607.79 15.0533C1603.84 19.0103 1600.71 23.7079 1598.57 28.878C1596.43 34.048 1595.33 39.5892 1595.33 45.1852V45.1852C1595.33 50.7813 1596.43 56.3225 1598.57 61.4925C1600.71 66.6626 1603.84 71.3602 1607.79 75.3172C1611.74 79.2742 1616.42 82.4131 1621.58 84.5546C1626.74 86.6961 1632.27 87.7983 1637.85 87.7983H1771.09C1776.67 87.7983 1782.2 86.6961 1787.36 84.5546C1792.52 82.4131 1797.2 79.2743 1801.15 75.3173C1805.1 71.3603 1808.23 66.6627 1810.37 61.4926C1812.51 56.3226 1813.6 50.7814 1813.6 45.1854V45.1854Z" stroke="#00AEEF" stroke-width="5.27674" stroke-miterlimit="10"/>
<path d="M1813.6 45.1854V45.1852C1813.6 39.5892 1812.51 34.048 1810.37 28.8779C1808.23 23.7079 1805.1 19.0103 1801.15 15.0533C1797.2 11.0963 1792.52 7.95748 1787.36 5.81598C1782.2 3.67448 1776.67 2.57226 1771.09 2.57227H1637.85C1632.27 2.57227 1626.74 3.67447 1621.58 5.81598C1616.42 7.95748 1611.74 11.0963 1607.79 15.0533C1603.84 19.0103 1600.71 23.7079 1598.57 28.878C1596.43 34.048 1595.33 39.5892 1595.33 45.1852V45.1852C1595.33 50.7813 1596.43 56.3225 1598.57 61.4925C1600.71 66.6626 1603.84 71.3602 1607.79 75.3172C1611.74 79.2742 1616.42 82.4131 1621.58 84.5546C1626.74 86.6961 1632.27 87.7983 1637.85 87.7983H1771.09C1776.67 87.7983 1782.2 86.6961 1787.36 84.5546C1792.52 82.4131 1797.2 79.2743 1801.15 75.3173C1805.1 71.3603 1808.23 66.6627 1810.37 61.4926C1812.51 56.3226 1813.6 50.7814 1813.6 45.1854V45.1854Z" stroke="#00AEEF" stroke-width="5.27674" stroke-miterlimit="10"/>
<path d="M1802.94 45.185C1802.93 36.7203 1799.57 28.6051 1793.6 22.6196C1787.63 16.6342 1779.53 13.2674 1771.09 13.2578H1637.85C1629.41 13.2674 1621.31 16.6341 1615.34 22.6195C1609.37 28.6049 1606.01 36.7201 1606 45.1847C1606.01 53.6494 1609.37 61.7647 1615.34 67.7502C1621.31 73.7356 1629.41 77.1025 1637.85 77.1121H1771.09C1779.53 77.1025 1787.63 73.7358 1793.6 67.7504C1799.57 61.7649 1802.93 53.6497 1802.94 45.185Z" stroke="#00AEEF" stroke-width="5.27674" stroke-miterlimit="10"/>
<path d="M1792.28 45.1857C1792.27 39.5541 1790.04 34.155 1786.07 30.1729C1782.09 26.1907 1776.71 23.9507 1771.09 23.9443H1637.85C1632.23 23.9507 1626.85 26.1907 1622.87 30.1728C1618.9 34.1548 1616.66 39.5539 1616.66 45.1854C1616.66 50.817 1618.9 56.2162 1622.87 60.1984C1626.85 64.1805 1632.23 66.4204 1637.85 66.4268H1771.09C1776.7 66.4205 1782.09 64.1806 1786.07 60.1985C1790.04 56.2164 1792.27 50.8173 1792.28 45.1857V45.1857Z" stroke="#00AEEF" stroke-width="5.27674" stroke-miterlimit="10"/>
<path d="M1781.62 45.1853C1781.61 42.3868 1780.5 39.7039 1778.53 37.725C1776.56 35.7462 1773.88 34.6331 1771.09 34.6299H1637.85C1635.06 34.633 1632.38 35.7461 1630.41 37.7249C1628.43 39.7037 1627.32 42.3866 1627.32 45.185C1627.32 47.9835 1628.43 50.6665 1630.41 52.6454C1632.38 54.6242 1635.06 55.7373 1637.85 55.7405H1771.09C1773.88 55.7374 1776.56 54.6244 1778.53 52.6456C1780.5 50.6668 1781.61 47.9838 1781.62 45.1853V45.1853Z" stroke="#00AEEF" stroke-width="5.27674" stroke-miterlimit="10"/>
<path d="M1781.62 45.1853C1781.61 42.3868 1780.5 39.7039 1778.53 37.725C1776.56 35.7462 1773.88 34.6331 1771.09 34.6299H1637.85C1635.06 34.633 1632.38 35.7461 1630.41 37.7249C1628.43 39.7037 1627.32 42.3866 1627.32 45.185C1627.32 47.9835 1628.43 50.6665 1630.41 52.6454C1632.38 54.6242 1635.06 55.7373 1637.85 55.7405H1771.09C1773.88 55.7374 1776.56 54.6244 1778.53 52.6456C1780.5 50.6668 1781.61 47.9838 1781.62 45.1853V45.1853Z" stroke="#00AEEF" stroke-width="5.27674" stroke-miterlimit="10"/>
<path d="M1976.38 45.1853V45.1854C1976.38 68.7199 1957.34 87.7983 1933.86 87.7983L1741.23 87.7983C1717.75 87.7983 1698.71 68.7199 1698.71 45.1854V45.1853C1698.71 21.6508 1717.75 2.57227 1741.23 2.57227L1933.86 2.57227C1957.34 2.57227 1976.38 21.6508 1976.38 45.1853Z" stroke="#E93734" stroke-width="0.17587" stroke-miterlimit="10"/>
<path d="M1976.38 45.1853V45.1854C1976.38 68.7199 1957.34 87.7983 1933.86 87.7983L1741.23 87.7983C1717.75 87.7983 1698.71 68.7199 1698.71 45.1854V45.1853C1698.71 21.6508 1717.75 2.57227 1741.23 2.57227L1933.86 2.57227C1957.34 2.57227 1976.38 21.6508 1976.38 45.1853Z" stroke="#E93734" stroke-width="5.27615" stroke-miterlimit="10"/>
<path d="M1965.71 45.185C1965.7 36.7203 1962.34 28.605 1956.37 22.6196C1950.4 16.6341 1942.3 13.2674 1933.86 13.2578H1741.23C1732.78 13.2674 1724.69 16.6341 1718.71 22.6195C1712.74 28.6049 1709.38 36.7201 1709.37 45.1847C1709.38 53.6494 1712.74 61.7647 1718.71 67.7502C1724.69 73.7356 1732.78 77.1025 1741.23 77.1121H1933.86C1942.3 77.1025 1950.4 73.7358 1956.37 67.7504C1962.34 61.7649 1965.7 53.6497 1965.71 45.185V45.185Z" stroke="#E93734" stroke-width="5.27615" stroke-miterlimit="10"/>
<path d="M1955.05 45.1857C1955.04 39.5541 1952.81 34.155 1948.84 30.1729C1944.86 26.1907 1939.48 23.9507 1933.86 23.9443H1741.23C1735.61 23.9507 1730.22 26.1907 1726.25 30.1728C1722.28 34.1548 1720.04 39.5539 1720.04 45.1854C1720.04 50.817 1722.28 56.2161 1726.25 60.1983C1730.22 64.1805 1735.61 66.4204 1741.23 66.4268H1933.86C1939.48 66.4205 1944.86 64.1806 1948.84 60.1985C1952.81 56.2164 1955.04 50.8173 1955.05 45.1857Z" stroke="#E93734" stroke-width="5.27615" stroke-miterlimit="10"/>
<path d="M1944.39 45.1853C1944.39 42.3868 1943.27 39.7039 1941.3 37.725C1939.33 35.7462 1936.65 34.6331 1933.86 34.6299H1741.23C1738.44 34.633 1735.76 35.7461 1733.79 37.7249C1731.81 39.7037 1730.7 42.3866 1730.7 45.185C1730.7 47.9835 1731.81 50.6665 1733.79 52.6454C1735.76 54.6242 1738.44 55.7373 1741.23 55.7405H1933.86C1936.65 55.7374 1939.33 54.6244 1941.3 52.6456C1943.27 50.6668 1944.39 47.9838 1944.39 45.1853Z" stroke="#E93734" stroke-width="5.27615" stroke-miterlimit="10"/>
<path d="M1944.39 45.1853C1944.39 42.3868 1943.27 39.7039 1941.3 37.725C1939.33 35.7462 1936.65 34.6331 1933.86 34.6299H1741.23C1738.44 34.633 1735.76 35.7461 1733.79 37.7249C1731.81 39.7037 1730.7 42.3866 1730.7 45.185C1730.7 47.9835 1731.81 50.6665 1733.79 52.6454C1735.76 54.6242 1738.44 55.7373 1741.23 55.7405H1933.86C1936.65 55.7374 1939.33 54.6244 1941.3 52.6456C1943.27 50.6668 1944.39 47.9838 1944.39 45.1853Z" stroke="#E93734" stroke-width="5.27615" stroke-miterlimit="10"/>
</g>
<defs>
<clipPath id="clip0_1_1155">
<rect width="2105.8" height="90" fill="white"/>
</clipPath>
</defs>
</svg>
