<svg width="192" height="57" viewBox="0 0 192 57" fill="none" xmlns="http://www.w3.org/2000/svg">
<path d="M24.8261 44.2841C25.7192 45.2799 26.6121 46.2758 27.6243 47.2131C32.4466 51.7237 38.6382 55.004 45.6038 56.3514V52.3094C39.8288 51.0206 34.7089 48.2089 30.6605 44.4012C29.3507 43.2296 28.2196 41.8823 27.1479 40.535C26.5526 41.7067 25.8382 42.8197 25.1237 43.9326L25.1833 43.9912L25.1237 43.9326C25.0047 44.0498 24.9451 44.1669 24.8261 44.2841ZM18.5749 40.3593C17.5032 41.8238 16.2531 43.1711 14.9432 44.4012C10.8949 48.2089 5.77489 51.0206 0 52.3094V56.3514C6.90606 54.9455 13.0978 51.7237 17.9796 47.2131C18.9916 46.2171 20.0038 45.2214 20.8968 44.1669L20.7182 43.9326L20.6586 43.9912L20.7182 43.9326C19.9442 42.761 19.2299 41.5895 18.5749 40.3593ZM0 49.732C4.88187 48.4432 9.22792 45.9828 12.7405 42.7025C15.3601 40.2421 17.5032 37.3132 18.9916 34.0913C19.9442 36.7275 21.2539 39.2463 22.8614 41.5895C24.4093 39.5977 25.6001 36.9032 26.7312 34.0913C28.2196 37.3132 30.3629 40.2421 32.9824 42.7025C36.495 45.9828 40.841 48.3846 45.6633 49.732V45.5729C41.9721 44.4012 38.6382 42.4682 35.9592 39.9493C31.3749 35.673 28.5173 29.8737 28.5173 23.4301V5.62207H24.2903V23.4301C24.2903 26.5347 23.7545 30.2251 22.8019 33.037C21.8494 30.1666 21.3135 26.5347 21.3135 23.4301V5.62207H17.0865V23.4301C17.0865 29.8737 14.2884 35.7315 9.76374 39.9493C7.02512 42.4682 3.69117 44.4012 0 45.5729V49.732ZM31.0772 22.3756V19.0366H35.3042V22.3756V22.6099V23.02C35.3042 27.7063 37.3284 31.9825 40.6624 35.0286C42.0913 36.3759 43.7582 37.4889 45.6038 38.3091V42.6439C42.5675 41.5895 39.8885 39.9493 37.6261 37.8405C33.5777 34.0328 31.0177 28.7607 31.0177 23.02V22.6099V22.3756H31.0772ZM10.2996 22.3756V19.0366H14.5265V22.3756V22.6099V23.02C14.5265 28.8193 12.0261 34.0328 7.91815 37.8405C5.71536 39.9493 2.97674 41.5895 0 42.6439V38.3091C1.84558 37.4889 3.51256 36.3759 4.9414 35.0286C8.21582 31.924 10.2996 27.7063 10.2996 23.02V22.6099V22.3756Z" fill="#EB3333"/>
<path d="M105.198 29.1137H101.566V5.56499H105.198V14.7619H105.793C107.758 14.7619 108.413 12.653 108.413 11.0714V5.56499H112.044V10.9542C112.044 13.4146 111.092 15.2891 109.306 16.5192C111.27 17.8665 112.044 19.5654 112.044 22.0842V29.1723H108.413V21.9085C108.413 20.3854 107.698 18.5109 105.793 18.5694H105.138V29.1137H105.198ZM167.293 29.1137V5.56499H170.567V19.331L174.317 5.56499H178.366V29.1137H175.092V12.7116L170.626 29.1137H167.293ZM180.926 29.1137V5.56499H184.2V19.331L187.952 5.56499H192V29.1137H188.725V12.7116L184.26 29.1137H180.926ZM190.511 0V2.75321H182.474V0H190.511ZM157.946 29.1137H154.314V5.56499H157.946V14.7619H158.541C160.506 14.7619 161.16 12.653 161.16 11.0714V5.56499H164.792V10.9542C164.792 13.4146 163.84 15.2891 162.053 16.5192C164.018 17.8665 164.792 19.5654 164.792 22.0842V29.1723H161.16V21.9085C161.16 20.3854 160.447 18.5109 158.541 18.5694H157.886V29.1137H157.946ZM91.7428 29.0551H88.1111V5.56499H91.7428H95.1958H98.9464V14.9962H95.1958V8.90398H91.7428V25.7161H95.1958V19.6239H98.9464V29.0551H95.1958H91.7428ZM144.491 29.0551H140.859V5.56499H144.491H147.944H151.694V14.9962H147.944V8.90398H144.491V25.7161H147.944V19.6239H151.694V29.0551H147.944H144.491ZM81.8004 8.90398H78.4069C78.4069 14.5861 78.4069 20.034 78.4069 25.7161H81.8004C81.8004 20.034 81.8004 14.5861 81.8004 8.90398ZM78.2878 29.0551H74.6563C74.6563 21.2055 74.6563 13.356 74.6563 5.50641H78.2878H81.7409H85.4916C85.4916 13.356 85.4916 21.2055 85.4916 29.0551H81.7409H78.2878ZM121.808 8.90398H118.414C118.414 14.5861 118.414 20.034 118.414 25.7161H121.808C121.808 20.034 121.808 14.5861 121.808 8.90398ZM118.355 29.0551H114.723C114.723 21.2055 114.723 13.356 114.723 5.50641H118.355H121.808H125.559C125.559 13.356 125.559 21.2055 125.559 29.0551H121.808H118.355ZM131.75 8.90398V15.2305C133.12 15.2891 134.787 15.2305 134.787 12.8287V10.6613V8.90398H131.75ZM131.75 18.5694V25.7161H134.787C134.787 24.1931 134.787 22.67 134.787 21.147C134.787 18.7452 133.12 18.5109 131.75 18.5694ZM138.419 9.66551V10.6613V12.5944C138.419 14.4689 137.644 15.8162 136.394 16.6949C137.763 17.7494 138.419 19.3896 138.419 21.3813C138.419 23.9587 138.419 26.5362 138.419 29.0551C136.216 29.0551 133.953 29.0551 131.75 29.0551H128.119V5.56499H131.75C133.953 5.56499 136.216 5.56499 138.419 5.56499V9.66551ZM64.3567 21.3226C65.3092 16.2849 66.5595 10.6613 67.1548 5.62357H72.0962V29.1723H68.8814V19.7997L69.2386 11.3643C68.7623 14.059 66.9762 24.0173 64.7139 28.8207H64.3567H63.9994C61.7371 24.0173 59.8915 14.059 59.4748 11.3643L59.832 19.7997V29.1137H56.6172V5.56499H61.5585C62.1538 10.6613 63.4041 16.2849 64.3567 21.3226Z" fill="#EB3333"/>
<path d="M100.494 36.2013V46.6869C101.863 46.7455 103.53 46.5111 103.53 44.1095V41.942V36.1428H100.494V36.2013ZM107.161 41.0048V42.0005V43.9337C107.161 47.5656 105.256 50.0845 101.684 50.0845H100.494V56.411H96.8618V32.8037C100.315 32.8037 103.768 32.8037 107.161 32.8037V41.0048ZM108.174 32.8037H119.485V36.1428H115.675V56.2938H112.043V36.2013H108.233V32.8037H108.174ZM90.6703 36.2013H87.2768C87.2768 41.8835 87.2768 47.3313 87.2768 53.0135H90.6703C90.6703 47.3313 90.6703 41.8249 90.6703 36.2013ZM87.1577 56.3524H83.526C83.526 48.5029 83.526 40.6533 83.526 32.8037H87.1577H90.6106H94.3614C94.3614 40.6533 94.3614 48.5029 94.3614 56.3524H90.6106H87.1577ZM60.3073 56.3524H56.6758V32.8037H60.3073H63.7604H67.5111V42.235H63.7604V36.2013H60.3073V53.0135H63.7604V46.9212H67.5111V56.3524H63.7604H60.3073ZM73.7623 56.3524H70.1306V32.8037H80.966V56.3524H77.2153V36.2013H73.7623V56.3524Z" fill="#EB3333"/>
</svg>
