<svg width="288" height="109" viewBox="0 0 288 109" fill="none" xmlns="http://www.w3.org/2000/svg">
<path d="M30 40.7351V26.418H33.9675L39.6951 35.7651H37.6087L43.1718 26.418H47.14L47.1813 40.7351H42.7832L42.7426 33.0445H43.4378L39.6335 39.4463H37.5065L33.5383 33.0445H34.3974V40.7351H30Z" fill="black"/>
<path d="M56.5665 37.157C57.0167 37.157 57.4319 37.0751 57.8141 36.9119C58.2097 36.7481 58.5506 36.5164 58.837 36.216C59.1366 35.9024 59.3684 35.5278 59.5322 35.091C59.6953 34.6415 59.7779 34.1367 59.7779 33.5773C59.7779 33.0186 59.6953 32.5209 59.5322 32.0847C59.3684 31.6345 59.1366 31.26 58.837 30.9596C58.5506 30.646 58.2097 30.4073 57.8141 30.2434C57.4319 30.0803 57.0167 29.9984 56.5665 29.9984C56.1164 29.9984 55.6935 30.0803 55.2979 30.2434C54.9164 30.4073 54.5754 30.646 54.2758 30.9596C53.9894 31.26 53.764 31.6345 53.6009 32.0847C53.4371 32.5209 53.3551 33.0186 53.3551 33.5773C53.3551 34.1367 53.4371 34.6415 53.6009 35.091C53.764 35.5278 53.9894 35.9024 54.2758 36.216C54.5754 36.5164 54.9164 36.7481 55.2979 36.9119C55.6935 37.0751 56.1164 37.157 56.5665 37.157ZM56.5665 41.0636C55.4072 41.0636 54.3304 40.8795 53.3348 40.5112C52.3533 40.1436 51.5006 39.6249 50.7781 38.957C50.0555 38.2751 49.4892 37.4776 49.081 36.564C48.6854 35.6504 48.4873 34.6548 48.4873 33.5773C48.4873 32.4873 48.6854 31.4917 49.081 30.5914C49.4892 29.6777 50.0555 28.8873 50.7781 28.2187C51.5006 27.5368 52.3533 27.0124 53.3348 26.6442C54.3304 26.2759 55.4072 26.0918 56.5665 26.0918C57.7392 26.0918 58.816 26.2759 59.7982 26.6442C60.7798 27.0124 61.6318 27.5368 62.355 28.2187C63.0775 28.8873 63.6362 29.6777 64.0318 30.5914C64.4413 31.4917 64.6458 32.4873 64.6458 33.5773C64.6458 34.6548 64.4413 35.6504 64.0318 36.564C63.6362 37.4776 63.0775 38.2751 62.355 38.957C61.6318 39.6249 60.7798 40.1436 59.7982 40.5112C58.816 40.8795 57.7392 41.0636 56.5665 41.0636Z" fill="black"/>
<path d="M73.1738 41.0636C72.0284 41.0636 70.9649 40.8864 69.9834 40.5315C69.0152 40.1639 68.1701 39.6452 67.4469 38.9773C66.7384 38.3094 66.186 37.5182 65.7905 36.6046C65.3949 35.691 65.1968 34.6821 65.1968 33.5773C65.1968 32.4733 65.3949 31.4644 65.7905 30.5508C66.186 29.6371 66.7384 28.846 67.4469 28.1781C68.1701 27.5095 69.0152 26.9984 69.9834 26.6442C70.9649 26.2759 72.0284 26.0918 73.1738 26.0918C74.5789 26.0918 75.8195 26.3375 76.897 26.8283C77.987 27.3191 78.8874 28.0283 79.5966 28.9552L76.549 31.6752C76.1261 31.1438 75.6557 30.7349 75.1369 30.4479C74.6328 30.1482 74.0601 29.9984 73.4195 29.9984C72.9147 29.9984 72.4583 30.0803 72.0487 30.2434C71.6399 30.4073 71.2856 30.646 70.9853 30.9596C70.6996 31.2733 70.4742 31.6548 70.3103 32.105C70.1472 32.5412 70.0653 33.0327 70.0653 33.5773C70.0653 34.1234 70.1472 34.6205 70.3103 35.0707C70.4742 35.5068 70.6996 35.8821 70.9853 36.1957C71.2856 36.5094 71.6399 36.7481 72.0487 36.9119C72.4583 37.0751 72.9147 37.157 73.4195 37.157C74.0601 37.157 74.6328 37.0142 75.1369 36.7278C75.6557 36.4275 76.1261 36.0116 76.549 35.4795L79.5966 38.2001C78.8874 39.1138 77.987 39.823 76.897 40.3271C75.8195 40.8185 74.5789 41.0636 73.1738 41.0636Z" fill="black"/>
<path d="M90.1972 34.0876L85.7592 33.6382L89.8703 26.418H94.9012L90.1972 34.0876ZM83.9586 31.7563H89.3788V35.5607H83.9586V31.7563ZM80.5225 26.418H85.3497V40.7351H80.5225V26.418ZM89.4404 40.7351L85.8818 34.026L89.7274 31.7766L94.8809 40.7351H89.4404Z" fill="black"/>
<path d="M102.638 37.157C103.088 37.157 103.504 37.0751 103.885 36.9119C104.281 36.7481 104.621 36.5164 104.908 36.216C105.208 35.9024 105.44 35.5278 105.603 35.091C105.767 34.6415 105.849 34.1367 105.849 33.5773C105.849 33.0186 105.767 32.5209 105.603 32.0847C105.44 31.6345 105.208 31.26 104.908 30.9596C104.621 30.646 104.281 30.4073 103.885 30.2434C103.504 30.0803 103.088 29.9984 102.638 29.9984C102.188 29.9984 101.765 30.0803 101.37 30.2434C100.988 30.4073 100.647 30.646 100.347 30.9596C100.061 31.26 99.8353 31.6345 99.6722 32.0847C99.5084 32.5209 99.4264 33.0186 99.4264 33.5773C99.4264 34.1367 99.5084 34.6415 99.6722 35.091C99.8353 35.5278 100.061 35.9024 100.347 36.216C100.647 36.5164 100.988 36.7481 101.37 36.9119C101.765 37.0751 102.188 37.157 102.638 37.157ZM102.638 41.0636C101.478 41.0636 100.402 40.8795 99.4061 40.5112C98.4246 40.1436 97.5718 39.6249 96.8493 38.957C96.1268 38.2751 95.5612 37.4776 95.1516 36.564C94.756 35.6504 94.5586 34.6548 94.5586 33.5773C94.5586 32.4873 94.756 31.4917 95.1516 30.5914C95.5612 29.6777 96.1268 28.8873 96.8493 28.2187C97.5718 27.5368 98.4246 27.0124 99.4061 26.6442C100.402 26.2759 101.478 26.0918 102.638 26.0918C103.81 26.0918 104.888 26.2759 105.87 26.6442C106.851 27.0124 107.703 27.5368 108.426 28.2187C109.149 28.8873 109.708 29.6777 110.104 30.5914C110.513 31.4917 110.717 32.4873 110.717 33.5773C110.717 34.6548 110.513 35.6504 110.104 36.564C109.708 37.4776 109.149 38.2751 108.426 38.957C107.703 39.6249 106.851 40.1436 105.87 40.5112C104.888 40.8795 103.81 41.0636 102.638 41.0636Z" fill="black"/>
<path d="M116.79 31.9194H118.835C119.244 31.9194 119.544 31.8312 119.736 31.6541C119.926 31.4762 120.022 31.2172 120.022 30.8763C120.022 30.522 119.926 30.256 119.736 30.0788C119.544 29.8877 119.244 29.7925 118.835 29.7925H116.79V31.9194ZM116.79 37.3606H119.47C119.865 37.3606 120.158 37.2647 120.349 37.0743C120.554 36.8699 120.656 36.5828 120.656 36.2146C120.656 35.847 120.554 35.574 120.349 35.3968C120.158 35.2057 119.865 35.1105 119.47 35.1105H116.79V37.3606ZM112.045 40.7351V26.418H119.306C121.078 26.418 122.449 26.7449 123.417 27.3995C124.399 28.0541 124.89 28.9741 124.89 30.1607C124.89 31.3194 124.44 32.2401 123.54 32.922C122.64 33.5899 121.426 33.9238 119.899 33.9238L120.308 32.8197C121.93 32.8197 123.205 33.1397 124.133 33.781C125.06 34.4216 125.523 35.3555 125.523 36.5828C125.523 37.8514 125.019 38.8603 124.01 39.6101C123.001 40.3599 121.563 40.7351 119.694 40.7351H112.045Z" fill="black"/>
<path d="M134.035 41.0636C132.891 41.0636 131.827 40.8864 130.845 40.5315C129.877 40.1639 129.032 39.6452 128.308 38.9773C127.6 38.3094 127.048 37.5182 126.652 36.6046C126.256 35.691 126.059 34.6821 126.059 33.5773C126.059 32.4733 126.256 31.4644 126.652 30.5508C127.048 29.6371 127.6 28.846 128.308 28.1781C129.032 27.5095 129.877 26.9984 130.845 26.6442C131.827 26.2759 132.891 26.0918 134.035 26.0918C135.44 26.0918 136.681 26.3375 137.759 26.8283C138.849 27.3191 139.749 28.0283 140.458 28.9552L137.411 31.6752C136.988 31.1438 136.517 30.7349 135.999 30.4479C135.494 30.1482 134.922 29.9984 134.281 29.9984C133.777 29.9984 133.32 30.0803 132.91 30.2434C132.501 30.4073 132.147 30.646 131.847 30.9596C131.56 31.2733 131.336 31.6548 131.172 32.105C131.008 32.5412 130.927 33.0327 130.927 33.5773C130.927 34.1234 131.008 34.6205 131.172 35.0707C131.336 35.5068 131.56 35.8821 131.847 36.1957C132.147 36.5094 132.501 36.7481 132.91 36.9119C133.32 37.0751 133.777 37.157 134.281 37.157C134.922 37.157 135.494 37.0142 135.999 36.7278C136.517 36.4275 136.988 36.0116 137.411 35.4795L140.458 38.2001C139.749 39.1138 138.849 39.823 137.759 40.3271C136.681 40.8185 135.44 41.0636 134.035 41.0636Z" fill="black"/>
<path d="M151.059 34.0876L146.621 33.6382L150.732 26.418H155.763L151.059 34.0876ZM144.821 31.7563H150.241V35.5607H144.821V31.7563ZM141.384 26.418H146.211V40.7351H141.384V26.418ZM150.302 40.7351L146.743 34.026L150.588 31.7766L155.743 40.7351H150.302Z" fill="black"/>
<path d="M156.318 40.7351V26.418H161.064V33.8629L165.992 26.418H170.533V40.7351H165.788V33.3105L160.88 40.7351H156.318Z" fill="black"/>
<path d="M179.765 25.6001C178.143 25.6001 176.99 25.3004 176.309 24.7004C175.64 24.0864 175.306 23.2141 175.306 22.082H178.518C178.518 22.5322 178.606 22.8662 178.784 23.0846C178.975 23.289 179.302 23.3912 179.765 23.3912C180.243 23.3912 180.577 23.289 180.767 23.0846C180.958 22.8662 181.053 22.5322 181.053 22.082H184.265C184.265 23.2141 183.917 24.0864 183.222 24.7004C182.54 25.3004 181.388 25.6001 179.765 25.6001ZM172.667 40.7357V26.4185H177.413V33.8634L182.342 26.4185H186.883V40.7357H182.138V33.311L177.229 40.7357H172.667Z" fill="black"/>
<path d="M36.805 59.0632L30.1372 46.791H35.2305L39.4234 55.7286L36.805 59.0632ZM32.5099 57.3654C33.3556 57.5832 34.0165 57.6588 34.494 57.5902C34.9714 57.5082 35.3936 57.2156 35.7626 56.7108L36.4571 55.7286L36.8666 55.2791L41.019 46.791H45.6817L39.9345 57.5699C39.3072 58.7425 38.5504 59.6562 37.6641 60.3108C36.7917 60.9514 35.8235 61.3196 34.76 61.4148C33.6965 61.5101 32.5715 61.3196 31.3855 60.8421L32.5099 57.3654Z" fill="black"/>
<path d="M51.1031 56.0562L48.9552 53.8677H52.8618C53.5304 53.8677 54.0211 53.7179 54.3341 53.4175C54.6624 53.1179 54.8256 52.709 54.8256 52.1902C54.8256 51.6729 54.6624 51.2633 54.3341 50.9637C54.0211 50.6633 53.5304 50.5135 52.8618 50.5135H48.9552L51.1031 48.325V56.0562ZM46.2759 61.1082V46.791H53.1684C54.5049 46.791 55.6573 47.0094 56.6248 47.4456C57.6071 47.8818 58.3639 48.5091 58.896 49.3275C59.4274 50.1319 59.6934 51.0862 59.6934 52.1902C59.6934 53.2957 59.4274 54.25 58.896 55.0544C58.3639 55.8588 57.6071 56.4861 56.6248 56.9363C55.6573 57.3724 54.5049 57.5902 53.1684 57.5902H48.9552L51.1031 55.5248V61.1082H46.2759Z" fill="black"/>
<path d="M65.4924 57.7337H67.9673C68.444 57.7337 68.8123 57.6315 69.072 57.427C69.3444 57.2226 69.4809 56.9293 69.4809 56.547C69.4809 55.8112 68.9761 55.4429 67.9673 55.4429H65.4924V57.7337ZM60.7471 61.1082V46.791H73.162V50.4316H65.4924V52.088H68.9082C70.6536 52.088 71.9894 52.464 72.917 53.2131C73.858 53.9496 74.3277 55.0201 74.3277 56.4245C74.3277 57.8835 73.7963 59.0289 72.7329 59.8613C71.6694 60.6923 70.1901 61.1082 68.2942 61.1082H60.7471Z" fill="black"/>
<path d="M77.8948 58.613L79.1221 55.1356H85.708L86.9353 58.613H77.8948ZM74.1724 61.1082L80.4313 46.791H85.1759L91.4349 61.1082H86.4445L81.8224 49.0818H83.7036L79.0808 61.1082H74.1724Z" fill="black"/>
<path d="M101.96 55.8315H96.8468V51.8633H101.96V55.8315ZM97.1744 61.1082H92.3472V46.791H97.1744V61.1082ZM101.633 46.791H106.459V61.1082H101.633V46.791Z" fill="black"/>
<path d="M108.597 61.1082V46.791H113.342V54.2367L118.271 46.791H122.812V61.1082H118.066V53.6843L113.158 61.1082H108.597Z" fill="black"/>
<path d="M132.145 61.4347C131 61.4347 129.937 61.2568 128.954 60.9026C127.986 60.5343 127.141 60.0163 126.419 59.3483C125.709 58.6805 125.157 57.8893 124.761 56.9757C124.366 56.062 124.168 55.0532 124.168 53.9484C124.168 52.8437 124.366 51.8348 124.761 50.9212C125.157 50.0082 125.709 49.2171 126.419 48.5492C127.141 47.8806 127.986 47.3695 128.954 47.0153C129.937 46.647 131 46.4629 132.145 46.4629C133.55 46.4629 134.791 46.7079 135.868 47.1994C136.959 47.6902 137.858 48.3987 138.568 49.3263L135.52 52.0462C135.097 51.5149 134.627 51.1053 134.109 50.819C133.605 50.5193 133.032 50.3688 132.391 50.3688C131.886 50.3688 131.429 50.4514 131.02 50.6145C130.612 50.7783 130.257 51.0171 129.957 51.3307C129.671 51.6437 129.446 52.0259 129.282 52.4754C129.118 52.9123 129.036 53.4037 129.036 53.9484C129.036 54.4938 129.118 54.9916 129.282 55.4418C129.446 55.8779 129.671 56.2525 129.957 56.5668C130.257 56.8805 130.612 57.1192 131.02 57.2823C131.429 57.4462 131.886 57.5274 132.391 57.5274C133.032 57.5274 133.605 57.3846 134.109 57.0982C134.627 56.7986 135.097 56.3827 135.52 55.8506L138.568 58.5712C137.858 59.4849 136.959 60.1934 135.868 60.6982C134.791 61.1889 133.55 61.4347 132.145 61.4347Z" fill="black"/>
<path d="M142.769 61.1082V49.4906L143.812 50.5338H138.576V46.791H151.707V50.5338H146.471L147.514 49.4906V61.1082H142.769Z" fill="black"/>
<path d="M152.89 61.1082V46.791H157.635V54.2367L162.564 46.791H167.105V61.1082H162.36V53.6843L157.451 61.1082H152.89Z" fill="black"/>
<path d="M177.205 46.791H181.95V61.1082H177.205V46.791ZM177.839 56.3013C177.225 56.5197 176.652 56.6835 176.121 56.792C175.602 56.9013 175.098 56.9559 174.607 56.9559C172.508 56.9559 170.905 56.4581 169.801 55.4632C168.709 54.4677 168.164 53.015 168.164 51.1065V46.791H172.909V50.5744C172.909 51.4467 173.101 52.095 173.482 52.5179C173.864 52.9268 174.443 53.1312 175.22 53.1312C175.753 53.1312 176.229 53.0836 176.652 52.9884C177.075 52.8792 177.429 52.7286 177.716 52.5382L177.839 56.3013Z" fill="black"/>
<path d="M188.816 57.4683H195.974V61.1082H184.07V46.791H195.707V50.4316H188.816V57.4683ZM188.488 52.109H194.869V55.5858H188.488V52.109Z" fill="black"/>
<path d="M204.722 61.4347C203.577 61.4347 202.513 61.2568 201.532 60.9026C200.564 60.5343 199.718 60.0163 198.995 59.3483C198.286 58.6805 197.734 57.8893 197.338 56.9757C196.943 56.062 196.745 55.0532 196.745 53.9484C196.745 52.8437 196.943 51.8348 197.338 50.9212C197.734 50.0082 198.286 49.2171 198.995 48.5492C199.718 47.8806 200.564 47.3695 201.532 47.0153C202.513 46.647 203.577 46.4629 204.722 46.4629C206.127 46.4629 207.367 46.7079 208.445 47.1994C209.535 47.6902 210.435 48.3987 211.144 49.3263L208.097 52.0462C207.674 51.5149 207.203 51.1053 206.686 50.819C206.181 50.5193 205.608 50.3688 204.968 50.3688C204.463 50.3688 204.007 50.4514 203.597 50.6145C203.188 50.7783 202.833 51.0171 202.534 51.3307C202.247 51.6437 202.023 52.0259 201.859 52.4754C201.696 52.9123 201.613 53.4037 201.613 53.9484C201.613 54.4938 201.696 54.9916 201.859 55.4418C202.023 55.8779 202.247 56.2525 202.534 56.5668C202.833 56.8805 203.188 57.1192 203.597 57.2823C204.007 57.4462 204.463 57.5274 204.968 57.5274C205.608 57.5274 206.181 57.3846 206.686 57.0982C207.203 56.7986 207.674 56.3827 208.097 55.8506L211.144 58.5712C210.435 59.4849 209.535 60.1934 208.445 60.6982C207.367 61.1889 206.127 61.4347 204.722 61.4347Z" fill="black"/>
<path d="M221.746 54.4614L217.307 54.0112L221.419 46.791H226.45L221.746 54.4614ZM215.508 52.13H220.928V55.9344H215.508V52.13ZM212.072 46.791H216.898V61.1082H212.072V46.791ZM220.989 61.1082L217.43 54.3998L221.275 52.1496L226.43 61.1082H220.989Z" fill="black"/>
<path d="M227.005 61.1082V46.791H231.75V54.2367L236.68 46.791H241.22V61.1082H236.474V53.6843L231.566 61.1082H227.005Z" fill="black"/>
<path d="M250.452 45.9731C248.829 45.9731 247.677 45.6728 246.995 45.0728C246.327 44.4595 245.993 43.5864 245.993 42.4551H249.204C249.204 42.9052 249.293 43.2392 249.47 43.4569C249.661 43.6614 249.989 43.7643 250.452 43.7643C250.929 43.7643 251.263 43.6614 251.454 43.4569C251.645 43.2392 251.74 42.9052 251.74 42.4551H254.952C254.952 43.5864 254.604 44.4595 253.909 45.0728C253.227 45.6728 252.074 45.9731 250.452 45.9731ZM243.354 61.108V46.7908H248.1V54.2365L253.029 46.7908H257.569V61.108H252.825V53.6841L247.916 61.108H243.354Z" fill="black"/>
<path d="M37.4551 66.4473H41.8728V82.2165H37.4551V66.4473ZM39.5624 76.9804H40.0119C41.1167 76.9804 42.003 76.8922 42.6709 76.7143C43.3395 76.5239 43.8233 76.2306 44.1236 75.835C44.4232 75.4261 44.5731 74.8941 44.5731 74.2402C44.5731 73.5849 44.4169 73.0675 44.1026 72.6852C43.7889 72.2904 43.2982 72.0033 42.6303 71.8262C41.9757 71.6491 41.1237 71.5601 40.0735 71.5601H39.5624C38.389 71.5601 37.4488 71.6491 36.7396 71.8262C36.0444 71.99 35.5396 72.2694 35.226 72.6649C34.9123 73.0605 34.7555 73.5919 34.7555 74.2598C34.7555 74.9284 34.9326 75.4674 35.2876 75.8756C35.6418 76.2712 36.1739 76.5575 36.8831 76.7353C37.6049 76.8992 38.4983 76.9804 39.5624 76.9804ZM39.1326 80.6622C37.1555 80.6622 35.492 80.4165 34.1422 79.9257C32.8057 79.4349 31.7968 78.7124 31.1149 77.7575C30.433 76.8032 30.0928 75.6376 30.0928 74.2598C30.0928 72.8826 30.433 71.724 31.1149 70.783C31.7968 69.8288 32.8127 69.1056 34.1625 68.6148C35.5123 68.124 37.1758 67.8783 39.1529 67.8783H40.3598C42.3096 67.8783 43.9388 68.131 45.2487 68.6358C46.5712 69.1266 47.566 69.8491 48.2346 70.8033C48.9025 71.7443 49.2365 72.8967 49.2365 74.2598C49.2365 75.6103 48.9095 76.7619 48.2549 77.7169C47.6136 78.6711 46.6524 79.4006 45.3705 79.9054C44.0893 80.4102 42.5008 80.6622 40.6049 80.6622H39.1326Z" fill="black"/>
<path d="M57.8356 77.9004C58.2857 77.9004 58.7016 77.8192 59.0832 77.6554C59.4787 77.4916 59.8197 77.2598 60.106 76.9595C60.4064 76.6465 60.6374 76.2713 60.8019 75.8351C60.965 75.3849 61.047 74.8809 61.047 74.3215C61.047 73.7628 60.965 73.265 60.8019 72.8288C60.6374 72.3787 60.4064 72.0034 60.106 71.7038C59.8197 71.3901 59.4787 71.1514 59.0832 70.9876C58.7016 70.8237 58.2857 70.7418 57.8356 70.7418C57.3861 70.7418 56.9632 70.8237 56.5677 70.9876C56.1861 71.1514 55.8452 71.3901 55.5448 71.7038C55.2592 72.0034 55.0337 72.3787 54.8699 72.8288C54.7068 73.265 54.6249 73.7628 54.6249 74.3215C54.6249 74.8809 54.7068 75.3849 54.8699 75.8351C55.0337 76.2713 55.2592 76.6465 55.5448 76.9595C55.8452 77.2598 56.1861 77.4916 56.5677 77.6554C56.9632 77.8192 57.3861 77.9004 57.8356 77.9004ZM57.8356 81.8077C56.6769 81.8077 55.5994 81.6236 54.6046 81.2553C53.6223 80.8871 52.7703 80.369 52.0471 79.7004C51.3246 79.0185 50.7589 78.2211 50.35 77.3074C49.9545 76.3945 49.7563 75.3989 49.7563 74.3215C49.7563 73.2307 49.9545 72.2352 50.35 71.3355C50.7589 70.4219 51.3246 69.6308 52.0471 68.9629C52.7703 68.281 53.6223 67.7559 54.6046 67.3876C55.5994 67.0194 56.6769 66.8359 57.8356 66.8359C59.009 66.8359 60.0857 67.0194 61.0673 67.3876C62.0495 67.7559 62.9015 68.281 63.624 68.9629C64.3473 69.6308 64.906 70.4219 65.3015 71.3355C65.7104 72.2352 65.9155 73.2307 65.9155 74.3215C65.9155 75.3989 65.7104 76.3945 65.3015 77.3074C64.906 78.2211 64.3473 79.0185 63.624 79.7004C62.9015 80.369 62.0495 80.8871 61.0673 81.2553C60.0857 81.6236 59.009 81.8077 57.8356 81.8077Z" fill="black"/>
<path d="M72.0702 76.4273L69.923 74.2388H73.8288C74.4975 74.2388 74.9889 74.089 75.3019 73.7886C75.6295 73.489 75.7927 73.0794 75.7927 72.5613C75.7927 72.044 75.6295 71.6344 75.3019 71.3347C74.9889 71.0344 74.4975 70.8846 73.8288 70.8846H69.923L72.0702 68.696V76.4273ZM67.2437 81.4793V67.1621H74.1362C75.4727 67.1621 76.6244 67.3805 77.5933 67.8167C78.5749 68.2529 79.3317 68.8802 79.8631 69.6979C80.3951 70.503 80.6612 71.4573 80.6612 72.5613C80.6612 73.6661 80.3951 74.6203 79.8631 75.4255C79.3317 76.2299 78.5749 76.8565 77.5933 77.3067C76.6244 77.7435 75.4727 77.9613 74.1362 77.9613H69.923L72.0702 75.8959V81.4793H67.2437Z" fill="black"/>
<path d="M86.8358 79.4343L80.168 67.1621H85.2605L89.4542 76.1004L86.8358 79.4343ZM82.5406 77.7365C83.3856 77.955 84.0472 78.0299 84.524 77.9619C85.0015 77.88 85.4244 77.5867 85.7926 77.0826L86.4878 76.1004L86.8974 75.6509L91.049 67.1621H95.7124L89.9645 77.9409C89.338 79.1136 88.5811 80.0273 87.6948 80.6819C86.8218 81.3232 85.8535 81.6914 84.7901 81.7866C83.7266 81.8818 82.6015 81.6914 81.4155 81.2139L82.5406 77.7365Z" fill="black"/>
<path d="M96.3066 81.4793V67.1621H100.275L106.002 76.5092H103.915L109.479 67.1621H113.447L113.488 81.4793H109.09L109.049 73.7886H109.744L105.94 80.1904H103.813L99.845 73.7886H100.704V81.4793H96.3066Z" fill="black"/>
<path d="M167.029 66.9668H119.257V81.5262H167.029V66.9668Z" fill="#007BC3"/>
<path d="M80.583 87.4414H30.0801V102.001H80.583V87.4414Z" fill="#007BC3"/>
<path d="M125.626 6H30.0811V20.5594H125.626V6Z" fill="#007BC3"/>
</svg>
