<svg width="288" height="73" viewBox="0 0 288 73" fill="none" xmlns="http://www.w3.org/2000/svg">
<path d="M81.163 5.57031H83.8109L86.8058 12.1339L89.629 5.57031H92.327L94.2097 16.8875H91.3365L90.2476 10.2757L87.3261 16.8875H86.0137L83.0671 10.3991L82.0015 16.8875H79.2534L81.1594 5.57031H81.163Z" fill="#0086FF"/>
<path d="M99.2483 16.6404C98.4974 16.3596 97.8501 15.959 97.3048 15.4403C96.7595 14.9199 96.3339 14.3047 96.03 13.5947C95.7242 12.8847 95.5723 12.0924 95.5723 11.2178C95.5723 10.3433 95.7296 9.54206 96.0425 8.81595C96.3554 8.08985 96.7863 7.47463 97.3298 6.97208C97.8752 6.46774 98.5224 6.07607 99.2733 5.79528C100.024 5.5145 100.836 5.375 101.712 5.375C102.588 5.375 103.423 5.5145 104.176 5.79528C104.927 6.07607 105.571 6.47668 106.107 6.99533C106.643 7.51576 107.065 8.13098 107.371 8.84099C107.675 9.551 107.829 10.3433 107.829 11.2178C107.829 12.0924 107.671 12.9151 107.359 13.6322C107.044 14.3512 106.615 14.9646 106.071 15.4761C105.526 15.9876 104.882 16.3793 104.14 16.6529C103.398 16.9247 102.59 17.0624 101.714 17.0624C100.838 17.0624 100.003 16.9212 99.2501 16.6404H99.2483ZM102.912 14.226C103.268 14.0686 103.572 13.8468 103.829 13.5571C104.085 13.2674 104.28 12.9258 104.41 12.5288C104.542 12.1335 104.609 11.6953 104.609 11.216C104.609 10.7367 104.542 10.329 104.41 9.94088C104.278 9.55279 104.088 9.20941 103.842 8.91253C103.595 8.61565 103.293 8.38852 102.939 8.23113C102.583 8.07375 102.175 7.99506 101.712 7.99506C101.249 7.99506 100.841 8.07733 100.486 8.24365C100.132 8.40819 99.8258 8.63532 99.5702 8.92505C99.3145 9.21478 99.1196 9.55637 98.9873 9.9534C98.855 10.3504 98.7906 10.7707 98.7906 11.216C98.7906 11.6614 98.8568 12.0834 98.9873 12.4787C99.1196 12.8739 99.3109 13.2209 99.5558 13.5178C99.8044 13.8146 100.11 14.0471 100.473 14.2117C100.836 14.378 101.249 14.4603 101.71 14.4603C102.172 14.4603 102.556 14.3816 102.91 14.2242L102.912 14.226Z" fill="#0086FF"/>
<path d="M112.99 16.6527C112.256 16.3809 111.632 15.9874 111.12 15.4759C110.609 14.9644 110.208 14.3492 109.92 13.6321C109.631 12.9131 109.488 12.1262 109.488 11.2659C109.488 10.3413 109.64 9.51149 109.946 8.77823C110.249 8.04319 110.671 7.42796 111.208 6.93256C111.744 6.43717 112.372 6.05265 113.091 5.78081C113.809 5.50897 114.596 5.37305 115.456 5.37305C115.917 5.37305 116.371 5.41776 116.817 5.50897C117.262 5.60018 117.675 5.72 118.054 5.86844C118.433 6.01689 118.78 6.19931 119.093 6.41392C119.406 6.62853 119.679 6.85924 119.91 7.10783L118.326 9.21282C117.981 8.84977 117.593 8.55647 117.164 8.33291C116.733 8.11115 116.246 7.99848 115.703 7.99848C115.241 7.99848 114.828 8.07717 114.465 8.23455C114.103 8.39193 113.788 8.61012 113.525 8.8909C113.262 9.17169 113.058 9.50613 112.919 9.89422C112.779 10.2823 112.708 10.708 112.708 11.1694C112.708 11.6308 112.783 12.0904 112.931 12.4946C113.078 12.8988 113.285 13.2493 113.55 13.5462C113.813 13.8431 114.135 14.0702 114.516 14.2276C114.895 14.385 115.317 14.4637 115.78 14.4637C116.341 14.4637 116.831 14.3528 117.253 14.1292C117.675 13.9057 118.05 13.6142 118.379 13.2493L120.187 15.0324C119.676 15.6923 119.016 16.1967 118.206 16.5436C117.398 16.8906 116.481 17.0641 115.458 17.0641C114.55 17.0641 113.727 16.9281 112.994 16.6545L112.99 16.6527Z" fill="#0086FF"/>
<path d="M122.163 14.1405V5.5721H125.233V16.8893H122.163V14.1405ZM123.153 9.73201H126.965V12.0838H123.153V9.73201ZM125.604 10.9946L129.145 5.57031H132.338V5.99239L128.969 10.7228L133.178 16.4691V16.8893H129.761L125.601 10.9964L125.604 10.9946Z" fill="#0086FF"/>
<path d="M137.277 16.6404C136.526 16.3596 135.878 15.959 135.333 15.4403C134.79 14.9199 134.364 14.3047 134.058 13.5947C133.753 12.8847 133.601 12.0924 133.601 11.2178C133.601 10.3433 133.756 9.54206 134.071 8.81595C134.384 8.08985 134.813 7.47463 135.358 6.97208C135.903 6.46774 136.551 6.07607 137.302 5.79528C138.053 5.5145 138.864 5.375 139.74 5.375C140.617 5.375 141.452 5.5145 142.204 5.79528C142.955 6.07607 143.599 6.47668 144.135 6.99533C144.672 7.51576 145.094 8.13098 145.399 8.84099C145.703 9.551 145.857 10.3433 145.857 11.2178C145.857 12.0924 145.702 12.9151 145.387 13.6322C145.074 14.3512 144.645 14.9646 144.1 15.4761C143.556 15.9876 142.911 16.3793 142.169 16.6529C141.427 16.9247 140.617 17.0624 139.742 17.0624C138.868 17.0624 138.029 16.9212 137.278 16.6404H137.277ZM140.94 14.226C141.296 14.0686 141.6 13.8468 141.857 13.5571C142.113 13.2674 142.308 12.9258 142.438 12.5288C142.571 12.1335 142.637 11.6953 142.637 11.216C142.637 10.7367 142.571 10.329 142.438 9.94088C142.306 9.55279 142.117 9.20941 141.87 8.91253C141.621 8.61565 141.321 8.38852 140.967 8.23113C140.611 8.07375 140.204 7.99506 139.74 7.99506C139.277 7.99506 138.87 8.07733 138.514 8.24365C138.158 8.40819 137.854 8.63532 137.597 8.92505C137.341 9.21478 137.146 9.55637 137.016 9.9534C136.883 10.3504 136.817 10.7707 136.817 11.216C136.817 11.6614 136.883 12.0834 137.016 12.4787C137.148 12.8739 137.337 13.2209 137.584 13.5178C137.833 13.8146 138.137 14.0471 138.501 14.2117C138.864 14.378 139.277 14.4603 139.739 14.4603C140.2 14.4603 140.584 14.3816 140.938 14.2242L140.94 14.226Z" fill="#0086FF"/>
<path d="M148.208 7.54296C148.208 6.4538 149.091 5.57031 150.18 5.57031H158.036C159.208 5.57031 160.091 5.82248 160.684 6.32682C161.28 6.83116 161.577 7.48573 161.577 8.29589C161.577 8.69114 161.505 9.04346 161.366 9.34928C161.226 9.65511 161.04 9.91443 160.81 10.129C160.577 10.3437 160.302 10.5082 159.98 10.6244C159.656 10.7407 159.324 10.7979 158.977 10.7979V10.5744C159.504 10.5744 159.996 10.628 160.45 10.7353C160.904 10.8426 161.299 11.0125 161.639 11.2432C161.977 11.4739 162.242 11.7762 162.431 12.1464C162.621 12.5184 162.717 12.9673 162.717 13.4967C162.717 14.5876 162.317 15.4246 161.516 16.0112C160.715 16.5978 159.547 16.8911 158.013 16.8911H148.21V7.54654L148.208 7.54296ZM150.363 14.6341H157.345C158.104 14.6341 158.653 14.5107 158.991 14.2621C159.329 14.0153 159.499 13.6594 159.499 13.198C159.499 12.7026 159.326 12.3431 158.979 12.1214C158.632 11.8996 158.112 11.7869 157.42 11.7869H150.363V10.0038H157.121C157.648 10.0038 158.045 9.91264 158.31 9.73201C158.573 9.54959 158.707 9.2688 158.707 8.88965C158.707 8.5105 158.575 8.25833 158.31 8.08486C158.047 7.91138 157.641 7.82553 157.098 7.82553H150.363L151.28 6.73458V15.7L150.363 14.6359V14.6341Z" fill="#0086FF"/>
<path d="M80.0742 32.3086C80.0742 31.2194 80.9575 30.3359 82.0463 30.3359H89.9027C91.0738 30.3359 91.957 30.5881 92.5506 31.0924C93.146 31.5968 93.4428 32.2514 93.4428 33.0615C93.4428 33.4568 93.3713 33.8091 93.2319 34.1149C93.0924 34.4207 92.9064 34.6801 92.6758 34.8947C92.4434 35.1093 92.168 35.2738 91.8462 35.3901C91.5226 35.5063 91.19 35.5635 90.8431 35.5635V35.34C91.3706 35.34 91.8623 35.3936 92.3164 35.5009C92.7706 35.6083 93.1657 35.7782 93.5054 36.0089C93.8433 36.2396 94.108 36.5418 94.2975 36.912C94.487 37.284 94.5836 37.7329 94.5836 38.2623C94.5836 39.3532 94.1831 40.1902 93.382 40.7768C92.581 41.3634 91.4135 41.6568 89.8794 41.6568H80.076V32.3122L80.0742 32.3086ZM82.2287 39.3997H89.2107C89.9706 39.3997 90.5195 39.2763 90.8574 39.0277C91.1954 38.7809 91.3652 38.425 91.3652 37.9636C91.3652 37.4682 91.1918 37.1088 90.8449 36.887C90.4981 36.6652 89.9778 36.5525 89.2858 36.5525H82.2287V34.7695H88.9872C89.5147 34.7695 89.9116 34.6783 90.1762 34.4976C90.439 34.3152 90.5732 34.0344 90.5732 33.6553C90.5732 33.2761 90.4408 33.024 90.1762 32.8505C89.9134 32.677 89.5075 32.5912 88.964 32.5912H82.2287L83.146 31.5002V40.4657L82.2287 39.4015V39.3997Z" fill="#0086FF"/>
<path d="M167.582 16.6527C166.847 16.3809 166.225 15.9874 165.714 15.4759C165.201 14.9644 164.802 14.3492 164.512 13.6321C164.223 12.9131 164.08 12.1262 164.08 11.2659C164.08 10.3413 164.232 9.51149 164.537 8.77823C164.841 8.04319 165.263 7.42796 165.8 6.93256C166.336 6.43717 166.964 6.05265 167.682 5.78081C168.401 5.50897 169.188 5.37305 170.048 5.37305C170.509 5.37305 170.963 5.41776 171.408 5.50897C171.854 5.60018 172.267 5.72 172.646 5.86844C173.025 6.01689 173.372 6.19931 173.685 6.41392C173.997 6.62853 174.271 6.85924 174.502 7.10783L172.917 9.21282C172.572 8.84977 172.184 8.55647 171.755 8.33291C171.324 8.11115 170.838 7.99848 170.295 7.99848C169.833 7.99848 169.42 8.07717 169.057 8.23455C168.694 8.39193 168.38 8.61012 168.117 8.8909C167.854 9.17169 167.65 9.50613 167.511 9.89422C167.371 10.2823 167.3 10.708 167.3 11.1694C167.3 11.6308 167.375 12.0904 167.523 12.4946C167.67 12.8988 167.877 13.2493 168.142 13.5462C168.405 13.8431 168.727 14.0702 169.107 14.2276C169.486 14.385 169.908 14.4637 170.371 14.4637C170.933 14.4637 171.423 14.3528 171.845 14.1292C172.267 13.9057 172.642 13.6142 172.971 13.2493L174.779 15.0324C174.267 15.6923 173.608 16.1967 172.798 16.5436C171.99 16.8906 171.072 17.0641 170.05 17.0641C169.141 17.0641 168.319 16.9281 167.586 16.6545L167.582 16.6527Z" fill="#0086FF"/>
<path d="M176.755 14.1405V5.5721H179.825V16.8893H176.755V14.1405ZM177.745 9.73201H181.557V12.0838H177.745V9.73201ZM180.197 10.9946L183.737 5.57031H186.93V5.99239L183.562 10.7228L187.771 16.4691V16.8893H184.354L180.193 10.9964L180.197 10.9946Z" fill="#0086FF"/>
<path d="M189.331 5.57031H192.401V14.5358L190.272 14.7092L197.649 5.57031H200.05V16.8875H196.98V8.1707L198.613 7.97218L191.432 16.8875H189.328V5.57031H189.331Z" fill="#0086FF"/>
<path d="M203.097 5.5694H206.167V14.5348L204.037 14.7083L211.414 5.5694H213.816V16.8866H210.746V8.16979L212.378 7.97127L205.198 16.8866H203.093V5.5694H203.097ZM207.021 3.89721C206.567 3.75771 206.172 3.5431 205.832 3.25337C205.494 2.96364 205.226 2.60059 205.028 2.16242C204.829 1.72604 204.722 1.21813 204.706 0.638672H206.909C206.941 1.08399 207.082 1.44705 207.329 1.72783C207.577 2.00862 207.973 2.1499 208.518 2.1499C209.029 2.1499 209.417 2.01398 209.682 1.74035C209.945 1.46851 210.095 1.10009 210.127 0.638672H212.305C212.271 1.21634 212.151 1.72425 211.945 2.16242C211.738 2.60059 211.459 2.96364 211.103 3.25337C210.748 3.5431 210.347 3.75771 209.902 3.89721C209.457 4.03849 208.977 4.10824 208.466 4.10824C207.955 4.10824 207.472 4.03849 207.018 3.89721H207.021Z" fill="#0086FF"/>
<path d="M232.856 16.8875H223.422V7.22462C223.422 6.31073 224.163 5.57031 225.076 5.57031H226.492V14.1888H230.553V5.57031H233.623V14.1888H235.38V17.6816C235.38 18.6384 234.604 19.4146 233.648 19.4146H232.854V16.8893L232.856 16.8875Z" fill="#0086FF"/>
<path d="M239.988 16.6526C239.228 16.3807 238.581 15.9873 238.044 15.4758C237.508 14.9643 237.086 14.358 236.782 13.6551C236.476 12.9541 236.324 12.1725 236.324 11.3141C236.324 10.4073 236.48 9.58465 236.794 8.84961C237.107 8.11635 237.536 7.49218 238.082 6.98069C238.627 6.4692 239.265 6.07395 240 5.79138C240.735 5.51059 241.515 5.37109 242.341 5.37109C243.231 5.37109 244.027 5.52311 244.729 5.82893C245.43 6.13476 246.02 6.55504 246.5 7.09157C246.979 7.6281 247.345 8.25585 247.603 8.97301C247.858 9.69196 247.985 10.4628 247.985 11.289V11.9329H238.107V10.0747H246.921L245.064 11.3874V10.52C245.064 10.157 244.998 9.81 244.865 9.48093C244.733 9.15006 244.543 8.8657 244.297 8.62605C244.05 8.3864 243.753 8.19683 243.406 8.05733C243.059 7.91783 242.664 7.84629 242.217 7.84629C241.77 7.84629 241.388 7.92498 241.018 8.08237C240.646 8.23975 240.336 8.45794 240.09 8.73872C239.841 9.01951 239.644 9.36289 239.494 9.76708C239.346 10.1713 239.273 10.6291 239.273 11.1406C239.273 11.7022 239.355 12.1976 239.521 12.6268C239.686 13.056 239.922 13.4191 240.226 13.7159C240.531 14.0128 240.9 14.24 241.329 14.3973C241.758 14.5547 242.228 14.6334 242.739 14.6334C243.399 14.6334 244.014 14.5172 244.585 14.2865C245.153 14.0557 245.629 13.7177 246.008 13.2706L247.715 14.8301C247.12 15.5562 246.373 16.1107 245.473 16.4898C244.574 16.869 243.58 17.0585 242.489 17.0585C241.581 17.0585 240.748 16.9226 239.99 16.649L239.988 16.6526Z" fill="#0086FF"/>
<path d="M250.36 14.1387V5.57031H253.43V16.8875H250.36V14.1387ZM251.846 9.73022H259.521V12.429H251.846V9.73022ZM258.134 14.1387V5.57031H261.204V16.8875H258.134V14.1387Z" fill="#0086FF"/>
<path d="M266.85 8.26906H263.21V5.57031H273.559V8.26906H269.918V16.8875H266.848V8.26906H266.85Z" fill="#0086FF"/>
<path d="M277.721 22.8319C276.516 22.8319 275.54 21.8555 275.54 20.65V5.56994H278.436V8.64069L278.609 8.81417V22.8302H277.721V22.8319ZM280.628 16.8138C280.124 16.6493 279.675 16.4222 279.278 16.1325C278.881 15.8427 278.552 15.5083 278.288 15.1291C278.023 14.75 277.842 14.3369 277.742 13.8915V11.2661H278.609C278.609 11.7293 278.679 12.1585 278.82 12.5538C278.96 12.949 279.155 13.2835 279.402 13.5571C279.65 13.8289 279.942 14.0436 280.281 14.2009C280.619 14.3583 280.996 14.437 281.408 14.437C281.819 14.437 282.175 14.3619 282.522 14.2135C282.867 14.065 283.172 13.8504 283.437 13.5696C283.702 13.2888 283.904 12.9508 284.043 12.5538C284.183 12.1568 284.254 11.7114 284.254 11.216C284.254 10.6884 284.181 10.2306 284.032 9.84252C283.884 9.45443 283.677 9.12893 283.414 8.86424C283.149 8.59955 282.845 8.40282 282.497 8.27048C282.15 8.13814 281.787 8.07196 281.408 8.07196C280.995 8.07196 280.616 8.14708 280.269 8.29552C279.922 8.44396 279.625 8.65499 279.378 8.92684C279.13 9.19868 278.94 9.51702 278.81 9.88007C278.677 10.2431 278.611 10.6402 278.611 11.0694H277.867V8.42071C277.901 8.02368 278.037 7.64453 278.277 7.28147C278.517 6.91842 278.831 6.5965 279.219 6.31572C279.605 6.03493 280.056 5.8078 280.569 5.63432C281.08 5.46084 281.633 5.375 282.228 5.375C282.92 5.375 283.585 5.51986 284.222 5.8078C284.857 6.09753 285.418 6.49814 285.904 7.00963C286.391 7.52112 286.781 8.13277 287.068 8.84278C287.356 9.55279 287.501 10.3451 287.501 11.2196C287.501 12.0942 287.356 12.8918 287.068 13.609C286.779 14.3279 286.387 14.9414 285.892 15.4528C285.397 15.9643 284.832 16.3614 284.195 16.6422C283.559 16.9229 282.904 17.0642 282.227 17.0642C281.665 17.0642 281.132 16.982 280.63 16.8156L280.628 16.8138Z" fill="#0086FF"/>
<path d="M99.6199 41.404C98.869 41.1233 98.2217 40.7226 97.6764 40.204C97.1311 39.6836 96.7055 39.0683 96.4016 38.3583C96.0958 37.6483 95.9438 36.856 95.9438 35.9815C95.9438 35.1069 96.1012 34.3057 96.4141 33.5796C96.727 32.8535 97.1579 32.2383 97.7014 31.7357C98.2467 31.2314 98.894 30.8397 99.6449 30.559C100.396 30.2782 101.208 30.1387 102.084 30.1387C102.96 30.1387 103.795 30.2782 104.548 30.559C105.298 30.8397 105.942 31.2403 106.479 31.759C107.015 32.2794 107.437 32.8947 107.743 33.6047C108.047 34.3147 108.2 35.1069 108.2 35.9815C108.2 36.856 108.043 37.6787 107.73 38.3959C107.415 39.1148 106.986 39.7283 106.443 40.2398C105.897 40.7513 105.254 41.1429 104.512 41.4166C103.77 41.6884 102.962 41.8261 102.086 41.8261C101.209 41.8261 100.374 41.6848 99.6217 41.404H99.6199ZM103.283 38.9896C103.639 38.8323 103.943 38.6105 104.201 38.3208C104.456 38.031 104.651 37.6895 104.782 37.2924C104.914 36.8972 104.98 36.459 104.98 35.9797C104.98 35.5004 104.914 35.0926 104.782 34.7046C104.649 34.3165 104.46 33.9731 104.213 33.6762C103.966 33.3793 103.664 33.1522 103.31 32.9948C102.954 32.8374 102.547 32.7587 102.084 32.7587C101.621 32.7587 101.213 32.841 100.857 33.0073C100.503 33.1719 100.197 33.399 99.9417 33.6887C99.6861 33.9784 99.4912 34.32 99.3589 34.7171C99.2266 35.1141 99.1622 35.5344 99.1622 35.9797C99.1622 36.425 99.2283 36.8471 99.3589 37.2423C99.4912 37.6376 99.6825 37.9845 99.9274 38.2814C100.176 38.5783 100.482 38.8108 100.845 38.9753C101.208 39.1417 101.621 39.2239 102.082 39.2239C102.543 39.2239 102.928 39.1452 103.282 38.9879L103.283 38.9896Z" fill="#0086FF"/>
<path d="M113.361 41.4183C112.626 41.1465 112.002 40.753 111.49 40.2416C110.979 39.7301 110.578 39.1148 110.291 38.3977C110.001 37.6787 109.858 36.8918 109.858 36.0316C109.858 35.1069 110.01 34.2771 110.316 33.5439C110.62 32.8088 111.042 32.1936 111.578 31.6982C112.114 31.2028 112.742 30.8183 113.459 30.5464C114.178 30.2746 114.964 30.1387 115.824 30.1387C116.286 30.1387 116.742 30.1834 117.187 30.2746C117.632 30.3658 118.045 30.4856 118.424 30.6341C118.803 30.7825 119.15 30.9649 119.463 31.1795C119.776 31.3942 120.049 31.6249 120.28 31.8735L118.696 33.9784C118.351 33.6154 117.963 33.3221 117.534 33.0985C117.103 32.8768 116.616 32.7641 116.073 32.7641C115.61 32.7641 115.197 32.8428 114.834 33.0002C114.471 33.1576 114.156 33.3757 113.893 33.6565C113.629 33.9373 113.427 34.2718 113.287 34.6598C113.148 35.0479 113.076 35.4736 113.076 35.935C113.076 36.3964 113.15 36.856 113.298 37.2602C113.446 37.6644 113.654 38.0149 113.917 38.3118C114.181 38.6087 114.503 38.8358 114.882 38.9932C115.261 39.1506 115.683 39.2293 116.146 39.2293C116.708 39.2293 117.198 39.1184 117.619 38.8949C118.041 38.6713 118.417 38.3798 118.746 38.0149L120.554 39.798C120.042 40.458 119.382 40.9623 118.572 41.3093C117.764 41.6562 116.847 41.8297 115.823 41.8297C114.914 41.8297 114.094 41.6938 113.361 41.4201V41.4183Z" fill="#0086FF"/>
<path d="M124.63 30.3359H133.178V39.5553C133.178 40.7142 132.24 41.6532 131.081 41.6532H130.108V33.0347H125.603V41.6532H122.533V32.4338C122.533 31.2749 123.471 30.3359 124.63 30.3359Z" fill="#0086FF"/>
<path d="M82.1715 55.0996H90.7198V64.319C90.7198 65.4779 89.7811 66.4168 88.6225 66.4168H87.6498V57.7984H83.1442V66.4168H80.0742V57.1974C80.0742 56.0385 81.0129 55.0996 82.1715 55.0996Z" fill="#0086FF"/>
<path d="M136.25 30.3359H139.32V39.3014L137.191 39.4749L144.568 30.3359H146.969V41.6532H143.899V32.9363L145.531 32.7378L138.351 41.6532H136.247V30.3359H136.25Z" fill="#0086FF"/>
<path d="M152.615 33.0347H148.975V30.3359H159.324V33.0347H155.684V41.6532H152.614V33.0347H152.615Z" fill="#0086FF"/>
<path d="M162.891 41.6024C162.38 41.4039 161.951 41.141 161.604 40.8102C161.257 40.4793 160.994 40.0966 160.812 39.6584C160.629 39.222 160.538 38.7552 160.538 38.2581C160.538 37.7609 160.626 37.2762 160.797 36.847C160.971 36.4178 161.219 36.0511 161.541 35.7453C161.863 35.4395 162.246 35.2052 162.693 35.0389C163.138 34.8743 163.624 34.7903 164.153 34.7903C164.468 34.7903 164.759 34.8189 165.033 34.8761C165.307 34.9334 165.557 34.9924 165.789 35.0496C166.02 35.1068 166.251 35.1659 166.483 35.2231C166.714 35.2803 166.953 35.3089 167.2 35.3089C167.645 35.3089 167.976 35.2141 168.191 35.0246C168.405 34.835 168.512 34.5828 168.512 34.2698C168.512 34.0213 168.459 33.8031 168.351 33.6135C168.244 33.4239 168.087 33.2594 167.881 33.1181C167.674 32.9786 167.427 32.8713 167.137 32.7962C166.848 32.7211 166.531 32.6835 166.184 32.6835C165.459 32.6835 164.876 32.8373 164.439 33.1413C164.001 33.4472 163.717 33.88 163.585 34.4415L160.937 33.7727C161.101 33.2111 161.337 32.7068 161.643 32.2614C161.947 31.8161 162.331 31.437 162.794 31.1222C163.256 30.8092 163.781 30.5731 164.368 30.4158C164.953 30.2584 165.609 30.1797 166.336 30.1797C167.064 30.1797 167.769 30.2745 168.403 30.464C169.038 30.6536 169.587 30.9505 170.05 31.3547C170.511 31.7607 170.874 32.2757 171.139 32.9017C171.402 33.5294 171.534 34.2806 171.534 35.1551V41.6436H168.564V38.3743L168.886 38.1275C168.886 38.6551 168.788 39.1505 168.589 39.6137C168.393 40.0769 168.11 40.4722 167.747 40.803C167.384 41.1339 166.939 41.3968 166.41 41.5953C165.882 41.7938 165.287 41.8922 164.627 41.8922C163.967 41.8922 163.404 41.7938 162.893 41.5953L162.891 41.6024ZM166.803 39.138C167.166 39.0146 167.475 38.8375 167.731 38.605C167.987 38.3743 168.182 38.1007 168.312 37.7877C168.444 37.4747 168.511 37.1367 168.511 36.7719V35.1873L168.857 35.6827C168.659 36.162 168.4 36.5072 168.078 36.7218C167.754 36.9364 167.388 37.0437 166.975 37.0437C166.826 37.0437 166.669 37.0312 166.505 37.0062C166.338 36.9811 166.174 36.9525 166.009 36.9203C165.845 36.8863 165.678 36.8577 165.514 36.8327C165.348 36.8076 165.183 36.7951 165.019 36.7951C164.54 36.7951 164.186 36.9024 163.955 37.117C163.722 37.3317 163.608 37.6035 163.608 37.9344C163.608 38.3135 163.76 38.6408 164.066 38.9126C164.37 39.1845 164.877 39.3222 165.587 39.3222C166.032 39.3222 166.437 39.2596 166.801 39.1362L166.803 39.138Z" fill="#0086FF"/>
<path d="M177.002 33.0347H173.361V30.3359H183.71V33.0347H180.07V41.6532H177V33.0347H177.002Z" fill="#0086FF"/>
<path d="M188.242 41.4182C187.482 41.1463 186.835 40.7529 186.299 40.2414C185.762 39.7299 185.34 39.1236 185.036 38.4208C184.731 37.7197 184.579 36.9382 184.579 36.0797C184.579 35.173 184.734 34.3503 185.049 33.6152C185.362 32.882 185.791 32.2578 186.336 31.7463C186.882 31.2348 187.52 30.8396 188.255 30.557C188.99 30.2762 189.769 30.1367 190.595 30.1367C191.486 30.1367 192.281 30.2887 192.984 30.5946C193.685 30.9004 194.275 31.3207 194.754 31.8572C195.233 32.3937 195.6 33.0215 195.857 33.7386C196.113 34.4576 196.24 35.2284 196.24 36.0547V36.6985H186.361V34.8403H195.176L193.318 36.153V35.2856C193.318 34.9226 193.252 34.5756 193.12 34.2466C192.987 33.9157 192.798 33.6313 192.551 33.3917C192.304 33.152 192.008 32.9624 191.661 32.823C191.314 32.6835 190.919 32.6119 190.472 32.6119C190.025 32.6119 189.642 32.6906 189.272 32.848C188.9 33.0054 188.591 33.2236 188.344 33.5043C188.096 33.7851 187.899 34.1285 187.749 34.5327C187.6 34.9369 187.527 35.3947 187.527 35.9062C187.527 36.4678 187.609 36.9632 187.775 37.3924C187.94 37.8216 188.176 38.1847 188.48 38.4816C188.786 38.7785 189.154 39.0056 189.583 39.163C190.012 39.3203 190.482 39.399 190.994 39.399C191.654 39.399 192.269 39.2828 192.839 39.0521C193.408 38.8214 193.883 38.4834 194.262 38.0363L195.97 39.5958C195.374 40.3219 194.627 40.8763 193.728 41.2554C192.828 41.6346 191.834 41.8242 190.744 41.8242C189.835 41.8242 189.002 41.6882 188.244 41.4146L188.242 41.4182Z" fill="#0086FF"/>
<path d="M197.663 41.8766C197.524 41.8605 197.404 41.8426 197.304 41.8265V38.8791C197.37 38.8952 197.436 38.9078 197.502 38.9167C197.568 38.9256 197.634 38.9292 197.699 38.9292C197.98 38.9292 198.216 38.8219 198.405 38.6073C198.595 38.3927 198.756 38.0493 198.888 37.5789C199.02 37.1086 199.113 36.4987 199.172 35.7458C199.229 34.9946 199.26 34.0736 199.26 32.9845V32.2333C199.26 31.1835 200.111 30.334 201.159 30.334H207.849V39.7519C207.849 40.8017 206.998 41.6512 205.95 41.6512H204.779V33.0327H202.079V34.3705C202.079 35.7905 201.994 36.9834 201.82 37.9492C201.647 38.9149 201.391 39.6875 201.053 40.2652C200.715 40.8428 200.306 41.2596 199.827 41.5153C199.347 41.771 198.788 41.8998 198.142 41.8998C197.962 41.8998 197.801 41.8909 197.66 41.8748L197.663 41.8766Z" fill="#0086FF"/>
<path d="M210.921 30.3359H213.991V33.6052H215.997C217.597 33.6052 218.815 33.9361 219.65 34.596C220.483 35.2577 220.9 36.2557 220.9 37.5934C220.9 38.9312 220.465 39.922 219.6 40.6141C218.733 41.308 217.449 41.6532 215.75 41.6532H210.923V30.3359H210.921ZM216.43 39.178C216.719 39.1279 216.957 39.0421 217.148 38.9187C217.338 38.7953 217.486 38.6254 217.594 38.4107C217.701 38.1961 217.754 37.9243 217.754 37.5934C217.754 37.2626 217.708 37.0229 217.619 36.8262C217.527 36.6277 217.388 36.4631 217.198 36.3308C217.009 36.1984 216.782 36.1072 216.517 36.0589C216.253 36.0089 215.931 35.9838 215.552 35.9838H213.993V39.2531H215.453C215.816 39.2531 216.142 39.2281 216.431 39.178H216.43Z" fill="#0086FF"/>
<path d="M222.952 38.9043V30.3359H226.022V41.6532H222.952V38.9043ZM224.438 34.4958H232.114V37.1946H224.438V34.4958ZM230.726 38.9043V30.3359H233.796V41.6532H230.726V38.9043Z" fill="#0086FF"/>
<path d="M245.273 34.594C246.106 35.2558 246.523 36.2537 246.523 37.5915C246.523 38.9292 246.09 39.92 245.223 40.6121C244.356 41.3061 243.072 41.6512 241.373 41.6512H236.843V30.334H239.913V33.6032H241.62C243.22 33.6032 244.438 33.9341 245.273 34.594ZM242.005 39.176C242.294 39.1259 242.541 39.0401 242.748 38.9167C242.954 38.7933 243.111 38.6234 243.219 38.4088C243.326 38.1942 243.38 37.9223 243.38 37.5915C243.38 36.9816 243.194 36.5595 242.822 36.3288C242.45 36.0981 241.894 35.9819 241.152 35.9819H239.914V39.2511H241.053C241.4 39.2511 241.717 39.2261 242.006 39.176H242.005ZM247.613 30.334H250.683V41.6512H247.613V30.334Z" fill="#0086FF"/>
<path d="M252.538 41.0846L256.797 34.6695L256.822 36.7012L252.836 30.9066V30.3379H256.055L259.026 34.7214H257.615L260.414 30.3379H263.335V30.9066L259.521 36.6529L259.273 34.5729L263.68 41.1114L263.705 41.6569H260.56L257.267 36.728H258.803L255.534 41.6569H252.539V41.0882L252.538 41.0846Z" fill="#0086FF"/>
<path d="M109.808 66.37C109.295 66.1715 108.866 65.9086 108.521 65.5777C108.174 65.2469 107.909 64.8642 107.727 64.426C107.546 63.9896 107.455 63.5228 107.455 63.0256C107.455 62.5285 107.543 62.0438 107.714 61.6146C107.888 61.1853 108.135 60.8187 108.458 60.5129C108.78 60.2071 109.163 59.9728 109.61 59.8065C110.055 59.6419 110.541 59.5579 111.07 59.5579C111.383 59.5579 111.676 59.5865 111.95 59.6437C112.222 59.7009 112.474 59.76 112.705 59.8172C112.935 59.8744 113.166 59.9334 113.398 59.9907C113.629 60.0479 113.869 60.0765 114.115 60.0765C114.56 60.0765 114.891 59.9817 115.106 59.7921C115.32 59.6026 115.428 59.3504 115.428 59.0374C115.428 58.7888 115.374 58.5706 115.267 58.3811C115.159 58.1915 115.002 58.027 114.796 57.8857C114.589 57.7462 114.342 57.6389 114.053 57.5638C113.763 57.4886 113.447 57.4511 113.1 57.4511C112.374 57.4511 111.791 57.6049 111.355 57.9089C110.917 58.2147 110.632 58.6475 110.5 59.2091L107.852 58.5402C108.017 57.9787 108.253 57.4743 108.556 57.029C108.862 56.5837 109.245 56.2045 109.708 55.8898C110.169 55.5768 110.693 55.3407 111.28 55.1833C111.866 55.026 112.522 54.9473 113.248 54.9473C113.974 54.9473 114.68 55.0421 115.315 55.2316C115.95 55.4212 116.499 55.7181 116.962 56.1223C117.423 56.5282 117.786 57.0433 118.051 57.6693C118.313 58.297 118.446 59.0482 118.446 59.9227V66.4112H115.476V63.1419L115.798 62.8951C115.798 63.4227 115.699 63.9181 115.501 64.3813C115.304 64.8445 115.022 65.2397 114.659 65.5706C114.296 65.9014 113.851 66.1643 113.321 66.3629C112.794 66.5614 112.2 66.6597 111.539 66.6597C110.877 66.6597 110.318 66.5614 109.806 66.3629L109.808 66.37ZM113.72 63.9056C114.083 63.7821 114.392 63.6051 114.648 63.3726C114.904 63.1419 115.099 62.8683 115.229 62.5553C115.361 62.2423 115.428 61.9043 115.428 61.5394V59.9549L115.774 60.4503C115.576 60.9296 115.317 61.2748 114.995 61.4894C114.671 61.704 114.305 61.8113 113.892 61.8113C113.743 61.8113 113.586 61.7988 113.422 61.7737C113.255 61.7487 113.091 61.7201 112.926 61.6879C112.762 61.6539 112.595 61.6253 112.431 61.6003C112.265 61.5752 112.1 61.5627 111.936 61.5627C111.457 61.5627 111.101 61.67 110.87 61.8846C110.639 62.0992 110.525 62.3711 110.525 62.7019C110.525 63.0811 110.677 63.4084 110.983 63.6802C111.287 63.952 111.794 64.0898 112.504 64.0898C112.949 64.0898 113.354 64.0272 113.718 63.9038L113.72 63.9056Z" fill="#0086FF"/>
<path d="M121.321 63.6678V55.0994H124.391V66.4167H121.321V63.6678ZM122.311 59.2593H126.123V61.6111H122.311V59.2593ZM124.763 60.522L128.303 55.0977H131.496V55.5197L128.128 60.2501L132.336 65.9964V66.4167H128.92L124.759 60.5238L124.763 60.522Z" fill="#0086FF"/>
<path d="M136.499 57.8003H132.858V55.1016H143.207V57.8003H139.567V66.4188H136.497V57.8003H136.499Z" fill="#0086FF"/>
<path d="M145.186 55.0996H148.256V64.0651L146.127 64.2385L153.504 55.0996H155.905V66.4168H152.835V57.7L154.468 57.5015L147.287 66.4168H145.183V55.0996H145.186Z" fill="#0086FF"/>
<path d="M158.952 63.6678V55.0994H162.022V66.4167H158.952V63.6678ZM159.943 59.2593H163.755V61.6111H159.943V59.2593ZM162.394 60.522L165.934 55.0977H169.127V55.5197L165.759 60.2501L169.968 65.9964V66.4167H166.551L162.39 60.5238L162.394 60.522Z" fill="#0086FF"/>
<path d="M95.9709 72.3612C94.7658 72.3612 93.7896 71.3848 93.7896 70.1793V55.101H96.6861V58.1718L96.8595 58.3453V72.3612H95.9709ZM98.8781 66.3432C98.3739 66.1786 97.9251 65.9515 97.5282 65.6618C97.1313 65.372 96.8023 65.0376 96.5377 64.6584C96.273 64.2793 96.0925 63.8662 95.9923 63.4208V60.7954H96.8595C96.8595 61.2586 96.9292 61.6878 97.0705 62.0831C97.2099 62.4783 97.4048 62.8128 97.6516 63.0864C97.9001 63.3582 98.1915 63.5729 98.5312 63.7302C98.8692 63.8876 99.2464 63.9663 99.6577 63.9663C100.069 63.9663 100.425 63.8912 100.772 63.7428C101.117 63.5943 101.422 63.3797 101.687 63.0989C101.952 62.8181 102.154 62.4801 102.293 62.0831C102.433 61.6878 102.504 61.2407 102.504 60.7453C102.504 60.2177 102.431 59.7599 102.282 59.3718C102.134 58.9837 101.927 58.6582 101.664 58.3935C101.399 58.1289 101.095 57.9321 100.747 57.7998C100.4 57.6674 100.037 57.6013 99.6577 57.6013C99.2446 57.6013 98.8656 57.6764 98.5187 57.8248C98.1719 57.9733 97.8751 58.1843 97.6283 58.4561C97.3798 58.728 97.1903 59.0463 97.0597 59.4094C96.9274 59.7724 96.8613 60.1695 96.8613 60.5987H96.1175V57.95C96.1515 57.553 96.2873 57.1738 96.5269 56.8108C96.7665 56.4477 97.0812 56.1258 97.4692 55.845C97.8554 55.5642 98.306 55.3371 98.8191 55.1636C99.3305 54.9901 99.8829 54.9043 100.478 54.9043C101.17 54.9043 101.835 55.0492 102.472 55.3371C103.107 55.6268 103.668 56.0274 104.154 56.5389C104.641 57.0504 105.03 57.6621 105.318 58.3721C105.606 59.0821 105.751 59.8744 105.751 60.7489C105.751 61.6235 105.606 62.4211 105.318 63.1383C105.029 63.8572 104.637 64.4707 104.142 64.9821C103.647 65.4936 103.082 65.8907 102.445 66.1715C101.809 66.4522 101.154 66.5935 100.477 66.5935C99.9151 66.5935 99.3823 66.5113 98.8799 66.3449L98.8781 66.3432Z" fill="#0086FF"/>
<path d="M235.555 58.7148C235.01 58.7148 234.593 58.8955 234.311 59.2567C234.027 59.618 233.885 60.0651 233.885 60.5981C233.885 60.8502 233.919 61.0899 233.989 61.3206C234.057 61.5513 234.162 61.7534 234.304 61.9251C234.445 62.0986 234.622 62.2327 234.831 62.3329C235.04 62.433 235.283 62.4831 235.555 62.4831C236.092 62.4831 236.501 62.3042 236.785 61.9483C237.068 61.5924 237.211 61.1435 237.211 60.5981C237.211 60.0526 237.071 59.6162 236.792 59.2567C236.514 58.8955 236.102 58.7148 235.555 58.7148Z" fill="#FF3333"/>
<path d="M244.667 62.4848C245.139 62.4848 245.534 62.3184 245.849 61.9894C246.163 61.6603 246.321 61.2007 246.321 60.6159C246.321 60.3011 246.276 60.0292 246.187 59.7985C246.097 59.5696 245.976 59.3783 245.824 59.2262C245.67 59.0742 245.495 58.9616 245.296 58.8882C245.098 58.8149 244.892 58.7773 244.681 58.7773C244.218 58.7773 243.841 58.9294 243.546 59.2334C243.251 59.5356 243.093 59.9398 243.074 60.4424V60.6302C243.084 61.2168 243.24 61.6728 243.539 61.9965C243.839 62.3202 244.214 62.483 244.667 62.483V62.4848Z" fill="#FF3333"/>
<path d="M281.508 53.8418H189.193C185.608 53.8418 182.701 56.748 182.701 60.3338C182.701 63.9196 185.607 66.8276 189.193 66.8276H240.851V56.9662H242.947V57.8497C243.199 57.5457 243.53 57.3006 243.939 57.1164C244.348 56.9322 244.806 56.841 245.31 56.841C245.752 56.841 246.174 56.9322 246.58 57.1164C246.984 57.2988 247.341 57.5564 247.651 57.889C247.96 58.2199 248.21 58.6151 248.4 59.0712C248.589 59.529 248.684 60.0369 248.684 60.5932C248.684 61.1494 248.589 61.6608 248.4 62.1223C248.21 62.5855 247.958 62.9807 247.644 63.3116C247.329 63.6424 246.968 63.9 246.564 64.0842C246.16 64.2684 245.741 64.3596 245.312 64.3596C244.86 64.3596 244.441 64.2809 244.059 64.1235C243.676 63.9661 243.347 63.7515 243.074 63.4779V66.8276H281.508C285.093 66.8276 288 63.9214 288 60.3338C288 56.748 285.094 53.8418 281.508 53.8418ZM220.788 64.0287C220.252 64.2505 219.653 64.3596 218.992 64.3596C218.403 64.3596 217.872 64.2738 217.4 64.1003C216.928 63.9268 216.526 63.6764 216.193 63.3509C215.863 63.0254 215.605 62.6338 215.421 62.1759C215.237 61.7199 215.146 61.2066 215.146 60.6396C215.146 60.0405 215.242 59.5058 215.437 59.0318C215.632 58.5597 215.902 58.1627 216.249 57.8425C216.596 57.5224 217.003 57.2756 217.47 57.1021C217.938 56.9286 218.444 56.8428 218.992 56.8428C219.632 56.8428 220.207 56.9501 220.717 57.1647C221.226 57.3811 221.618 57.6458 221.892 57.9606L220.772 59.4414C220.563 59.2321 220.331 59.0587 220.079 58.9227C219.826 58.7868 219.531 58.7171 219.197 58.7171C218.65 58.7171 218.23 58.8959 217.937 59.2518C217.642 59.6077 217.495 60.0477 217.495 60.5699C217.495 61.1243 217.651 61.5822 217.96 61.9434C218.269 62.3047 218.698 62.4853 219.244 62.4853C219.569 62.4853 219.855 62.4174 220.102 62.2814C220.349 62.1455 220.577 61.9667 220.788 61.7467L222.081 63.029C221.756 63.4725 221.325 63.8052 220.788 64.0287ZM230.245 64.2505H228.022V58.9066H225.342V64.2505H223.12V56.9662H230.245V64.2505ZM239.253 62.1705C239.047 62.6338 238.766 63.0272 238.409 63.3527C238.051 63.6782 237.629 63.9268 237.139 64.1021C236.649 64.2773 236.122 64.3614 235.555 64.3614C234.988 64.3614 234.425 64.272 233.932 64.0931C233.438 63.9143 233.013 63.6603 232.655 63.3277C232.298 62.9968 232.022 62.6034 231.827 62.1455C231.632 61.6895 231.536 61.1762 231.536 60.6092C231.536 60.0423 231.638 59.5076 231.843 59.0408C232.047 58.574 232.33 58.177 232.686 57.8515C233.043 57.526 233.465 57.2774 233.955 57.1021C234.443 56.9286 234.978 56.8428 235.555 56.8428C236.133 56.8428 236.685 56.9322 237.179 57.1111C237.672 57.2899 238.096 57.5439 238.448 57.8765C238.8 58.2074 239.074 58.6044 239.267 59.0658C239.462 59.529 239.558 60.0423 239.558 60.611C239.558 61.1798 239.455 61.7091 239.251 62.1723L239.253 62.1705ZM255.999 58.9066H253.667V64.2505H251.445V58.9066H249.112V56.9662H255.999V58.9066Z" fill="#FF3333"/>
<path d="M220.102 62.2824C219.855 62.4183 219.569 62.4863 219.244 62.4863C218.696 62.4863 218.269 62.3056 217.96 61.9444C217.649 61.5831 217.495 61.1271 217.495 60.5709C217.495 60.0486 217.642 59.6087 217.937 59.2528C218.23 58.8969 218.65 58.718 219.197 58.718C219.533 58.718 219.828 58.786 220.078 58.9237C220.331 59.0596 220.563 59.2313 220.772 59.4424L221.891 57.9615C221.618 57.6468 221.226 57.3821 220.717 57.1657C220.207 56.9493 219.632 56.8438 218.991 56.8438C218.444 56.8438 217.938 56.9296 217.47 57.1031C217.003 57.2765 216.596 57.5234 216.249 57.8435C215.902 58.1636 215.632 58.5606 215.437 59.0328C215.242 59.5067 215.146 60.0415 215.146 60.6406C215.146 61.2093 215.237 61.7208 215.421 62.1769C215.603 62.6347 215.862 63.0264 216.193 63.3519C216.524 63.6774 216.926 63.926 217.4 64.1012C217.874 64.2765 218.403 64.3606 218.991 64.3606C219.653 64.3606 220.252 64.2497 220.788 64.0297C221.323 63.8079 221.754 63.4753 222.081 63.03L220.788 61.7476C220.577 61.9676 220.348 62.1447 220.102 62.2824Z" fill="white"/>
<path d="M223.12 64.2511H225.343V58.9072H228.023V64.2511H230.245V56.9668H223.12V64.2511Z" fill="white"/>
<path d="M238.448 57.8736C238.096 57.5427 237.674 57.287 237.178 57.1081C236.685 56.9293 236.143 56.8398 235.555 56.8398C234.967 56.8398 234.445 56.9257 233.955 57.0992C233.467 57.2726 233.043 57.523 232.685 57.8485C232.328 58.174 232.047 58.5711 231.843 59.0378C231.638 59.5064 231.536 60.0286 231.536 60.6063C231.536 61.184 231.632 61.6865 231.827 62.1426C232.022 62.6004 232.297 62.9939 232.655 63.3247C233.013 63.6556 233.438 63.9113 233.932 64.0902C234.425 64.269 234.967 64.3584 235.555 64.3584C236.143 64.3584 236.651 64.2726 237.139 64.0991C237.627 63.9256 238.051 63.6753 238.409 63.3498C238.766 63.0243 239.047 62.6308 239.253 62.1676C239.456 61.7044 239.56 61.184 239.56 60.6063C239.56 60.0286 239.463 59.5243 239.269 59.0611C239.074 58.5979 238.8 58.2008 238.45 57.8718L238.448 57.8736ZM236.785 61.9512C236.501 62.3071 236.091 62.4859 235.555 62.4859C235.281 62.4859 235.04 62.4359 234.831 62.3357C234.622 62.2356 234.445 62.0996 234.303 61.928C234.162 61.7545 234.057 61.5542 233.989 61.3235C233.921 61.0945 233.885 60.8531 233.885 60.6009C233.885 60.068 234.028 59.6191 234.311 59.2596C234.593 58.8983 235.01 58.7177 235.555 58.7177C236.1 58.7177 236.515 58.8983 236.792 59.2596C237.071 59.6209 237.211 60.068 237.211 60.6009C237.211 61.1339 237.068 61.5953 236.785 61.9512Z" fill="white"/>
<path d="M244.059 64.1243C244.441 64.2817 244.86 64.3604 245.312 64.3604C245.764 64.3604 246.16 64.2692 246.564 64.085C246.968 63.9025 247.329 63.645 247.644 63.3124C247.958 62.9797 248.212 62.5845 248.4 62.1231C248.589 61.6598 248.684 61.1501 248.684 60.5939C248.684 60.0377 248.589 59.5298 248.4 59.072C248.21 58.6159 247.96 58.2207 247.651 57.8898C247.34 57.559 246.984 57.3014 246.58 57.1172C246.176 56.933 245.752 56.8418 245.31 56.8418C244.804 56.8418 244.348 56.933 243.939 57.1172C243.529 57.2996 243.199 57.5447 242.947 57.8505V56.967H240.851V66.8284H243.074V63.4787C243.347 63.7523 243.674 63.9669 244.059 64.1243ZM243.074 60.4455C243.095 59.9429 243.252 59.5388 243.546 59.2365C243.841 58.9325 244.218 58.7805 244.681 58.7805C244.892 58.7805 245.096 58.8162 245.296 58.8913C245.494 58.9647 245.671 59.0773 245.823 59.2294C245.975 59.3814 246.097 59.5727 246.186 59.8017C246.276 60.0324 246.32 60.3042 246.32 60.619C246.32 61.2038 246.163 61.6634 245.848 61.9925C245.534 62.3216 245.139 62.4879 244.667 62.4879C244.195 62.4879 243.839 62.3251 243.538 62.0014C243.24 61.6777 243.084 61.2217 243.074 60.6351V60.4473V60.4455Z" fill="white"/>
<path d="M249.11 58.9072H251.443V64.2511H253.666V58.9072H255.999V56.9668H249.11V58.9072Z" fill="white"/>
<path d="M45.6555 30.8627C47.1663 29.0868 47.5346 26.0142 47.5615 24.1113H44.0553V31.1166C44.0553 31.4332 44.0302 31.7462 43.9927 32.0556C44.6346 31.8106 45.1852 31.4153 45.6555 30.8627Z" fill="#FF3333"/>
<path d="M39.5783 54.284C39.5783 53.8923 39.26 53.5722 38.8667 53.5722H37.6723C36.9678 53.5722 36.3975 53.0017 36.3975 52.297V50.9146C36.3975 50.4657 36.0327 50.099 35.5822 50.099H35.3908C34.6864 50.099 34.116 49.5285 34.116 48.8239V41.7256C34.116 40.7062 34.5702 39.7082 35.3605 38.9875C35.364 38.9875 35.3622 38.9875 35.3658 38.9821L39.9126 34.8186C40.9246 33.8922 41.5039 32.5437 41.5039 31.1166V20.7168H24.1606V31.1166C24.1606 32.542 24.7399 33.8922 25.7519 34.8186L30.2987 38.9821C30.2987 38.9821 30.3434 39.0215 30.3506 39.0286C31.1552 39.7386 31.6182 40.7437 31.6182 41.7828V48.8257C31.6182 49.5303 31.0479 50.1008 30.3434 50.1008H30.1521C29.7033 50.1008 29.3368 50.4657 29.3368 50.9164V51.1381L39.5783 61.3823V54.2876V54.284Z" fill="#FF3333"/>
<path d="M66.0903 46.1578L63.723 8.69185C63.4405 5.77312 61.1305 3.46424 58.2125 3.17988L20.7583 0.811988C18.2837 0.656394 15.8592 1.57029 14.107 3.32474L1.53944 15.8957C-0.513146 17.9488 -0.513146 21.2753 1.53944 23.3284L27.3201 49.1159C27.7278 48.4757 28.3392 47.9749 29.0687 47.7263V41.7797C29.0687 41.4721 28.9221 41.1663 28.6646 40.9392L28.6021 40.8837L24.032 36.7006C23.4509 36.1676 22.9628 35.5452 22.5802 34.8603C20.7529 34.6689 19.2331 33.8838 18.0674 32.5138C15.1119 29.0407 15.5732 22.985 15.5946 22.7293C15.6483 22.0676 16.2025 21.5579 16.8659 21.5579H21.6093V19.4386C21.6093 18.7339 22.1797 18.1634 22.8842 18.1634H42.777C43.4815 18.1634 44.0519 18.7339 44.0519 19.4386V21.5579H48.7971C49.4605 21.5579 50.0129 22.0676 50.0684 22.7293C50.0898 22.985 50.5511 29.0389 47.5956 32.5138C46.4299 33.8838 44.9101 34.6671 43.0828 34.8603C42.7002 35.5435 42.2138 36.1676 41.6327 36.7006L37.0877 40.8605C37.0877 40.8605 37.077 40.8712 37.0717 40.8766C36.7963 41.1466 36.6658 41.4328 36.6658 41.7243V47.7263C37.9907 48.1788 38.9472 49.436 38.9472 50.9133V51.0224C40.7084 51.0653 42.128 52.5122 42.128 54.2845V63.9313L43.5781 65.3818C45.6306 67.4349 48.9562 67.4349 51.0088 65.3818L63.5764 52.8108C65.3304 51.0564 66.2459 48.633 66.0885 46.1578H66.0903Z" fill="#FF3333"/>
<path d="M21.6113 24.1113H18.1123C18.1338 25.8157 18.4091 28.9812 20.0147 30.8663C20.4849 31.4171 21.0338 31.8106 21.6739 32.0556C21.6364 31.7462 21.6113 31.4332 21.6113 31.1166V24.1113Z" fill="#FF3333"/>
<path d="M38.949 51.023V50.9139C38.949 49.4367 37.9924 48.1776 36.6676 47.7269V41.7249C36.6676 41.4352 36.7981 41.1473 37.0734 40.8772C37.0788 40.8719 37.0842 40.8665 37.0895 40.8611L41.6345 36.7012C42.2156 36.1683 42.7037 35.5459 43.0846 34.8609C44.9119 34.6696 46.4316 33.8844 47.5974 32.5145C50.5529 29.0396 50.0916 22.9857 50.0701 22.7299C50.0165 22.0682 49.4622 21.5585 48.7989 21.5585H44.0536V19.4392C44.0536 18.7346 43.4833 18.1641 42.7788 18.1641H22.8859C22.1815 18.1641 21.6111 18.7346 21.6111 19.4392V21.5585H16.8677C16.2043 21.5585 15.6518 22.0682 15.5964 22.7299C15.575 22.9857 15.1137 29.0413 18.0692 32.5145C19.2349 33.8844 20.7529 34.6678 22.582 34.8609C22.9646 35.5441 23.4509 36.1683 24.0338 36.7012L28.6038 40.8844L28.6664 40.9398C28.9239 41.167 29.0705 41.4728 29.0705 41.7804V47.7269C28.3392 47.9755 27.7295 48.4763 27.3219 49.1166L29.3405 51.1357V50.9139C29.3405 50.465 29.7052 50.0984 30.1558 50.0984H30.3471C31.0516 50.0984 31.6219 49.5279 31.6219 48.8233V41.7804C31.6219 40.7413 31.1606 39.738 30.3543 39.0262C30.3489 39.0208 30.3096 38.9851 30.3024 38.9797L25.7556 34.8162C24.7436 33.8898 24.1643 32.5413 24.1643 31.1141V20.7144H41.5076V31.1141C41.5076 32.5395 40.9283 33.8898 39.9163 34.8162L35.3695 38.9797C35.3695 38.9797 35.3659 38.9833 35.3641 38.9851C34.5739 39.7058 34.1197 40.7037 34.1197 41.7232V48.8215C34.1197 49.5261 34.6901 50.0966 35.3945 50.0966H35.5858C36.0346 50.0966 36.4012 50.4615 36.4012 50.9122V52.2946C36.4012 52.9993 36.9715 53.5698 37.676 53.5698H38.8703C39.2619 53.5698 39.5819 53.8881 39.5819 54.2816V61.3763L42.1334 63.9284V54.2816C42.1334 52.5092 40.7137 51.0624 38.9526 51.0195L38.949 51.023ZM44.0554 31.1177V24.1124H47.5616C47.5348 26.0135 47.1665 29.0878 45.6557 30.8638C45.1854 31.4164 44.6347 31.8116 43.9929 32.0567C44.0304 31.7473 44.0554 31.4343 44.0554 31.1177ZM20.0145 30.8673C18.4071 28.9823 18.1335 25.8168 18.1121 24.1124H21.6111V31.1177C21.6111 31.4343 21.6361 31.7473 21.6737 32.0567C21.0336 31.8116 20.4847 31.4182 20.0145 30.8673Z" fill="white"/>
</svg>
