<svg width="71" height="139" viewBox="0 0 71 139" fill="none" xmlns="http://www.w3.org/2000/svg">
<g id="Frame 277130813">
<path id="Vector" d="M25.6838 67.6914H3.09731C2.13616 67.6914 1.76294 66.4417 2.56667 65.9146L68.2839 22.8171C69.0615 22.3071 70.0407 23.0807 69.7246 23.9552L28.5292 137.932C28.1607 138.952 26.6514 138.687 26.6514 137.603V68.6591C26.6514 68.1247 26.2182 67.6914 25.6838 67.6914Z" fill="#DE3A34"/>
<path id="Vector_2" d="M8.39065 14.3319V2.439H2.85284V14.3319H0V0H11.2645V14.3319H8.39065Z" fill="#DE3A34"/>
<path id="Vector_3" d="M15.018 9.75576C15.06 10.5616 15.2837 11.2019 15.6892 11.6768C16.1088 12.1516 16.6542 12.389 17.3254 12.389C17.773 12.389 18.1645 12.2883 18.5002 12.0869C18.8498 11.871 19.0735 11.576 19.1714 11.2019H21.9823C21.6606 12.2955 21.1013 13.1373 20.3041 13.7272C19.5071 14.3172 18.5561 14.6122 17.4513 14.6122C14.0112 14.6122 12.291 12.684 12.291 8.82765C12.291 8.00745 12.4029 7.26642 12.6266 6.60449C12.8504 5.94261 13.172 5.37422 13.5916 4.89937C14.0251 4.42449 14.5495 4.06477 15.1649 3.82016C15.7802 3.56112 16.4864 3.43164 17.2835 3.43164C18.8777 3.43164 20.0804 3.95687 20.8915 5.00728C21.7166 6.05769 22.1291 7.64054 22.1291 9.75576H15.018ZM19.3183 7.98587C19.3043 7.59738 19.2344 7.2592 19.1085 6.97144C18.9966 6.66923 18.8428 6.42463 18.647 6.23755C18.4512 6.03611 18.2275 5.89223 17.9757 5.8059C17.724 5.70514 17.4653 5.6548 17.1996 5.6548C16.6542 5.6548 16.1788 5.86346 15.7732 6.28075C15.3816 6.68363 15.1578 7.25202 15.1019 7.98587H19.3183Z" fill="#DE3A34"/>
<path id="Vector_4" d="M23.2812 19.3607V3.71222H25.9033L25.9243 5.00728C26.5536 3.95687 27.5115 3.43164 28.7981 3.43164C29.4414 3.43164 30.0357 3.56112 30.5811 3.82016C31.1406 4.07917 31.616 4.45329 32.0076 4.94254C32.3991 5.43178 32.7068 6.02893 32.9305 6.73401C33.1543 7.4391 33.2662 8.23769 33.2662 9.12986C33.2662 9.93563 33.1683 10.6767 32.9725 11.353C32.7907 12.0149 32.518 12.5905 32.1544 13.0797C31.7908 13.569 31.3433 13.9503 30.8119 14.2237C30.2945 14.4827 29.7001 14.6122 29.0289 14.6122C27.7563 14.6122 26.7354 14.0582 25.9662 12.9502V19.3607H23.2812ZM28.1479 12.2163C29.7141 12.2163 30.4972 11.1228 30.4972 8.93559C30.4972 7.98587 30.2805 7.21604 29.847 6.62607C29.4134 6.02175 28.8541 5.71954 28.1688 5.71954C27.5115 5.71954 26.9592 6.00013 26.5116 6.56133C26.0781 7.12254 25.8614 7.85638 25.8614 8.76291C25.8614 11.0652 26.6235 12.2163 28.1479 12.2163Z" fill="#DE3A34"/>
<path id="Vector_5" d="M40.6639 7.86035C41.1114 7.86035 41.461 7.76681 41.7127 7.57976C41.9644 7.37828 42.0903 7.1407 42.0903 6.821C42.0903 6.01519 41.5939 5.61231 40.6009 5.61231H36.9253V7.86035H40.6639ZM40.6009 12.3465C41.7897 12.3465 42.3839 11.8645 42.3839 10.9004C42.3839 9.95069 41.8455 9.47585 40.7687 9.47585H36.9253V12.3465H40.6009ZM34.3242 14.3323V3.71289H41.461C42.0763 3.71289 42.5937 3.78485 43.0133 3.92873C43.4328 4.05825 43.7754 4.23812 44.0412 4.46836C44.3069 4.69856 44.4957 4.97196 44.6075 5.28853C44.7194 5.60509 44.7754 5.93605 44.7754 6.28142C44.7754 6.91454 44.6145 7.42537 44.2929 7.81389C43.9852 8.18801 43.5866 8.44702 43.0972 8.5909C43.3489 8.64846 43.5936 8.74918 43.8314 8.89306C44.0691 9.02258 44.2789 9.19526 44.4607 9.41111C44.6565 9.62695 44.8103 9.89313 44.9222 10.2097C45.034 10.5119 45.09 10.8716 45.09 11.2889C45.09 11.735 45.0131 12.1451 44.8592 12.5192C44.7054 12.8933 44.4677 13.2171 44.146 13.4905C43.8244 13.7495 43.3978 13.9582 42.8664 14.1164C42.349 14.2603 41.7267 14.3323 40.9995 14.3323H34.3242Z" fill="#DE3A34"/>
<path id="Vector_6" d="M56.9994 14.3323V3.71289H59.7264V14.3323H56.9994ZM48.9023 9.1089V12.2386H52.1747C52.6782 12.2386 53.0697 12.1091 53.3494 11.8501C53.6291 11.5767 53.7689 11.1882 53.7689 10.6846C53.7689 10.1665 53.6291 9.77801 53.3494 9.51901C53.0697 9.24561 52.6782 9.1089 52.1747 9.1089H48.9023ZM48.9023 3.71289V7.10158H52.3425C53.5312 7.10158 54.4542 7.41097 55.1115 8.02973C55.7827 8.63406 56.1184 9.51901 56.1184 10.6846C56.1184 11.8645 55.7827 12.771 55.1115 13.4042C54.4542 14.0229 53.5312 14.3323 52.3425 14.3323H46.2383V3.71289H48.9023Z" fill="#DE3A34"/>
<path id="Vector_7" d="M63.6713 9.75576C63.7133 10.5616 63.937 11.2019 64.3426 11.6768C64.7621 12.1516 65.3075 12.389 65.9787 12.389C66.4263 12.389 66.8179 12.2883 67.1535 12.0869C67.5031 11.871 67.7268 11.576 67.8248 11.2019H70.6356C70.3139 12.2955 69.7546 13.1373 68.9574 13.7272C68.1604 14.3172 67.2094 14.6122 66.1046 14.6122C62.6644 14.6122 60.9443 12.684 60.9443 8.82765C60.9443 8.00745 61.0562 7.26642 61.28 6.60449C61.5037 5.94261 61.8254 5.37422 62.2449 4.89937C62.6784 4.42449 63.2028 4.06477 63.8182 3.82016C64.4335 3.56112 65.1397 3.43164 65.9368 3.43164C67.531 3.43164 68.7337 3.95687 69.5448 5.00728C70.3699 6.05769 70.7824 7.64054 70.7824 9.75576H63.6713ZM67.9716 7.98587C67.9576 7.59738 67.8877 7.2592 67.7618 6.97144C67.6499 6.66923 67.4961 6.42463 67.3003 6.23755C67.1045 6.03611 66.8808 5.89223 66.6291 5.8059C66.3773 5.70514 66.1186 5.6548 65.8529 5.6548C65.3076 5.6548 64.832 5.86346 64.4265 6.28075C64.0349 6.68363 63.8111 7.25202 63.7553 7.98587H67.9716Z" fill="#DE3A34"/>
</g>
</svg>
