<svg width="5000" height="3000" viewBox="0 0 5000 3000" fill="none" xmlns="http://www.w3.org/2000/svg">
<rect width="5000" height="3000" fill="#F2F2F2"/>
<path d="M2331.52 1154C2345.99 1166.49 2353.23 1182.72 2353.23 1202.7C2353.23 1222.68 2345.99 1238.91 2331.52 1251.39C2317.05 1263.88 2297.67 1271.29 2273.39 1273.62V1293.85H2239.71V1273.62C2215.26 1271.12 2195.89 1263.71 2181.58 1251.39C2167.28 1238.91 2160.13 1222.68 2160.13 1202.7C2160.13 1182.72 2167.28 1166.57 2181.58 1154.25C2195.89 1141.77 2215.26 1134.27 2239.71 1131.78V1111.55H2273.39V1131.78C2297.67 1134.11 2317.05 1141.52 2331.52 1154ZM2273.39 1242.15C2303.66 1238.66 2318.8 1225.51 2318.8 1202.7C2318.8 1179.72 2303.66 1166.49 2273.39 1162.99V1242.15ZM2194.31 1202.7C2194.31 1225.51 2209.44 1238.58 2239.71 1241.9V1163.24C2209.44 1166.57 2194.31 1179.72 2194.31 1202.7Z" fill="#4F4F4F"/>
<path d="M2400.71 1240.91C2405.04 1256.56 2416.76 1264.38 2435.89 1264.38C2448.2 1264.38 2457.51 1260.22 2463.83 1251.89L2489.78 1266.88C2477.47 1284.69 2459.34 1293.6 2435.39 1293.6C2414.77 1293.6 2398.22 1287.35 2385.74 1274.87C2373.27 1262.38 2367.03 1246.65 2367.03 1227.67C2367.03 1208.86 2373.18 1193.21 2385.49 1180.72C2397.8 1168.07 2413.6 1161.74 2432.89 1161.74C2451.19 1161.74 2466.24 1168.07 2478.05 1180.72C2490.03 1193.38 2496.01 1209.02 2496.01 1227.67C2496.01 1231.83 2495.6 1236.24 2494.77 1240.91H2400.71ZM2400.21 1215.93H2463.83C2462 1207.44 2458.18 1201.12 2452.35 1196.95C2446.7 1192.79 2440.21 1190.71 2432.89 1190.71C2424.25 1190.71 2417.09 1192.96 2411.44 1197.45C2405.78 1201.78 2402.04 1207.94 2400.21 1215.93Z" fill="#4F4F4F"/>
<path d="M2625.88 1259.88H2642.34V1323.56H2610.91V1290.1H2533.57V1323.56H2502.13V1259.88H2517.35C2524.5 1249.23 2528.08 1234.5 2528.08 1215.68V1165.24H2625.88V1259.88ZM2551.78 1259.88H2594.44V1194.21H2559.51V1215.68C2559.51 1233.33 2556.93 1248.06 2551.78 1259.88Z" fill="#4F4F4F"/>
<path d="M2685.03 1240.91C2689.36 1256.56 2701.08 1264.38 2720.21 1264.38C2732.52 1264.38 2741.83 1260.22 2748.15 1251.89L2774.1 1266.88C2761.79 1284.69 2743.66 1293.6 2719.71 1293.6C2699.09 1293.6 2682.54 1287.35 2670.06 1274.87C2657.59 1262.38 2651.35 1246.65 2651.35 1227.67C2651.35 1208.86 2657.51 1193.21 2669.82 1180.72C2682.12 1168.07 2697.92 1161.74 2717.22 1161.74C2735.51 1161.74 2750.56 1168.07 2762.37 1180.72C2774.35 1193.38 2780.34 1209.02 2780.34 1227.67C2780.34 1231.83 2779.92 1236.24 2779.09 1240.91H2685.03ZM2684.53 1215.93H2748.15C2746.32 1207.44 2742.5 1201.12 2736.68 1196.95C2731.02 1192.79 2724.54 1190.71 2717.22 1190.71C2708.57 1190.71 2701.42 1192.96 2695.76 1197.45C2690.11 1201.78 2686.36 1207.94 2684.53 1215.93Z" fill="#4F4F4F"/>
<path d="M2875.4 1161.74C2892.2 1161.74 2906.51 1168.15 2918.31 1180.97C2930.29 1193.62 2936.28 1209.19 2936.28 1227.67C2936.28 1246.15 2930.29 1261.8 2918.31 1274.62C2906.51 1287.27 2892.2 1293.6 2875.4 1293.6C2857.94 1293.6 2844.47 1287.52 2834.99 1275.37V1340.05H2802.8V1165.24H2834.99V1179.97C2844.47 1167.82 2857.94 1161.74 2875.4 1161.74ZM2844.72 1253.14C2851.2 1259.64 2859.44 1262.88 2869.42 1262.88C2879.39 1262.88 2887.63 1259.64 2894.11 1253.14C2900.77 1246.48 2904.09 1237.99 2904.09 1227.67C2904.09 1217.35 2900.77 1208.94 2894.11 1202.45C2887.63 1195.79 2879.39 1192.46 2869.42 1192.46C2859.44 1192.46 2851.2 1195.79 2844.72 1202.45C2838.23 1208.94 2834.99 1217.35 2834.99 1227.67C2834.99 1237.99 2838.23 1246.48 2844.72 1253.14Z" fill="#4F4F4F"/>
<path d="M3053.78 1165.24H3085.96V1290.1H3053.78V1275.37C3044.13 1287.52 3030.58 1293.6 3013.11 1293.6C2996.48 1293.6 2982.18 1287.27 2970.2 1274.62C2958.39 1261.8 2952.49 1246.15 2952.49 1227.67C2952.49 1209.19 2958.39 1193.62 2970.2 1180.97C2982.18 1168.15 2996.48 1161.74 3013.11 1161.74C3030.58 1161.74 3044.13 1167.82 3053.78 1179.97V1165.24ZM2994.4 1253.14C3000.89 1259.64 3009.12 1262.88 3019.1 1262.88C3029.08 1262.88 3037.31 1259.64 3043.8 1253.14C3050.45 1246.48 3053.78 1237.99 3053.78 1227.67C3053.78 1217.35 3050.45 1208.94 3043.8 1202.45C3037.31 1195.79 3029.08 1192.46 3019.1 1192.46C3009.12 1192.46 3000.89 1195.79 2994.4 1202.45C2987.91 1208.94 2984.67 1217.35 2984.67 1227.67C2984.67 1237.99 2987.91 1246.48 2994.4 1253.14Z" fill="#4F4F4F"/>
<path d="M3224.92 1259.88H3245.87V1323.56H3214.44V1290.1H3115.14V1165.24H3147.33V1259.88H3192.73V1165.24H3224.92V1259.88Z" fill="#4F4F4F"/>
<path d="M3356.26 1165.24H3380.21V1290.1H3348.78V1219.18L3290.15 1290.1H3266.2V1165.24H3297.63V1236.16L3356.26 1165.24Z" fill="#4F4F4F"/>
<path d="M3509.74 1165.24V1290.1H3478.31V1251.14H3467.08L3438.39 1290.1H3401.22L3432.4 1247.4C3424.42 1244.07 3418.02 1238.82 3413.19 1231.67C3408.54 1224.34 3406.21 1216.52 3406.21 1208.19C3406.21 1196.54 3410.36 1186.47 3418.68 1177.98C3427 1169.48 3437.89 1165.24 3451.36 1165.24H3509.74ZM3453.86 1193.96C3449.2 1193.96 3445.29 1195.37 3442.13 1198.2C3439.14 1200.87 3437.64 1204.53 3437.64 1209.19C3437.64 1213.69 3439.14 1217.27 3442.13 1219.93C3445.29 1222.59 3449.2 1223.92 3453.86 1223.92H3478.31V1193.96H3453.86Z" fill="#4F4F4F"/>
<path d="M2300.83 1484.12C2311.81 1495.94 2317.3 1510.17 2317.3 1526.82C2317.3 1543.47 2311.81 1557.7 2300.83 1569.52C2289.86 1581.34 2274.8 1588.58 2255.68 1591.25V1639.19H2224.24V1591.25C2205.12 1588.58 2190.06 1581.34 2179.09 1569.52C2168.11 1557.7 2162.62 1543.47 2162.62 1526.82C2162.62 1510.17 2168.11 1495.94 2179.09 1484.12C2190.06 1472.3 2205.12 1465.05 2224.24 1462.39V1414.44H2255.68V1462.39C2274.8 1465.05 2289.86 1472.3 2300.83 1484.12ZM2194.31 1526.82C2194.31 1535.14 2196.88 1542.3 2202.04 1548.3C2207.2 1554.29 2214.6 1558.37 2224.24 1560.53V1493.11C2214.6 1495.27 2207.2 1499.35 2202.04 1505.34C2196.88 1511.17 2194.31 1518.33 2194.31 1526.82ZM2255.68 1560.28C2265.32 1558.12 2272.64 1554.12 2277.63 1548.3C2282.79 1542.3 2285.37 1535.14 2285.37 1526.82C2285.37 1518.33 2282.79 1511.17 2277.63 1505.34C2272.64 1499.35 2265.32 1495.27 2255.68 1493.11V1560.28Z" fill="#4F4F4F"/>
<path d="M2429.96 1464.39H2453.91V1589.25H2422.47V1518.33L2363.85 1589.25H2339.9V1464.39H2371.33V1535.31L2429.96 1464.39Z" fill="#4F4F4F"/>
<path d="M2581.69 1464.39V1495.35H2542.77V1589.25H2510.59V1495.35H2471.17V1464.39H2581.69Z" fill="#4F4F4F"/>
<path d="M2680.71 1464.39H2712.89V1589.25H2680.71V1541.8H2631.06V1589.25H2598.88V1464.39H2631.06V1511.59H2680.71V1464.39Z" fill="#4F4F4F"/>
<path d="M2769.58 1540.05C2773.9 1555.7 2785.63 1563.53 2804.75 1563.53C2817.06 1563.53 2826.37 1559.37 2832.69 1551.04L2858.64 1566.03C2846.33 1583.84 2828.2 1592.75 2804.25 1592.75C2783.63 1592.75 2767.08 1586.5 2754.61 1574.02C2742.13 1561.53 2735.9 1545.8 2735.9 1526.82C2735.9 1508.01 2742.05 1492.36 2754.36 1479.87C2766.66 1467.22 2782.47 1460.89 2801.76 1460.89C2820.05 1460.89 2835.11 1467.22 2846.92 1479.87C2858.89 1492.52 2864.88 1508.17 2864.88 1526.82C2864.88 1530.98 2864.46 1535.39 2863.63 1540.05H2769.58ZM2769.08 1515.08H2832.69C2830.87 1506.59 2827.04 1500.26 2821.22 1496.1C2815.56 1491.94 2809.08 1489.86 2801.76 1489.86C2793.11 1489.86 2785.96 1492.11 2780.3 1496.6C2774.65 1500.93 2770.91 1507.09 2769.08 1515.08Z" fill="#4F4F4F"/>
<path d="M2945.75 1592.75C2926.95 1592.75 2911.24 1586.42 2898.6 1573.77C2886.12 1561.11 2879.88 1545.46 2879.88 1526.82C2879.88 1508.17 2886.12 1492.52 2898.6 1479.87C2911.24 1467.22 2926.95 1460.89 2945.75 1460.89C2957.89 1460.89 2968.95 1463.81 2978.93 1469.63C2988.91 1475.46 2996.48 1483.28 3001.63 1493.11L2973.94 1509.34C2971.44 1504.18 2967.62 1500.1 2962.46 1497.1C2957.47 1494.11 2951.82 1492.61 2945.5 1492.61C2935.85 1492.61 2927.87 1495.85 2921.55 1502.35C2915.23 1508.67 2912.07 1516.83 2912.07 1526.82C2912.07 1536.64 2915.23 1544.8 2921.55 1551.29C2927.87 1557.62 2935.85 1560.78 2945.5 1560.78C2951.98 1560.78 2957.72 1559.37 2962.71 1556.54C2967.87 1553.54 2971.69 1549.46 2974.19 1544.3L3002.13 1560.28C2996.64 1570.1 2988.91 1578.01 2978.93 1584.01C2968.95 1589.83 2957.89 1592.75 2945.75 1592.75Z" fill="#4F4F4F"/>
<path d="M3021.62 1529.32V1498.35H3115.18V1529.32H3021.62Z" fill="#4F4F4F"/>
<path d="M3240.89 1464.39H3273.07V1589.25H3240.89V1574.52C3231.24 1586.67 3217.69 1592.75 3200.22 1592.75C3183.59 1592.75 3169.29 1586.42 3157.31 1573.77C3145.5 1560.95 3139.6 1545.3 3139.6 1526.82C3139.6 1508.34 3145.5 1492.77 3157.31 1480.12C3169.29 1467.3 3183.59 1460.89 3200.22 1460.89C3217.69 1460.89 3231.24 1466.97 3240.89 1479.12V1464.39ZM3181.51 1552.29C3188 1558.78 3196.23 1562.03 3206.21 1562.03C3216.19 1562.03 3224.42 1558.78 3230.91 1552.29C3237.56 1545.63 3240.89 1537.14 3240.89 1526.82C3240.89 1516.5 3237.56 1508.09 3230.91 1501.6C3224.42 1494.94 3216.19 1491.61 3206.21 1491.61C3196.23 1491.61 3188 1494.94 3181.51 1501.6C3175.03 1508.09 3171.78 1516.5 3171.78 1526.82C3171.78 1537.14 3175.03 1545.63 3181.51 1552.29Z" fill="#4F4F4F"/>
<path d="M3347.19 1460.89C3366.15 1460.89 3381.7 1467.05 3393.84 1479.37C3406.15 1491.52 3412.3 1507.34 3412.3 1526.82C3412.3 1546.3 3406.15 1562.2 3393.84 1574.52C3381.7 1586.67 3366.06 1592.75 3346.94 1592.75C3334.13 1592.75 3322.65 1589.83 3312.51 1584.01C3302.36 1578.01 3294.8 1570.1 3289.81 1560.28L3317 1544.55C3319.16 1549.71 3322.9 1553.87 3328.23 1557.04C3333.55 1560.2 3339.95 1561.78 3347.44 1561.78C3354.42 1561.78 3360.58 1559.95 3365.9 1556.29C3371.39 1552.46 3375.38 1547.46 3377.87 1541.3H3335.46V1512.33H3377.87C3375.38 1506.18 3371.39 1501.26 3365.9 1497.6C3360.58 1493.77 3354.42 1491.86 3347.44 1491.86C3332.8 1491.86 3322.74 1497.52 3317.25 1508.84L3290.05 1493.11C3295.38 1483.28 3303.03 1475.46 3313.01 1469.63C3323.15 1463.81 3334.55 1460.89 3347.19 1460.89Z" fill="#4F4F4F"/>
<path d="M3507.88 1460.89C3524.68 1460.89 3538.98 1467.3 3550.79 1480.12C3562.77 1492.77 3568.75 1508.34 3568.75 1526.82C3568.75 1545.3 3562.77 1560.95 3550.79 1573.77C3538.98 1586.42 3524.68 1592.75 3507.88 1592.75C3490.42 1592.75 3476.94 1586.67 3467.46 1574.52V1639.19H3435.28V1464.39H3467.46V1479.12C3476.94 1466.97 3490.42 1460.89 3507.88 1460.89ZM3477.19 1552.29C3483.68 1558.78 3491.91 1562.03 3501.89 1562.03C3511.87 1562.03 3520.11 1558.78 3526.59 1552.29C3533.24 1545.63 3536.57 1537.14 3536.57 1526.82C3536.57 1516.5 3533.24 1508.09 3526.59 1501.6C3520.11 1494.94 3511.87 1491.61 3501.89 1491.61C3491.91 1491.61 3483.68 1494.94 3477.19 1501.6C3470.71 1508.09 3467.46 1516.5 3467.46 1526.82C3467.46 1537.14 3470.71 1545.63 3477.19 1552.29Z" fill="#4F4F4F"/>
<path d="M3697.73 1573.77C3684.92 1586.42 3669.29 1592.75 3650.83 1592.75C3632.37 1592.75 3616.73 1586.42 3603.93 1573.77C3591.29 1560.95 3584.97 1545.3 3584.97 1526.82C3584.97 1508.34 3591.29 1492.77 3603.93 1480.12C3616.73 1467.3 3632.37 1460.89 3650.83 1460.89C3669.29 1460.89 3684.92 1467.3 3697.73 1480.12C3710.54 1492.77 3716.94 1508.34 3716.94 1526.82C3716.94 1545.3 3710.54 1560.95 3697.73 1573.77ZM3626.63 1551.54C3633.12 1558.03 3641.18 1561.28 3650.83 1561.28C3660.48 1561.28 3668.54 1558.03 3675.03 1551.54C3681.51 1545.05 3684.76 1536.81 3684.76 1526.82C3684.76 1516.83 3681.51 1508.59 3675.03 1502.1C3668.54 1495.6 3660.48 1492.36 3650.83 1492.36C3641.18 1492.36 3633.12 1495.6 3626.63 1502.1C3620.31 1508.59 3617.15 1516.83 3617.15 1526.82C3617.15 1536.81 3620.31 1545.05 3626.63 1551.54Z" fill="#4F4F4F"/>
<path d="M3798.71 1592.75C3779.08 1592.75 3763.2 1586.42 3751.06 1573.77C3739.08 1561.11 3733.1 1545.05 3733.1 1525.57C3733.1 1504.26 3736.26 1487.86 3742.58 1476.37C3748.9 1464.72 3761.62 1454.15 3780.75 1444.66C3783.57 1443.33 3787.57 1441.5 3792.72 1439.17C3797.88 1436.67 3801.37 1434.92 3803.2 1433.92C3805.2 1432.92 3807.86 1431.42 3811.18 1429.43C3814.51 1427.43 3816.84 1425.68 3818.17 1424.18C3819.67 1422.52 3821.25 1420.44 3822.91 1417.94C3824.57 1415.44 3825.9 1412.7 3826.9 1409.7L3853.35 1424.93C3851.18 1435.09 3846.28 1442.99 3838.63 1448.66C3831.14 1454.15 3819.83 1459.81 3804.7 1465.64C3794.05 1469.8 3786.32 1473.96 3781.5 1478.12C3776.67 1482.28 3773.18 1487.28 3771.02 1493.11C3780.33 1483.62 3792.8 1478.87 3808.44 1478.87C3822.24 1478.87 3834.55 1483.95 3845.36 1494.11C3856.17 1504.09 3861.58 1517.41 3861.58 1534.06C3861.58 1551.21 3855.76 1565.28 3844.12 1576.26C3832.64 1587.25 3817.5 1592.75 3798.71 1592.75ZM3775.76 1554.79C3781.91 1560.45 3789.48 1563.28 3798.46 1563.28C3807.44 1563.28 3814.84 1560.53 3820.66 1555.04C3826.49 1549.54 3829.4 1542.55 3829.4 1534.06C3829.4 1525.57 3826.49 1518.58 3820.66 1513.08C3814.84 1507.42 3807.36 1504.59 3798.21 1504.59C3790.06 1504.59 3782.74 1507.17 3776.26 1512.33C3769.94 1517.5 3766.78 1524.4 3766.78 1533.06C3766.78 1541.89 3769.77 1549.13 3775.76 1554.79Z" fill="#4F4F4F"/>
<path d="M3971.2 1464.39H3995.15V1589.25H3963.71V1518.33L3905.08 1589.25H3881.13V1464.39H3912.57V1535.31L3971.2 1464.39Z" fill="#4F4F4F"/>
<path d="M4139.65 1589.25H4102.22L4056.82 1532.56V1589.25H4024.64V1464.39H4056.82V1519.33L4099.73 1464.39H4138.15L4088 1526.07L4139.65 1589.25Z" fill="#4F4F4F"/>
<path d="M4245.77 1464.39H4269.73V1589.25H4238.29V1518.33L4179.66 1589.25H4155.71V1464.39H4187.15V1535.31L4245.77 1464.39Z" fill="#4F4F4F"/>
<path d="M2235.72 1729.2C2252.52 1729.2 2266.66 1734.86 2278.13 1746.18C2289.61 1757.5 2295.35 1771.4 2295.35 1787.88C2295.35 1804.37 2289.61 1818.27 2278.13 1829.59C2266.66 1840.91 2252.52 1846.57 2235.72 1846.57H2205.03V1904.01H2170.6V1729.2H2235.72ZM2235.72 1814.35C2243.04 1814.35 2249.11 1811.86 2253.93 1806.86C2258.75 1801.7 2261.17 1795.38 2261.17 1787.88C2261.17 1780.23 2258.75 1773.9 2253.93 1768.91C2249.11 1763.91 2243.04 1761.41 2235.72 1761.41H2205.03V1814.35H2235.72Z" fill="#4F4F4F"/>
<path d="M2414.26 1888.52C2401.45 1901.18 2385.82 1907.5 2367.36 1907.5C2348.89 1907.5 2333.26 1901.18 2320.45 1888.52C2307.81 1875.7 2301.49 1860.05 2301.49 1841.57C2301.49 1823.1 2307.81 1807.53 2320.45 1794.88C2333.26 1782.06 2348.89 1775.65 2367.36 1775.65C2385.82 1775.65 2401.45 1782.06 2414.26 1794.88C2427.07 1807.53 2433.47 1823.1 2433.47 1841.57C2433.47 1860.05 2427.07 1875.7 2414.26 1888.52ZM2343.16 1866.3C2349.64 1872.79 2357.71 1876.04 2367.36 1876.04C2377 1876.04 2385.07 1872.79 2391.56 1866.3C2398.04 1859.8 2401.29 1851.56 2401.29 1841.57C2401.29 1831.59 2398.04 1823.35 2391.56 1816.85C2385.07 1810.36 2377 1807.11 2367.36 1807.11C2357.71 1807.11 2349.64 1810.36 2343.16 1816.85C2336.84 1823.35 2333.68 1831.59 2333.68 1841.57C2333.68 1851.56 2336.84 1859.8 2343.16 1866.3Z" fill="#4F4F4F"/>
<path d="M2515.49 1907.5C2496.69 1907.5 2480.98 1901.18 2468.33 1888.52C2455.86 1875.87 2449.62 1860.22 2449.62 1841.57C2449.62 1822.93 2455.86 1807.28 2468.33 1794.63C2480.98 1781.97 2496.69 1775.65 2515.49 1775.65C2527.63 1775.65 2538.69 1778.56 2548.67 1784.39C2558.65 1790.21 2566.22 1798.04 2571.37 1807.86L2543.68 1824.09C2541.18 1818.93 2537.36 1814.85 2532.2 1811.86C2527.21 1808.86 2521.56 1807.36 2515.24 1807.36C2505.59 1807.36 2497.61 1810.61 2491.29 1817.1C2484.97 1823.43 2481.81 1831.59 2481.81 1841.57C2481.81 1851.4 2484.97 1859.55 2491.29 1866.05C2497.61 1872.37 2505.59 1875.54 2515.24 1875.54C2521.72 1875.54 2527.46 1874.12 2532.45 1871.29C2537.61 1868.3 2541.43 1864.22 2543.93 1859.06L2571.87 1875.04C2566.38 1884.86 2558.65 1892.77 2548.67 1898.76C2538.69 1904.59 2527.63 1907.5 2515.49 1907.5Z" fill="#4F4F4F"/>
<path d="M2646.32 1907.5C2627.52 1907.5 2611.81 1901.18 2599.17 1888.52C2586.69 1875.87 2580.46 1860.22 2580.46 1841.57C2580.46 1822.93 2586.69 1807.28 2599.17 1794.63C2611.81 1781.97 2627.52 1775.65 2646.32 1775.65C2658.46 1775.65 2669.52 1778.56 2679.5 1784.39C2689.48 1790.21 2697.05 1798.04 2702.2 1807.86L2674.51 1824.09C2672.02 1818.93 2668.19 1814.85 2663.03 1811.86C2658.04 1808.86 2652.39 1807.36 2646.07 1807.36C2636.42 1807.36 2628.44 1810.61 2622.12 1817.1C2615.8 1823.43 2612.64 1831.59 2612.64 1841.57C2612.64 1851.4 2615.8 1859.55 2622.12 1866.05C2628.44 1872.37 2636.42 1875.54 2646.07 1875.54C2652.56 1875.54 2658.29 1874.12 2663.28 1871.29C2668.44 1868.3 2672.27 1864.22 2674.76 1859.06L2702.7 1875.04C2697.21 1884.86 2689.48 1892.77 2679.5 1898.76C2669.52 1904.59 2658.46 1907.5 2646.32 1907.5Z" fill="#4F4F4F"/>
<path d="M2810.76 1779.14H2834.71V1904.01H2803.28V1833.08L2744.65 1904.01H2720.7V1779.14H2752.13V1850.07L2810.76 1779.14Z" fill="#4F4F4F"/>
<path d="M2954.26 1779.14H2978.21V1904.01H2946.78V1833.08L2888.15 1904.01H2864.2V1779.14H2895.63V1850.07L2954.26 1779.14Z" fill="#4F4F4F"/>
<g filter="url(#filter0_d_150_131)">
<path d="M730 1358.72C730 1197.45 730 1116.82 761.385 1055.22C788.992 1001.04 833.043 956.992 887.224 929.385C948.82 898 1029.45 898 1190.72 898H1472.91C1634.18 898 1714.82 898 1776.41 929.385C1830.59 956.992 1874.64 1001.04 1902.25 1055.22C1933.64 1116.82 1933.64 1197.45 1933.64 1358.72V1640.91C1933.64 1802.18 1933.64 1882.82 1902.25 1944.41C1874.64 1998.59 1830.59 2042.64 1776.41 2070.25C1714.82 2101.64 1634.18 2101.64 1472.91 2101.64H1190.72C1029.45 2101.64 948.82 2101.64 887.224 2070.25C833.043 2042.64 788.992 1998.59 761.385 1944.41C730 1882.82 730 1802.18 730 1640.91V1358.72Z" fill="white"/>
</g>
<path fill-rule="evenodd" clip-rule="evenodd" d="M1424.67 1510.95L1551.76 1383.83C1551.76 1383.83 1477.44 1312.27 1417.36 1294.23C1358.59 1276.57 1319.32 1276.57 1260.56 1294.23C1200.48 1312.27 1126.15 1383.83 1126.15 1383.83L1252.48 1510.95L1280.85 1438.97L1211.28 1383.83L1260.56 1363.15L1294.84 1438.97L1125.19 1812.68C1156.89 1825.08 1190.71 1834.79 1226.12 1841.43C1270.19 1738.09 1338.96 1576.81 1338.96 1576.81L1451.68 1841.17C1487.07 1834.45 1520.85 1824.65 1552.51 1812.18L1382.31 1438.97L1417.36 1363.15L1466.64 1383.83L1396.3 1438.97L1424.67 1510.95Z" fill="#EB5757"/>
<path fill-rule="evenodd" clip-rule="evenodd" d="M1382.31 1438.97L1552.51 1812.18C1520.85 1824.65 1487.07 1834.45 1451.68 1841.17L1338.96 1576.81C1338.96 1576.81 1270.19 1738.09 1226.12 1841.43C1190.71 1834.79 1156.89 1825.08 1125.19 1812.68L1294.84 1438.97L1260.56 1363.15L1211.28 1383.83L1280.85 1438.97L1252.48 1510.95L1126.15 1383.83C1126.15 1383.83 1200.48 1312.27 1260.56 1294.23C1319.32 1276.57 1358.59 1276.57 1417.36 1294.23C1477.44 1312.27 1551.76 1383.83 1551.76 1383.83L1424.67 1510.95L1396.3 1438.97L1466.64 1383.83L1417.36 1363.15L1382.31 1438.97ZM1391.23 1222.24C1391.23 1251.85 1367.83 1275.85 1338.96 1275.85C1310.09 1275.85 1286.69 1251.85 1286.69 1222.24C1286.69 1192.63 1310.09 1168.63 1338.96 1168.63C1367.83 1168.63 1391.23 1192.63 1391.23 1222.24Z" fill="#EB5757"/>
<path d="M1519.48 1261.67C1519.48 1282.38 1536.58 1299.16 1557.68 1299.16C1578.78 1299.16 1595.88 1282.38 1595.88 1261.67C1595.88 1240.97 1578.78 1224.19 1557.68 1224.19C1536.58 1224.19 1519.48 1240.97 1519.48 1261.67Z" fill="#2F80ED"/>
<path fill-rule="evenodd" clip-rule="evenodd" d="M1729 1282.6L1564.86 1437.11L1784.36 1639.31C1769.43 1662.76 1750.99 1684.8 1729.55 1705.06L1556.53 1541.32L1529.48 1641.78L1531.6 1678.77L1467.84 1538.26L1470.3 1503.99L1593.85 1379.77L1560.01 1352.18L1658.54 1229.16C1684.55 1245.1 1708.19 1263.02 1729 1282.6ZM1440.88 1282.21L1411.59 1150.45C1442.82 1153.31 1473.11 1158.36 1502.15 1165.39L1510.31 1320.15C1510.31 1320.15 1489.15 1305.59 1475.6 1298.18C1462.04 1290.77 1440.88 1282.21 1440.88 1282.21ZM1557.68 1299.16C1536.58 1299.16 1519.48 1282.38 1519.48 1261.67C1519.48 1240.97 1536.58 1224.19 1557.68 1224.19C1578.78 1224.19 1595.88 1240.97 1595.88 1261.67C1595.88 1282.38 1578.78 1299.16 1557.68 1299.16Z" fill="#2F80ED"/>
<path fill-rule="evenodd" clip-rule="evenodd" d="M1502.15 1165.39L1510.31 1320.15C1510.31 1320.15 1489.15 1305.59 1475.6 1298.18C1462.04 1290.77 1440.88 1282.21 1440.88 1282.21L1411.59 1150.45C1442.82 1153.31 1473.11 1158.36 1502.15 1165.39ZM1560.01 1352.18L1593.85 1379.77L1470.3 1503.99L1467.84 1538.26L1531.6 1678.77L1529.48 1641.78L1556.53 1541.32L1729.55 1705.06C1750.99 1684.8 1769.43 1662.76 1784.36 1639.31L1564.86 1437.11L1729 1282.6C1708.19 1263.02 1684.55 1245.1 1658.54 1229.16L1560.01 1352.18Z" fill="#2F80ED"/>
<path d="M1158.22 1261.67C1158.22 1282.38 1141.12 1299.16 1120.02 1299.16C1098.92 1299.16 1081.82 1282.38 1081.82 1261.67C1081.82 1240.97 1098.92 1224.19 1120.02 1224.19C1141.12 1224.19 1158.22 1240.97 1158.22 1261.67Z" fill="#D8D8D8"/>
<path fill-rule="evenodd" clip-rule="evenodd" d="M948.705 1282.6L1112.84 1437.11L893.347 1639.31C908.275 1662.76 926.708 1684.8 948.155 1705.06L1121.17 1541.32L1148.23 1641.78L1146.1 1678.77L1209.86 1538.26L1207.4 1503.99L1083.85 1379.77L1117.69 1352.18L1019.16 1229.16C993.149 1245.1 969.516 1263.02 948.705 1282.6ZM1236.82 1282.21L1266.11 1150.45C1234.88 1153.31 1204.6 1158.36 1175.55 1165.39L1167.39 1320.15C1167.39 1320.15 1188.55 1305.59 1202.11 1298.18C1215.66 1290.77 1236.82 1282.21 1236.82 1282.21ZM1120.02 1299.16C1141.12 1299.16 1158.22 1282.38 1158.22 1261.67C1158.22 1240.97 1141.12 1224.19 1120.02 1224.19C1098.92 1224.19 1081.82 1240.97 1081.82 1261.67C1081.82 1282.38 1098.92 1299.16 1120.02 1299.16Z" fill="#D8D8D8"/>
<path fill-rule="evenodd" clip-rule="evenodd" d="M1175.55 1165.39L1167.39 1320.15C1167.39 1320.15 1188.55 1305.59 1202.11 1298.18C1215.66 1290.77 1236.82 1282.21 1236.82 1282.21L1266.11 1150.45C1234.88 1153.31 1204.6 1158.36 1175.55 1165.39ZM1117.69 1352.18L1083.85 1379.77L1207.4 1503.99L1209.86 1538.26L1146.1 1678.77L1148.23 1641.78L1121.17 1541.32L948.155 1705.06C926.708 1684.8 908.275 1662.76 893.347 1639.31L1112.84 1437.11L948.705 1282.6C969.516 1263.02 993.149 1245.1 1019.16 1229.16L1117.69 1352.18Z" fill="#D8D8D8"/>
<defs>
<filter id="filter0_d_150_131" x="720" y="888" width="1223.64" height="1223.64" filterUnits="userSpaceOnUse" color-interpolation-filters="sRGB">
<feFlood flood-opacity="0" result="BackgroundImageFix"/>
<feColorMatrix in="SourceAlpha" type="matrix" values="0 0 0 0 0 0 0 0 0 0 0 0 0 0 0 0 0 0 127 0" result="hardAlpha"/>
<feOffset/>
<feGaussianBlur stdDeviation="5"/>
<feComposite in2="hardAlpha" operator="out"/>
<feColorMatrix type="matrix" values="0 0 0 0 0 0 0 0 0 0 0 0 0 0 0 0 0 0 0.1 0"/>
<feBlend mode="normal" in2="BackgroundImageFix" result="effect1_dropShadow_150_131"/>
<feBlend mode="normal" in="SourceGraphic" in2="effect1_dropShadow_150_131" result="shape"/>
</filter>
</defs>
</svg>
