<svg width="181" height="95" viewBox="0 0 181 95" fill="none" xmlns="http://www.w3.org/2000/svg">
<path d="M46.8531 50.7722C46.8531 48.5972 46.7753 47.5204 46.7888 47.5204H46.8013C46.8142 47.5204 47.5507 48.7791 47.6282 48.9104L48.7054 50.7453H49.8476L50.9267 48.9104C51.0063 48.7791 51.7404 47.5204 51.7555 47.5204H51.7672C51.7825 47.5204 51.7033 48.5972 51.7033 50.7722V53.0128H53.8696V43.8359H51.795L50.0736 46.614C49.4031 47.705 49.2993 47.9393 49.2839 47.9393H49.272C49.2568 47.9393 49.1535 47.705 48.4841 46.614L46.761 43.8359H44.687V53.0128H46.8531V50.7722Z" fill="#241F21"/>
<path d="M61.3309 51.0229C59.8464 51.0229 58.8612 49.959 58.8612 48.4253C58.8612 46.8767 59.8464 45.8274 61.3309 45.8274C62.8267 45.8274 63.8149 46.8767 63.8149 48.4253C63.8149 49.959 62.8267 51.0229 61.3309 51.0229ZM61.3309 43.6523C58.6906 43.6523 56.561 45.6588 56.561 48.4253C56.561 51.1888 58.6906 53.1955 61.3309 53.1955C63.9712 53.1955 66.1145 51.1888 66.1145 48.4253C66.1145 45.6588 63.9712 43.6523 61.3309 43.6523Z" fill="#241F21"/>
<path d="M94.5539 45.8266C96.0543 45.8266 97.0395 46.8762 97.0395 48.4245C97.0395 49.9582 96.0543 51.0227 94.5539 51.0227C93.0718 51.0227 92.0866 49.9582 92.0866 48.4245C92.0866 46.8762 93.0718 45.8266 94.5539 45.8266ZM94.5539 53.1948C97.1955 53.1948 99.3356 51.188 99.3356 48.4245C99.3356 45.6581 97.1955 43.6514 94.5539 43.6514C91.9154 43.6514 89.7856 45.6581 89.7856 48.4245C89.7856 51.188 91.9154 53.1948 94.5539 53.1948Z" fill="#241F21"/>
<path d="M104.237 51.1659V49.0926H105.774C106.47 49.0926 106.973 49.4867 106.973 50.128C106.973 50.7328 106.511 51.1659 105.774 51.1659H104.237ZM104.237 45.6842H105.563C106.157 45.6842 106.589 46.0523 106.589 46.5499C106.589 47.0471 106.157 47.4152 105.563 47.4152H104.237V45.6842ZM109.284 50.2329C109.284 49.3023 108.536 48.3076 107.667 48.069V48.0585C108.22 47.861 108.811 47.1279 108.811 46.2614C108.811 44.9244 107.667 43.8359 106.025 43.8359H102.03V53.0128H106.001C108.271 53.0128 109.284 51.769 109.284 50.2329Z" fill="#241F21"/>
<path d="M149.24 50.4584C150.083 49.3023 151.317 47.5595 151.327 47.5595H151.342C151.355 47.5595 151.327 48.9748 151.327 50.9803V53.0128H153.536V43.8359H151.463L149.502 46.4574C148.911 47.2455 147.507 49.2235 147.491 49.2235H147.478C147.468 49.2235 147.491 47.6001 147.491 45.9351V43.8359H145.287V53.0128H147.361L149.24 50.4584Z" fill="#241F21"/>
<path d="M137.627 50.4584C138.468 49.3023 139.702 47.5595 139.715 47.5595H139.729C139.743 47.5595 139.715 48.9748 139.715 50.9803V53.0128H141.925V43.8359H139.85L137.889 46.4574C137.298 47.2455 135.894 49.2235 135.882 49.2235H135.866C135.855 49.2235 135.882 47.6001 135.882 45.9351V43.8359H133.672V53.0128H135.75L137.627 50.4584Z" fill="#241F21"/>
<path d="M52.5429 84.1738H50.3335V91.1474L50.3311 91.2965L50.2903 91.29H46.8933V84.1738H44.687V93.3489H46.8933H50.2903H50.3335H52.5429H52.5566V95H54.5522V93.3489H54.5588V91.1474H52.5429V84.1738Z" fill="#241F21"/>
<path d="M72.8486 87.7248H69.4056V84.1738H67.1997V93.3483H69.4056V89.782H72.8486V93.3483H75.0562V84.1738H72.8486V87.7248Z" fill="#241F21"/>
<path d="M77.5269 86.2294H80.2841V93.3491H82.4916V86.2294H85.2897V84.1738H77.5269V86.2294Z" fill="#241F21"/>
<path d="M46.8935 66.0622H50.3333V73.1812H52.5429V64.0029H50.3333H46.8935H44.6875V73.1812H46.8935V66.0622Z" fill="#241F21"/>
<path d="M67.5046 68.5915C67.5046 67.0466 68.4914 65.9976 69.9743 65.9976C71.4734 65.9976 72.4571 67.0466 72.4571 68.5915C72.4571 70.1259 71.4734 71.1884 69.9743 71.1884C68.4914 71.1884 67.5046 70.1259 67.5046 68.5915ZM74.7561 68.5915C74.7561 65.8249 72.6198 63.8184 69.9743 63.8184C67.334 63.8184 65.2056 65.8249 65.2056 68.5915C65.2056 71.3592 67.334 73.3657 69.9743 73.3657C72.6198 73.3657 74.7561 71.3592 74.7561 68.5915Z" fill="#241F21"/>
<path d="M177.893 60.6133H174.271V62.5252H177.893V60.6133Z" fill="#241F21"/>
<path d="M99.859 71.1893C98.3757 71.1893 97.3883 70.1267 97.3883 68.5923C97.3883 67.0473 98.3757 65.9985 99.859 65.9985C101.356 65.9985 102.341 67.0473 102.341 68.5923C102.341 70.1267 101.356 71.1893 99.859 71.1893ZM99.859 63.8193C97.5665 63.8193 95.6639 65.3777 95.1996 67.5869H93.3479V64.0035H91.1421V73.1817H93.3479V69.6631H95.223C95.7213 71.8154 97.6024 73.3667 99.859 73.3667C102.499 73.3667 104.641 71.36 104.641 68.5923C104.641 65.8259 102.499 63.8193 99.859 63.8193Z" fill="#241F21"/>
<path d="M125.21 71.1227H120.646V69.4965H123.935V67.6317H120.646V66.0622H125.128V64.0029H118.443V73.1816H125.21V71.1227Z" fill="#241F21"/>
<path d="M63.9388 91.2917H59.3764V89.6644H62.6656V87.8014H59.3764V86.2311H63.8584V84.1709H57.1719V93.3492H63.9388V91.2917Z" fill="#241F21"/>
<path d="M131.937 68.6065H130.673V66.0622H131.937C132.788 66.0622 133.301 66.6003 133.301 67.2838C133.301 67.9657 132.866 68.6084 132.014 68.6084L131.937 68.6065ZM131.974 64.0029H128.464V73.1812H130.673V70.6656H131.974C134.234 70.6656 135.6 69.1177 135.6 67.1518C135.6 65.184 134.234 64.0029 131.974 64.0029Z" fill="#241F21"/>
<path d="M59.3576 68.6258H58.0938V66.0809H59.3576C60.2088 66.0809 60.723 66.6173 60.723 67.3012C60.723 67.9831 60.2868 68.6258 59.4356 68.6258H59.3576ZM59.3931 64.0205H55.8838V73.1988H58.0938V70.6832H59.3931C61.655 70.6832 63.0208 69.1353 63.0208 67.1693C63.0208 65.2016 61.655 64.0205 59.3931 64.0205Z" fill="#241F21"/>
<path d="M91.2385 88.7822H89.9755V86.2389H91.2385C92.0897 86.2389 92.6039 86.7759 92.6039 87.4594C92.6039 88.1413 92.1681 88.784 91.3171 88.784L91.2385 88.7822ZM91.274 84.1787H87.7642V93.3586H89.9755V90.8412H91.274C93.5365 90.8412 94.9029 89.2933 94.9029 87.3273C94.9029 85.3596 93.5365 84.1787 91.274 84.1787Z" fill="#241F21"/>
<path d="M157.551 64.0029H154.845L152.758 66.2095C151.824 67.14 151.625 67.4646 151.613 67.4646H151.601C151.586 67.4646 151.625 67.0216 151.625 65.499V64.0029H149.421V73.1812H151.625V70.1413L152.402 69.3646L155.188 73.1812H157.789L153.861 67.9099L157.551 64.0029Z" fill="#241F21"/>
<path d="M131.233 43.8232H128.528L126.441 46.0307C125.506 46.9607 125.308 47.284 125.296 47.284H125.284C125.269 47.284 125.308 46.8411 125.308 45.3193V43.8232H123.104V53.0013H125.308V49.9604L126.085 49.1854L128.871 53.0013H131.47L127.545 47.73L131.233 43.8232Z" fill="#241F21"/>
<path d="M88.3397 43.8613H85.6349L83.5478 46.0696C82.6122 46.999 82.415 47.323 82.4033 47.323H82.3913C82.3762 47.323 82.415 46.88 82.415 45.3568V43.8613H80.2109V53.0402H82.415V49.9993L83.1918 49.2236L85.978 53.0402H88.5768L84.6498 47.7688L88.3397 43.8613Z" fill="#241F21"/>
<path d="M178.151 64.0029L176.194 66.624C175.604 67.4139 174.195 69.3935 174.185 69.3935H174.171C174.156 69.3935 174.185 67.7677 174.185 66.1009V64.0029H171.975V73.1812H174.055L175.931 70.6251C176.773 69.4729 178.009 67.7271 178.019 67.7271H178.032C178.047 67.7271 178.019 69.1433 178.019 71.1497V73.1812H180.226V64.0029H178.151Z" fill="#241F21"/>
<path d="M151.211 40.4453H147.59V42.3583H151.211V40.4453Z" fill="#241F21"/>
<path d="M151.469 43.8359L149.512 46.4574C148.921 47.2467 147.513 49.2251 147.503 49.2251H147.488C147.474 49.2251 147.503 47.6001 147.503 45.9339V43.8359H145.294V53.0145H147.371L149.25 50.4579C150.09 49.3057 151.325 47.5593 151.337 47.5593H151.351C151.364 47.5593 151.337 48.9758 151.337 50.9819V53.0145H153.545V43.8359H151.469Z" fill="#241F21"/>
<path d="M164.578 66.6237C163.991 67.4137 162.586 69.3933 162.572 69.3933H162.559C162.543 69.3933 162.572 67.7675 162.572 66.1007V64.0029H160.363V73.1816H162.442L164.318 70.6248C165.159 69.4727 166.394 67.7269 166.407 67.7269H166.42C166.436 67.7269 166.407 69.1431 166.407 71.1496V73.1816H168.617V64.0029H166.538L164.578 66.6237Z" fill="#241F21"/>
<path d="M84.3229 71.1227H81.4672V70.9789L81.8792 65.9047H84.3229V71.1227ZM86.5776 70.9789V64.0029H79.6244L79.2122 70.9789H76.9805V73.1816H76.9894V75.1436H79.197V73.1816H86.1774V75.1436H88.3851V73.1816H88.395V70.9789H86.5776Z" fill="#241F21"/>
<path d="M113.624 70.0873C113.244 70.7169 112.403 71.1638 111.521 71.1638C110.089 71.1638 109.053 70.1791 109.053 68.5919C109.053 67.0864 109.999 65.9985 111.521 65.9985C112.246 65.9985 113.036 66.3249 113.454 66.849L115.377 65.753C114.509 64.5721 113.117 63.8193 111.521 63.8193C108.883 63.8193 106.752 65.8259 106.752 68.5919C106.752 71.36 108.883 73.3667 111.521 73.3667C113.249 73.3667 114.738 72.5068 115.58 71.1658L113.75 70.1198L113.624 70.0873Z" fill="#241F21"/>
<path d="M118.324 49.9149C117.946 50.5448 117.104 50.9904 116.222 50.9904C114.791 50.9904 113.754 50.0062 113.754 48.4202C113.754 46.9146 114.699 45.825 116.222 45.825C116.947 45.825 117.736 46.1514 118.157 46.6768L120.077 45.5805C119.211 44.3996 117.817 43.6475 116.222 43.6475C113.583 43.6475 111.454 45.6542 111.454 48.4202C111.454 51.1871 113.583 53.1932 116.222 53.1932C117.949 53.1932 119.44 52.3333 120.281 50.9922L118.324 49.9149Z" fill="#241F21"/>
<path d="M75.4005 49.9195C75.0221 50.5485 74.1799 50.9942 73.2973 50.9942C71.8672 50.9942 70.8306 50.0107 70.8306 48.4245C70.8306 46.9186 71.7752 45.8302 73.2973 45.8302C74.0234 45.8302 74.8119 46.1559 75.233 46.6812L77.1537 45.5851C76.2871 44.4036 74.8935 43.6514 73.2973 43.6514C70.6594 43.6514 68.5298 45.6581 68.5298 48.4245C68.5298 51.1912 70.6594 53.1984 73.2973 53.1984C75.0256 53.1984 76.5143 52.3384 77.3572 50.9974L75.4005 49.9195Z" fill="#241F21"/>
<path d="M144.629 70.0863C144.251 70.7153 143.408 71.1622 142.527 71.1622C141.094 71.1622 140.058 70.1775 140.058 68.5919C140.058 67.0864 141.004 65.9985 142.527 65.9985C143.251 65.9985 144.039 66.3251 144.461 66.849L146.381 65.753C145.515 64.5721 144.12 63.8193 142.527 63.8193C139.888 63.8193 137.757 65.8261 137.757 68.5919C137.757 71.3602 139.888 73.3649 142.527 73.3649C144.253 73.3649 145.744 72.5068 146.586 71.1639L144.629 70.0863Z" fill="#241F21"/>
<path d="M34.7526 -1V16.338H17.3758V33.6772H0V61.3709H10.3782V44.0322H27.7534V26.693H45.1302V9.35558H62.506V-1H34.7526Z" fill="#241F21"/>
</svg>
