<svg width="290" height="85" viewBox="0 0 290 85" fill="none" xmlns="http://www.w3.org/2000/svg">
<path d="M37.4077 66.7262C38.7533 68.2267 40.0988 69.7273 41.6239 71.1395C48.8901 77.9361 58.2196 82.8789 68.7153 84.909V78.8186C60.0136 76.8767 52.299 72.64 46.1989 66.9026C44.2253 65.1374 42.5209 63.1072 40.9062 61.0771C40.0091 62.8426 38.9326 64.5196 37.8561 66.1965L37.946 66.2849L37.8561 66.1965C37.6768 66.3731 37.587 66.5496 37.4077 66.7262ZM27.9885 60.8124C26.3737 63.019 24.49 65.0491 22.5163 66.9026C16.4163 72.64 8.70154 76.8767 0 78.8186V84.909C10.406 82.7907 19.7355 77.9361 27.0914 71.1395C28.6164 69.6389 30.1415 68.1384 31.4871 66.5496L31.218 66.1965L31.1281 66.2849L31.218 66.1965C30.0516 64.4312 28.9753 62.6659 27.9885 60.8124ZM0 74.935C7.35594 72.993 13.9045 69.2858 19.1973 64.343C23.1444 60.6358 26.3737 56.2225 28.6164 51.3679C30.0516 55.3399 32.0252 59.1354 34.4473 62.6659C36.7796 59.6649 38.5739 55.6048 40.2783 51.3679C42.5209 56.2225 45.7505 60.6358 49.6975 64.343C54.9902 69.2858 61.5387 72.9048 68.805 74.935V68.6681C63.2431 66.9026 58.2196 63.99 54.1829 60.1945C47.2754 53.7511 42.9695 45.0128 42.9695 35.3036V8.4707H36.6003V35.3036C36.6003 39.9816 35.7929 45.5423 34.3577 49.7792C32.9224 45.4541 32.115 39.9816 32.115 35.3036V8.4707H25.7458V35.3036C25.7458 45.0128 21.5296 53.8393 14.7119 60.1945C10.5854 63.99 5.56181 66.9026 0 68.6681V74.935ZM46.8268 33.7148V28.6835H53.196V33.7148V34.0678V34.6857C53.196 41.7469 56.246 48.1904 61.2696 52.7801C63.4226 54.8102 65.9344 56.4873 68.7153 57.7231V64.2548C64.1402 62.6659 60.1035 60.1945 56.6946 57.017C50.5946 51.2797 46.7371 43.3358 46.7371 34.6857V34.0678V33.7148H46.8268ZM15.5192 33.7148V28.6835H21.8884V33.7148V34.0678V34.6857C21.8884 43.424 18.1207 51.2797 11.931 57.017C8.61184 60.1945 4.48532 62.6659 0 64.2548V57.7231C2.7809 56.4873 5.29269 54.8102 7.44565 52.7801C12.3795 48.1021 15.5192 41.7469 15.5192 34.6857V34.0678V33.7148Z" fill="#EB3333"/>
<path d="M158.511 43.8682H153.039V8.38526H158.511V22.2431H159.408C162.368 22.2431 163.355 19.0653 163.355 16.6822V8.38526H168.827V16.5057C168.827 20.2129 167.392 23.0374 164.7 24.8909C167.661 26.921 168.827 29.4809 168.827 33.2763V43.9564H163.355V33.0114C163.355 30.7165 162.278 27.892 159.408 27.9802H158.421V43.8682H158.511ZM252.075 43.8682V8.38526H257.008V29.1278L262.659 8.38526H268.759V43.8682H263.826V19.1538L257.098 43.8682H252.075ZM272.617 43.8682V8.38526H277.551V29.1278L283.204 8.38526H289.304V43.8682H284.368V19.1538L277.64 43.8682H272.617ZM287.06 0V4.1485H274.949V0H287.06ZM237.991 43.8682H232.519V8.38526H237.991V22.2431H238.887C241.849 22.2431 242.835 19.0653 242.835 16.6822V8.38526H248.307V16.5057C248.307 20.2129 246.871 23.0374 244.18 24.8909C247.14 26.921 248.307 29.4809 248.307 33.2763V43.9564H242.835V33.0114C242.835 30.7165 241.759 27.892 238.887 27.9802H237.901V43.8682H237.991ZM138.237 43.7798H132.765V8.38526H138.237H143.44H149.091V22.5961H143.44V13.4164H138.237V38.7488H143.44V29.5691H149.091V43.7798H143.44H138.237ZM217.717 43.7798H212.245V8.38526H217.717H222.92H228.571V22.5961H222.92V13.4164H217.717V38.7488H222.92V29.5691H228.571V43.7798H222.92H217.717ZM123.256 13.4164H118.143C118.143 21.9782 118.143 30.187 118.143 38.7488H123.256C123.256 30.187 123.256 21.9782 123.256 13.4164ZM117.963 43.7798H112.491C112.491 31.9523 112.491 20.1247 112.491 8.29699H117.963H123.166H128.818C128.818 20.1247 128.818 31.9523 128.818 43.7798H123.166H117.963ZM183.539 13.4164H178.425C178.425 21.9782 178.425 30.187 178.425 38.7488H183.539C183.539 30.187 183.539 21.9782 183.539 13.4164ZM178.336 43.7798H172.864C172.864 31.9523 172.864 20.1247 172.864 8.29699H178.336H183.539H189.19C189.19 20.1247 189.19 31.9523 189.19 43.7798H183.539H178.336ZM198.52 13.4164V22.9492C200.583 23.0374 203.095 22.9492 203.095 19.3302V16.0644V13.4164H198.52ZM198.52 27.9802V38.7488H203.095C203.095 36.4538 203.095 34.1588 203.095 31.864C203.095 28.2451 200.583 27.892 198.52 27.9802ZM208.567 14.5639V16.0644V18.9771C208.567 21.8016 207.401 23.8317 205.516 25.1557C207.58 26.7446 208.567 29.216 208.567 32.2171C208.567 36.1007 208.567 39.9844 208.567 43.7798C205.248 43.7798 201.839 43.7798 198.52 43.7798H193.048V8.38526H198.52C201.839 8.38526 205.248 8.38526 208.567 8.38526V14.5639ZM96.9719 32.1287C98.4071 24.5378 100.291 16.0644 101.188 8.47354H108.634V43.9564H103.79V29.8339L104.328 17.1236C103.61 21.1839 100.919 36.189 97.5101 43.4268H96.9719H96.4336C93.0248 36.189 90.2439 21.1839 89.616 17.1236L90.1542 29.8339V43.8682H85.3101V8.38526H92.7557C93.6527 16.0644 95.5366 24.5378 96.9719 32.1287Z" fill="#EB3333"/>
<path d="M151.422 54.5482V70.3478C153.485 70.436 155.997 70.0829 155.997 66.4641V63.1982V54.4599H151.422V54.5482ZM161.469 61.7859V63.2864V66.1993C161.469 71.6718 158.599 75.4672 153.216 75.4672H151.422V85H145.95V49.4287C151.153 49.4287 156.356 49.4287 161.469 49.4287V61.7859ZM162.994 49.4287H180.038V54.4599H174.297V84.8233H168.825V54.5482H163.084V49.4287H162.994ZM136.621 54.5482H131.507C131.507 63.11 131.507 71.3187 131.507 79.8805H136.621C136.621 71.3187 136.621 63.0217 136.621 54.5482ZM131.328 84.9116H125.856C125.856 73.084 125.856 61.2565 125.856 49.4287H131.328H136.531H142.182C142.182 61.2565 142.182 73.084 142.182 84.9116H136.531H131.328ZM90.87 84.9116H85.398V49.4287H90.87H96.0731H101.725V63.6396H96.0731V54.5482H90.87V79.8805H96.0731V70.7008H101.725V84.9116H96.0731H90.87ZM111.144 84.9116H105.672V49.4287H121.998V84.9116H116.347V54.5482H111.144V84.9116Z" fill="#EB3333"/>
</svg>
