<svg width="288" height="72" viewBox="0 0 288 72" fill="none" xmlns="http://www.w3.org/2000/svg">
<path d="M81.163 4.93164H83.8109L86.8058 11.4952L89.629 4.93164H92.327L94.2097 16.2489H91.3365L90.2476 9.63702L87.3261 16.2489H86.0137L83.0671 9.76042L82.0015 16.2489H79.2534L81.1594 4.93164H81.163Z" fill="#0086FF"/>
<path d="M99.2483 16.0017C98.4974 15.7209 97.8501 15.3203 97.3048 14.8017C96.7595 14.2812 96.3339 13.666 96.03 12.956C95.7242 12.246 95.5723 11.4537 95.5723 10.5792C95.5723 9.70461 95.7296 8.90339 96.0425 8.17728C96.3554 7.45118 96.7863 6.83595 97.3298 6.3334C97.8752 5.82906 98.5224 5.4374 99.2733 5.15661C100.024 4.87583 100.836 4.73633 101.712 4.73633C102.588 4.73633 103.423 4.87583 104.176 5.15661C104.927 5.4374 105.571 5.83801 106.107 6.35665C106.643 6.87709 107.065 7.49231 107.371 8.20232C107.675 8.91233 107.829 9.70461 107.829 10.5792C107.829 11.4537 107.671 12.2764 107.359 12.9935C107.044 13.7125 106.615 14.3259 106.071 14.8374C105.526 15.3489 104.882 15.7406 104.14 16.0142C103.398 16.2861 102.59 16.4238 101.714 16.4238C100.838 16.4238 100.003 16.2825 99.2501 16.0017H99.2483ZM102.912 13.5873C103.268 13.4299 103.572 13.2082 103.829 12.9184C104.085 12.6287 104.28 12.2871 104.41 11.8901C104.542 11.4948 104.609 11.0567 104.609 10.5774C104.609 10.0981 104.542 9.6903 104.41 9.30221C104.278 8.91412 104.088 8.57074 103.842 8.27386C103.595 7.97698 103.293 7.74985 102.939 7.59246C102.583 7.43508 102.175 7.35639 101.712 7.35639C101.249 7.35639 100.841 7.43866 100.486 7.60498C100.132 7.76952 99.8258 7.99665 99.5702 8.28638C99.3145 8.5761 99.1196 8.9177 98.9873 9.31473C98.855 9.71176 98.7906 10.132 98.7906 10.5774C98.7906 11.0227 98.8568 11.4448 98.9873 11.84C99.1196 12.2352 99.3109 12.5822 99.5558 12.8791C99.8044 13.176 100.11 13.4085 100.473 13.573C100.836 13.7393 101.249 13.8216 101.71 13.8216C102.172 13.8216 102.556 13.7429 102.91 13.5855L102.912 13.5873Z" fill="#0086FF"/>
<path d="M112.99 16.0141C112.256 15.7422 111.632 15.3488 111.12 14.8373C110.609 14.3258 110.208 13.7105 109.92 12.9934C109.631 12.2744 109.488 11.4875 109.488 10.6273C109.488 9.70266 109.64 8.87282 109.946 8.13956C110.249 7.40451 110.671 6.78929 111.208 6.29389C111.744 5.7985 112.372 5.41398 113.091 5.14214C113.809 4.8703 114.596 4.73438 115.456 4.73438C115.917 4.73438 116.371 4.77909 116.817 4.8703C117.262 4.96151 117.675 5.08133 118.054 5.22977C118.433 5.37821 118.78 5.56063 119.093 5.77525C119.406 5.98986 119.679 6.22057 119.91 6.46916L118.326 8.57415C117.981 8.2111 117.593 7.9178 117.164 7.69424C116.733 7.47247 116.246 7.3598 115.703 7.3598C115.241 7.3598 114.828 7.43849 114.465 7.59588C114.103 7.75326 113.788 7.97145 113.525 8.25223C113.262 8.53302 113.058 8.86746 112.919 9.25555C112.779 9.64364 112.708 10.0693 112.708 10.5307C112.708 10.9921 112.783 11.4517 112.931 11.8559C113.078 12.2601 113.285 12.6107 113.55 12.9075C113.813 13.2044 114.135 13.4315 114.516 13.5889C114.895 13.7463 115.317 13.825 115.78 13.825C116.341 13.825 116.831 13.7141 117.253 13.4906C117.675 13.267 118.05 12.9755 118.379 12.6107L120.187 14.3937C119.676 15.0537 119.016 15.558 118.206 15.905C117.398 16.2519 116.481 16.4254 115.458 16.4254C114.55 16.4254 113.727 16.2895 112.994 16.0158L112.99 16.0141Z" fill="#0086FF"/>
<path d="M122.163 13.5018V4.93343H125.233V16.2507H122.163V13.5018ZM123.153 9.09334H126.965V11.4451H123.153V9.09334ZM125.604 10.356L129.145 4.93164H132.338V5.35371L128.969 10.0841L133.178 15.8304V16.2507H129.761L125.601 10.3578L125.604 10.356Z" fill="#0086FF"/>
<path d="M137.277 16.0017C136.526 15.7209 135.878 15.3203 135.333 14.8017C134.79 14.2812 134.364 13.666 134.058 12.956C133.753 12.246 133.601 11.4537 133.601 10.5792C133.601 9.70461 133.756 8.90339 134.071 8.17728C134.384 7.45118 134.813 6.83595 135.358 6.3334C135.903 5.82906 136.551 5.4374 137.302 5.15661C138.053 4.87583 138.864 4.73633 139.74 4.73633C140.617 4.73633 141.452 4.87583 142.204 5.15661C142.955 5.4374 143.599 5.83801 144.135 6.35665C144.672 6.87709 145.094 7.49231 145.399 8.20232C145.703 8.91233 145.857 9.70461 145.857 10.5792C145.857 11.4537 145.702 12.2764 145.387 12.9935C145.074 13.7125 144.645 14.3259 144.1 14.8374C143.556 15.3489 142.911 15.7406 142.169 16.0142C141.427 16.2861 140.617 16.4238 139.742 16.4238C138.868 16.4238 138.029 16.2825 137.278 16.0017H137.277ZM140.94 13.5873C141.296 13.4299 141.6 13.2082 141.857 12.9184C142.113 12.6287 142.308 12.2871 142.438 11.8901C142.571 11.4948 142.637 11.0567 142.637 10.5774C142.637 10.0981 142.571 9.6903 142.438 9.30221C142.306 8.91412 142.117 8.57074 141.87 8.27386C141.621 7.97698 141.321 7.74985 140.967 7.59246C140.611 7.43508 140.204 7.35639 139.74 7.35639C139.277 7.35639 138.87 7.43866 138.514 7.60498C138.158 7.76952 137.854 7.99665 137.597 8.28638C137.341 8.5761 137.146 8.9177 137.016 9.31473C136.883 9.71176 136.817 10.132 136.817 10.5774C136.817 11.0227 136.883 11.4448 137.016 11.84C137.148 12.2352 137.337 12.5822 137.584 12.8791C137.833 13.176 138.137 13.4085 138.501 13.573C138.864 13.7393 139.277 13.8216 139.739 13.8216C140.2 13.8216 140.584 13.7429 140.938 13.5855L140.94 13.5873Z" fill="#0086FF"/>
<path d="M148.208 6.90429C148.208 5.81513 149.091 4.93164 150.18 4.93164H158.036C159.208 4.93164 160.091 5.18381 160.684 5.68815C161.28 6.19249 161.577 6.84706 161.577 7.65722C161.577 8.05247 161.505 8.40479 161.366 8.71061C161.226 9.01643 161.04 9.27576 160.81 9.49037C160.577 9.70498 160.302 9.86952 159.98 9.98577C159.656 10.102 159.324 10.1592 158.977 10.1592V9.93569C159.504 9.93569 159.996 9.98934 160.45 10.0967C160.904 10.204 161.299 10.3739 161.639 10.6046C161.977 10.8353 162.242 11.1375 162.431 11.5077C162.621 11.8797 162.717 12.3286 162.717 12.858C162.717 13.9489 162.317 14.7859 161.516 15.3725C160.715 15.9592 159.547 16.2525 158.013 16.2525H148.21V6.90787L148.208 6.90429ZM150.363 13.9954H157.345C158.104 13.9954 158.653 13.872 158.991 13.6235C159.329 13.3766 159.499 13.0207 159.499 12.5593C159.499 12.0639 159.326 11.7045 158.979 11.4827C158.632 11.2609 158.112 11.1483 157.42 11.1483H150.363V9.36518H157.121C157.648 9.36518 158.045 9.27397 158.31 9.09334C158.573 8.91092 158.707 8.63013 158.707 8.25098C158.707 7.87183 158.575 7.61966 158.31 7.44618C158.047 7.27271 157.641 7.18686 157.098 7.18686H150.363L151.28 6.09591V15.0614L150.363 13.9972V13.9954Z" fill="#0086FF"/>
<path d="M80.0742 31.6699C80.0742 30.5808 80.9575 29.6973 82.0463 29.6973H89.9027C91.0738 29.6973 91.957 29.9494 92.5506 30.4538C93.146 30.9581 93.4428 31.6127 93.4428 32.4228C93.4428 32.8181 93.3713 33.1704 93.2319 33.4762C93.0924 33.7821 92.9064 34.0414 92.6758 34.256C92.4434 34.4706 92.168 34.6351 91.8462 34.7514C91.5226 34.8676 91.19 34.9249 90.8431 34.9249V34.7013C91.3706 34.7013 91.8623 34.755 92.3164 34.8623C92.7706 34.9696 93.1657 35.1395 93.5054 35.3702C93.8433 35.6009 94.108 35.9031 94.2975 36.2734C94.487 36.6454 94.5836 37.0942 94.5836 37.6236C94.5836 38.7146 94.1831 39.5516 93.382 40.1382C92.581 40.7248 91.4135 41.0181 89.8794 41.0181H80.076V31.6735L80.0742 31.6699ZM82.2287 38.7611H89.2107C89.9706 38.7611 90.5195 38.6377 90.8574 38.3891C91.1954 38.1423 91.3652 37.7864 91.3652 37.325C91.3652 36.8296 91.1918 36.4701 90.8449 36.2483C90.4981 36.0265 89.9778 35.9139 89.2858 35.9139H82.2287V34.1308H88.9872C89.5147 34.1308 89.9116 34.0396 90.1762 33.859C90.439 33.6765 90.5732 33.3958 90.5732 33.0166C90.5732 32.6375 90.4408 32.3853 90.1762 32.2118C89.9134 32.0383 89.5075 31.9525 88.964 31.9525H82.2287L83.146 30.8615V39.827L82.2287 38.7629V38.7611Z" fill="#0086FF"/>
<path d="M167.582 16.0141C166.847 15.7422 166.225 15.3488 165.714 14.8373C165.201 14.3258 164.802 13.7105 164.512 12.9934C164.223 12.2744 164.08 11.4875 164.08 10.6273C164.08 9.70266 164.232 8.87282 164.537 8.13956C164.841 7.40451 165.263 6.78929 165.8 6.29389C166.336 5.7985 166.964 5.41398 167.682 5.14214C168.401 4.8703 169.188 4.73438 170.048 4.73438C170.509 4.73438 170.963 4.77909 171.408 4.8703C171.854 4.96151 172.267 5.08133 172.646 5.22977C173.025 5.37821 173.372 5.56063 173.685 5.77525C173.997 5.98986 174.271 6.22057 174.502 6.46916L172.917 8.57415C172.572 8.2111 172.184 7.9178 171.755 7.69424C171.324 7.47247 170.838 7.3598 170.295 7.3598C169.833 7.3598 169.42 7.43849 169.057 7.59588C168.694 7.75326 168.38 7.97145 168.117 8.25223C167.854 8.53302 167.65 8.86746 167.511 9.25555C167.371 9.64364 167.3 10.0693 167.3 10.5307C167.3 10.9921 167.375 11.4517 167.523 11.8559C167.67 12.2601 167.877 12.6107 168.142 12.9075C168.405 13.2044 168.727 13.4315 169.107 13.5889C169.486 13.7463 169.908 13.825 170.371 13.825C170.933 13.825 171.423 13.7141 171.845 13.4906C172.267 13.267 172.642 12.9755 172.971 12.6107L174.779 14.3937C174.267 15.0537 173.608 15.558 172.798 15.905C171.99 16.2519 171.072 16.4254 170.05 16.4254C169.141 16.4254 168.319 16.2895 167.586 16.0158L167.582 16.0141Z" fill="#0086FF"/>
<path d="M176.755 13.5018V4.93343H179.825V16.2507H176.755V13.5018ZM177.745 9.09334H181.557V11.4451H177.745V9.09334ZM180.197 10.356L183.737 4.93164H186.93V5.35371L183.562 10.0841L187.771 15.8304V16.2507H184.354L180.193 10.3578L180.197 10.356Z" fill="#0086FF"/>
<path d="M189.331 4.93164H192.401V13.8971L190.272 14.0706L197.649 4.93164H200.05V16.2489H196.98V7.53203L198.613 7.33351L191.432 16.2489H189.328V4.93164H189.331Z" fill="#0086FF"/>
<path d="M203.097 4.93072H206.167V13.8962L204.037 14.0696L211.414 4.93072H213.816V16.248H210.746V7.53111L212.378 7.3326L205.198 16.248H203.093V4.93072H203.097ZM207.021 3.25853C206.567 3.11904 206.172 2.90442 205.832 2.6147C205.494 2.32497 205.226 1.96192 205.028 1.52375C204.829 1.08737 204.722 0.579454 204.706 0H206.909C206.941 0.445321 207.082 0.808375 207.329 1.08916C207.577 1.36994 207.973 1.51123 208.518 1.51123C209.029 1.51123 209.417 1.37531 209.682 1.10168C209.945 0.829836 210.095 0.461417 210.127 0H212.305C212.271 0.577666 212.151 1.08558 211.945 1.52375C211.738 1.96192 211.459 2.32497 211.103 2.6147C210.748 2.90442 210.347 3.11904 209.902 3.25853C209.457 3.39982 208.977 3.46957 208.466 3.46957C207.955 3.46957 207.472 3.39982 207.018 3.25853H207.021Z" fill="#0086FF"/>
<path d="M232.856 16.2489H223.422V6.58595C223.422 5.67205 224.163 4.93164 225.076 4.93164H226.492V13.5501H230.553V4.93164H233.623V13.5501H235.38V17.0429C235.38 17.9998 234.604 18.7759 233.648 18.7759H232.854V16.2507L232.856 16.2489Z" fill="#0086FF"/>
<path d="M239.988 16.0139C239.228 15.742 238.581 15.3486 238.044 14.8371C237.508 14.3256 237.086 13.7193 236.782 13.0165C236.476 12.3154 236.324 11.5339 236.324 10.6754C236.324 9.76866 236.48 8.94598 236.794 8.21093C237.107 7.47768 237.536 6.85351 238.082 6.34202C238.627 5.83052 239.265 5.43528 240 5.1527C240.735 4.87192 241.515 4.73242 242.341 4.73242C243.231 4.73242 244.027 4.88444 244.729 5.19026C245.43 5.49609 246.02 5.91637 246.5 6.4529C246.979 6.98943 247.345 7.61717 247.603 8.33434C247.858 9.05329 247.985 9.82411 247.985 10.6504V11.2942H238.107V9.43602H246.921L245.064 10.7487V9.88134C245.064 9.51828 244.998 9.17133 244.865 8.84225C244.733 8.51139 244.543 8.22703 244.297 7.98738C244.05 7.74773 243.753 7.55815 243.406 7.41866C243.059 7.27916 242.664 7.20762 242.217 7.20762C241.77 7.20762 241.388 7.28631 241.018 7.44369C240.646 7.60108 240.336 7.81927 240.09 8.10005C239.841 8.38084 239.644 8.72422 239.494 9.1284C239.346 9.53259 239.273 9.99043 239.273 10.5019C239.273 11.0635 239.355 11.5589 239.521 11.9881C239.686 12.4173 239.922 12.7804 240.226 13.0773C240.531 13.3742 240.9 13.6013 241.329 13.7587C241.758 13.9161 242.228 13.9947 242.739 13.9947C243.399 13.9947 244.014 13.8785 244.585 13.6478C245.153 13.4171 245.629 13.0791 246.008 12.632L247.715 14.1915C247.12 14.9176 246.373 15.472 245.473 15.8511C244.574 16.2303 243.58 16.4199 242.489 16.4199C241.581 16.4199 240.748 16.2839 239.99 16.0103L239.988 16.0139Z" fill="#0086FF"/>
<path d="M250.36 13.5V4.93164H253.43V16.2489H250.36V13.5ZM251.846 9.09155H259.521V11.7903H251.846V9.09155ZM258.134 13.5V4.93164H261.204V16.2489H258.134V13.5Z" fill="#0086FF"/>
<path d="M266.85 7.63039H263.21V4.93164H273.559V7.63039H269.918V16.2489H266.848V7.63039H266.85Z" fill="#0086FF"/>
<path d="M277.721 22.1933C276.516 22.1933 275.54 21.2168 275.54 20.0114V4.93127H278.436V8.00202L278.609 8.17549V22.1915H277.721V22.1933ZM280.628 16.1752C280.124 16.0106 279.675 15.7835 279.278 15.4938C278.881 15.2041 278.552 14.8696 278.288 14.4905C278.023 14.1113 277.842 13.6982 277.742 13.2529V10.6274H278.609C278.609 11.0906 278.679 11.5199 278.82 11.9151C278.96 12.3104 279.155 12.6448 279.402 12.9184C279.65 13.1903 279.942 13.4049 280.281 13.5623C280.619 13.7197 280.996 13.7983 281.408 13.7983C281.819 13.7983 282.175 13.7232 282.522 13.5748C282.867 13.4263 283.172 13.2117 283.437 12.931C283.702 12.6502 283.904 12.3122 284.043 11.9151C284.183 11.5181 284.254 11.0728 284.254 10.5774C284.254 10.0498 284.181 9.59194 284.032 9.20385C283.884 8.81576 283.677 8.49026 283.414 8.22557C283.149 7.96088 282.845 7.76415 282.497 7.63181C282.15 7.49946 281.787 7.43329 281.408 7.43329C280.995 7.43329 280.616 7.50841 280.269 7.65685C279.922 7.80529 279.625 8.01632 279.378 8.28816C279.13 8.56001 278.94 8.87835 278.81 9.2414C278.677 9.60446 278.611 10.0015 278.611 10.4307H277.867V7.78204C277.901 7.38501 278.037 7.00586 278.277 6.6428C278.517 6.27975 278.831 5.95783 279.219 5.67705C279.605 5.39626 280.056 5.16913 280.569 4.99565C281.08 4.82217 281.633 4.73633 282.228 4.73633C282.92 4.73633 283.585 4.88119 284.222 5.16913C284.857 5.45886 285.418 5.85947 285.904 6.37096C286.391 6.88245 286.781 7.4941 287.068 8.20411C287.356 8.91412 287.501 9.7064 287.501 10.5809C287.501 11.4555 287.356 12.2531 287.068 12.9703C286.779 13.6892 286.387 14.3027 285.892 14.8142C285.397 15.3257 284.832 15.7227 284.195 16.0035C283.559 16.2843 282.904 16.4256 282.227 16.4256C281.665 16.4256 281.132 16.3433 280.63 16.177L280.628 16.1752Z" fill="#0086FF"/>
<path d="M99.6199 40.7654C98.869 40.4846 98.2217 40.084 97.6764 39.5653C97.1311 39.0449 96.7055 38.4297 96.4016 37.7197C96.0958 37.0096 95.9438 36.2174 95.9438 35.3428C95.9438 34.4683 96.1012 33.6671 96.4141 32.941C96.727 32.2148 97.1579 31.5996 97.7014 31.0971C98.2467 30.5927 98.894 30.2011 99.6449 29.9203C100.396 29.6395 101.208 29.5 102.084 29.5C102.96 29.5 103.795 29.6395 104.548 29.9203C105.298 30.2011 105.942 30.6017 106.479 31.1203C107.015 31.6408 107.437 32.256 107.743 32.966C108.047 33.676 108.2 34.4683 108.2 35.3428C108.2 36.2174 108.043 37.0401 107.73 37.7572C107.415 38.4762 106.986 39.0896 106.443 39.6011C105.897 40.1126 105.254 40.5043 104.512 40.7779C103.77 41.0497 102.962 41.1874 102.086 41.1874C101.209 41.1874 100.374 41.0462 99.6217 40.7654H99.6199ZM103.283 38.351C103.639 38.1936 103.943 37.9718 104.201 37.6821C104.456 37.3924 104.651 37.0508 104.782 36.6538C104.914 36.2585 104.98 35.8203 104.98 35.341C104.98 34.8617 104.914 34.454 104.782 34.0659C104.649 33.6778 104.46 33.3344 104.213 33.0375C103.966 32.7406 103.664 32.5135 103.31 32.3561C102.954 32.1988 102.547 32.1201 102.084 32.1201C101.621 32.1201 101.213 32.2023 100.857 32.3687C100.503 32.5332 100.197 32.7603 99.9417 33.05C99.6861 33.3398 99.4912 33.6814 99.3589 34.0784C99.2266 34.4754 99.1622 34.8957 99.1622 35.341C99.1622 35.7864 99.2283 36.2084 99.3589 36.6037C99.4912 36.9989 99.6825 37.3459 99.9274 37.6428C100.176 37.9396 100.482 38.1721 100.845 38.3367C101.208 38.503 101.621 38.5853 102.082 38.5853C102.543 38.5853 102.928 38.5066 103.282 38.3492L103.283 38.351Z" fill="#0086FF"/>
<path d="M113.361 40.7797C112.626 40.5078 112.002 40.1144 111.49 39.6029C110.979 39.0914 110.578 38.4762 110.291 37.759C110.001 37.0401 109.858 36.2531 109.858 35.3929C109.858 34.4683 110.01 33.6384 110.316 32.9052C110.62 32.1701 111.042 31.5549 111.578 31.0595C112.114 30.5641 112.742 30.1796 113.459 29.9078C114.178 29.6359 114.964 29.5 115.824 29.5C116.286 29.5 116.742 29.5447 117.187 29.6359C117.632 29.7271 118.045 29.847 118.424 29.9954C118.803 30.1438 119.15 30.3263 119.463 30.5409C119.776 30.7555 120.049 30.9862 120.28 31.2348L118.696 33.3398C118.351 32.9767 117.963 32.6834 117.534 32.4599C117.103 32.2381 116.616 32.1254 116.073 32.1254C115.61 32.1254 115.197 32.2041 114.834 32.3615C114.471 32.5189 114.156 32.7371 113.893 33.0179C113.629 33.2986 113.427 33.6331 113.287 34.0212C113.148 34.4093 113.076 34.8349 113.076 35.2963C113.076 35.7577 113.15 36.2174 113.298 36.6216C113.446 37.0257 113.654 37.3763 113.917 37.6732C114.181 37.97 114.503 38.1972 114.882 38.3546C115.261 38.5119 115.683 38.5906 116.146 38.5906C116.708 38.5906 117.198 38.4797 117.619 38.2562C118.041 38.0326 118.417 37.7411 118.746 37.3763L120.554 39.1593C120.042 39.8193 119.382 40.3236 118.572 40.6706C117.764 41.0175 116.847 41.191 115.823 41.191C114.914 41.191 114.094 41.0551 113.361 40.7815V40.7797Z" fill="#0086FF"/>
<path d="M124.63 29.6973H133.178V38.9167C133.178 40.0756 132.24 41.0145 131.081 41.0145H130.108V32.396H125.603V41.0145H122.533V31.7951C122.533 30.6362 123.471 29.6973 124.63 29.6973Z" fill="#0086FF"/>
<path d="M82.1715 54.4609H90.7198V63.6803C90.7198 64.8392 89.7811 65.7782 88.6225 65.7782H87.6498V57.1597H83.1442V65.7782H80.0742V56.5588C80.0742 55.3999 81.0129 54.4609 82.1715 54.4609Z" fill="#0086FF"/>
<path d="M136.25 29.6973H139.32V38.6627L137.191 38.8362L144.568 29.6973H146.969V41.0145H143.899V32.2977L145.531 32.0991L138.351 41.0145H136.247V29.6973H136.25Z" fill="#0086FF"/>
<path d="M152.615 32.396H148.975V29.6973H159.324V32.396H155.684V41.0145H152.614V32.396H152.615Z" fill="#0086FF"/>
<path d="M162.891 40.9638C162.38 40.7653 161.951 40.5024 161.604 40.1715C161.257 39.8406 160.994 39.4579 160.812 39.0197C160.629 38.5834 160.538 38.1166 160.538 37.6194C160.538 37.1222 160.626 36.6375 160.797 36.2083C160.971 35.7791 161.219 35.4125 161.541 35.1066C161.863 34.8008 162.246 34.5665 162.693 34.4002C163.138 34.2357 163.624 34.1516 164.153 34.1516C164.468 34.1516 164.759 34.1802 165.033 34.2375C165.307 34.2947 165.557 34.3537 165.789 34.4109C166.02 34.4682 166.251 34.5272 166.483 34.5844C166.714 34.6416 166.953 34.6703 167.2 34.6703C167.645 34.6703 167.976 34.5755 168.191 34.3859C168.405 34.1963 168.512 33.9441 168.512 33.6312C168.512 33.3826 168.459 33.1644 168.351 32.9748C168.244 32.7852 168.087 32.6207 167.881 32.4794C167.674 32.3399 167.427 32.2326 167.137 32.1575C166.848 32.0824 166.531 32.0448 166.184 32.0448C165.459 32.0448 164.876 32.1986 164.439 32.5027C164.001 32.8085 163.717 33.2413 163.585 33.8029L160.937 33.134C161.101 32.5724 161.337 32.0681 161.643 31.6228C161.947 31.1774 162.331 30.7983 162.794 30.4835C163.256 30.1705 163.781 29.9345 164.368 29.7771C164.953 29.6197 165.609 29.541 166.336 29.541C167.064 29.541 167.769 29.6358 168.403 29.8254C169.038 30.015 169.587 30.3118 170.05 30.716C170.511 31.122 170.874 31.6371 171.139 32.263C171.402 32.8908 171.534 33.6419 171.534 34.5165V41.0049H168.564V37.7356L168.886 37.4888C168.886 38.0164 168.788 38.5118 168.589 38.975C168.393 39.4382 168.11 39.8335 167.747 40.1643C167.384 40.4952 166.939 40.7581 166.41 40.9566C165.882 41.1551 165.287 41.2535 164.627 41.2535C163.967 41.2535 163.404 41.1551 162.893 40.9566L162.891 40.9638ZM166.803 38.4993C167.166 38.3759 167.475 38.1988 167.731 37.9663C167.987 37.7356 168.182 37.462 168.312 37.149C168.444 36.8361 168.511 36.498 168.511 36.1332V34.5486L168.857 35.044C168.659 35.5233 168.4 35.8685 168.078 36.0831C167.754 36.2977 167.388 36.405 166.975 36.405C166.826 36.405 166.669 36.3925 166.505 36.3675C166.338 36.3424 166.174 36.3138 166.009 36.2816C165.845 36.2477 165.678 36.219 165.514 36.194C165.348 36.169 165.183 36.1565 165.019 36.1565C164.54 36.1565 164.186 36.2638 163.955 36.4784C163.722 36.693 163.608 36.9648 163.608 37.2957C163.608 37.6748 163.76 38.0021 164.066 38.274C164.37 38.5458 164.877 38.6835 165.587 38.6835C166.032 38.6835 166.437 38.6209 166.801 38.4975L166.803 38.4993Z" fill="#0086FF"/>
<path d="M177.002 32.396H173.361V29.6973H183.71V32.396H180.07V41.0145H177V32.396H177.002Z" fill="#0086FF"/>
<path d="M188.242 40.7795C187.482 40.5077 186.835 40.1142 186.299 39.6027C185.762 39.0912 185.34 38.485 185.036 37.7821C184.731 37.081 184.579 36.2995 184.579 35.441C184.579 34.5343 184.734 33.7116 185.049 32.9766C185.362 32.2433 185.791 31.6191 186.336 31.1076C186.882 30.5961 187.52 30.2009 188.255 29.9183C188.99 29.6375 189.769 29.498 190.595 29.498C191.486 29.498 192.281 29.6501 192.984 29.9559C193.685 30.2617 194.275 30.682 194.754 31.2185C195.233 31.7551 195.6 32.3828 195.857 33.1C196.113 33.8189 196.24 34.5897 196.24 35.416V36.0598H186.361V34.2016H195.176L193.318 35.5144V34.647C193.318 34.2839 193.252 33.937 193.12 33.6079C192.987 33.277 192.798 32.9927 192.551 32.753C192.304 32.5134 192.008 32.3238 191.661 32.1843C191.314 32.0448 190.919 31.9732 190.472 31.9732C190.025 31.9732 189.642 32.0519 189.272 32.2093C188.9 32.3667 188.591 32.5849 188.344 32.8657C188.096 33.1465 187.899 33.4898 187.749 33.894C187.6 34.2982 187.527 34.7561 187.527 35.2675C187.527 35.8291 187.609 36.3245 187.775 36.7537C187.94 37.183 188.176 37.546 188.48 37.8429C188.786 38.1398 189.154 38.3669 189.583 38.5243C190.012 38.6817 190.482 38.7604 190.994 38.7604C191.654 38.7604 192.269 38.6441 192.839 38.4134C193.408 38.1827 193.883 37.8447 194.262 37.3976L195.97 38.9571C195.374 39.6832 194.627 40.2376 193.728 40.6168C192.828 40.9959 191.834 41.1855 190.744 41.1855C189.835 41.1855 189.002 41.0496 188.244 40.7759L188.242 40.7795Z" fill="#0086FF"/>
<path d="M197.663 41.2379C197.524 41.2218 197.404 41.2039 197.304 41.1878V38.2405C197.37 38.2566 197.436 38.2691 197.502 38.278C197.568 38.287 197.634 38.2905 197.699 38.2905C197.98 38.2905 198.216 38.1832 198.405 37.9686C198.595 37.754 198.756 37.4106 198.888 36.9403C199.02 36.4699 199.113 35.8601 199.172 35.1071C199.229 34.356 199.26 33.4349 199.26 32.3458V31.5946C199.26 30.5448 200.111 29.6953 201.159 29.6953H207.849V39.1132C207.849 40.163 206.998 41.0125 205.95 41.0125H204.779V32.3941H202.079V33.7318C202.079 35.1518 201.994 36.3447 201.82 37.3105C201.647 38.2762 201.391 39.0488 201.053 39.6265C200.715 40.2042 200.306 40.6209 199.827 40.8766C199.347 41.1324 198.788 41.2611 198.142 41.2611C197.962 41.2611 197.801 41.2522 197.66 41.2361L197.663 41.2379Z" fill="#0086FF"/>
<path d="M210.921 29.6973H213.991V32.9665H215.997C217.597 32.9665 218.815 33.2974 219.65 33.9573C220.483 34.619 220.9 35.617 220.9 36.9548C220.9 38.2925 220.465 39.2833 219.6 39.9754C218.733 40.6693 217.449 41.0145 215.75 41.0145H210.923V29.6973H210.921ZM216.43 38.5393C216.719 38.4892 216.957 38.4034 217.148 38.28C217.338 38.1566 217.486 37.9867 217.594 37.7721C217.701 37.5575 217.754 37.2856 217.754 36.9548C217.754 36.6239 217.708 36.3842 217.619 36.1875C217.527 35.989 217.388 35.8245 217.198 35.6921C217.009 35.5598 216.782 35.4686 216.517 35.4203C216.253 35.3702 215.931 35.3452 215.552 35.3452H213.993V38.6144H215.453C215.816 38.6144 216.142 38.5894 216.431 38.5393H216.43Z" fill="#0086FF"/>
<path d="M222.952 38.2657V29.6973H226.022V41.0145H222.952V38.2657ZM224.438 33.8572H232.114V36.5559H224.438V33.8572ZM230.726 38.2657V29.6973H233.796V41.0145H230.726V38.2657Z" fill="#0086FF"/>
<path d="M245.273 33.9554C246.106 34.6171 246.523 35.615 246.523 36.9528C246.523 38.2905 246.09 39.2813 245.223 39.9735C244.356 40.6674 243.072 41.0125 241.373 41.0125H236.843V29.6953H239.913V32.9646H241.62C243.22 32.9646 244.438 33.2954 245.273 33.9554ZM242.005 38.5374C242.294 38.4873 242.541 38.4014 242.748 38.278C242.954 38.1546 243.111 37.9847 243.219 37.7701C243.326 37.5555 243.38 37.2837 243.38 36.9528C243.38 36.3429 243.194 35.9209 242.822 35.6902C242.45 35.4594 241.894 35.3432 241.152 35.3432H239.914V38.6125H241.053C241.4 38.6125 241.717 38.5874 242.006 38.5374H242.005ZM247.613 29.6953H250.683V41.0125H247.613V29.6953Z" fill="#0086FF"/>
<path d="M252.538 40.4459L256.797 34.0308L256.822 36.0625L252.836 30.2679V29.6992H256.055L259.026 34.0827H257.615L260.414 29.6992H263.335V30.2679L259.521 36.0142L259.273 33.9342L263.68 40.4728L263.705 41.0182H260.56L257.267 36.0893H258.803L255.534 41.0182H252.539V40.4495L252.538 40.4459Z" fill="#0086FF"/>
<path d="M109.808 65.7313C109.295 65.5328 108.866 65.2699 108.521 64.9391C108.174 64.6082 107.909 64.2255 107.727 63.7873C107.546 63.3509 107.455 62.8842 107.455 62.387C107.455 61.8898 107.543 61.4051 107.714 60.9759C107.888 60.5467 108.135 60.18 108.458 59.8742C108.78 59.5684 109.163 59.3341 109.61 59.1678C110.055 59.0032 110.541 58.9192 111.07 58.9192C111.383 58.9192 111.676 58.9478 111.95 59.005C112.222 59.0623 112.474 59.1213 112.705 59.1785C112.935 59.2357 113.166 59.2948 113.398 59.352C113.629 59.4092 113.869 59.4378 114.115 59.4378C114.56 59.4378 114.891 59.343 115.106 59.1535C115.32 58.9639 115.428 58.7117 115.428 58.3988C115.428 58.1502 115.374 57.932 115.267 57.7424C115.159 57.5528 115.002 57.3883 114.796 57.247C114.589 57.1075 114.342 57.0002 114.053 56.9251C113.763 56.85 113.447 56.8124 113.1 56.8124C112.374 56.8124 111.791 56.9662 111.355 57.2702C110.917 57.5761 110.632 58.0089 110.5 58.5704L107.852 57.9016C108.017 57.34 108.253 56.8357 108.556 56.3903C108.862 55.945 109.245 55.5659 109.708 55.2511C110.169 54.9381 110.693 54.7021 111.28 54.5447C111.866 54.3873 112.522 54.3086 113.248 54.3086C113.974 54.3086 114.68 54.4034 115.315 54.593C115.95 54.7825 116.499 55.0794 116.962 55.4836C117.423 55.8896 117.786 56.4046 118.051 57.0306C118.313 57.6583 118.446 58.4095 118.446 59.284V65.7725H115.476V62.5032L115.798 62.2564C115.798 62.784 115.699 63.2794 115.501 63.7426C115.304 64.2058 115.022 64.6011 114.659 64.9319C114.296 65.2628 113.851 65.5257 113.321 65.7242C112.794 65.9227 112.2 66.0211 111.539 66.0211C110.877 66.0211 110.318 65.9227 109.806 65.7242L109.808 65.7313ZM113.72 63.2669C114.083 63.1435 114.392 62.9664 114.648 62.7339C114.904 62.5032 115.099 62.2296 115.229 61.9166C115.361 61.6036 115.428 61.2656 115.428 60.9008V59.3162L115.774 59.8116C115.576 60.2909 115.317 60.6361 114.995 60.8507C114.671 61.0653 114.305 61.1726 113.892 61.1726C113.743 61.1726 113.586 61.1601 113.422 61.1351C113.255 61.11 113.091 61.0814 112.926 61.0492C112.762 61.0152 112.595 60.9866 112.431 60.9616C112.265 60.9365 112.1 60.924 111.936 60.924C111.457 60.924 111.101 61.0313 110.87 61.2459C110.639 61.4606 110.525 61.7324 110.525 62.0633C110.525 62.4424 110.677 62.7697 110.983 63.0415C111.287 63.3134 111.794 63.4511 112.504 63.4511C112.949 63.4511 113.354 63.3885 113.718 63.2651L113.72 63.2669Z" fill="#0086FF"/>
<path d="M121.321 63.0292V54.4608H124.391V65.778H121.321V63.0292ZM122.311 58.6207H126.123V60.9725H122.311V58.6207ZM124.763 59.8833L128.303 54.459H131.496V54.8811L128.128 59.6115L132.336 65.3577V65.778H128.92L124.759 59.8851L124.763 59.8833Z" fill="#0086FF"/>
<path d="M136.499 57.1616H132.858V54.4629H143.207V57.1616H139.567V65.7801H136.497V57.1616H136.499Z" fill="#0086FF"/>
<path d="M145.186 54.4609H148.256V63.4264L146.127 63.5999L153.504 54.4609H155.905V65.7782H152.835V57.0613L154.468 56.8628L147.287 65.7782H145.183V54.4609H145.186Z" fill="#0086FF"/>
<path d="M158.952 63.0292V54.4608H162.022V65.778H158.952V63.0292ZM159.943 58.6207H163.755V60.9725H159.943V58.6207ZM162.394 59.8833L165.934 54.459H169.127V54.8811L165.759 59.6115L169.968 65.3577V65.778H166.551L162.39 59.8851L162.394 59.8833Z" fill="#0086FF"/>
<path d="M95.9709 71.7226C94.7658 71.7226 93.7896 70.7461 93.7896 69.5407V54.4624H96.6861V57.5331L96.8595 57.7066V71.7226H95.9709ZM98.8781 65.7045C98.3739 65.5399 97.9251 65.3128 97.5282 65.0231C97.1313 64.7334 96.8023 64.3989 96.5377 64.0198C96.273 63.6406 96.0925 63.2275 95.9923 62.7822V60.1567H96.8595C96.8595 60.6199 96.9292 61.0492 97.0705 61.4444C97.2099 61.8397 97.4048 62.1741 97.6516 62.4477C97.9001 62.7196 98.1915 62.9342 98.5312 63.0916C98.8692 63.249 99.2464 63.3276 99.6577 63.3276C100.069 63.3276 100.425 63.2525 100.772 63.1041C101.117 62.9556 101.422 62.741 101.687 62.4602C101.952 62.1795 102.154 61.8415 102.293 61.4444C102.433 61.0492 102.504 60.6021 102.504 60.1067C102.504 59.5791 102.431 59.1212 102.282 58.7331C102.134 58.3451 101.927 58.0196 101.664 57.7549C101.399 57.4902 101.095 57.2935 100.747 57.1611C100.4 57.0288 100.037 56.9626 99.6577 56.9626C99.2446 56.9626 98.8656 57.0377 98.5187 57.1861C98.1719 57.3346 97.8751 57.5456 97.6283 57.8175C97.3798 58.0893 97.1903 58.4076 97.0597 58.7707C96.9274 59.1338 96.8613 59.5308 96.8613 59.96H96.1175V57.3113C96.1515 56.9143 96.2873 56.5352 96.5269 56.1721C96.7665 55.809 97.0812 55.4871 97.4692 55.2063C97.8554 54.9256 98.306 54.6984 98.8191 54.525C99.3305 54.3515 99.8829 54.2656 100.478 54.2656C101.17 54.2656 101.835 54.4105 102.472 54.6984C103.107 54.9882 103.668 55.3888 104.154 55.9003C104.641 56.4118 105.03 57.0234 105.318 57.7334C105.606 58.4434 105.751 59.2357 105.751 60.1102C105.751 60.9848 105.606 61.7824 105.318 62.4996C105.029 63.2185 104.637 63.832 104.142 64.3435C103.647 64.855 103.082 65.252 102.445 65.5328C101.809 65.8136 101.154 65.9549 100.477 65.9549C99.9151 65.9549 99.3823 65.8726 98.8799 65.7063L98.8781 65.7045Z" fill="#0086FF"/>
<path d="M235.555 58.0762C235.01 58.0762 234.593 58.2568 234.311 58.6181C234.027 58.9793 233.885 59.4264 233.885 59.9594C233.885 60.2116 233.919 60.4512 233.989 60.6819C234.057 60.9126 234.162 61.1147 234.304 61.2864C234.445 61.4599 234.622 61.594 234.831 61.6942C235.04 61.7943 235.283 61.8444 235.555 61.8444C236.092 61.8444 236.501 61.6656 236.785 61.3097C237.068 60.9538 237.211 60.5049 237.211 59.9594C237.211 59.4139 237.071 58.9775 236.792 58.6181C236.514 58.2568 236.102 58.0762 235.555 58.0762Z" fill="#FF3333"/>
<path d="M244.667 61.8461C245.139 61.8461 245.534 61.6798 245.849 61.3507C246.163 61.0216 246.321 60.562 246.321 59.9772C246.321 59.6624 246.276 59.3906 246.187 59.1599C246.097 58.9309 245.976 58.7396 245.824 58.5876C245.67 58.4355 245.495 58.3229 245.296 58.2496C245.098 58.1762 244.892 58.1387 244.681 58.1387C244.218 58.1387 243.841 58.2907 243.546 58.5947C243.251 58.897 243.093 59.3012 243.074 59.8037V59.9915C243.084 60.5781 243.24 61.0342 243.539 61.3579C243.839 61.6816 244.214 61.8443 244.667 61.8443V61.8461Z" fill="#FF3333"/>
<path d="M281.508 53.2031H189.193C185.608 53.2031 182.701 56.1093 182.701 59.6952C182.701 63.281 185.607 66.189 189.193 66.189H240.851V56.3275H242.947V57.211C243.199 56.907 243.53 56.662 243.939 56.4778C244.348 56.2935 244.806 56.2023 245.31 56.2023C245.752 56.2023 246.174 56.2935 246.58 56.4778C246.984 56.6602 247.341 56.9177 247.651 57.2504C247.96 57.5812 248.21 57.9765 248.4 58.4325C248.589 58.8904 248.684 59.3983 248.684 59.9545C248.684 60.5107 248.589 61.0222 248.4 61.4836C248.21 61.9468 247.958 62.342 247.644 62.6729C247.329 63.0038 246.968 63.2613 246.564 63.4455C246.16 63.6297 245.741 63.7209 245.312 63.7209C244.86 63.7209 244.441 63.6422 244.059 63.4849C243.676 63.3275 243.347 63.1129 243.074 62.8392V66.189H281.508C285.093 66.189 288 63.2828 288 59.6952C288 56.1093 285.094 53.2031 281.508 53.2031ZM220.788 63.3901C220.252 63.6118 219.653 63.7209 218.992 63.7209C218.403 63.7209 217.872 63.6351 217.4 63.4616C216.928 63.2881 216.526 63.0377 216.193 62.7122C215.863 62.3868 215.605 61.9951 215.421 61.5372C215.237 61.0812 215.146 60.5679 215.146 60.001C215.146 59.4018 215.242 58.8671 215.437 58.3932C215.632 57.921 215.902 57.524 216.249 57.2039C216.596 56.8837 217.003 56.6369 217.47 56.4634C217.938 56.29 218.444 56.2041 218.992 56.2041C219.632 56.2041 220.207 56.3114 220.717 56.526C221.226 56.7424 221.618 57.0071 221.892 57.3219L220.772 58.8027C220.563 58.5935 220.331 58.42 220.079 58.2841C219.826 58.1482 219.531 58.0784 219.197 58.0784C218.65 58.0784 218.23 58.2573 217.937 58.6131C217.642 58.969 217.495 59.409 217.495 59.9312C217.495 60.4856 217.651 60.9435 217.96 61.3047C218.269 61.666 218.698 61.8466 219.244 61.8466C219.569 61.8466 219.855 61.7787 220.102 61.6428C220.349 61.5068 220.577 61.328 220.788 61.108L222.081 62.3903C221.756 62.8339 221.325 63.1665 220.788 63.3901ZM230.245 63.6118H228.022V58.268H225.342V63.6118H223.12V56.3275H230.245V63.6118ZM239.253 61.5319C239.047 61.9951 238.766 62.3885 238.409 62.714C238.051 63.0395 237.629 63.2881 237.139 63.4634C236.649 63.6387 236.122 63.7227 235.555 63.7227C234.988 63.7227 234.425 63.6333 233.932 63.4544C233.438 63.2756 233.013 63.0216 232.655 62.689C232.298 62.3581 232.022 61.9647 231.827 61.5068C231.632 61.0508 231.536 60.5375 231.536 59.9706C231.536 59.4036 231.638 58.8689 231.843 58.4021C232.047 57.9353 232.33 57.5383 232.686 57.2128C233.043 56.8873 233.465 56.6387 233.955 56.4634C234.443 56.29 234.978 56.2041 235.555 56.2041C236.133 56.2041 236.685 56.2935 237.179 56.4724C237.672 56.6512 238.096 56.9052 238.448 57.2378C238.8 57.5687 239.074 57.9657 239.267 58.4272C239.462 58.8904 239.558 59.4036 239.558 59.9724C239.558 60.5411 239.455 61.0705 239.251 61.5337L239.253 61.5319ZM255.999 58.268H253.667V63.6118H251.445V58.268H249.112V56.3275H255.999V58.268Z" fill="#FF3333"/>
<path d="M220.102 61.6437C219.855 61.7796 219.569 61.8476 219.244 61.8476C218.696 61.8476 218.269 61.667 217.96 61.3057C217.649 60.9444 217.495 60.4884 217.495 59.9322C217.495 59.41 217.642 58.97 217.937 58.6141C218.23 58.2582 218.65 58.0794 219.197 58.0794C219.533 58.0794 219.828 58.1473 220.078 58.285C220.331 58.421 220.563 58.5926 220.772 58.8037L221.891 57.3229C221.618 57.0081 221.226 56.7434 220.717 56.527C220.207 56.3106 219.632 56.2051 218.991 56.2051C218.444 56.2051 217.938 56.2909 217.47 56.4644C217.003 56.6379 216.596 56.8847 216.249 57.2048C215.902 57.5249 215.632 57.922 215.437 58.3941C215.242 58.8681 215.146 59.4028 215.146 60.0019C215.146 60.5707 215.237 61.0821 215.421 61.5382C215.603 61.996 215.862 62.3877 216.193 62.7132C216.524 63.0387 216.926 63.2873 217.4 63.4626C217.874 63.6378 218.403 63.7219 218.991 63.7219C219.653 63.7219 220.252 63.611 220.788 63.391C221.323 63.1693 221.754 62.8366 222.081 62.3913L220.788 61.109C220.577 61.3289 220.348 61.506 220.102 61.6437Z" fill="white"/>
<path d="M223.12 63.6124H225.343V58.2686H228.023V63.6124H230.245V56.3281H223.12V63.6124Z" fill="white"/>
<path d="M238.448 57.2349C238.096 56.904 237.674 56.6483 237.178 56.4694C236.685 56.2906 236.143 56.2012 235.555 56.2012C234.967 56.2012 234.445 56.287 233.955 56.4605C233.467 56.634 233.043 56.8844 232.685 57.2099C232.328 57.5353 232.047 57.9324 231.843 58.3992C231.638 58.8677 231.536 59.39 231.536 59.9676C231.536 60.5453 231.632 61.0478 231.827 61.5039C232.022 61.9617 232.297 62.3552 232.655 62.686C233.013 63.0169 233.438 63.2727 233.932 63.4515C234.425 63.6303 234.967 63.7198 235.555 63.7198C236.143 63.7198 236.651 63.6339 237.139 63.4604C237.627 63.287 238.051 63.0366 238.409 62.7111C238.766 62.3856 239.047 61.9921 239.253 61.5289C239.456 61.0657 239.56 60.5453 239.56 59.9676C239.56 59.39 239.463 58.8856 239.269 58.4224C239.074 57.9592 238.8 57.5622 238.45 57.2331L238.448 57.2349ZM236.785 61.3125C236.501 61.6684 236.091 61.8473 235.555 61.8473C235.281 61.8473 235.04 61.7972 234.831 61.697C234.622 61.5969 234.445 61.461 234.303 61.2893C234.162 61.1158 234.057 60.9155 233.989 60.6848C233.921 60.4559 233.885 60.2144 233.885 59.9623C233.885 59.4293 234.028 58.9804 234.311 58.6209C234.593 58.2597 235.01 58.079 235.555 58.079C236.1 58.079 236.515 58.2597 236.792 58.6209C237.071 58.9822 237.211 59.4293 237.211 59.9623C237.211 60.4952 237.068 60.9566 236.785 61.3125Z" fill="white"/>
<path d="M244.059 63.4856C244.441 63.643 244.86 63.7217 245.312 63.7217C245.764 63.7217 246.16 63.6305 246.564 63.4463C246.968 63.2639 247.329 63.0063 247.644 62.6737C247.958 62.341 248.212 61.9458 248.4 61.4844C248.589 61.0212 248.684 60.5115 248.684 59.9553C248.684 59.3991 248.589 58.8911 248.4 58.4333C248.21 57.9773 247.96 57.582 247.651 57.2512C247.34 56.9203 246.984 56.6628 246.58 56.4785C246.176 56.2943 245.752 56.2031 245.31 56.2031C244.804 56.2031 244.348 56.2943 243.939 56.4785C243.529 56.661 243.199 56.906 242.947 57.2118V56.3283H240.851V66.1898H243.074V62.84C243.347 63.1137 243.674 63.3283 244.059 63.4856ZM243.074 59.8068C243.095 59.3043 243.252 58.9001 243.546 58.5978C243.841 58.2938 244.218 58.1418 244.681 58.1418C244.892 58.1418 245.096 58.1776 245.296 58.2527C245.494 58.326 245.671 58.4387 245.823 58.5907C245.975 58.7427 246.097 58.9341 246.186 59.163C246.276 59.3937 246.32 59.6655 246.32 59.9803C246.32 60.5651 246.163 61.0248 245.848 61.3538C245.534 61.6829 245.139 61.8492 244.667 61.8492C244.195 61.8492 243.839 61.6865 243.538 61.3628C243.24 61.0391 243.084 60.583 243.074 59.9964V59.8086V59.8068Z" fill="white"/>
<path d="M249.11 58.2686H251.443V63.6124H253.666V58.2686H255.999V56.3281H249.11V58.2686Z" fill="white"/>
<path d="M45.6555 30.224C47.1663 28.4481 47.5346 25.3756 47.5615 23.4727H44.0553V30.478C44.0553 30.7945 44.0302 31.1075 43.9927 31.4169C44.6346 31.1719 45.1852 30.7766 45.6555 30.224Z" fill="#FF3333"/>
<path d="M39.5783 53.6453C39.5783 53.2536 39.26 52.9335 38.8667 52.9335H37.6723C36.9678 52.9335 36.3975 52.363 36.3975 51.6584V50.2759C36.3975 49.827 36.0327 49.4604 35.5822 49.4604H35.3908C34.6864 49.4604 34.116 48.8899 34.116 48.1852V41.0869C34.116 40.0675 34.5702 39.0695 35.3605 38.3488C35.364 38.3488 35.3622 38.3488 35.3658 38.3434L39.9126 34.18C40.9246 33.2535 41.5039 31.9051 41.5039 30.4779V20.0781H24.1606V30.4779C24.1606 31.9033 24.7399 33.2535 25.7519 34.18L30.2987 38.3434C30.2987 38.3434 30.3434 38.3828 30.3506 38.3899C31.1552 39.1 31.6182 40.1051 31.6182 41.1441V48.187C31.6182 48.8916 31.0479 49.4622 30.3434 49.4622H30.1521C29.7033 49.4622 29.3368 49.827 29.3368 50.2777V50.4995L39.5783 60.7436V53.6489V53.6453Z" fill="#FF3333"/>
<path d="M66.0903 45.5192L63.723 8.05317C63.4405 5.13444 61.1305 2.82557 58.2125 2.54121L20.7583 0.173317C18.2837 0.0177225 15.8592 0.931615 14.107 2.68607L1.53944 15.257C-0.513146 17.3101 -0.513146 20.6366 1.53944 22.6898L27.3201 48.4772C27.7278 47.837 28.3392 47.3362 29.0687 47.0876V41.1411C29.0687 40.8335 28.9221 40.5276 28.6646 40.3005L28.6021 40.2451L24.032 36.0619C23.4509 35.529 22.9628 34.9066 22.5802 34.2216C20.7529 34.0302 19.2331 33.2451 18.0674 31.8752C15.1119 28.402 15.5732 22.3464 15.5946 22.0906C15.6483 21.4289 16.2025 20.9192 16.8659 20.9192H21.6093V18.7999C21.6093 18.0953 22.1797 17.5247 22.8842 17.5247H42.777C43.4815 17.5247 44.0519 18.0953 44.0519 18.7999V20.9192H48.7971C49.4605 20.9192 50.0129 21.4289 50.0684 22.0906C50.0898 22.3464 50.5511 28.4002 47.5956 31.8752C46.4299 33.2451 44.9101 34.0285 43.0828 34.2216C42.7002 34.9048 42.2138 35.529 41.6327 36.0619L37.0877 40.2218C37.0877 40.2218 37.077 40.2325 37.0717 40.2379C36.7963 40.508 36.6658 40.7941 36.6658 41.0856V47.0876C37.9907 47.5401 38.9472 48.7974 38.9472 50.2746V50.3837C40.7084 50.4266 42.128 51.8735 42.128 53.6458V63.2927L43.5781 64.7431C45.6306 66.7962 48.9562 66.7962 51.0088 64.7431L63.5764 52.1722C65.3304 50.4177 66.2459 47.9944 66.0885 45.5192H66.0903Z" fill="#FF3333"/>
<path d="M21.6113 23.4727H18.1123C18.1338 25.177 18.4091 28.3426 20.0147 30.2276C20.4849 30.7784 21.0338 31.1719 21.6739 31.4169C21.6364 31.1075 21.6113 30.7945 21.6113 30.478V23.4727Z" fill="#FF3333"/>
<path d="M38.949 50.3844V50.2753C38.949 48.798 37.9924 47.539 36.6676 47.0883V41.0863C36.6676 40.7965 36.7981 40.5086 37.0734 40.2386C37.0788 40.2332 37.0842 40.2278 37.0895 40.2225L41.6345 36.0626C42.2156 35.5296 42.7037 34.9072 43.0846 34.2222C44.9119 34.0309 46.4316 33.2458 47.5974 31.8758C50.5529 28.4009 50.0916 22.347 50.0701 22.0913C50.0165 21.4296 49.4622 20.9198 48.7989 20.9198H44.0536V18.8005C44.0536 18.0959 43.4833 17.5254 42.7788 17.5254H22.8859C22.1815 17.5254 21.6111 18.0959 21.6111 18.8005V20.9198H16.8677C16.2043 20.9198 15.6518 21.4296 15.5964 22.0913C15.575 22.347 15.1137 28.4027 18.0692 31.8758C19.2349 33.2458 20.7529 34.0291 22.582 34.2222C22.9646 34.9054 23.4509 35.5296 24.0338 36.0626L28.6038 40.2457L28.6664 40.3011C28.9239 40.5283 29.0705 40.8341 29.0705 41.1417V47.0883C28.3392 47.3369 27.7295 47.8376 27.3219 48.4779L29.3405 50.497V50.2753C29.3405 49.8264 29.7052 49.4597 30.1558 49.4597H30.3471C31.0516 49.4597 31.6219 48.8892 31.6219 48.1846V41.1417C31.6219 40.1026 31.1606 39.0993 30.3543 38.3875C30.3489 38.3822 30.3096 38.3464 30.3024 38.341L25.7556 34.1775C24.7436 33.2511 24.1643 31.9026 24.1643 30.4755V20.0757H41.5076V30.4755C41.5076 31.9009 40.9283 33.2511 39.9163 34.1775L35.3695 38.341C35.3695 38.341 35.3659 38.3446 35.3641 38.3464C34.5739 39.0671 34.1197 40.0651 34.1197 41.0845V48.1828C34.1197 48.8874 34.6901 49.458 35.3945 49.458H35.5858C36.0346 49.458 36.4012 49.8228 36.4012 50.2735V51.6559C36.4012 52.3606 36.9715 52.9311 37.676 52.9311H38.8703C39.2619 52.9311 39.5819 53.2494 39.5819 53.6429V60.7376L42.1334 63.2897V53.6429C42.1334 51.8706 40.7137 50.4237 38.9526 50.3808L38.949 50.3844ZM44.0554 30.479V23.4737H47.5616C47.5348 25.3748 47.1665 28.4492 45.6557 30.2251C45.1854 30.7777 44.6347 31.173 43.9929 31.418C44.0304 31.1086 44.0554 30.7956 44.0554 30.479ZM20.0145 30.2287C18.4071 28.3436 18.1335 25.1781 18.1121 23.4737H21.6111V30.479C21.6111 30.7956 21.6361 31.1086 21.6737 31.418C21.0336 31.173 20.4847 30.7795 20.0145 30.2287Z" fill="white"/>
</svg>
